<svg width="15.000000" height="16.000000" viewBox="0 0 15 16" fill="none" xmlns="http://www.w3.org/2000/svg" xmlns:xlink="http://www.w3.org/1999/xlink">
	<desc>
			Created with Pixso.
	</desc>
	<defs/>
	<path id="Arrow 1" d="M11.58 1.99L6 1.99C5.43 1.99 5 1.55 5 0.99C5 0.43 5.43 -3.06e-5 6 -3.06e-5L14 -3.06e-5C14.56 -3.06e-5 15 0.43 15 0.99L15 8.99C15 9.55 14.56 9.99 14 9.99C13.43 9.99 13 9.55 13 8.99L13 3.41L1.7 14.7C1.31 15.1 0.68 15.1 0.29 14.7C-0.11 14.31 -0.11 13.68 0.29 13.29L11.58 1.99Z" fill="#FFFFFF" fill-opacity="1.000000" fill-rule="evenodd"/>
</svg>