<svg width="72.000000" height="71.000000" viewBox="0 0 72 71" fill="none" xmlns="http://www.w3.org/2000/svg" xmlns:xlink="http://www.w3.org/1999/xlink">
	<desc>
			Created with Pixso.
	</desc>
	<defs>
		<clipPath id="clip25_60">
			<rect id="svg-gobbler (3) 1" width="71.344437" height="71.344437" transform="translate(0.000000 -0.586914)" fill="white" fill-opacity="0"/>
		</clipPath>
	</defs>
	<rect id="svg-gobbler (3) 1" width="71.344437" height="71.344437" transform="translate(0.000000 -0.586914)" fill="#FFFFFF" fill-opacity="0"/>
	<g clip-path="url(#clip25_60)">
		<path id="Vector" d="M63.55 10.12L63.55 62.23C63.55 63.6 62.44 64.7 61.07 64.7L10.97 64.7C9.6 64.7 8.49 63.6 8.49 62.23L8.49 58.98C7.16 58.98 5.95 58.44 5.07 57.56C4.19 56.69 3.65 55.47 3.65 54.14L8.49 54.14L8.49 10.12C8.49 8.75 9.6 7.64 10.97 7.64L61.07 7.64C62.44 7.64 63.55 8.75 63.55 10.12Z" fill="#FFFFFF" fill-opacity="1.000000" fill-rule="nonzero"/>
		<path id="Vector 7" d="M4.57 53.83C4.87 55.36 6.12 58.4 8.68 58.4L58.85 58.4C59.07 58.43 59.27 58.43 59.45 58.4L58.85 58.4C57.49 58.26 55.36 57.14 54.42 53.37L4.57 53.83Z" fill="#38BFF2" fill-opacity="1.000000" fill-rule="evenodd"/>
		<path id="Vector" d="M19.18 26.85C17.02 26.85 15.26 28.6 15.26 30.76C15.26 32.91 17.02 34.66 19.18 34.66C21.33 34.66 23.08 32.91 23.08 30.76C23.08 28.6 21.33 26.85 19.18 26.85Z" fill="#38BFF2" fill-opacity="1.000000" fill-rule="nonzero"/>
		<path id="Vector" d="M19.18 26.85C17.02 26.85 15.26 28.6 15.26 30.76C15.26 32.91 17.02 34.66 19.18 34.66C21.33 34.66 23.08 32.91 23.08 30.76C23.08 28.6 21.33 26.85 19.18 26.85ZM19.18 33.36C17.74 33.36 16.56 32.19 16.56 30.76C16.56 29.32 17.74 28.15 19.18 28.15C20.61 28.15 21.78 29.32 21.78 30.76C21.78 32.19 20.61 33.36 19.18 33.36Z" fill="#1A2E35" fill-opacity="1.000000" fill-rule="nonzero"/>
		<path id="Vector" d="M30.75 26.85C28.59 26.85 26.83 28.6 26.83 30.76C26.83 32.91 28.59 34.66 30.75 34.66C32.9 34.66 34.66 32.91 34.66 30.76C34.66 28.6 32.9 26.85 30.75 26.85Z" fill="#38BFF2" fill-opacity="1.000000" fill-rule="nonzero"/>
		<path id="Vector" d="M30.75 26.85C28.59 26.85 26.83 28.6 26.83 30.76C26.83 32.91 28.59 34.66 30.75 34.66C32.9 34.66 34.66 32.91 34.66 30.76C34.66 28.6 32.9 26.85 30.75 26.85ZM30.75 33.36C29.31 33.36 28.14 32.19 28.14 30.76C28.14 29.32 29.31 28.15 30.75 28.15C32.18 28.15 33.35 29.32 33.35 30.76C33.35 32.19 32.18 33.36 30.75 33.36Z" fill="#1A2E35" fill-opacity="1.000000" fill-rule="nonzero"/>
		<path id="Vector" d="M42.32 26.93C40.16 26.93 38.4 28.68 38.4 30.83C38.4 32.99 40.16 34.74 42.32 34.74C44.47 34.74 46.23 32.99 46.23 30.83C46.23 28.68 44.47 26.93 42.32 26.93Z" fill="#38BFF2" fill-opacity="1.000000" fill-rule="nonzero"/>
		<path id="Vector" d="M42.32 26.85C40.16 26.85 38.4 28.6 38.4 30.76C38.4 32.91 40.16 34.66 42.32 34.66C44.47 34.66 46.23 32.91 46.23 30.76C46.23 28.6 44.47 26.85 42.32 26.85ZM42.32 33.36C40.88 33.36 39.71 32.19 39.71 30.76C39.71 29.32 40.88 28.15 42.32 28.15C43.76 28.15 44.92 29.32 44.92 30.76C44.92 32.19 43.76 33.36 42.32 33.36Z" fill="#1A2E35" fill-opacity="1.000000" fill-rule="nonzero"/>
		<path id="Vector" d="M53.89 34.66C56.05 34.66 57.8 32.91 57.8 30.76C57.8 28.6 56.05 26.85 53.89 26.85C51.73 26.85 49.98 28.6 49.98 30.76C49.98 32.91 51.73 34.66 53.89 34.66Z" fill="#38BFF2" fill-opacity="1.000000" fill-rule="nonzero"/>
		<path id="Vector" d="M53.89 34.66C56.05 34.66 57.8 32.91 57.8 30.76C57.8 28.6 56.05 26.85 53.89 26.85C51.73 26.85 49.98 28.6 49.98 30.76C49.98 32.91 51.73 34.66 53.89 34.66ZM53.89 28.15C55.33 28.15 56.5 29.32 56.5 30.76C56.5 32.19 55.33 33.36 53.89 33.36C52.45 33.36 51.28 32.19 51.28 30.76C51.28 29.32 52.45 28.15 53.89 28.15Z" fill="#1A2E35" fill-opacity="1.000000" fill-rule="nonzero"/>
		<path id="Vector" d="M19.18 37.82C17.02 37.82 15.26 39.58 15.26 41.73C15.26 43.89 17.02 45.64 19.18 45.64C21.33 45.64 23.08 43.89 23.08 41.73C23.08 39.58 21.33 37.82 19.18 37.82Z" fill="#38BFF2" fill-opacity="1.000000" fill-rule="nonzero"/>
		<path id="Vector" d="M19.18 37.82C17.02 37.82 15.26 39.58 15.26 41.73C15.26 43.89 17.02 45.64 19.18 45.64C21.33 45.64 23.08 43.89 23.08 41.73C23.08 39.58 21.33 37.82 19.18 37.82ZM19.18 44.34C17.74 44.34 16.56 43.17 16.56 41.73C16.56 40.3 17.74 39.13 19.18 39.13C20.61 39.13 21.78 40.3 21.78 41.73C21.78 43.17 20.61 44.34 19.18 44.34Z" fill="#1A2E35" fill-opacity="1.000000" fill-rule="nonzero"/>
		<path id="Vector" d="M30.75 37.82C28.59 37.82 26.83 39.58 26.83 41.73C26.83 43.89 28.59 45.64 30.75 45.64C32.9 45.64 34.66 43.89 34.66 41.73C34.66 39.58 32.9 37.82 30.75 37.82Z" fill="#38BFF2" fill-opacity="1.000000" fill-rule="nonzero"/>
		<path id="Vector" d="M30.75 37.82C28.59 37.82 26.83 39.58 26.83 41.73C26.83 43.89 28.59 45.64 30.75 45.64C32.9 45.64 34.66 43.89 34.66 41.73C34.66 39.58 32.9 37.82 30.75 37.82ZM30.75 44.34C29.31 44.34 28.14 43.17 28.14 41.73C28.14 40.3 29.31 39.13 30.75 39.13C32.18 39.13 33.35 40.3 33.35 41.73C33.35 43.17 32.18 44.34 30.75 44.34Z" fill="#1A2E35" fill-opacity="1.000000" fill-rule="nonzero"/>
		<path id="Vector" d="M42.32 37.82C40.16 37.82 38.4 39.58 38.4 41.73C38.4 43.89 40.16 45.64 42.32 45.64C44.47 45.64 46.23 43.89 46.23 41.73C46.23 39.58 44.47 37.82 42.32 37.82ZM42.32 44.34C40.88 44.34 39.71 43.17 39.71 41.73C39.71 40.3 40.88 39.13 42.32 39.13C43.76 39.13 44.92 40.3 44.92 41.73C44.92 43.17 43.76 44.34 42.32 44.34Z" fill="#1A2E35" fill-opacity="1.000000" fill-rule="nonzero"/>
		<path id="Vector" d="M57.8 41.73C57.8 39.58 56.05 37.82 53.89 37.82C51.73 37.82 49.98 39.58 49.98 41.73C49.98 43.89 51.73 45.64 53.89 45.64C56.05 45.64 57.8 43.89 57.8 41.73ZM53.89 44.34C52.45 44.34 51.28 43.17 51.28 41.73C51.28 40.3 52.45 39.13 53.89 39.13C55.33 39.13 56.5 40.3 56.5 41.73C56.5 43.17 55.33 44.34 53.89 44.34Z" fill="#1A2E35" fill-opacity="1.000000" fill-rule="nonzero"/>
		<path id="Vector" d="M61.58 6.43L56.35 6.43L56.35 2.9C56.35 2.54 56.06 2.25 55.7 2.25C55.34 2.25 55.05 2.54 55.05 2.9L55.05 6.43L16.45 6.43L16.45 2.9C16.45 2.54 16.16 2.25 15.8 2.25C15.44 2.25 15.15 2.54 15.15 2.9L15.15 6.43L11.48 6.43C9.75 6.43 8.35 7.83 8.35 9.55C8.35 15.28 8.35 52.68 8.35 52.92L4.16 52.92C3.8 52.92 3.51 53.22 3.51 53.58C3.51 56.47 5.69 58.71 8.35 59.03L8.35 61.66C8.35 63.39 9.75 64.79 11.48 64.79L61.58 64.79C63.31 64.79 64.71 63.39 64.71 61.66C64.71 50.18 64.71 20.46 64.71 9.55C64.71 7.83 63.31 6.43 61.58 6.43ZM11.48 7.73L15.15 7.73L15.15 12.9C15.15 13.26 15.44 13.55 15.8 13.55C16.16 13.55 16.45 13.26 16.45 12.9L16.45 7.73L55.05 7.73L55.05 12.9C55.05 13.26 55.34 13.55 55.7 13.55C56.06 13.55 56.35 13.26 56.35 12.9L56.35 7.73L61.58 7.73C62.59 7.73 63.41 8.55 63.41 9.55L63.41 18.07L9.65 18.07L9.65 9.55C9.65 8.55 10.47 7.73 11.48 7.73ZM9.65 19.37L63.41 19.37L63.41 53.57C63.41 55.89 61.53 57.77 59.22 57.77C59.22 57.77 59.22 57.77 59.21 57.77C56.9 57.77 55.02 55.89 55.02 53.58C55.02 53.22 54.73 52.92 54.37 52.92L9.65 52.92L9.65 19.37ZM4.86 54.23L53.76 54.23C53.92 55.61 54.6 56.87 55.66 57.77L9 57.77C6.89 57.77 5.16 56.21 4.86 54.23ZM63.41 61.66C63.41 62.67 62.59 63.49 61.58 63.49L11.48 63.49C10.47 63.49 9.65 62.67 9.65 61.66L9.65 59.07L59.22 59.07C60.89 59.07 62.4 58.31 63.41 57.12L63.41 61.66L63.41 61.66Z" fill="#1A2E35" fill-opacity="1.000000" fill-rule="nonzero"/>
	</g>
</svg>