<svg width="64.000000" height="57.000000" viewBox="0 0 64 57" fill="none" xmlns="http://www.w3.org/2000/svg" xmlns:xlink="http://www.w3.org/1999/xlink">
	<desc>
			Created with Pixso.
	</desc>
	<defs/>
	<path id="Rectangle 315" d="M0 6C0 2.68 2.68 0 6 0L43.32 0C46.64 0 49.32 2.68 49.32 6L49.32 34.55C49.32 37.87 46.64 40.55 43.32 40.55L19.41 40.55C17.82 40.55 16.25 40.93 14.83 41.67L2.91 47.82C1.58 48.5 0 47.54 0 46.04L0 40.55L0 6Z" fill="#FFFFFF" fill-opacity="1.000000" fill-rule="nonzero"/>
	<path id="Rectangle 315" d="M0 6C0 2.68 2.68 0 6 0L43.32 0C46.64 0 49.32 2.68 49.32 6L49.32 34.55C49.32 37.87 46.64 40.55 43.32 40.55L19.41 40.55C17.82 40.55 16.25 40.93 14.83 41.67L2.91 47.82C1.58 48.5 0 47.54 0 46.04L0 6ZM6 1.5L43.32 1.5C43.94 1.5 44.52 1.6 45.05 1.82C45.58 2.04 46.06 2.37 46.5 2.81C46.94 3.25 47.27 3.74 47.49 4.27C47.71 4.8 47.82 5.37 47.82 6L47.82 34.55C47.82 35.17 47.71 35.75 47.49 36.28C47.27 36.81 46.94 37.3 46.5 37.73C46.06 38.17 45.58 38.5 45.05 38.72C44.52 38.94 43.94 39.05 43.32 39.05L19.41 39.05C18.48 39.05 17.58 39.16 16.7 39.37C15.82 39.59 14.97 39.91 14.14 40.33L2.22 46.48C2.14 46.53 2.06 46.55 1.98 46.54C1.9 46.54 1.81 46.51 1.73 46.47C1.65 46.42 1.6 46.36 1.56 46.29C1.52 46.22 1.5 46.13 1.5 46.04L1.5 40.55L1.5 6C1.5 5.37 1.6 4.8 1.82 4.27C2.04 3.74 2.37 3.25 2.81 2.81C3.25 2.37 3.74 2.04 4.27 1.82C4.8 1.6 5.37 1.5 6 1.5Z" fill="#263238" fill-opacity="1.000000" fill-rule="evenodd"/>
	<path id="Rectangle 318" d="M21.17 43.29C21.17 44.97 21.76 46.4 22.95 47.59C24.13 48.77 25.56 49.37 27.24 49.37L45.68 49.37C47.38 49.37 48.96 49.8 50.42 50.67L59.07 55.83C59.98 56.38 60.91 56.39 61.83 55.86C62.76 55.34 63.23 54.54 63.23 53.47L63.23 48.62L63.23 19.15C63.23 17.28 62.57 15.69 61.25 14.38C59.93 13.06 58.34 12.4 56.48 12.4L51.72 12.4L51.72 13.9L56.48 13.9C57.93 13.9 59.16 14.41 60.19 15.44C61.21 16.46 61.73 17.7 61.73 19.15L61.73 48.62L61.73 53.47C61.73 53.96 61.52 54.32 61.09 54.56C60.67 54.8 60.25 54.79 59.84 54.55L51.18 49.38C49.49 48.37 47.65 47.87 45.68 47.87L27.24 47.87C25.98 47.87 24.9 47.42 24.01 46.53C23.11 45.63 22.67 44.56 22.67 43.29L21.17 43.29Z" fill="#263238" fill-opacity="1.000000" fill-rule="evenodd"/>
	<rect id="Rectangle 316" x="10.961426" y="13.153809" rx="1.096154" width="28.500000" height="2.192308" fill="#38BFF2" fill-opacity="1.000000"/>
	<rect id="Rectangle 316" x="10.211426" y="12.403809" rx="1.846154" width="30.000000" height="3.692308" stroke="#263238" stroke-opacity="1.000000" stroke-width="1.500000"/>
	<rect id="Rectangle 317" x="10.961426" y="20.826904" rx="1.096154" width="21.923077" height="2.192308" fill="#38BFF2" fill-opacity="1.000000"/>
	<rect id="Rectangle 317" x="10.211426" y="20.076904" rx="1.846154" width="23.423077" height="3.692308" stroke="#263238" stroke-opacity="1.000000" stroke-width="1.500000"/>
</svg>