<svg width="57.000000" height="57.000000" viewBox="0 0 57 57" fill="none" xmlns="http://www.w3.org/2000/svg" xmlns:xlink="http://www.w3.org/1999/xlink">
	<desc>
			Created with Pixso.
	</desc>
	<defs/>
	<path id="Vector" d="M56.1 10.7L56.1 53.47C56.1 54.93 54.92 56.1 53.46 56.1L2.53 56.1C1.07 56.1 -0.11 54.93 -0.11 53.47L-0.11 10.7L56.1 10.7Z" fill="#FFFFFF" fill-opacity="1.000000" fill-rule="nonzero"/>
	<path id="Vector" d="M56.1 2.53L56.1 10.7L-0.11 10.7L-0.11 2.53C-0.11 1.07 1.07 -0.11 2.53 -0.11L53.46 -0.11C54.92 -0.11 56.1 1.07 56.1 2.53Z" fill="#38BFF2" fill-opacity="1.000000" fill-rule="nonzero"/>
	<path id="Vector" d="M7.11 5.29C7.11 6.05 6.49 6.67 5.73 6.67C4.97 6.67 4.35 6.05 4.35 5.29C4.35 4.53 4.97 3.92 5.73 3.92C6.49 3.92 7.11 4.53 7.11 5.29Z" fill="#D7E9FF" fill-opacity="1.000000" fill-rule="nonzero"/>
	<path id="Vector" d="M12.94 5.29C12.94 6.05 12.33 6.67 11.56 6.67C10.8 6.67 10.19 6.05 10.19 5.29C10.19 4.53 10.8 3.92 11.56 3.92C12.33 3.92 12.94 4.53 12.94 5.29Z" fill="#D7E9FF" fill-opacity="1.000000" fill-rule="nonzero"/>
	<path id="Vector" d="M18.77 5.29C18.77 6.05 18.16 6.67 17.39 6.67C16.63 6.67 16.02 6.05 16.02 5.29C16.02 4.53 16.63 3.92 17.39 3.92C18.16 3.92 18.77 4.53 18.77 5.29Z" fill="#D7E9FF" fill-opacity="1.000000" fill-rule="nonzero"/>
	<path id="Vector" d="M51.64 5.29C51.64 6.05 51.01 6.67 50.25 6.67L35.66 6.67C34.9 6.67 34.28 6.05 34.28 5.29C34.28 4.53 34.9 3.92 35.66 3.92L50.25 3.92C51.01 3.92 51.64 4.53 51.64 5.29Z" fill="#D7E9FF" fill-opacity="1.000000" fill-rule="nonzero"/>
	<path id="Vector" d="M53.46 -0.71L2.53 -0.71C0.75 -0.71 -0.71 0.75 -0.71 2.53L-0.71 53.47C-0.71 55.25 0.75 56.7 2.53 56.7L53.46 56.7C55.25 56.7 56.7 55.25 56.7 53.47C56.7 47.07 56.7 10.12 56.7 2.53C56.7 0.75 55.25 -0.71 53.46 -0.71ZM0.49 2.53C0.49 1.4 1.4 0.49 2.53 0.49L53.46 0.49C54.58 0.49 55.5 1.4 55.5 2.53L55.5 10.1L0.49 10.1L0.49 2.53ZM55.5 53.47C55.5 54.59 54.58 55.5 53.46 55.5L2.53 55.5C1.4 55.5 0.49 54.59 0.49 53.47L0.49 11.29L55.5 11.29L55.5 53.47Z" fill="#1A2E35" fill-opacity="1.000000" fill-rule="nonzero"/>
	<path id="Vector" d="M7.09 34.01C8.25 34.01 9.19 34.94 9.19 36.09L9.19 41.3C9.19 43.12 10.66 44.6 12.47 44.6C12.8 44.6 13.07 44.34 13.07 44.01C13.07 43.68 12.8 43.41 12.47 43.41C11.32 43.41 10.39 42.46 10.39 41.3L10.39 36.09C10.39 34.97 9.83 33.99 8.97 33.39C9.81 32.79 10.37 31.81 10.37 30.71L10.37 25.49C10.37 24.33 11.3 23.39 12.45 23.39C12.78 23.39 13.05 23.12 13.05 22.79C13.05 22.46 12.78 22.19 12.45 22.19C10.64 22.19 9.17 23.67 9.17 25.49L9.17 30.71C9.17 31.85 8.23 32.79 7.08 32.81C6.3 32.82 6.31 34.01 7.09 34.01Z" fill="#1A2E35" fill-opacity="1.000000" fill-rule="nonzero"/>
	<path id="Vector" d="M45.6 36.09L45.6 41.3C45.6 42.46 44.67 43.41 43.52 43.41C43.19 43.41 42.92 43.68 42.92 44.01C42.92 44.34 43.19 44.6 43.52 44.6C45.33 44.6 46.8 43.12 46.8 41.3L46.8 36.09C46.8 34.94 47.74 34.01 48.9 34.01C49.68 34.01 49.69 32.82 48.91 32.81C47.76 32.79 46.82 31.85 46.82 30.71L46.82 25.49C46.82 23.67 45.35 22.19 43.54 22.19C43.21 22.19 42.94 22.46 42.94 22.79C42.94 23.12 43.21 23.39 43.54 23.39C44.69 23.39 45.62 24.33 45.62 25.49L45.62 30.71C45.62 31.81 46.18 32.79 47.02 33.39C46.16 33.99 45.6 34.97 45.6 36.09Z" fill="#1A2E35" fill-opacity="1.000000" fill-rule="nonzero"/>
	<path id="Vector" d="M23.98 43.79C24.29 43.91 24.63 43.76 24.75 43.45L32.35 23.78C32.47 23.47 32.32 23.12 32.01 23C31.7 22.88 31.36 23.04 31.24 23.34L23.64 43.02C23.52 43.33 23.67 43.67 23.98 43.79Z" fill="#1A2E35" fill-opacity="1.000000" fill-rule="nonzero"/>
	<path id="Vector" d="M39.99 33.41L33.1 38.07C32.83 38.25 32.75 38.62 32.94 38.9C33.12 39.17 33.5 39.24 33.77 39.06L41.39 33.9C41.75 33.66 41.74 33.15 41.4 32.91L33.77 27.74C33.5 27.55 33.13 27.63 32.94 27.9C32.75 28.17 32.83 28.54 33.1 28.73L39.99 33.41Z" fill="#1A2E35" fill-opacity="1.000000" fill-rule="nonzero"/>
	<path id="Vector" d="M14.59 33.9L22.15 39.05C22.42 39.24 22.79 39.17 22.98 38.9C23.16 38.62 23.09 38.25 22.82 38.07L15.99 33.41L22.82 28.73C23.09 28.54 23.16 28.17 22.98 27.9C22.79 27.62 22.42 27.55 22.15 27.74L14.59 32.91C14.43 33.03 14.33 33.21 14.33 33.41C14.33 33.61 14.43 33.79 14.59 33.9Z" fill="#1A2E35" fill-opacity="1.000000" fill-rule="nonzero"/>
	<path id="Vector" d="M5.73 3.32C4.64 3.32 3.76 4.2 3.76 5.29C3.76 6.38 4.64 7.27 5.73 7.27C6.82 7.27 7.71 6.38 7.71 5.29C7.71 4.2 6.82 3.32 5.73 3.32ZM5.73 6.07C5.3 6.07 4.95 5.72 4.95 5.29C4.95 4.86 5.3 4.52 5.73 4.52C6.16 4.52 6.52 4.86 6.52 5.29C6.52 5.72 6.16 6.07 5.73 6.07Z" fill="#1A2E35" fill-opacity="1.000000" fill-rule="nonzero"/>
	<path id="Vector" d="M11.56 3.32C10.47 3.32 9.59 4.2 9.59 5.29C9.59 6.38 10.47 7.27 11.56 7.27C12.65 7.27 13.54 6.38 13.54 5.29C13.54 4.2 12.65 3.32 11.56 3.32ZM11.56 6.07C11.13 6.07 10.78 5.72 10.78 5.29C10.78 4.86 11.13 4.52 11.56 4.52C12 4.52 12.35 4.86 12.35 5.29C12.35 5.72 12 6.07 11.56 6.07Z" fill="#1A2E35" fill-opacity="1.000000" fill-rule="nonzero"/>
	<path id="Vector" d="M17.39 3.32C16.31 3.32 15.42 4.2 15.42 5.29C15.42 6.38 16.31 7.27 17.39 7.27C18.48 7.27 19.37 6.38 19.37 5.29C19.37 4.2 18.48 3.32 17.39 3.32ZM17.39 6.07C16.96 6.07 16.61 5.72 16.61 5.29C16.61 4.86 16.96 4.52 17.39 4.52C17.83 4.52 18.18 4.86 18.18 5.29C18.18 5.72 17.83 6.07 17.39 6.07Z" fill="#1A2E35" fill-opacity="1.000000" fill-rule="nonzero"/>
	<path id="Vector" d="M50.25 3.32L35.66 3.32C34.57 3.32 33.68 4.21 33.68 5.29C33.68 6.38 34.57 7.27 35.66 7.27L50.25 7.27C51.34 7.27 52.23 6.38 52.23 5.29C52.23 4.21 51.34 3.32 50.25 3.32ZM50.25 6.07L35.66 6.07C35.23 6.07 34.88 5.72 34.88 5.29C34.88 4.86 35.22 4.52 35.66 4.52L50.25 4.52C50.68 4.52 51.04 4.87 51.04 5.29C51.04 5.72 50.68 6.07 50.25 6.07Z" fill="#1A2E35" fill-opacity="1.000000" fill-rule="nonzero"/>
</svg>