<svg width="258.000000" height="259.000000" viewBox="0 0 258 259" fill="none" xmlns="http://www.w3.org/2000/svg" xmlns:xlink="http://www.w3.org/1999/xlink">
	<desc>
			Created with Pixso.
	</desc>
	<defs>
		<clipPath id="clip50_128">
			<rect id="finance-strategy-svgrepo-com" width="34.250999" height="32.336452" transform="translate(45.802246 23.282227)" fill="white" fill-opacity="0"/>
		</clipPath>
		<clipPath id="clip32_1861">
			<rect id="6502421 1" width="258.000000" height="259.000000" transform="matrix(-1 0 0 1 257.771 0)" fill="white" fill-opacity="0"/>
		</clipPath>
	</defs>
	<rect id="6502421 1" width="258.000000" height="259.000000" transform="matrix(-1 0 0 1 257.771 0)" fill="#FFFFFF" fill-opacity="0"/>
	<g clip-path="url(#clip32_1861)">
		<path id="path42" d="M18.45 146.55L10.62 146.55" stroke="#1A2E35" stroke-opacity="1.000000" stroke-width="1.333333" stroke-linejoin="round" stroke-linecap="round"/>
		<path id="path46" d="M246.11 146.55L21.97 146.55" stroke="#1A2E35" stroke-opacity="1.000000" stroke-width="1.333333" stroke-linejoin="round" stroke-linecap="round"/>
		<path id="path58" d="M58.01 83.83C58.01 78.4 53.63 74 48.22 74C42.81 74 38.43 78.4 38.43 83.83C38.43 89.26 42.81 93.66 48.22 93.66C53.63 93.66 58.01 89.26 58.01 83.83ZM30.49 81.84L34.35 81.29C34.71 79.3 35.48 77.46 36.58 75.85L34.22 72.7L37.08 69.84L40.21 72.19C41.8 71.08 43.63 70.3 45.6 69.93L46.16 66.03L50.2 66.03L50.75 69.91C52.73 70.27 54.57 71.04 56.16 72.14L59.3 69.78L62.16 72.65L59.82 75.79C60.92 77.38 61.7 79.22 62.07 81.21L65.95 81.76L65.95 85.82L62.08 86.37C61.73 88.36 60.96 90.2 59.86 91.81L62.22 94.96L59.36 97.82L56.23 95.47C54.64 96.58 52.81 97.36 50.83 97.73L50.28 101.63L46.24 101.63L45.69 97.75C43.71 97.39 41.87 96.62 40.27 95.52L37.14 97.88L34.28 95.01L36.62 91.87C35.52 90.28 34.74 88.44 34.37 86.45L30.49 85.9L30.49 81.84Z" stroke="#1A2E35" stroke-opacity="1.000000" stroke-width="1.333333"/>
		<path id="path62" d="M38.97 108.61C38.97 104.73 35.84 101.58 31.97 101.58C28.1 101.58 24.97 104.73 24.97 108.61C24.97 112.5 28.1 115.64 31.97 115.64C35.84 115.64 38.97 112.5 38.97 108.61ZM19.29 107.19L22.06 106.8C22.31 105.38 22.86 104.06 23.65 102.91L21.96 100.66L24.01 98.61L26.24 100.29C27.38 99.5 28.69 98.94 30.1 98.67L30.5 95.88L33.39 95.88L33.78 98.66C35.2 98.92 36.51 99.47 37.65 100.26L39.9 98.57L41.94 100.62L40.26 102.86C41.05 104.01 41.61 105.32 41.88 106.74L44.65 107.14L44.65 110.04L41.89 110.43C41.63 111.85 41.08 113.17 40.3 114.32L41.98 116.57L39.94 118.62L37.7 116.94C36.56 117.73 35.25 118.29 33.84 118.56L33.44 121.35L30.56 121.35L30.16 118.57C28.75 118.31 27.43 117.76 26.29 116.97L24.05 118.66L22 116.61L23.68 114.37C22.89 113.22 22.33 111.91 22.07 110.49L19.29 110.09L19.29 107.19Z" stroke="#1A2E35" stroke-opacity="1.000000" stroke-width="1.333333"/>
		<path id="path66" d="M198.33 109.98C198.33 114.94 202.33 118.95 207.26 118.95C212.2 118.95 216.2 114.94 216.2 109.98C216.2 105.03 212.2 101.01 207.26 101.01C202.33 101.01 198.33 105.03 198.33 109.98ZM223.44 111.8L219.91 112.3C219.58 114.12 218.88 115.8 217.89 117.26L220.03 120.14L217.43 122.75L214.57 120.61C213.12 121.62 211.45 122.33 209.65 122.67L209.14 126.23L205.45 126.23L204.95 122.68C203.14 122.36 201.47 121.65 200.01 120.65L197.15 122.8L194.54 120.19L196.68 117.32C195.67 115.87 194.96 114.19 194.62 112.38L191.08 111.87L191.08 108.17L194.61 107.66C194.94 105.85 195.64 104.17 196.64 102.71L194.49 99.83L197.1 97.21L199.95 99.36C201.4 98.35 203.07 97.64 204.87 97.3L205.38 93.74L209.07 93.74L209.57 97.28C211.38 97.61 213.05 98.32 214.51 99.32L217.37 97.16L219.98 99.78L217.84 102.64C218.85 104.1 219.56 105.78 219.9 107.59L223.44 108.1L223.44 111.8Z" stroke="#1A2E35" stroke-opacity="1.000000" stroke-width="1.333333"/>
		<path id="path70" d="M217.24 89.11C217.24 92.13 219.68 94.58 222.69 94.58C225.7 94.58 228.14 92.13 228.14 89.11C228.14 86.08 225.7 83.63 222.69 83.63C219.68 83.63 217.24 86.08 217.24 89.11ZM232.56 90.21L230.41 90.52C230.21 91.63 229.78 92.65 229.17 93.55L230.48 95.3L228.89 96.9L227.15 95.59C226.26 96.2 225.25 96.64 224.15 96.85L223.84 99.02L221.59 99.02L221.28 96.85C220.18 96.65 219.16 96.22 218.27 95.61L216.52 96.93L214.93 95.33L216.24 93.58C215.62 92.69 215.19 91.67 214.98 90.57L212.82 90.26L212.82 88L214.97 87.69C215.17 86.59 215.6 85.56 216.21 84.67L214.9 82.91L216.49 81.32L218.23 82.63C219.12 82.01 220.14 81.57 221.24 81.37L221.54 79.2L223.79 79.2L224.1 81.36C225.2 81.56 226.22 81.99 227.11 82.6L228.86 81.29L230.45 82.88L229.14 84.63C229.76 85.52 230.19 86.54 230.4 87.65L232.56 87.96L232.56 90.21Z" stroke="#1A2E35" stroke-opacity="1.000000" stroke-width="1.333333"/>
		<path id="path74" d="M124.91 48.35C124.91 52.5 128.26 55.86 132.39 55.86C136.53 55.86 139.88 52.5 139.88 48.35C139.88 44.2 136.53 40.84 132.39 40.84C128.26 40.84 124.91 44.2 124.91 48.35ZM145.95 49.87L142.99 50.29C142.72 51.81 142.13 53.22 141.3 54.45L143.09 56.85L140.91 59.05L138.52 57.25C137.3 58.09 135.9 58.69 134.39 58.98L133.97 61.96L130.88 61.96L130.46 58.99C128.95 58.71 127.54 58.12 126.32 57.28L123.92 59.09L121.74 56.9L123.53 54.5C122.69 53.28 122.09 51.87 121.81 50.36L118.84 49.93L118.84 46.83L121.8 46.41C122.07 44.89 122.66 43.48 123.5 42.25L121.7 39.84L123.88 37.65L126.27 39.45C127.49 38.61 128.89 38.01 130.4 37.72L130.82 34.74L133.91 34.74L134.33 37.71C135.84 37.99 137.25 38.58 138.47 39.42L140.87 37.61L143.05 39.8L141.26 42.2C142.1 43.42 142.7 44.83 142.98 46.34L145.95 46.77L145.95 49.87Z" stroke="#1A2E35" stroke-opacity="1.000000" stroke-width="1.333333"/>
		<path id="path86" d="M52.41 149.91L202.59 149.91L202.59 50.74C202.59 48.46 200.75 46.61 198.47 46.61L56.52 46.61C54.25 46.61 52.41 48.46 52.41 50.74L52.41 149.91Z" fill="#1A2E35" fill-opacity="1.000000" fill-rule="nonzero"/>
		<path id="path90" d="M202.59 149.91L202.59 50.74C202.59 48.46 200.75 46.61 198.47 46.61L56.52 46.61C54.25 46.61 52.41 48.46 52.41 50.74L52.41 149.91L202.59 149.91Z" stroke="#1A2E35" stroke-opacity="1.000000" stroke-width="1.333333" stroke-linejoin="round"/>
		<path id="path94" d="M29.88 195.58L225.11 195.58L202.59 149.91L52.41 149.91L29.88 195.58Z" fill="#FFFFFF" fill-opacity="1.000000" fill-rule="nonzero"/>
		<path id="path98" d="M225.11 195.58L202.59 149.91L52.41 149.91L29.88 195.58L225.11 195.58Z" stroke="#1A2E35" stroke-opacity="1.000000" stroke-width="1.333333" stroke-linejoin="round"/>
		<path id="path100" d="M61.51 141.73L193.49 141.73L193.49 54.79L61.51 54.79L61.51 141.73Z" fill="#38BFF2" fill-opacity="1.000000" fill-rule="nonzero"/>
		<path id="path100" d="M193.49 141.73L193.49 54.79L61.51 54.79L61.51 141.73L193.49 141.73Z" stroke="#1A2E35" stroke-opacity="1.000000" stroke-width="1.333333" stroke-linejoin="round"/>
		<path id="path104" d="M133.76 164.37L133.5 158.8L141.44 158.8L141.96 164.37L133.76 164.37Z" fill="#1A2E35" fill-opacity="1.000000" fill-rule="nonzero"/>
		<path id="path108" d="M133.5 158.8L141.44 158.8L141.96 164.37L133.76 164.37L133.5 158.8Z" stroke="#FFFFFF" stroke-opacity="1.000000" stroke-width="1.333333" stroke-linejoin="round"/>
		<path id="path112" d="M117.36 164.37L117.63 158.8L125.57 158.8L125.56 164.37L117.36 164.37Z" fill="#1A2E35" fill-opacity="1.000000" fill-rule="nonzero"/>
		<path id="path116" d="M117.63 158.8L125.57 158.8L125.56 164.37L117.36 164.37L117.63 158.8Z" stroke="#FFFFFF" stroke-opacity="1.000000" stroke-width="1.333333" stroke-linejoin="round"/>
		<path id="path120" d="M74.65 170.32L66.17 170.32L68.16 164.37L76.36 164.37L74.65 170.32Z" fill="#1A2E35" fill-opacity="1.000000" fill-rule="nonzero"/>
		<path id="path124" d="M66.17 170.32L68.16 164.37L76.36 164.37L74.65 170.32L66.17 170.32Z" stroke="#FFFFFF" stroke-opacity="1.000000" stroke-width="1.333333" stroke-linejoin="round"/>
		<path id="path128" d="M141.96 164.37L141.44 158.8L149.37 158.8L150.16 164.37L141.96 164.37Z" fill="#1A2E35" fill-opacity="1.000000" fill-rule="nonzero"/>
		<path id="path132" d="M141.44 158.8L149.37 158.8L150.16 164.37L141.96 164.37L141.44 158.8Z" stroke="#FFFFFF" stroke-opacity="1.000000" stroke-width="1.333333" stroke-linejoin="round"/>
		<path id="path136" d="M158.36 164.37L157.31 158.8L165.24 158.8L166.57 164.37L158.36 164.37Z" fill="#1A2E35" fill-opacity="1.000000" fill-rule="nonzero"/>
		<path id="path140" d="M157.31 158.8L165.24 158.8L166.57 164.37L158.36 164.37L157.31 158.8Z" stroke="#FFFFFF" stroke-opacity="1.000000" stroke-width="1.333333" stroke-linejoin="round"/>
		<path id="path144" d="M84.56 164.37L85.89 158.8L93.83 158.8L92.76 164.37L84.56 164.37Z" fill="#1A2E35" fill-opacity="1.000000" fill-rule="nonzero"/>
		<path id="path148" d="M85.89 158.8L93.83 158.8L92.76 164.37L84.56 164.37L85.89 158.8Z" stroke="#FFFFFF" stroke-opacity="1.000000" stroke-width="1.333333" stroke-linejoin="round"/>
		<path id="path152" d="M76.36 164.37L77.96 158.8L85.89 158.8L84.56 164.37L76.36 164.37Z" fill="#1A2E35" fill-opacity="1.000000" fill-rule="nonzero"/>
		<path id="path156" d="M77.96 158.8L85.89 158.8L84.56 164.37L76.36 164.37L77.96 158.8Z" stroke="#FFFFFF" stroke-opacity="1.000000" stroke-width="1.333333" stroke-linejoin="round"/>
		<path id="path160" d="M166.57 164.37L165.24 158.8L173.18 158.8L174.77 164.37L166.57 164.37Z" fill="#1A2E35" fill-opacity="1.000000" fill-rule="nonzero"/>
		<path id="path164" d="M165.24 158.8L173.18 158.8L174.77 164.37L166.57 164.37L165.24 158.8Z" stroke="#FFFFFF" stroke-opacity="1.000000" stroke-width="1.333333" stroke-linejoin="round"/>
		<path id="path168" d="M109.16 164.37L109.7 158.8L117.63 158.8L117.36 164.37L109.16 164.37Z" fill="#1A2E35" fill-opacity="1.000000" fill-rule="nonzero"/>
		<path id="path172" d="M109.7 158.8L117.63 158.8L117.36 164.37L109.16 164.37L109.7 158.8Z" stroke="#FFFFFF" stroke-opacity="1.000000" stroke-width="1.333333" stroke-linejoin="round"/>
		<path id="path176" d="M68.16 164.37L70.02 158.8L77.96 158.8L76.36 164.37L68.16 164.37Z" fill="#1A2E35" fill-opacity="1.000000" fill-rule="nonzero"/>
		<path id="path180" d="M70.02 158.8L77.96 158.8L76.36 164.37L68.16 164.37L70.02 158.8Z" stroke="#FFFFFF" stroke-opacity="1.000000" stroke-width="1.333333" stroke-linejoin="round"/>
		<path id="path184" d="M92.76 164.37L93.83 158.8L101.76 158.8L100.96 164.37L92.76 164.37Z" fill="#1A2E35" fill-opacity="1.000000" fill-rule="nonzero"/>
		<path id="path188" d="M93.83 158.8L101.76 158.8L100.96 164.37L92.76 164.37L93.83 158.8Z" stroke="#FFFFFF" stroke-opacity="1.000000" stroke-width="1.333333" stroke-linejoin="round"/>
		<path id="path192" d="M100.96 164.37L101.76 158.8L109.7 158.8L109.16 164.37L100.96 164.37Z" fill="#1A2E35" fill-opacity="1.000000" fill-rule="nonzero"/>
		<path id="path196" d="M101.76 158.8L109.7 158.8L109.16 164.37L100.96 164.37L101.76 158.8Z" stroke="#FFFFFF" stroke-opacity="1.000000" stroke-width="1.333333" stroke-linejoin="round"/>
		<path id="path200" d="M125.56 164.37L125.57 158.8L133.5 158.8L133.76 164.37L125.56 164.37Z" fill="#1A2E35" fill-opacity="1.000000" fill-rule="nonzero"/>
		<path id="path204" d="M125.57 158.8L133.5 158.8L133.76 164.37L125.56 164.37L125.57 158.8Z" stroke="#FFFFFF" stroke-opacity="1.000000" stroke-width="1.333333" stroke-linejoin="round"/>
		<path id="path208" d="M182.97 164.37L191.17 164.37L193.43 170.32L184.95 170.32L182.97 164.37Z" fill="#1A2E35" fill-opacity="1.000000" fill-rule="nonzero"/>
		<path id="path212" d="M191.17 164.37L193.43 170.32L184.95 170.32L182.97 164.37L191.17 164.37Z" stroke="#FFFFFF" stroke-opacity="1.000000" stroke-width="1.333333" stroke-linejoin="round"/>
		<path id="path216" d="M181.11 158.8L189.05 158.8L191.17 164.37L182.97 164.37L181.11 158.8Z" fill="#1A2E35" fill-opacity="1.000000" fill-rule="nonzero"/>
		<path id="path220" d="M189.05 158.8L191.17 164.37L182.97 164.37L181.11 158.8L189.05 158.8Z" stroke="#FFFFFF" stroke-opacity="1.000000" stroke-width="1.333333" stroke-linejoin="round"/>
		<path id="path224" d="M174.77 164.37L173.18 158.8L181.11 158.8L182.97 164.37L174.77 164.37Z" fill="#1A2E35" fill-opacity="1.000000" fill-rule="nonzero"/>
		<path id="path228" d="M173.18 158.8L181.11 158.8L182.97 164.37L174.77 164.37L173.18 158.8Z" stroke="#FFFFFF" stroke-opacity="1.000000" stroke-width="1.333333" stroke-linejoin="round"/>
		<path id="path232" d="M195.86 176.69L198.46 183.54L189.35 183.54L187.07 176.69L195.86 176.69Z" fill="#1A2E35" fill-opacity="1.000000" fill-rule="nonzero"/>
		<path id="path236" d="M198.46 183.54L189.35 183.54L187.07 176.69L195.86 176.69L198.46 183.54Z" stroke="#FFFFFF" stroke-opacity="1.000000" stroke-width="1.333333" stroke-linejoin="round"/>
		<path id="path240" d="M184.95 170.32L193.43 170.32L195.86 176.69L187.07 176.69L184.95 170.32Z" fill="#1A2E35" fill-opacity="1.000000" fill-rule="nonzero"/>
		<path id="path244" d="M193.43 170.32L195.86 176.69L187.07 176.69L184.95 170.32L193.43 170.32Z" stroke="#FFFFFF" stroke-opacity="1.000000" stroke-width="1.333333" stroke-linejoin="round"/>
		<path id="path248" d="M187.07 176.69L189.35 183.54L180.23 183.54L178.28 176.69L187.07 176.69Z" fill="#1A2E35" fill-opacity="1.000000" fill-rule="nonzero"/>
		<path id="path252" d="M189.35 183.54L180.23 183.54L178.28 176.69L187.07 176.69L189.35 183.54Z" stroke="#FFFFFF" stroke-opacity="1.000000" stroke-width="1.333333" stroke-linejoin="round"/>
		<path id="path256" d="M150.16 164.37L149.37 158.8L157.31 158.8L158.36 164.37L150.16 164.37Z" fill="#1A2E35" fill-opacity="1.000000" fill-rule="nonzero"/>
		<path id="path260" d="M149.37 158.8L157.31 158.8L158.36 164.37L150.16 164.37L149.37 158.8Z" stroke="#FFFFFF" stroke-opacity="1.000000" stroke-width="1.333333" stroke-linejoin="round"/>
		<path id="path264" d="M151.01 170.32L150.16 164.37L158.36 164.37L159.49 170.32L151.01 170.32Z" fill="#1A2E35" fill-opacity="1.000000" fill-rule="nonzero"/>
		<path id="path268" d="M150.16 164.37L158.36 164.37L159.49 170.32L151.01 170.32L150.16 164.37Z" stroke="#FFFFFF" stroke-opacity="1.000000" stroke-width="1.333333" stroke-linejoin="round"/>
		<path id="path272" d="M159.49 170.32L158.36 164.37L166.57 164.37L167.98 170.32L159.49 170.32Z" fill="#1A2E35" fill-opacity="1.000000" fill-rule="nonzero"/>
		<path id="path276" d="M158.36 164.37L166.57 164.37L167.98 170.32L159.49 170.32L158.36 164.37Z" stroke="#FFFFFF" stroke-opacity="1.000000" stroke-width="1.333333" stroke-linejoin="round"/>
		<path id="path280" d="M142.53 170.32L141.96 164.37L150.16 164.37L151.01 170.32L142.53 170.32Z" fill="#1A2E35" fill-opacity="1.000000" fill-rule="nonzero"/>
		<path id="path284" d="M141.96 164.37L150.16 164.37L151.01 170.32L142.53 170.32L141.96 164.37Z" stroke="#FFFFFF" stroke-opacity="1.000000" stroke-width="1.333333" stroke-linejoin="round"/>
		<path id="path288" d="M174.77 164.37L182.97 164.37L184.95 170.32L176.46 170.32L174.77 164.37Z" fill="#1A2E35" fill-opacity="1.000000" fill-rule="nonzero"/>
		<path id="path292" d="M182.97 164.37L184.95 170.32L176.46 170.32L174.77 164.37L182.97 164.37Z" stroke="#FFFFFF" stroke-opacity="1.000000" stroke-width="1.333333" stroke-linejoin="round"/>
		<path id="path296" d="M72.82 176.69L64.03 176.69L66.17 170.32L74.65 170.32L72.82 176.69Z" fill="#1A2E35" fill-opacity="1.000000" fill-rule="nonzero"/>
		<path id="path300" d="M64.03 176.69L66.17 170.32L74.65 170.32L72.82 176.69L64.03 176.69Z" stroke="#FFFFFF" stroke-opacity="1.000000" stroke-width="1.333333" stroke-linejoin="round"/>
		<path id="path304" d="M167.98 170.32L166.56 164.37L174.77 164.37L176.46 170.32L167.98 170.32Z" fill="#1A2E35" fill-opacity="1.000000" fill-rule="nonzero"/>
		<path id="path308" d="M166.56 164.37L174.77 164.37L176.46 170.32L167.98 170.32L166.56 164.37Z" stroke="#FFFFFF" stroke-opacity="1.000000" stroke-width="1.333333" stroke-linejoin="round"/>
		<path id="path312" d="M184.95 170.32L187.07 176.69L178.28 176.69L176.46 170.32L184.95 170.32Z" fill="#1A2E35" fill-opacity="1.000000" fill-rule="nonzero"/>
		<path id="path316" d="M187.07 176.69L178.28 176.69L176.46 170.32L184.95 170.32L187.07 176.69Z" stroke="#FFFFFF" stroke-opacity="1.000000" stroke-width="1.333333" stroke-linejoin="round"/>
		<path id="path320" d="M91.62 170.32L92.76 164.37L100.96 164.37L100.11 170.32L91.62 170.32Z" fill="#1A2E35" fill-opacity="1.000000" fill-rule="nonzero"/>
		<path id="path324" d="M92.76 164.37L100.96 164.37L100.11 170.32L91.62 170.32L92.76 164.37Z" stroke="#FFFFFF" stroke-opacity="1.000000" stroke-width="1.333333" stroke-linejoin="round"/>
		<path id="path328" d="M100.11 170.32L100.96 164.37L109.16 164.37L108.59 170.32L100.11 170.32Z" fill="#1A2E35" fill-opacity="1.000000" fill-rule="nonzero"/>
		<path id="path332" d="M100.96 164.37L109.16 164.37L108.59 170.32L100.11 170.32L100.96 164.37Z" stroke="#FFFFFF" stroke-opacity="1.000000" stroke-width="1.333333" stroke-linejoin="round"/>
		<path id="path336" d="M74.65 170.32L76.36 164.37L84.56 164.37L83.14 170.32L74.65 170.32Z" fill="#1A2E35" fill-opacity="1.000000" fill-rule="nonzero"/>
		<path id="path340" d="M76.36 164.37L84.56 164.37L83.14 170.32L74.65 170.32L76.36 164.37Z" stroke="#FFFFFF" stroke-opacity="1.000000" stroke-width="1.333333" stroke-linejoin="round"/>
		<path id="path344" d="M125.56 170.32L125.56 164.37L133.76 164.37L134.04 170.32L125.56 170.32Z" fill="#1A2E35" fill-opacity="1.000000" fill-rule="nonzero"/>
		<path id="path348" d="M125.56 164.37L133.76 164.37L134.04 170.32L125.56 170.32L125.56 164.37Z" stroke="#FFFFFF" stroke-opacity="1.000000" stroke-width="1.333333" stroke-linejoin="round"/>
		<path id="path352" d="M108.59 170.32L109.16 164.37L117.36 164.37L117.07 170.32L108.59 170.32Z" fill="#1A2E35" fill-opacity="1.000000" fill-rule="nonzero"/>
		<path id="path356" d="M109.16 164.37L117.36 164.37L117.07 170.32L108.59 170.32L109.16 164.37Z" stroke="#FFFFFF" stroke-opacity="1.000000" stroke-width="1.333333" stroke-linejoin="round"/>
		<path id="path360" d="M117.07 170.32L117.36 164.37L125.56 164.37L125.56 170.32L117.07 170.32Z" fill="#1A2E35" fill-opacity="1.000000" fill-rule="nonzero"/>
		<path id="path364" d="M117.36 164.37L125.56 164.37L125.56 170.32L117.07 170.32L117.36 164.37Z" stroke="#FFFFFF" stroke-opacity="1.000000" stroke-width="1.333333" stroke-linejoin="round"/>
		<path id="path368" d="M134.04 170.32L133.76 164.37L141.96 164.37L142.53 170.32L134.04 170.32Z" fill="#1A2E35" fill-opacity="1.000000" fill-rule="nonzero"/>
		<path id="path372" d="M133.76 164.37L141.96 164.37L142.53 170.32L134.04 170.32L133.76 164.37Z" stroke="#FFFFFF" stroke-opacity="1.000000" stroke-width="1.333333" stroke-linejoin="round"/>
		<path id="path376" d="M108.59 170.32L107.98 176.69L99.19 176.69L100.11 170.32L108.59 170.32Z" fill="#1A2E35" fill-opacity="1.000000" fill-rule="nonzero"/>
		<path id="path380" d="M107.98 176.69L99.19 176.69L100.11 170.32L108.59 170.32L107.98 176.69Z" stroke="#FFFFFF" stroke-opacity="1.000000" stroke-width="1.333333" stroke-linejoin="round"/>
		<path id="path384" d="M100.11 170.32L99.19 176.69L90.4 176.69L91.62 170.32L100.11 170.32Z" fill="#1A2E35" fill-opacity="1.000000" fill-rule="nonzero"/>
		<path id="path388" d="M99.19 176.69L90.4 176.69L91.62 170.32L100.11 170.32L99.19 176.69Z" stroke="#FFFFFF" stroke-opacity="1.000000" stroke-width="1.333333" stroke-linejoin="round"/>
		<path id="path392" d="M176.46 170.32L178.28 176.69L169.49 176.69L167.98 170.32L176.46 170.32Z" fill="#1A2E35" fill-opacity="1.000000" fill-rule="nonzero"/>
		<path id="path396" d="M178.28 176.69L169.49 176.69L167.98 170.32L176.46 170.32L178.28 176.69Z" stroke="#FFFFFF" stroke-opacity="1.000000" stroke-width="1.333333" stroke-linejoin="round"/>
		<path id="path400" d="M91.62 170.32L90.4 176.69L81.61 176.69L83.14 170.32L91.62 170.32Z" fill="#1A2E35" fill-opacity="1.000000" fill-rule="nonzero"/>
		<path id="path404" d="M90.4 176.69L81.61 176.69L83.14 170.32L91.62 170.32L90.4 176.69Z" stroke="#FFFFFF" stroke-opacity="1.000000" stroke-width="1.333333" stroke-linejoin="round"/>
		<path id="path408" d="M125.56 170.32L125.55 176.69L116.76 176.69L117.07 170.32L125.56 170.32Z" fill="#1A2E35" fill-opacity="1.000000" fill-rule="nonzero"/>
		<path id="path412" d="M125.55 176.69L116.76 176.69L117.07 170.32L125.56 170.32L125.55 176.69Z" stroke="#FFFFFF" stroke-opacity="1.000000" stroke-width="1.333333" stroke-linejoin="round"/>
		<path id="path416" d="M83.14 170.32L81.61 176.69L72.82 176.69L74.65 170.32L83.14 170.32Z" fill="#1A2E35" fill-opacity="1.000000" fill-rule="nonzero"/>
		<path id="path420" d="M81.61 176.69L72.82 176.69L74.65 170.32L83.14 170.32L81.61 176.69Z" stroke="#FFFFFF" stroke-opacity="1.000000" stroke-width="1.333333" stroke-linejoin="round"/>
		<path id="path424" d="M117.07 170.32L116.76 176.69L107.98 176.69L108.59 170.32L117.07 170.32Z" fill="#1A2E35" fill-opacity="1.000000" fill-rule="nonzero"/>
		<path id="path428" d="M116.76 176.69L107.98 176.69L108.59 170.32L117.07 170.32L116.76 176.69Z" stroke="#FFFFFF" stroke-opacity="1.000000" stroke-width="1.333333" stroke-linejoin="round"/>
		<path id="path432" d="M159.49 170.32L160.7 176.69L151.92 176.69L151.01 170.32L159.49 170.32Z" fill="#1A2E35" fill-opacity="1.000000" fill-rule="nonzero"/>
		<path id="path436" d="M160.7 176.69L151.92 176.69L151.01 170.32L159.49 170.32L160.7 176.69Z" stroke="#FFFFFF" stroke-opacity="1.000000" stroke-width="1.333333" stroke-linejoin="round"/>
		<path id="path440" d="M167.98 170.32L169.49 176.69L160.7 176.69L159.49 170.32L167.98 170.32Z" fill="#1A2E35" fill-opacity="1.000000" fill-rule="nonzero"/>
		<path id="path444" d="M169.49 176.69L160.7 176.69L159.49 170.32L167.98 170.32L169.49 176.69Z" stroke="#FFFFFF" stroke-opacity="1.000000" stroke-width="1.333333" stroke-linejoin="round"/>
		<path id="path448" d="M134.04 170.32L134.34 176.69L125.55 176.69L125.56 170.32L134.04 170.32Z" fill="#1A2E35" fill-opacity="1.000000" fill-rule="nonzero"/>
		<path id="path452" d="M134.34 176.69L125.55 176.69L125.56 170.32L134.04 170.32L134.34 176.69Z" stroke="#FFFFFF" stroke-opacity="1.000000" stroke-width="1.333333" stroke-linejoin="round"/>
		<path id="path456" d="M142.53 170.32L143.13 176.69L134.34 176.69L134.04 170.32L142.53 170.32Z" fill="#1A2E35" fill-opacity="1.000000" fill-rule="nonzero"/>
		<path id="path460" d="M143.13 176.69L134.34 176.69L134.04 170.32L142.53 170.32L143.13 176.69Z" stroke="#FFFFFF" stroke-opacity="1.000000" stroke-width="1.333333" stroke-linejoin="round"/>
		<path id="path464" d="M151.01 170.32L151.92 176.69L143.13 176.69L142.53 170.32L151.01 170.32Z" fill="#1A2E35" fill-opacity="1.000000" fill-rule="nonzero"/>
		<path id="path468" d="M151.92 176.69L143.13 176.69L142.53 170.32L151.01 170.32L151.92 176.69Z" stroke="#FFFFFF" stroke-opacity="1.000000" stroke-width="1.333333" stroke-linejoin="round"/>
		<path id="path472" d="M83.14 170.32L84.56 164.37L92.76 164.37L91.62 170.32L83.14 170.32Z" fill="#1A2E35" fill-opacity="1.000000" fill-rule="nonzero"/>
		<path id="path476" d="M84.56 164.37L92.76 164.37L91.62 170.32L83.14 170.32L84.56 164.37Z" stroke="#FFFFFF" stroke-opacity="1.000000" stroke-width="1.333333" stroke-linejoin="round"/>
		<path id="path480" d="M181.11 158.8L179.22 153.11L186.88 153.11L189.05 158.8L181.11 158.8Z" fill="#1A2E35" fill-opacity="1.000000" fill-rule="nonzero"/>
		<path id="path484" d="M179.22 153.11L186.88 153.11L189.05 158.8L181.11 158.8L179.22 153.11Z" stroke="#FFFFFF" stroke-opacity="1.000000" stroke-width="1.333333" stroke-linejoin="round"/>
		<path id="path488" d="M189.05 158.8L196.37 158.8L198.74 164.37L191.17 164.37L189.05 158.8Z" fill="#1A2E35" fill-opacity="1.000000" fill-rule="nonzero"/>
		<path id="path492" d="M196.37 158.8L198.74 164.37L191.17 164.37L189.05 158.8L196.37 158.8Z" stroke="#FFFFFF" stroke-opacity="1.000000" stroke-width="1.333333" stroke-linejoin="round"/>
		<path id="path496" d="M186.88 153.11L193.95 153.11L196.37 158.8L189.05 158.8L186.88 153.11Z" fill="#1A2E35" fill-opacity="1.000000" fill-rule="nonzero"/>
		<path id="path500" d="M193.95 153.11L196.37 158.8L189.05 158.8L186.88 153.11L193.95 153.11Z" stroke="#FFFFFF" stroke-opacity="1.000000" stroke-width="1.333333" stroke-linejoin="round"/>
		<path id="path504" d="M191.17 164.37L198.74 164.37L201.26 170.32L193.43 170.32L191.17 164.37Z" fill="#1A2E35" fill-opacity="1.000000" fill-rule="nonzero"/>
		<path id="path508" d="M198.74 164.37L201.26 170.32L193.43 170.32L191.17 164.37L198.74 164.37Z" stroke="#FFFFFF" stroke-opacity="1.000000" stroke-width="1.333333" stroke-linejoin="round"/>
		<path id="path512" d="M193.43 170.32L201.26 170.32L203.97 176.69L195.86 176.69L193.43 170.32Z" fill="#1A2E35" fill-opacity="1.000000" fill-rule="nonzero"/>
		<path id="path516" d="M201.26 170.32L203.97 176.69L195.86 176.69L193.43 170.32L201.26 170.32Z" stroke="#FFFFFF" stroke-opacity="1.000000" stroke-width="1.333333" stroke-linejoin="round"/>
		<path id="path520" d="M195.86 176.69L203.97 176.69L206.88 183.54L198.46 183.54L195.86 176.69Z" fill="#1A2E35" fill-opacity="1.000000" fill-rule="nonzero"/>
		<path id="path524" d="M203.97 176.69L206.88 183.54L198.46 183.54L195.86 176.69L203.97 176.69Z" stroke="#FFFFFF" stroke-opacity="1.000000" stroke-width="1.333333" stroke-linejoin="round"/>
		<path id="path528" d="M59.96 164.37L57.68 170.32L50.18 170.32L52.71 164.37L59.96 164.37Z" fill="#1A2E35" fill-opacity="1.000000" fill-rule="nonzero"/>
		<path id="path532" d="M57.68 170.32L50.18 170.32L52.71 164.37L59.96 164.37L57.68 170.32Z" stroke="#FFFFFF" stroke-opacity="1.000000" stroke-width="1.333333" stroke-linejoin="round"/>
		<path id="path536" d="M55.25 176.69L47.47 176.69L50.18 170.32L57.68 170.32L55.25 176.69Z" fill="#1A2E35" fill-opacity="1.000000" fill-rule="nonzero"/>
		<path id="path540" d="M47.47 176.69L50.18 170.32L57.68 170.32L55.25 176.69L47.47 176.69Z" stroke="#FFFFFF" stroke-opacity="1.000000" stroke-width="1.333333" stroke-linejoin="round"/>
		<path id="path544" d="M52.63 183.54L44.56 183.54L47.47 176.69L55.25 176.69L52.63 183.54Z" fill="#1A2E35" fill-opacity="1.000000" fill-rule="nonzero"/>
		<path id="path548" d="M44.56 183.54L47.47 176.69L55.25 176.69L52.63 183.54L44.56 183.54Z" stroke="#FFFFFF" stroke-opacity="1.000000" stroke-width="1.333333" stroke-linejoin="round"/>
		<path id="path552" d="M117.63 158.8L117.91 153.11L125.57 153.11L125.57 158.8L117.63 158.8Z" fill="#1A2E35" fill-opacity="1.000000" fill-rule="nonzero"/>
		<path id="path556" d="M117.91 153.11L125.57 153.11L125.57 158.8L117.63 158.8L117.91 153.11Z" stroke="#FFFFFF" stroke-opacity="1.000000" stroke-width="1.333333" stroke-linejoin="round"/>
		<path id="path560" d="M59.96 164.37L52.71 164.37L55.07 158.8L62.09 158.8L59.96 164.37Z" fill="#1A2E35" fill-opacity="1.000000" fill-rule="nonzero"/>
		<path id="path564" d="M52.71 164.37L55.07 158.8L62.09 158.8L59.96 164.37L52.71 164.37Z" stroke="#FFFFFF" stroke-opacity="1.000000" stroke-width="1.333333" stroke-linejoin="round"/>
		<path id="path568" d="M64.03 176.69L55.25 176.69L57.68 170.32L66.17 170.32L64.03 176.69Z" fill="#1A2E35" fill-opacity="1.000000" fill-rule="nonzero"/>
		<path id="path572" d="M55.25 176.69L57.68 170.32L66.17 170.32L64.03 176.69L55.25 176.69Z" stroke="#FFFFFF" stroke-opacity="1.000000" stroke-width="1.333333" stroke-linejoin="round"/>
		<path id="path576" d="M173.18 158.8L171.55 153.11L179.22 153.11L181.11 158.8L173.18 158.8Z" fill="#1A2E35" fill-opacity="1.000000" fill-rule="nonzero"/>
		<path id="path580" d="M171.55 153.11L179.22 153.11L181.11 158.8L173.18 158.8L171.55 153.11Z" stroke="#FFFFFF" stroke-opacity="1.000000" stroke-width="1.333333" stroke-linejoin="round"/>
		<path id="path584" d="M70.02 158.8L68.16 164.37L59.96 164.37L62.09 158.8L70.02 158.8Z" fill="#1A2E35" fill-opacity="1.000000" fill-rule="nonzero"/>
		<path id="path588" d="M68.16 164.37L59.96 164.37L62.09 158.8L70.02 158.8L68.16 164.37Z" stroke="#FFFFFF" stroke-opacity="1.000000" stroke-width="1.333333" stroke-linejoin="round"/>
		<path id="path592" d="M55.07 158.8L57.49 153.11L64.27 153.11L62.09 158.8L55.07 158.8Z" fill="#1A2E35" fill-opacity="1.000000" fill-rule="nonzero"/>
		<path id="path596" d="M57.49 153.11L64.27 153.11L62.09 158.8L55.07 158.8L57.49 153.11Z" stroke="#FFFFFF" stroke-opacity="1.000000" stroke-width="1.333333" stroke-linejoin="round"/>
		<path id="path600" d="M62.09 158.8L64.27 153.11L71.93 153.11L70.02 158.8L62.09 158.8Z" fill="#1A2E35" fill-opacity="1.000000" fill-rule="nonzero"/>
		<path id="path604" d="M64.27 153.11L71.93 153.11L70.02 158.8L62.09 158.8L64.27 153.11Z" stroke="#FFFFFF" stroke-opacity="1.000000" stroke-width="1.333333" stroke-linejoin="round"/>
		<path id="path608" d="M90.4 176.69L89.09 183.54L79.97 183.54L81.61 176.69L90.4 176.69Z" fill="#1A2E35" fill-opacity="1.000000" fill-rule="nonzero"/>
		<path id="path612" d="M89.09 183.54L79.97 183.54L81.61 176.69L90.4 176.69L89.09 183.54Z" stroke="#FFFFFF" stroke-opacity="1.000000" stroke-width="1.333333" stroke-linejoin="round"/>
		<path id="path616" d="M61.74 183.54L52.63 183.54L55.25 176.69L64.03 176.69L61.74 183.54Z" fill="#1A2E35" fill-opacity="1.000000" fill-rule="nonzero"/>
		<path id="path620" d="M52.63 183.54L55.25 176.69L64.03 176.69L61.74 183.54L52.63 183.54Z" stroke="#FFFFFF" stroke-opacity="1.000000" stroke-width="1.333333" stroke-linejoin="round"/>
		<path id="path624" d="M70.02 158.8L71.93 153.11L79.59 153.11L77.96 158.8L70.02 158.8Z" fill="#1A2E35" fill-opacity="1.000000" fill-rule="nonzero"/>
		<path id="path628" d="M71.93 153.11L79.59 153.11L77.96 158.8L70.02 158.8L71.93 153.11Z" stroke="#FFFFFF" stroke-opacity="1.000000" stroke-width="1.333333" stroke-linejoin="round"/>
		<path id="path632" d="M72.82 176.69L70.86 183.54L61.74 183.54L64.03 176.69L72.82 176.69Z" fill="#1A2E35" fill-opacity="1.000000" fill-rule="nonzero"/>
		<path id="path636" d="M70.86 183.54L61.74 183.54L64.03 176.69L72.82 176.69L70.86 183.54Z" stroke="#FFFFFF" stroke-opacity="1.000000" stroke-width="1.333333" stroke-linejoin="round"/>
		<path id="path640" d="M81.61 176.69L79.97 183.54L70.86 183.54L72.82 176.69L81.61 176.69Z" fill="#1A2E35" fill-opacity="1.000000" fill-rule="nonzero"/>
		<path id="path644" d="M79.97 183.54L70.86 183.54L72.82 176.69L81.61 176.69L79.97 183.54Z" stroke="#FFFFFF" stroke-opacity="1.000000" stroke-width="1.333333" stroke-linejoin="round"/>
		<path id="path648" d="M66.17 170.32L57.68 170.32L59.96 164.37L68.16 164.37L66.17 170.32Z" fill="#1A2E35" fill-opacity="1.000000" fill-rule="nonzero"/>
		<path id="path652" d="M57.68 170.32L59.96 164.37L68.16 164.37L66.17 170.32L57.68 170.32Z" stroke="#FFFFFF" stroke-opacity="1.000000" stroke-width="1.333333" stroke-linejoin="round"/>
		<path id="path656" d="M141.44 158.8L140.9 153.11L148.56 153.11L149.37 158.8L141.44 158.8Z" fill="#1A2E35" fill-opacity="1.000000" fill-rule="nonzero"/>
		<path id="path660" d="M140.9 153.11L148.56 153.11L149.37 158.8L141.44 158.8L140.9 153.11Z" stroke="#FFFFFF" stroke-opacity="1.000000" stroke-width="1.333333" stroke-linejoin="round"/>
		<path id="path664" d="M77.96 158.8L79.59 153.11L87.26 153.11L85.89 158.8L77.96 158.8Z" fill="#1A2E35" fill-opacity="1.000000" fill-rule="nonzero"/>
		<path id="path668" d="M79.59 153.11L87.26 153.11L85.89 158.8L77.96 158.8L79.59 153.11Z" stroke="#FFFFFF" stroke-opacity="1.000000" stroke-width="1.333333" stroke-linejoin="round"/>
		<path id="path672" d="M149.37 158.8L148.56 153.11L156.23 153.11L157.31 158.8L149.37 158.8Z" fill="#1A2E35" fill-opacity="1.000000" fill-rule="nonzero"/>
		<path id="path676" d="M148.56 153.11L156.23 153.11L157.31 158.8L149.37 158.8L148.56 153.11Z" stroke="#FFFFFF" stroke-opacity="1.000000" stroke-width="1.333333" stroke-linejoin="round"/>
		<path id="path680" d="M125.57 158.8L125.57 153.11L133.24 153.11L133.5 158.8L125.57 158.8Z" fill="#1A2E35" fill-opacity="1.000000" fill-rule="nonzero"/>
		<path id="path684" d="M125.57 153.11L133.24 153.11L133.5 158.8L125.57 158.8L125.57 153.11Z" stroke="#FFFFFF" stroke-opacity="1.000000" stroke-width="1.333333" stroke-linejoin="round"/>
		<path id="path688" d="M157.31 158.8L156.23 153.11L163.89 153.11L165.24 158.8L157.31 158.8Z" fill="#1A2E35" fill-opacity="1.000000" fill-rule="nonzero"/>
		<path id="path692" d="M156.23 153.11L163.89 153.11L165.24 158.8L157.31 158.8L156.23 153.11Z" stroke="#FFFFFF" stroke-opacity="1.000000" stroke-width="1.333333" stroke-linejoin="round"/>
		<path id="path696" d="M165.24 158.8L163.89 153.11L171.55 153.11L173.18 158.8L165.24 158.8Z" fill="#1A2E35" fill-opacity="1.000000" fill-rule="nonzero"/>
		<path id="path700" d="M163.89 153.11L171.55 153.11L173.18 158.8L165.24 158.8L163.89 153.11Z" stroke="#FFFFFF" stroke-opacity="1.000000" stroke-width="1.333333" stroke-linejoin="round"/>
		<path id="path704" d="M133.5 158.8L133.24 153.11L140.9 153.11L141.44 158.8L133.5 158.8Z" fill="#1A2E35" fill-opacity="1.000000" fill-rule="nonzero"/>
		<path id="path708" d="M133.24 153.11L140.9 153.11L141.44 158.8L133.5 158.8L133.24 153.11Z" stroke="#FFFFFF" stroke-opacity="1.000000" stroke-width="1.333333" stroke-linejoin="round"/>
		<path id="path712" d="M85.89 158.8L87.26 153.11L94.92 153.11L93.83 158.8L85.89 158.8Z" fill="#1A2E35" fill-opacity="1.000000" fill-rule="nonzero"/>
		<path id="path716" d="M87.26 153.11L94.92 153.11L93.83 158.8L85.89 158.8L87.26 153.11Z" stroke="#FFFFFF" stroke-opacity="1.000000" stroke-width="1.333333" stroke-linejoin="round"/>
		<path id="path720" d="M93.83 158.8L94.92 153.11L102.58 153.11L101.76 158.8L93.83 158.8Z" fill="#1A2E35" fill-opacity="1.000000" fill-rule="nonzero"/>
		<path id="path724" d="M94.92 153.11L102.58 153.11L101.76 158.8L93.83 158.8L94.92 153.11Z" stroke="#FFFFFF" stroke-opacity="1.000000" stroke-width="1.333333" stroke-linejoin="round"/>
		<path id="path728" d="M109.7 158.8L110.25 153.11L117.91 153.11L117.63 158.8L109.7 158.8Z" fill="#1A2E35" fill-opacity="1.000000" fill-rule="nonzero"/>
		<path id="path732" d="M110.25 153.11L117.91 153.11L117.63 158.8L109.7 158.8L110.25 153.11Z" stroke="#FFFFFF" stroke-opacity="1.000000" stroke-width="1.333333" stroke-linejoin="round"/>
		<path id="path736" d="M90.4 176.69L99.19 176.69L107.98 176.69L116.76 176.69L125.55 176.69L134.34 176.69L143.13 176.69L151.92 176.69L160.7 176.69L169.49 176.69L178.28 176.69L180.23 183.54L171.12 183.54L162 183.54L152.89 183.54L143.78 183.54L134.66 183.54L125.55 183.54L116.43 183.54L107.32 183.54L98.2 183.54L89.09 183.54L90.4 176.69Z" fill="#1A2E35" fill-opacity="1.000000" fill-rule="nonzero"/>
		<path id="path740" d="M99.19 176.69L107.98 176.69L116.76 176.69L125.55 176.69L134.34 176.69L143.13 176.69L151.92 176.69L160.7 176.69L169.49 176.69L178.28 176.69L180.23 183.54L171.12 183.54L162 183.54L152.89 183.54L143.78 183.54L134.66 183.54L125.55 183.54L116.43 183.54L107.32 183.54L98.2 183.54L89.09 183.54L90.4 176.69L99.19 176.69Z" stroke="#FFFFFF" stroke-opacity="1.000000" stroke-width="1.333333" stroke-linejoin="round"/>
		<path id="path744" d="M101.76 158.8L102.58 153.11L110.25 153.11L109.7 158.8L101.76 158.8Z" fill="#1A2E35" fill-opacity="1.000000" fill-rule="nonzero"/>
		<path id="path748" d="M102.58 153.11L110.25 153.11L109.7 158.8L101.76 158.8L102.58 153.11Z" stroke="#FFFFFF" stroke-opacity="1.000000" stroke-width="1.333333" stroke-linejoin="round"/>
		<path id="path750" d="M29.79 198.36L225.11 198.36L225.11 195.58L29.79 195.58L29.79 198.36Z" fill="#1A2E35" fill-opacity="1.000000" fill-rule="nonzero"/>
		<path id="path750" d="M225.11 198.36L225.11 195.58L29.79 195.58L29.79 198.36L225.11 198.36Z" stroke="#1A2E35" stroke-opacity="1.000000" stroke-width="1.333333" stroke-linejoin="round"/>
		<path id="path754" d="M184.98 61.65L176.47 61.65" stroke="#1A2E35" stroke-opacity="1.000000" stroke-width="4.000000" stroke-linejoin="round" stroke-linecap="round"/>
		<path id="path758" d="M184.98 66.03L153.02 66.03" stroke="#FFFFFF" stroke-opacity="1.000000" stroke-width="4.000000" stroke-linejoin="round" stroke-linecap="round"/>
		<path id="path762" d="M135.54 66.03L103.57 66.03" stroke="#FFFFFF" stroke-opacity="1.000000" stroke-width="4.000000" stroke-linejoin="round" stroke-linecap="round"/>
		<path id="path766" d="M150.95 66.03L138.3 66.03" stroke="#1A2E35" stroke-opacity="1.000000" stroke-width="4.000000" stroke-linejoin="round" stroke-linecap="round"/>
		<path id="path770" d="M184.98 70.42L166.58 70.42" stroke="#1A2E35" stroke-opacity="1.000000" stroke-width="4.000000" stroke-linejoin="round" stroke-linecap="round"/>
		<path id="path774" d="M164.28 70.42L145.89 70.42" stroke="#1A2E35" stroke-opacity="1.000000" stroke-width="4.000000" stroke-linejoin="round" stroke-linecap="round"/>
		<path id="path778" d="M143.59 70.42L125.19 70.42" stroke="#1A2E35" stroke-opacity="1.000000" stroke-width="4.000000" stroke-linejoin="round" stroke-linecap="round"/>
		<path id="path782" d="M122.89 70.42L115.07 70.42" stroke="#1A2E35" stroke-opacity="1.000000" stroke-width="4.000000" stroke-linejoin="round" stroke-linecap="round"/>
		<path id="path786" d="M174.17 61.65L165.66 61.65" stroke="#1A2E35" stroke-opacity="1.000000" stroke-width="4.000000" stroke-linejoin="round" stroke-linecap="round"/>
		<path id="path790" d="M123.58 61.65L115.07 61.65" stroke="#1A2E35" stroke-opacity="1.000000" stroke-width="4.000000" stroke-linejoin="round" stroke-linecap="round"/>
		<path id="path794" d="M134.85 61.65L126.34 61.65" stroke="#FFFFFF" stroke-opacity="1.000000" stroke-width="4.000000" stroke-linejoin="round" stroke-linecap="round"/>
		<path id="path798" d="M163.36 61.65L138.53 61.65" stroke="#1A2E35" stroke-opacity="1.000000" stroke-width="4.000000" stroke-linejoin="round" stroke-linecap="round"/>
		<path id="path802" d="M184.98 88.43L176.47 88.43" stroke="#1A2E35" stroke-opacity="1.000000" stroke-width="4.000000" stroke-linejoin="round" stroke-linecap="round"/>
		<path id="path806" d="M184.98 92.82L153.02 92.82" stroke="#FFFFFF" stroke-opacity="1.000000" stroke-width="4.000000" stroke-linejoin="round" stroke-linecap="round"/>
		<path id="path810" d="M135.54 92.82L103.57 92.82" stroke="#1A2E35" stroke-opacity="1.000000" stroke-width="4.000000" stroke-linejoin="round" stroke-linecap="round"/>
		<path id="path814" d="M150.95 92.82L138.3 92.82" stroke="#1A2E35" stroke-opacity="1.000000" stroke-width="4.000000" stroke-linejoin="round" stroke-linecap="round"/>
		<path id="path818" d="M184.98 97.2L166.58 97.2" stroke="#1A2E35" stroke-opacity="1.000000" stroke-width="4.000000" stroke-linejoin="round" stroke-linecap="round"/>
		<path id="path822" d="M164.28 97.2L145.89 97.2" stroke="#1A2E35" stroke-opacity="1.000000" stroke-width="4.000000" stroke-linejoin="round" stroke-linecap="round"/>
		<path id="path826" d="M143.59 97.2L125.19 97.2" stroke="#FFFFFF" stroke-opacity="1.000000" stroke-width="4.000000" stroke-linejoin="round" stroke-linecap="round"/>
		<path id="path830" d="M122.89 97.2L115.07 97.2" stroke="#1A2E35" stroke-opacity="1.000000" stroke-width="4.000000" stroke-linejoin="round" stroke-linecap="round"/>
		<path id="path834" d="M174.17 88.43L165.66 88.43" stroke="#1A2E35" stroke-opacity="1.000000" stroke-width="4.000000" stroke-linejoin="round" stroke-linecap="round"/>
		<path id="path838" d="M123.58 88.43L115.07 88.43" stroke="#1A2E35" stroke-opacity="1.000000" stroke-width="4.000000" stroke-linejoin="round" stroke-linecap="round"/>
		<path id="path842" d="M134.85 88.43L126.34 88.43" stroke="#FFFFFF" stroke-opacity="1.000000" stroke-width="4.000000" stroke-linejoin="round" stroke-linecap="round"/>
		<path id="path846" d="M163.36 88.43L138.53 88.43" stroke="#1A2E35" stroke-opacity="1.000000" stroke-width="4.000000" stroke-linejoin="round" stroke-linecap="round"/>
		<path id="path850" d="M184.98 127.91L176.47 127.91" stroke="#1A2E35" stroke-opacity="1.000000" stroke-width="4.000000" stroke-linejoin="round" stroke-linecap="round"/>
		<path id="path854" d="M184.98 132.29L153.02 132.29" stroke="#FFFFFF" stroke-opacity="1.000000" stroke-width="4.000000" stroke-linejoin="round" stroke-linecap="round"/>
		<path id="path858" d="M135.54 132.29L103.57 132.29" stroke="#1A2E35" stroke-opacity="1.000000" stroke-width="4.000000" stroke-linejoin="round" stroke-linecap="round"/>
		<path id="path862" d="M150.95 132.29L138.3 132.29" stroke="#1A2E35" stroke-opacity="1.000000" stroke-width="4.000000" stroke-linejoin="round" stroke-linecap="round"/>
		<path id="path866" d="M184.98 136.68L166.58 136.68" stroke="#1A2E35" stroke-opacity="1.000000" stroke-width="4.000000" stroke-linejoin="round" stroke-linecap="round"/>
		<path id="path870" d="M164.28 136.68L145.89 136.68" stroke="#1A2E35" stroke-opacity="1.000000" stroke-width="4.000000" stroke-linejoin="round" stroke-linecap="round"/>
		<path id="path874" d="M143.59 136.68L125.19 136.68" stroke="#FFFFFF" stroke-opacity="1.000000" stroke-width="4.000000" stroke-linejoin="round" stroke-linecap="round"/>
		<path id="path878" d="M122.89 136.68L115.07 136.68" stroke="#1A2E35" stroke-opacity="1.000000" stroke-width="4.000000" stroke-linejoin="round" stroke-linecap="round"/>
		<path id="path882" d="M174.17 127.91L165.66 127.91" stroke="#1A2E35" stroke-opacity="1.000000" stroke-width="4.000000" stroke-linejoin="round" stroke-linecap="round"/>
		<path id="path886" d="M123.58 127.91L115.07 127.91" stroke="#1A2E35" stroke-opacity="1.000000" stroke-width="4.000000" stroke-linejoin="round" stroke-linecap="round"/>
		<path id="path890" d="M134.85 127.91L126.34 127.91" stroke="#FFFFFF" stroke-opacity="1.000000" stroke-width="4.000000" stroke-linejoin="round" stroke-linecap="round"/>
		<path id="path894" d="M163.36 127.91L138.53 127.91" stroke="#1A2E35" stroke-opacity="1.000000" stroke-width="4.000000" stroke-linejoin="round" stroke-linecap="round"/>
		<path id="path898" d="M137.15 75.04L128.64 75.04" stroke="#1A2E35" stroke-opacity="1.000000" stroke-width="4.000000" stroke-linejoin="round" stroke-linecap="round"/>
		<path id="path902" d="M148.42 75.04L139.91 75.04" stroke="#1A2E35" stroke-opacity="1.000000" stroke-width="4.000000" stroke-linejoin="round" stroke-linecap="round"/>
		<path id="path906" d="M176.93 75.04L152.1 75.04" stroke="#1A2E35" stroke-opacity="1.000000" stroke-width="4.000000" stroke-linejoin="round" stroke-linecap="round"/>
		<path id="path910" d="M137.15 82.89L128.64 82.89" stroke="#1A2E35" stroke-opacity="1.000000" stroke-width="4.000000" stroke-linejoin="round" stroke-linecap="round"/>
		<path id="path914" d="M148.42 82.89L139.91 82.89" stroke="#1A2E35" stroke-opacity="1.000000" stroke-width="4.000000" stroke-linejoin="round" stroke-linecap="round"/>
		<path id="path918" d="M176.93 82.89L152.1 82.89" stroke="#FFFFFF" stroke-opacity="1.000000" stroke-width="4.000000" stroke-linejoin="round" stroke-linecap="round"/>
		<path id="path922" d="M176.93 78.96L168.42 78.96" stroke="#1A2E35" stroke-opacity="1.000000" stroke-width="4.000000" stroke-linejoin="round" stroke-linecap="round"/>
		<path id="path926" d="M165.66 78.96L157.16 78.96" stroke="#1A2E35" stroke-opacity="1.000000" stroke-width="4.000000" stroke-linejoin="round" stroke-linecap="round"/>
		<path id="path930" d="M153.48 78.96L128.64 78.96" stroke="#FFFFFF" stroke-opacity="1.000000" stroke-width="4.000000" stroke-linejoin="round" stroke-linecap="round"/>
		<path id="path934" d="M137.15 102.51L128.64 102.51" stroke="#1A2E35" stroke-opacity="1.000000" stroke-width="4.000000" stroke-linejoin="round" stroke-linecap="round"/>
		<path id="path938" d="M148.42 102.51L139.91 102.51" stroke="#1A2E35" stroke-opacity="1.000000" stroke-width="4.000000" stroke-linejoin="round" stroke-linecap="round"/>
		<path id="path942" d="M176.93 102.51L152.1 102.51" stroke="#1A2E35" stroke-opacity="1.000000" stroke-width="4.000000" stroke-linejoin="round" stroke-linecap="round"/>
		<path id="path946" d="M137.15 110.36L128.64 110.36" stroke="#1A2E35" stroke-opacity="1.000000" stroke-width="4.000000" stroke-linejoin="round" stroke-linecap="round"/>
		<path id="path950" d="M148.42 110.36L139.91 110.36" stroke="#1A2E35" stroke-opacity="1.000000" stroke-width="4.000000" stroke-linejoin="round" stroke-linecap="round"/>
		<path id="path954" d="M176.93 110.36L152.1 110.36" stroke="#FFFFFF" stroke-opacity="1.000000" stroke-width="4.000000" stroke-linejoin="round" stroke-linecap="round"/>
		<path id="path958" d="M176.93 106.44L168.42 106.44" stroke="#1A2E35" stroke-opacity="1.000000" stroke-width="4.000000" stroke-linejoin="round" stroke-linecap="round"/>
		<path id="path962" d="M165.66 106.44L157.16 106.44" stroke="#1A2E35" stroke-opacity="1.000000" stroke-width="4.000000" stroke-linejoin="round" stroke-linecap="round"/>
		<path id="path966" d="M153.48 106.44L128.64 106.44" stroke="#FFFFFF" stroke-opacity="1.000000" stroke-width="4.000000" stroke-linejoin="round" stroke-linecap="round"/>
		<path id="path970" d="M176.93 114.98L168.42 114.98" stroke="#1A2E35" stroke-opacity="1.000000" stroke-width="4.000000" stroke-linejoin="round" stroke-linecap="round"/>
		<path id="path974" d="M165.66 114.98L157.16 114.98" stroke="#1A2E35" stroke-opacity="1.000000" stroke-width="4.000000" stroke-linejoin="round" stroke-linecap="round"/>
		<path id="path978" d="M153.48 114.98L128.64 114.98" stroke="#FFFFFF" stroke-opacity="1.000000" stroke-width="4.000000" stroke-linejoin="round" stroke-linecap="round"/>
		<path id="path982" d="M176.93 122.83L168.42 122.83" stroke="#1A2E35" stroke-opacity="1.000000" stroke-width="4.000000" stroke-linejoin="round" stroke-linecap="round"/>
		<path id="path986" d="M165.66 122.83L157.16 122.83" stroke="#1A2E35" stroke-opacity="1.000000" stroke-width="4.000000" stroke-linejoin="round" stroke-linecap="round"/>
		<path id="path990" d="M153.48 122.83L128.64 122.83" stroke="#FFFFFF" stroke-opacity="1.000000" stroke-width="4.000000" stroke-linejoin="round" stroke-linecap="round"/>
		<path id="path994" d="M137.15 118.9L128.64 118.9" stroke="#1A2E35" stroke-opacity="1.000000" stroke-width="4.000000" stroke-linejoin="round" stroke-linecap="round"/>
		<path id="path998" d="M148.42 118.9L139.91 118.9" stroke="#1A2E35" stroke-opacity="1.000000" stroke-width="4.000000" stroke-linejoin="round" stroke-linecap="round"/>
		<path id="path1002" d="M176.93 118.9L152.1 118.9" stroke="#FFFFFF" stroke-opacity="1.000000" stroke-width="4.000000" stroke-linejoin="round" stroke-linecap="round"/>
		<path id="path1004" d="M188.14 62.82L190.85 62.82L190.85 60.13L188.14 60.13L188.14 62.82Z" fill="#1A2E35" fill-opacity="1.000000" fill-rule="nonzero"/>
		<path id="path1006" d="M188.14 67.24L190.85 67.24L190.85 64.55L188.14 64.55L188.14 67.24Z" fill="#1A2E35" fill-opacity="1.000000" fill-rule="nonzero"/>
		<path id="path1008" d="M188.14 71.67L190.85 71.67L190.85 68.98L188.14 68.98L188.14 71.67Z" fill="#1A2E35" fill-opacity="1.000000" fill-rule="nonzero"/>
		<path id="path1010" d="M188.14 76.09L190.85 76.09L190.85 73.4L188.14 73.4L188.14 76.09Z" fill="#1A2E35" fill-opacity="1.000000" fill-rule="nonzero"/>
		<path id="path1012" d="M188.14 80.52L190.85 80.52L190.85 77.83L188.14 77.83L188.14 80.52Z" fill="#1A2E35" fill-opacity="1.000000" fill-rule="nonzero"/>
		<path id="path1014" d="M188.14 84.95L190.85 84.95L190.85 82.25L188.14 82.25L188.14 84.95Z" fill="#1A2E35" fill-opacity="1.000000" fill-rule="nonzero"/>
		<path id="path1016" d="M188.14 89.37L190.85 89.37L190.85 86.68L188.14 86.68L188.14 89.37Z" fill="#1A2E35" fill-opacity="1.000000" fill-rule="nonzero"/>
		<path id="path1018" d="M188.14 93.8L190.85 93.8L190.85 91.1L188.14 91.1L188.14 93.8Z" fill="#1A2E35" fill-opacity="1.000000" fill-rule="nonzero"/>
		<path id="path1020" d="M188.14 98.22L190.85 98.22L190.85 95.53L188.14 95.53L188.14 98.22Z" fill="#1A2E35" fill-opacity="1.000000" fill-rule="nonzero"/>
		<path id="path1022" d="M188.14 102.65L190.85 102.65L190.85 99.95L188.14 99.95L188.14 102.65Z" fill="#1A2E35" fill-opacity="1.000000" fill-rule="nonzero"/>
		<path id="path1024" d="M188.14 107.07L190.85 107.07L190.85 104.38L188.14 104.38L188.14 107.07Z" fill="#1A2E35" fill-opacity="1.000000" fill-rule="nonzero"/>
		<path id="path1026" d="M188.14 111.5L190.85 111.5L190.85 108.8L188.14 108.8L188.14 111.5Z" fill="#1A2E35" fill-opacity="1.000000" fill-rule="nonzero"/>
		<path id="path1028" d="M188.14 115.92L190.85 115.92L190.85 113.23L188.14 113.23L188.14 115.92Z" fill="#1A2E35" fill-opacity="1.000000" fill-rule="nonzero"/>
		<path id="path1030" d="M188.14 120.35L190.85 120.35L190.85 117.66L188.14 117.66L188.14 120.35Z" fill="#1A2E35" fill-opacity="1.000000" fill-rule="nonzero"/>
		<path id="path1032" d="M188.14 124.77L190.85 124.77L190.85 122.08L188.14 122.08L188.14 124.77Z" fill="#1A2E35" fill-opacity="1.000000" fill-rule="nonzero"/>
		<path id="path1034" d="M188.14 129.2L190.85 129.2L190.85 126.51L188.14 126.51L188.14 129.2Z" fill="#1A2E35" fill-opacity="1.000000" fill-rule="nonzero"/>
		<path id="path1036" d="M188.14 133.63L190.85 133.63L190.85 130.93L188.14 130.93L188.14 133.63Z" fill="#1A2E35" fill-opacity="1.000000" fill-rule="nonzero"/>
		<path id="path1038" d="M188.14 138.05L190.85 138.05L190.85 135.36L188.14 135.36L188.14 138.05Z" fill="#1A2E35" fill-opacity="1.000000" fill-rule="nonzero"/>
		<path id="path1050" d="M61.67 11.73C77.96 11.73 91.18 25 91.18 41.36C91.18 49.78 87.67 57.37 82.06 62.76L86.26 70.63L75.96 67.28C71.72 69.64 66.85 70.99 61.67 70.99C45.37 70.99 32.15 57.72 32.15 41.36C32.15 25 45.37 11.73 61.67 11.73Z" fill="#1A2E35" fill-opacity="1.000000" fill-rule="nonzero"/>
		<path id="path1054" d="M91.18 41.36C91.18 49.78 87.67 57.37 82.06 62.76L86.26 70.63L75.96 67.28C71.72 69.64 66.85 70.99 61.67 70.99C45.37 70.99 32.15 57.72 32.15 41.36C32.15 25 45.37 11.73 61.67 11.73C77.96 11.73 91.18 25 91.18 41.36Z" stroke="#1A2E35" stroke-opacity="1.000000" stroke-width="1.333333" stroke-linejoin="round"/>
		<path id="path1058" d="M63.07 9.62C79.37 9.62 92.58 22.88 92.58 39.24C92.58 47.66 89.08 55.25 83.46 60.65L87.66 68.52L77.36 65.16C73.13 67.52 68.26 68.87 63.07 68.87C46.77 68.87 33.56 55.61 33.56 39.24C33.56 22.88 46.77 9.62 63.07 9.62Z" fill="#FFFFFF" fill-opacity="1.000000" fill-rule="nonzero"/>
		<path id="path1062" d="M92.58 39.24C92.58 47.66 89.08 55.25 83.46 60.65L87.66 68.52L77.36 65.16C73.13 67.52 68.26 68.87 63.07 68.87C46.77 68.87 33.56 55.61 33.56 39.24C33.56 22.88 46.77 9.62 63.07 9.62C79.37 9.62 92.58 22.88 92.58 39.24Z" stroke="#1A2E35" stroke-opacity="1.000000" stroke-width="1.333333" stroke-linejoin="round"/>
		<path id="path1098" d="M85.51 198.66L67.64 213.47C67.64 213.47 66.58 216.29 64.13 219.47C61.67 222.64 32.86 234.63 32.86 234.63L27.94 236.04L81.69 195.48L85.51 198.66Z" fill="#1A2E35" fill-opacity="1.000000" fill-rule="nonzero"/>
		<path id="path1102" d="M67.64 213.47C67.64 213.47 66.58 216.29 64.13 219.47C61.67 222.64 32.86 234.63 32.86 234.63L27.94 236.04L81.69 195.48L85.51 198.66L67.64 213.47Z" stroke="#1A2E35" stroke-opacity="1.000000" stroke-width="1.333333" stroke-linejoin="round"/>
		<path id="path1106" d="M50.71 186.9C50.71 186.9 55.5 181.02 57.63 177.27C59.76 173.53 62.78 164.8 65.09 159.63C67.4 154.46 70.77 152.86 74.85 151.25C78.94 149.65 80.54 150 80.54 151.07C80.54 152.14 78.94 154.1 78.94 154.1L85.86 155.35C85.86 155.35 88.7 153.75 90.48 154.28C92.25 154.82 95.63 158.2 95.63 158.2C95.63 158.2 99.18 156.96 101.31 157.49C103.44 158.03 109.3 160.88 111.79 162.13C114.27 163.37 116.93 163.55 116.76 164.62C116.58 165.69 114.09 167.47 111.79 167.12C109.48 166.76 105.57 165.33 103.09 165.33C100.6 165.33 99.36 165.87 98.11 166.76C96.87 167.65 91.72 174.96 91.01 175.85C90.3 176.74 89.59 180.31 89.59 180.31C89.59 180.31 92.72 178.96 94.67 177.18C96.63 175.4 99.42 171.22 102.62 170.86C105.81 170.5 109.3 173.35 107.52 174.78C105.75 176.21 103.97 177.1 102.73 178.7C101.49 180.31 99.53 185.12 96.16 190.29C92.79 195.46 85.51 198.66 85.51 198.66L70.42 204.9C70.42 204.9 66.51 195.63 59.23 193.14C51.95 190.64 49.82 189.57 49.82 189.57L50.71 186.9Z" fill="#FFFFFF" fill-opacity="1.000000" fill-rule="nonzero"/>
		<path id="path1110" d="M57.63 177.27C59.76 173.53 62.78 164.8 65.09 159.63C67.4 154.46 70.77 152.86 74.85 151.25C78.94 149.65 80.54 150 80.54 151.07C80.54 152.14 78.94 154.1 78.94 154.1L85.86 155.35C85.86 155.35 88.7 153.75 90.48 154.28C92.25 154.82 95.63 158.2 95.63 158.2C95.63 158.2 99.18 156.96 101.31 157.49C103.44 158.03 109.3 160.88 111.79 162.13C114.27 163.37 116.93 163.55 116.76 164.62C116.58 165.69 114.09 167.47 111.79 167.12C109.48 166.76 105.57 165.33 103.09 165.33C100.6 165.33 99.36 165.87 98.11 166.76C96.87 167.65 91.72 174.96 91.01 175.85C90.3 176.74 89.59 180.31 89.59 180.31C89.59 180.31 92.72 178.96 94.67 177.18C96.63 175.4 99.42 171.22 102.62 170.86C105.81 170.5 109.3 173.35 107.52 174.78C105.75 176.21 103.97 177.1 102.73 178.7C101.49 180.31 99.53 185.12 96.16 190.29C92.79 195.46 85.51 198.66 85.51 198.66L70.42 204.9C70.42 204.9 66.51 195.63 59.23 193.14C51.95 190.64 49.82 189.57 49.82 189.57L50.71 186.9C50.71 186.9 55.5 181.02 57.63 177.27Z" stroke="#1A2E35" stroke-opacity="1.000000" stroke-width="1.333333" stroke-linejoin="round"/>
		<path id="path1114" d="M116.76 164.62C116.76 164.62 115.03 164.18 114.53 164.01C114.03 163.84 113.45 163.34 113.45 163.34" stroke="#1A2E35" stroke-opacity="1.000000" stroke-width="1.333333" stroke-linejoin="round" stroke-linecap="round"/>
		<path id="path1118" d="M95.63 158.2C95.63 158.2 87.45 162.8 85.14 164.04C84.19 164.56 81.94 165.61 81.25 167.95C80.43 170.71 78.77 172.21 78.77 172.21" stroke="#1A2E35" stroke-opacity="1.000000" stroke-width="1.333333" stroke-linejoin="round" stroke-linecap="round"/>
		<path id="path1122" d="M85.86 155.35C85.86 155.35 77.87 161.59 77.34 161.77C76.81 161.95 74.85 162.12 73.97 163.73C73.08 165.33 72.19 167.12 72.19 167.12" stroke="#1A2E35" stroke-opacity="1.000000" stroke-width="1.333333" stroke-linejoin="round" stroke-linecap="round"/>
		<path id="path1126" d="M78.94 154.1C78.94 154.1 76.1 153.57 75.03 155.71C73.97 157.85 69.35 163.02 69.35 163.02" stroke="#1A2E35" stroke-opacity="1.000000" stroke-width="1.333333" stroke-linejoin="round" stroke-linecap="round"/>
		<path id="path1130" d="M104.33 177.1C104.33 177.1 102.2 176.03 103.26 174.42C104.33 172.82 106.46 172.82 106.46 172.82" stroke="#1A2E35" stroke-opacity="1.000000" stroke-width="1.333333" stroke-linejoin="round" stroke-linecap="round"/>
		<path id="path1134" d="M51.06 184.58C51.06 184.58 60.65 187.08 66.69 193.85C72.72 200.62 72.72 206.33 72.19 207.22C71.66 208.11 60.12 214.35 60.12 214.35C60.12 214.35 53.02 200.62 48.04 197.24C43.07 193.85 39.52 192.96 39.52 192.96C39.52 192.96 48.4 187.26 48.75 186.54C49.11 185.83 49.82 184.05 51.06 184.58Z" fill="#38BFF2" fill-opacity="1.000000" fill-rule="nonzero"/>
		<path id="path1138" d="M66.69 193.85C72.72 200.62 72.72 206.33 72.19 207.22C71.66 208.11 60.12 214.35 60.12 214.35C60.12 214.35 53.02 200.62 48.04 197.24C43.07 193.85 39.52 192.96 39.52 192.96C39.52 192.96 48.4 187.26 48.75 186.54C49.11 185.83 49.82 184.05 51.06 184.58C51.06 184.58 60.65 187.08 66.69 193.85Z" stroke="#1A2E35" stroke-opacity="1.000000" stroke-width="1.333333" stroke-linejoin="round"/>
		<path id="path1142" d="M24.07 238.23C24.07 238.23 33.84 233.24 36.15 231.99C38.46 230.75 54.26 222.19 54.26 222.19C54.26 222.19 56.21 221.66 57.28 221.12C58.34 220.59 59.94 220.77 60.65 217.02C61.36 213.28 59.58 205.79 51.6 198.31C43.61 190.82 38.63 191.18 38.63 191.18C38.63 191.18 35.26 190.82 34.37 191.53C33.48 192.25 33.31 194.39 32.42 194.74C31.53 195.1 6.96 202.49 6.96 202.49L24.07 238.23ZM24.39 238.8L24.38 238.83C24.05 239 23.65 238.87 23.48 238.54C23.31 238.2 23.44 237.81 23.77 237.64L23.8 237.65L24.39 238.8ZM7.17 203.1L7.16 203.13C6.8 203.24 6.43 203.04 6.33 202.68C6.22 202.33 6.41 201.96 6.77 201.85L6.8 201.87L7.17 203.1Z" fill="#38BFF2" fill-opacity="1.000000" fill-rule="nonzero"/>
		<path id="path1142" d="M24.07 238.23C24.07 238.23 33.84 233.24 36.15 231.99C38.46 230.75 54.26 222.19 54.26 222.19C54.26 222.19 56.21 221.66 57.28 221.12C58.34 220.59 59.94 220.77 60.65 217.02C61.36 213.28 59.58 205.79 51.6 198.31C43.61 190.82 38.63 191.18 38.63 191.18C38.63 191.18 35.26 190.82 34.37 191.53C33.48 192.25 33.31 194.39 32.42 194.74C31.53 195.1 6.96 202.49 6.96 202.49" stroke="#1A2E35" stroke-opacity="1.000000" stroke-width="1.333333" stroke-linejoin="round" stroke-linecap="round"/>
		<path id="path1146" d="M51.95 210.78C51.95 210.78 53.02 216.13 50.53 220.59" stroke="#1A2E35" stroke-opacity="1.000000" stroke-width="1.333333" stroke-linejoin="round" stroke-linecap="round"/>
		<path id="path1150" d="M49.46 217.74C49.46 217.74 50.53 218.09 47.69 222.73" stroke="#1A2E35" stroke-opacity="1.000000" stroke-width="1.333333" stroke-linejoin="round" stroke-linecap="round"/>
		<path id="path1162" d="M158.88 182.93C158.88 182.93 170.58 196.9 174.09 199.72C177.6 202.54 180.77 204.3 180.77 204.3L193.41 217C193.41 217 193.06 218.76 196.58 220.88C200.09 223 207.12 225.46 208.87 226.17C210.63 226.87 229.95 235.69 229.95 235.69L158.88 182.93Z" fill="#1A2E35" fill-opacity="1.000000" fill-rule="nonzero"/>
		<path id="path1166" d="M174.09 199.72C177.6 202.54 180.77 204.3 180.77 204.3L193.41 217C193.41 217 193.06 218.76 196.58 220.88C200.09 223 207.12 225.46 208.87 226.17C210.63 226.87 229.95 235.69 229.95 235.69L158.88 182.93C158.88 182.93 170.58 196.9 174.09 199.72Z" stroke="#1A2E35" stroke-opacity="1.000000" stroke-width="1.333333" stroke-linejoin="round"/>
		<path id="path1170" d="M160.84 173.42L158.51 166.26C157.52 167 153.22 168.61 153.22 168.61C156.05 169.35 160.84 173.42 160.84 173.42ZM141.9 161.57C143.13 161.94 147.56 161.69 147.56 161.69C147.56 161.69 150.26 159.59 151.62 158.35C152.97 157.12 156.42 149.83 158.14 149.46C159.86 149.09 167.12 153.29 167.12 153.29C167.12 153.29 173.03 150.7 174.5 150.94C175.98 151.19 180.78 155.51 180.78 155.51C180.78 155.51 187.42 154.53 188.65 156.5C189.88 158.48 191.85 164.78 193.82 168.73C195.79 172.68 202.92 183.18 202.92 183.18L203.91 184.54C203.91 184.54 202.43 185.03 197.88 187.38C193.33 189.73 186.07 200.84 186.07 200.84C186.07 200.84 175.98 196.15 170.32 193.56C164.66 190.96 160.11 185.28 158.88 182.93C157.64 180.59 155.55 178.36 152.97 176.26C150.39 174.16 145.59 173.3 144.48 171.82C143.37 170.33 145.22 168.11 145.22 168.11C145.22 168.11 143.87 167.37 143.25 166.88C142.64 166.38 140.17 165.02 139.93 163.54C139.68 162.06 140.67 161.2 141.9 161.57Z" fill="#FFFFFF" fill-opacity="1.000000" fill-rule="nonzero"/>
		<path id="path1174" d="M158.51 166.26C157.52 167 153.22 168.61 153.22 168.61C156.05 169.35 160.84 173.42 160.84 173.42L158.51 166.26ZM147.56 161.69C147.56 161.69 150.26 159.59 151.62 158.35C152.97 157.12 156.42 149.83 158.14 149.46C159.86 149.09 167.12 153.29 167.12 153.29C167.12 153.29 173.03 150.7 174.5 150.94C175.98 151.19 180.78 155.51 180.78 155.51C180.78 155.51 187.42 154.53 188.65 156.5C189.88 158.48 191.85 164.78 193.82 168.73C195.79 172.68 202.92 183.18 202.92 183.18L203.91 184.54C203.91 184.54 202.43 185.03 197.88 187.38C193.33 189.73 186.07 200.84 186.07 200.84C186.07 200.84 175.98 196.15 170.32 193.56C164.66 190.96 160.11 185.28 158.88 182.93C157.64 180.59 155.55 178.36 152.97 176.26C150.39 174.16 145.59 173.3 144.48 171.82C143.37 170.33 145.22 168.11 145.22 168.11C145.22 168.11 143.87 167.37 143.25 166.88C142.64 166.38 140.17 165.02 139.93 163.54C139.68 162.06 140.67 161.2 141.9 161.57C143.13 161.94 147.56 161.69 147.56 161.69Z" stroke="#1A2E35" stroke-opacity="1.000000" stroke-width="1.333333" stroke-linejoin="round"/>
		<path id="path1178" d="M185.45 163.67C185.45 163.67 185.82 161.57 185.58 160.82C185.33 160.08 180.78 155.51 180.78 155.51" stroke="#1A2E35" stroke-opacity="1.000000" stroke-width="1.333333" stroke-linejoin="round" stroke-linecap="round"/>
		<path id="path1182" d="M181.52 166.14L180.53 162.92L167.12 153.29" stroke="#1A2E35" stroke-opacity="1.000000" stroke-width="1.333333" stroke-linejoin="round" stroke-linecap="round"/>
		<path id="path1186" d="M174.87 168.48C174.87 168.48 174.38 165.39 173.76 164.9C173.15 164.41 168.47 163.29 168.47 163.29C168.47 163.29 161.34 157.12 160.11 157.12C158.88 157.12 149.89 161.94 147.56 161.69" stroke="#1A2E35" stroke-opacity="1.000000" stroke-width="1.333333" stroke-linejoin="round" stroke-linecap="round"/>
		<path id="path1190" d="M143.62 162.18C143.62 162.18 145.22 162.19 144.36 163.18C143.5 164.16 141.65 163.67 140.79 163.42" stroke="#1A2E35" stroke-opacity="1.000000" stroke-width="1.333333" stroke-linejoin="round" stroke-linecap="round"/>
		<path id="path1194" d="M153.22 168.61C153.22 168.61 148.79 166.01 145.22 168.11" stroke="#1A2E35" stroke-opacity="1.000000" stroke-width="1.333333" stroke-linejoin="round" stroke-linecap="round"/>
		<path id="path1198" d="M146.33 168.85L148.79 169.72C148.79 169.72 147.8 171.69 147.68 172.43L147.56 173.18" stroke="#1A2E35" stroke-opacity="1.000000" stroke-width="1.333333" stroke-linejoin="round" stroke-linecap="round"/>
		<path id="path1202" d="M163.06 178.36L160.84 178.36" stroke="#1A2E35" stroke-opacity="1.000000" stroke-width="1.333333" stroke-linejoin="round" stroke-linecap="round"/>
		<path id="path1206" d="M219.29 192.57C219.29 192.57 211.54 187.5 208.71 185.4C205.88 183.3 204.4 183.67 202.92 183.18C201.45 182.69 194.06 184.91 189.14 191.09C184.22 197.26 184.71 201.83 185.33 203.07C185.94 204.3 201.45 213.69 201.45 213.69C201.45 213.69 203.66 204.8 210.18 199.48C216.7 194.17 219.29 192.57 219.29 192.57Z" fill="#38BFF2" fill-opacity="1.000000" fill-rule="nonzero"/>
		<path id="path1210" d="M208.71 185.4C205.88 183.3 204.4 183.67 202.92 183.18C201.45 182.69 194.06 184.91 189.14 191.09C184.22 197.26 184.71 201.83 185.33 203.07C185.94 204.3 201.45 213.69 201.45 213.69C201.45 213.69 203.66 204.8 210.18 199.48C216.7 194.17 219.29 192.57 219.29 192.57C219.29 192.57 211.54 187.5 208.71 185.4Z" stroke="#1A2E35" stroke-opacity="1.000000" stroke-width="1.333333" stroke-linejoin="round"/>
		<path id="path1214" d="M250.29 207.34C250.29 207.34 235.93 198.54 233.54 197.09C231.15 195.64 228.38 193.67 228.38 193.67C228.38 193.67 227.62 189.86 223.97 189.73C220.31 189.6 216.79 191.04 212 193.67C207.22 196.3 201.29 205.9 200.66 209.71C200.04 213.52 198.78 214.71 199.78 217.2C200.79 219.7 204.57 219.83 205.33 219.83C206.08 219.83 207.84 221.41 207.84 221.41L234.8 239.03L250.29 207.34ZM250.61 206.78L250.64 206.78C250.96 206.97 251.06 207.38 250.86 207.69C250.67 208.01 250.26 208.11 249.94 207.91L249.94 207.89L250.61 206.78ZM235.14 238.48L235.16 238.47C235.48 238.68 235.56 239.08 235.36 239.39C235.15 239.71 234.75 239.79 234.43 239.59L234.43 239.56L235.14 238.48Z" fill="#38BFF2" fill-opacity="1.000000" fill-rule="nonzero"/>
		<path id="path1214" d="M250.29 207.34C250.29 207.34 235.93 198.54 233.54 197.09C231.15 195.64 228.38 193.67 228.38 193.67C228.38 193.67 227.62 189.86 223.97 189.73C220.31 189.6 216.79 191.04 212 193.67C207.22 196.3 201.29 205.9 200.66 209.71C200.04 213.52 198.78 214.71 199.78 217.2C200.79 219.7 204.57 219.83 205.33 219.83C206.08 219.83 207.84 221.41 207.84 221.41L234.8 239.03" stroke="#1A2E35" stroke-opacity="1.000000" stroke-width="1.333333" stroke-linejoin="round" stroke-linecap="round"/>
		<path id="path1218" d="M205.74 213.14C205.74 213.14 204.61 213.98 206.86 217.51" stroke="#1A2E35" stroke-opacity="1.000000" stroke-width="1.333333" stroke-linejoin="round" stroke-linecap="round"/>
		<path id="path1222" d="M207.35 214.82C207.35 214.82 207.51 218.52 210.89 221.88" stroke="#1A2E35" stroke-opacity="1.000000" stroke-width="1.333333" stroke-linejoin="round" stroke-linecap="round"/>
		<g clip-path="url(#clip50_128)">
			<path id="finance--strategy_1_" d="M76.43 50.22L78.23 47.71C78.27 47.65 78.29 47.58 78.29 47.51L78.29 41.45C78.29 38.63 77.07 37.76 75.48 36.63L72.8 34.61C72.68 34.53 72.52 34.51 72.39 34.57C72.26 34.63 72.17 34.76 72.17 34.9L72.17 37.04L70.39 37.04C70.3 37.04 70.22 37.07 70.15 37.12L64.82 41.18C64.68 41.29 64.64 41.48 64.72 41.63L65.78 43.63C65.85 43.77 66.03 43.85 66.2 43.82L70.67 42.97L67.87 47.32C67.81 47.41 67.79 47.52 67.83 47.63L68.79 50.2C66.93 50.39 65.72 51.6 65.72 53.33L65.72 54.6C65.72 54.8 65.9 54.97 66.11 54.97L78.98 54.97C79.19 54.97 79.36 54.8 79.36 54.6L79.36 53.33C79.36 51.65 78.21 50.46 76.43 50.22ZM68.62 47.55L71.79 42.64C71.87 42.52 71.86 42.36 71.78 42.25C71.69 42.13 71.54 42.07 71.39 42.1L66.33 43.05L65.55 41.57L70.53 37.76L72.56 37.76C72.77 37.76 72.94 37.6 72.94 37.4L72.94 35.65L75.06 37.24C76.52 38.28 77.41 38.94 77.5 41.1L75.77 41.1L75.77 41.83L77.52 41.83L77.52 43.63L75.77 43.63L75.77 44.36L77.52 44.36L77.52 46.16L75.77 46.16L75.77 46.88L77.52 46.88L77.52 47.4L75.54 50.17L69.59 50.17L68.62 47.55ZM78.59 54.24L66.49 54.24L66.49 53.33C66.49 52.16 67.24 50.9 69.32 50.9L75.74 50.9C77.47 50.9 78.59 51.85 78.59 53.33L78.59 54.24ZM77.52 26.18L48.21 53.85L47.66 53.34L76.98 25.66L72.56 25.66L72.56 24.93L78.29 24.93L78.29 30.35L77.52 30.35L77.52 26.18ZM60.78 32.74C61 32.74 61.17 32.57 61.17 32.37L61.17 24.29C61.17 24.09 61 23.92 60.78 23.92L46.87 23.92C46.65 23.92 46.48 24.09 46.48 24.29L46.48 32.37C46.48 32.57 46.65 32.74 46.87 32.74L60.78 32.74ZM47.25 30.76C47.91 30.9 48.43 31.39 48.58 32.01L47.25 32.01L47.25 30.76ZM49.35 24.65L58.29 24.65C58.46 25.67 59.31 26.48 60.4 26.64L60.4 30.02C59.31 30.18 58.46 30.99 58.29 32.01L49.35 32.01C49.19 30.99 48.34 30.18 47.25 30.02L47.25 26.64C48.34 26.48 49.19 25.67 49.35 24.65ZM59.07 32.01C59.22 31.39 59.74 30.9 60.4 30.76L60.4 32.01L59.07 32.01ZM60.4 25.9C59.74 25.76 59.22 25.27 59.07 24.65L60.4 24.65L60.4 25.9ZM48.58 24.65C48.43 25.27 47.91 25.76 47.25 25.9L47.25 24.65L48.58 24.65ZM46.87 34.03L60.78 34.03L60.78 34.76L46.87 34.76L46.87 34.03ZM60.78 36.78L46.87 36.78L46.87 36.05L60.78 36.05L60.78 36.78ZM53.83 30.71C55.22 30.71 56.35 29.64 56.35 28.33C56.35 27.02 55.22 25.95 53.83 25.95C52.43 25.95 51.3 27.02 51.3 28.33C51.3 29.64 52.43 30.71 53.83 30.71ZM53.83 26.67C54.79 26.67 55.58 27.42 55.58 28.33C55.58 29.24 54.79 29.99 53.83 29.99C52.86 29.99 52.07 29.24 52.07 28.33C52.07 27.42 52.86 26.67 53.83 26.67Z" fill="#000000" fill-opacity="1.000000" fill-rule="nonzero"/>
			<rect id="_Transparent_Rectangle" x="45.802246" y="23.282227" width="34.250999" height="32.336452" fill="#000000" fill-opacity="0"/>
		</g>
	</g>
</svg>