<svg width="59.000000" height="59.000000" viewBox="0 0 59 59" fill="none" xmlns="http://www.w3.org/2000/svg" xmlns:xlink="http://www.w3.org/1999/xlink">
	<desc>
			Created with Pixso.
	</desc>
	<defs>
		<clipPath id="clip25_108">
			<rect id="svg-gobbler (5) 1" width="59.000000" height="59.000000" fill="white" fill-opacity="0"/>
		</clipPath>
	</defs>
	<rect id="svg-gobbler (5) 1" width="59.000000" height="59.000000" fill="#FFFFFF" fill-opacity="0"/>
	<g clip-path="url(#clip25_108)">
		<path id="Vector" d="M49.91 9.07C61.19 20.35 61.19 38.64 49.91 49.92C38.63 61.2 20.35 61.2 9.07 49.92C-2.21 38.64 -2.21 20.35 9.07 9.07C20.35 -2.21 38.63 -2.21 49.91 9.07Z" fill="#38BFF2" fill-opacity="1.000000" fill-rule="evenodd"/>
		<path id="Vector" d="M52.23 29.5C52.23 42.05 42.05 52.23 29.5 52.23C16.94 52.23 6.76 42.05 6.76 29.5C6.76 16.94 16.94 6.76 29.5 6.76C42.05 6.76 52.23 16.94 52.23 29.5Z" fill="#FFFFFF" fill-opacity="1.000000" fill-rule="evenodd"/>
		<path id="Vector" d="M29.5 0C13.23 0 0 13.23 0 29.5C0 45.76 13.23 59 29.5 59C45.76 59 59 45.76 59 29.5C59 13.23 45.76 0 29.5 0ZM29.5 57.77C13.91 57.77 1.22 45.08 1.22 29.5C1.22 13.91 13.91 1.22 29.5 1.22C45.08 1.22 57.77 13.91 57.77 29.5C57.77 45.08 45.08 57.77 29.5 57.77Z" fill="#1A2E35" fill-opacity="1.000000" fill-rule="nonzero"/>
		<path id="Vector" d="M29.5 6.14C16.62 6.14 6.14 16.62 6.14 29.5C6.14 42.37 16.62 52.85 29.5 52.85C42.37 52.85 52.85 42.37 52.85 29.5C52.85 16.62 42.37 6.14 29.5 6.14ZM29.5 51.62C17.3 51.62 7.37 41.69 7.37 29.5C7.37 17.29 17.3 7.37 29.5 7.37C41.7 7.37 51.62 17.29 51.62 29.5C51.62 41.69 41.7 51.62 29.5 51.62Z" fill="#1A2E35" fill-opacity="1.000000" fill-rule="nonzero"/>
		<path id="Vector" d="M31.96 16.21L23.78 16.21C23.77 16.21 23.76 16.2 23.75 16.2C23.41 16.2 23.14 16.48 23.14 16.82L23.14 16.82L23.14 28.58L20.85 28.58C20.51 28.58 20.24 28.85 20.24 29.19C20.24 29.53 20.51 29.81 20.85 29.81L23.14 29.81L23.14 32.41L20.85 32.41C20.51 32.41 20.24 32.68 20.24 33.02C20.24 33.36 20.51 33.64 20.85 33.64L23.14 33.64L23.14 42.17C23.14 42.51 23.41 42.79 23.75 42.79C24.09 42.79 24.37 42.51 24.37 42.17L24.37 33.64L35.46 33.64C35.8 33.64 36.07 33.36 36.07 33.02C36.07 32.68 35.8 32.41 35.46 32.41L24.37 32.41L24.37 29.81L25.4 29.81L31.53 29.81C35.29 29.81 38.46 27.06 38.73 23.55C38.73 23.55 38.73 23.55 38.73 23.55C39.05 19.48 35.83 16.21 31.96 16.21ZM37.51 23.46L37.51 23.46C37.28 26.33 34.66 28.58 31.53 28.58L25.4 28.58L24.37 28.58L24.37 17.44L31.96 17.44C35.13 17.44 37.77 20.11 37.51 23.46Z" fill="#1A2E35" fill-opacity="1.000000" fill-rule="nonzero"/>
	</g>
</svg>