<svg width="35.000000" height="35.000000" viewBox="0 0 35 35" fill="none" xmlns="http://www.w3.org/2000/svg" xmlns:xlink="http://www.w3.org/1999/xlink">
	<desc>
			Created with Pixso.
	</desc>
	<defs>
		<clipPath id="clip38_3277">
			<rect id="Group 9" width="35.000000" height="35.000000" fill="white" fill-opacity="0"/>
		</clipPath>
	</defs>
	<rect id="Group 9" width="35.000000" height="35.000000" fill="#FFFFFF" fill-opacity="0"/>
	<g clip-path="url(#clip38_3277)">
		<path id="Vector" d="M34.88 17.43C34.88 27.06 27.08 34.87 17.45 34.87C7.82 34.87 0.01 27.06 0.01 17.43C0.01 7.8 7.82 0 17.45 0C27.08 0 34.88 7.8 34.88 17.43Z" fill="#22253B" fill-opacity="1.000000" fill-rule="nonzero"/>
		<path id="Vector" d="M21.4 8.68L13.21 8.68C10.54 8.68 8.37 10.85 8.37 13.51L8.37 21.7C8.37 24.37 10.54 26.54 13.21 26.54L21.4 26.54C24.06 26.54 26.23 24.37 26.23 21.7L26.23 13.51C26.23 10.85 24.06 8.68 21.4 8.68ZM17.3 22.49C14.61 22.49 12.42 20.3 12.42 17.61C12.42 14.92 14.61 12.73 17.3 12.73C19.99 12.73 22.18 14.92 22.18 17.61C22.18 20.3 19.99 22.49 17.3 22.49ZM22.3 13.88C21.5 13.88 20.86 13.23 20.86 12.44C20.86 11.64 21.5 10.99 22.3 10.99C23.1 10.99 23.74 11.64 23.74 12.44C23.74 13.23 23.1 13.88 22.3 13.88Z" fill="#FFFFFF" fill-opacity="1.000000" fill-rule="nonzero"/>
		<path id="Vector" d="M17.3 13.77C15.19 13.77 13.47 15.49 13.47 17.61C13.47 19.72 15.19 21.44 17.3 21.44C19.42 21.44 21.14 19.72 21.14 17.61C21.14 15.49 19.42 13.77 17.3 13.77Z" fill="#FFFFFF" fill-opacity="1.000000" fill-rule="nonzero"/>
		<path id="Vector" d="M22.3 12.04C22.08 12.04 21.91 12.22 21.91 12.44C21.91 12.65 22.08 12.83 22.3 12.83C22.52 12.83 22.7 12.65 22.7 12.44C22.7 12.22 22.52 12.04 22.3 12.04Z" fill="#FFFFFF" fill-opacity="1.000000" fill-rule="nonzero"/>
	</g>
</svg>