<svg width="53.000000" height="20.000000" viewBox="0 0 53 20" fill="none" xmlns="http://www.w3.org/2000/svg" xmlns:xlink="http://www.w3.org/1999/xlink">
	<desc>
			Created with Pixso.
	</desc>
	<defs/>
	<path id="Прямоугольник 1" d="M2 0L13.59 0L13.59 2L0 2C0 0.89 0.89 0 2 0Z" fill="#38BFF2" fill-opacity="1.000000" fill-rule="evenodd"/>
	<path id="Прямоугольник 2" d="M1 0.75L3.62 0.75L3.62 20L0 20L0 1.75C0 1.19 0.44 0.75 1 0.75Z" fill="#38BFF2" fill-opacity="1.000000" fill-rule="evenodd"/>
	<path id="Прямоугольник 3" d="M2.71 7.16L8.05 7.16C8.61 7.16 9.05 7.61 9.05 8.16L9.05 8.91L2.71 8.91L2.71 7.16Z" fill="#38BFF2" fill-opacity="1.000000" fill-rule="evenodd"/>
	<rect id="Прямоугольник 4" x="12.230713" y="9.000000" width="2.717945" height="10.999999" fill="#000000" fill-opacity="1.000000"/>
	<path id="Прямоугольник 5" d="M14.58 9L21.1 9C22.2 9 23.1 9.89 23.1 11L13.58 11L13.58 10C13.58 9.44 14.03 9 14.58 9Z" fill="#000000" fill-opacity="1.000000" fill-rule="evenodd"/>
	<path id="Прямоугольник 6" d="M20.38 9C21.88 9 23.1 10.21 23.1 11.71L23.1 20L20.38 20L20.38 9Z" fill="#000000" fill-opacity="1.000000" fill-rule="evenodd"/>
	<path id="Прямоугольник 7" d="M30.53 0L39.41 0L39.41 2L28.53 2C28.53 0.89 29.43 0 30.53 0Z" fill="#F15525" fill-opacity="1.000000" fill-rule="evenodd"/>
	<path id="Прямоугольник 9" d="M28.53 18L39.41 18L39.41 20L29.53 20C28.98 20 28.53 19.55 28.53 19L28.53 18Z" fill="#F15525" fill-opacity="1.000000" fill-rule="evenodd"/>
	<path id="Прямоугольник 8" d="M29.53 1L31.25 1L31.25 20L29.53 20C28.98 20 28.53 19.55 28.53 19L28.53 2C28.53 1.44 28.98 1 29.53 1Z" fill="#F15525" fill-opacity="1.000000" fill-rule="evenodd"/>
	<rect id="Прямоугольник 10" x="42.128174" y="4.941162" width="2.717945" height="15.058822" fill="#000000" fill-opacity="1.000000"/>
	<path id="Прямоугольник 11" d="M43.12 4L53 4L53 5.88L42.12 5.88L42.12 5C42.12 4.44 42.57 4 43.12 4Z" fill="#000000" fill-opacity="1.000000" fill-rule="evenodd"/>
	<path id="Прямоугольник 12" d="M40.95 10L50.79 10C51.34 10 51.79 10.44 51.79 11L51.79 11.81L40.95 11.81L40.95 10Z" fill="#000000" fill-opacity="1.000000" fill-rule="evenodd"/>
</svg>