<svg width="91.000000" height="91.000000" viewBox="0 0 91 91" fill="none" xmlns="http://www.w3.org/2000/svg" xmlns:xlink="http://www.w3.org/1999/xlink">
	<desc>
			Created with Pixso.
	</desc>
	<defs>
		<clipPath id="clip38_3223">
			<rect id="svg-gobbler (1) 2" width="91.000000" height="91.000000" fill="white" fill-opacity="0"/>
		</clipPath>
	</defs>
	<rect id="svg-gobbler (1) 2" width="91.000000" height="91.000000" fill="#FFFFFF" fill-opacity="0"/>
	<g clip-path="url(#clip38_3223)">
		<path id="Vector" d="M89.59 44.77C89.59 51.74 83.94 57.39 76.97 57.39L76.97 32.12C83.94 32.12 89.59 37.78 89.59 44.77Z" fill="#FFFFFF" fill-opacity="1.000000" fill-rule="nonzero"/>
		<path id="Vector" d="M73.79 6.16C72.03 6.16 70.6 7.59 70.6 9.35L70.6 80.16C70.6 81.91 72.03 83.34 73.79 83.34C75.55 83.34 76.97 81.91 76.97 80.16L76.97 9.35C76.97 7.59 75.55 6.16 73.79 6.16Z" fill="#FFFFFF" fill-opacity="1.000000" fill-rule="nonzero"/>
		<path id="Vector" d="M70.6 11.65L70.6 77.86C63.51 65 46.33 57.47 32.39 56.78L32.39 32.73C46.33 32.04 63.51 24.51 70.6 11.65Z" fill="#38BFF2" fill-opacity="1.000000" fill-rule="nonzero"/>
		<path id="Vector" d="M32.38 32.72L32.38 56.79C32.38 58.21 31.23 59.37 29.8 59.37L9.79 59.37C8.37 59.37 7.21 58.21 7.21 56.79L7.21 32.72C7.21 31.3 8.37 30.14 9.79 30.14L29.8 30.14C31.23 30.14 32.38 31.3 32.38 32.72Z" fill="#FFFFFF" fill-opacity="1.000000" fill-rule="nonzero"/>
		<path id="Vector" d="M3.78 35.84L7.21 35.84L7.21 53.67L3.78 53.67C2.46 53.67 1.4 52.61 1.4 51.29L1.4 38.21C1.4 36.9 2.46 35.84 3.78 35.84Z" fill="#38BFF2" fill-opacity="1.000000" fill-rule="nonzero"/>
		<path id="Vector" d="M25.5 27.64L25.5 30.14L14.1 30.14L14.1 27.64C14.1 26.27 15.21 25.16 16.57 25.16L23.03 25.16C24.39 25.16 25.5 26.27 25.5 27.64Z" fill="#FFFFFF" fill-opacity="1.000000" fill-rule="nonzero"/>
		<path id="Vector" d="M18.39 83.6L25.83 59.37L13.76 59.37L13.76 83.1C13.76 84.05 14.53 84.83 15.49 84.83L16.73 84.83C17.49 84.83 18.16 84.33 18.39 83.6Z" fill="#38BFF2" fill-opacity="1.000000" fill-rule="nonzero"/>
		<path id="Vector" d="M90.53 44.77C90.53 37.6 84.95 31.72 77.91 31.23L77.91 9.35C77.91 7.08 76.06 5.23 73.79 5.23C71.51 5.23 69.66 7.08 69.66 9.35L69.66 11.4C62.76 23.66 46.29 30.83 33.16 31.74C32.73 30.28 31.4 29.2 29.8 29.2L26.44 29.2L26.44 27.64C26.44 25.76 24.91 24.22 23.03 24.22L16.57 24.22C14.69 24.22 13.16 25.76 13.16 27.64L13.16 29.2L9.79 29.2C7.85 29.2 6.27 30.78 6.27 32.72L6.27 34.9L3.78 34.9C1.95 34.9 0.46 36.39 0.46 38.22L0.46 51.29C0.46 53.12 1.95 54.61 3.78 54.61L6.27 54.61L6.27 56.79C6.27 58.73 7.85 60.31 9.79 60.31L12.82 60.31L12.82 83.1C12.82 84.57 14.02 85.76 15.49 85.76L16.73 85.76C17.91 85.76 18.94 85.01 19.28 83.88L26.53 60.31L29.8 60.31C31.4 60.31 32.74 59.23 33.16 57.77C46.29 58.68 62.76 65.84 69.66 78.11L69.66 80.16C69.66 82.43 71.51 84.28 73.79 84.28C76.06 84.28 77.91 82.43 77.91 80.16L77.91 58.28C84.95 57.79 90.53 51.93 90.53 44.77ZM15.03 27.64C15.03 26.79 15.72 26.1 16.57 26.1L23.03 26.1C23.87 26.1 24.57 26.79 24.57 27.64L24.57 29.2L15.03 29.2L15.03 27.64ZM3.78 52.73C2.98 52.73 2.34 52.09 2.34 51.29L2.34 38.22C2.34 37.42 2.98 36.78 3.78 36.78L6.27 36.78L6.27 52.73L3.78 52.73ZM17.49 83.33L17.49 83.33C17.39 83.66 17.08 83.89 16.73 83.89L15.49 83.89C15.05 83.89 14.7 83.53 14.7 83.1L14.7 60.31L24.57 60.31L17.49 83.33ZM31.45 56.79C31.45 57.69 30.71 58.43 29.8 58.43C22.73 58.43 16.87 58.43 9.79 58.43C8.89 58.43 8.15 57.69 8.15 56.79C8.15 50.73 8.15 38.78 8.15 32.72C8.15 31.82 8.89 31.08 9.79 31.08L29.8 31.08C30.71 31.08 31.45 31.82 31.45 32.72L31.45 56.79ZM33.33 55.9L33.33 33.61C46.01 32.72 61.72 26.16 69.66 14.91L69.66 74.59C61.72 63.35 46.01 56.79 33.33 55.9ZM76.03 80.16C76.03 81.39 75.03 82.4 73.79 82.4C72.55 82.4 71.54 81.39 71.54 80.16C71.54 -6.93 71.54 15.7 71.54 9.35C71.54 8.11 72.55 7.1 73.79 7.1C75.03 7.1 76.03 8.11 76.03 9.35L76.03 80.16ZM77.91 56.41L77.91 33.1C83.91 33.58 88.65 38.63 88.65 44.77C88.65 50.89 83.91 55.93 77.91 56.41Z" fill="#1A2E35" fill-opacity="1.000000" fill-rule="nonzero"/>
		<path id="Vector" d="M28.03 33.88L11.57 33.88C11.05 33.88 10.63 34.3 10.63 34.82C10.63 35.34 11.05 35.76 11.57 35.76L28.03 35.76C28.55 35.76 28.97 35.34 28.97 34.82C28.97 34.3 28.55 33.88 28.03 33.88Z" fill="#1A2E35" fill-opacity="1.000000" fill-rule="nonzero"/>
		<path id="Vector" d="M28.03 38.85L11.57 38.85C11.05 38.85 10.63 39.27 10.63 39.79C10.63 40.31 11.05 40.73 11.57 40.73L28.03 40.73C28.55 40.73 28.97 40.31 28.97 39.79C28.97 39.27 28.55 38.85 28.03 38.85Z" fill="#1A2E35" fill-opacity="1.000000" fill-rule="nonzero"/>
		<path id="Vector" d="M28.03 43.82L11.57 43.82C11.05 43.82 10.63 44.24 10.63 44.75C10.63 45.27 11.05 45.69 11.57 45.69L28.03 45.69C28.55 45.69 28.97 45.27 28.97 44.75C28.97 44.24 28.55 43.82 28.03 43.82Z" fill="#1A2E35" fill-opacity="1.000000" fill-rule="nonzero"/>
		<path id="Vector" d="M28.03 48.78L11.57 48.78C11.05 48.78 10.63 49.2 10.63 49.72C10.63 50.24 11.05 50.66 11.57 50.66L28.03 50.66C28.55 50.66 28.97 50.24 28.97 49.72C28.97 49.2 28.55 48.78 28.03 48.78Z" fill="#1A2E35" fill-opacity="1.000000" fill-rule="nonzero"/>
		<path id="Vector" d="M28.03 53.75L11.57 53.75C11.05 53.75 10.63 54.17 10.63 54.69C10.63 55.21 11.05 55.63 11.57 55.63L28.03 55.63C28.55 55.63 28.97 55.21 28.97 54.69C28.97 54.17 28.55 53.75 28.03 53.75Z" fill="#1A2E35" fill-opacity="1.000000" fill-rule="nonzero"/>
	</g>
</svg>