<svg width="69.000000" height="60.000000" viewBox="0 0 69 60" fill="none" xmlns="http://www.w3.org/2000/svg" xmlns:xlink="http://www.w3.org/1999/xlink">
	<desc>
			Created with Pixso.
	</desc>
	<defs/>
	<path id="Vector" d="M67.91 3.03L67.91 38.61L0.08 38.61L0.08 3.03C0.08 1.41 1.37 0.1 2.96 0.1L65.03 0.1C66.62 0.1 67.91 1.41 67.91 3.03Z" fill="#FFFFFF" fill-opacity="1.000000" fill-rule="nonzero"/>
	<path id="Vector" d="M0.08 38.61L0.08 45.15C0.08 46.77 1.37 48.08 2.96 48.08L65.03 48.08C66.62 48.08 67.91 46.77 67.91 45.15L67.91 38.61L0.08 38.61Z" fill="#38BFF2" fill-opacity="1.000000" fill-rule="nonzero"/>
	<path id="Vector" d="M26.42 48.08L41.56 48.08L41.56 54.97L26.42 54.97L26.42 48.08Z" fill="#D7E9FF" fill-opacity="1.000000" fill-rule="nonzero"/>
	<path id="Vector" d="M47.63 55.82L49.44 57.64C49.89 58.1 49.57 58.89 48.93 58.89L19.06 58.89C18.42 58.89 18.1 58.1 18.55 57.64L20.36 55.82C20.9 55.27 21.63 54.97 22.39 54.97L45.6 54.97C46.36 54.97 47.09 55.27 47.63 55.82Z" fill="#38BFF2" fill-opacity="1.000000" fill-rule="nonzero"/>
	<path id="Vector" d="M35.43 43.34C35.43 44.15 34.79 44.8 34 44.8C33.2 44.8 32.56 44.15 32.56 43.34C32.56 42.54 33.2 41.89 34 41.89C34.79 41.89 35.43 42.54 35.43 43.34Z" fill="#D7E9FF" fill-opacity="1.000000" fill-rule="evenodd"/>
	<path id="Vector" d="M68.63 3.03C68.63 1.01 67.02 -0.63 65.03 -0.63L2.96 -0.63C0.97 -0.63 -0.64 1.01 -0.64 3.03L-0.64 45.15C-0.64 47.17 0.97 48.81 2.96 48.81L25.7 48.81L25.7 54.23L22.39 54.23C21.43 54.23 20.53 54.61 19.85 55.3L18.04 57.12C17.13 58.04 17.77 59.62 19.06 59.62L48.93 59.62C50.21 59.62 50.86 58.04 49.95 57.12L48.14 55.3C47.46 54.61 46.56 54.23 45.6 54.23L42.29 54.23L42.29 48.81L65.03 48.81C67.02 48.81 68.63 47.17 68.63 45.15C68.63 30.19 68.63 19.07 68.63 3.03ZM0.8 3.03C0.8 1.82 1.77 0.83 2.96 0.83L65.03 0.83C66.22 0.83 67.19 1.82 67.19 3.03L67.19 37.88L0.8 37.88L0.8 3.03ZM47.12 56.34C47.12 56.34 47.12 56.34 47.12 56.34L48.93 58.16L19.06 58.16L20.87 56.34C21.27 55.93 21.82 55.7 22.39 55.7L45.6 55.7C46.17 55.7 46.72 55.93 47.12 56.34ZM40.84 54.23L27.15 54.23L27.15 48.81L40.84 48.81L40.84 54.23ZM67.19 45.15C67.19 46.36 66.22 47.35 65.03 47.35C44.33 47.35 23.61 47.35 2.96 47.35C1.77 47.35 0.8 46.36 0.8 45.15L0.8 39.34L67.19 39.34L67.19 45.15Z" fill="#1A2E35" fill-opacity="1.000000" fill-rule="nonzero"/>
	<path id="Vector" d="M34 45.53C35.18 45.53 36.15 44.55 36.15 43.34C36.15 42.14 35.18 41.15 34 41.15C32.81 41.15 31.84 42.14 31.84 43.34C31.84 44.55 32.81 45.53 34 45.53ZM34 42.62C34.39 42.62 34.71 42.94 34.71 43.34C34.71 43.74 34.39 44.07 34 44.07C33.6 44.07 33.28 43.74 33.28 43.34C33.28 42.94 33.6 42.62 34 42.62Z" fill="#1A2E35" fill-opacity="1.000000" fill-rule="nonzero"/>
	<path id="Vector" d="M55.06 8L6.72 8C6.32 8 6 8.32 6 8.73C6 9.13 6.32 9.46 6.72 9.46L55.06 9.46C55.46 9.46 55.78 9.13 55.78 8.73C55.78 8.32 55.46 8 55.06 8Z" fill="#1A2E35" fill-opacity="1.000000" fill-rule="nonzero"/>
	<path id="Vector" d="M55.06 13L6.72 13C6.32 13 6 13.32 6 13.73C6 14.13 6.32 14.46 6.72 14.46L55.06 14.46C55.46 14.46 55.78 14.13 55.78 13.73C55.78 13.32 55.46 13 55.06 13Z" fill="#1A2E35" fill-opacity="1.000000" fill-rule="nonzero"/>
	<path id="Vector" d="M45.06 18L6.72 18C6.32 18 6 18.32 6 18.73C6 19.13 6.32 19.46 6.72 19.46L45.06 19.46C45.46 19.46 45.78 19.13 45.78 18.73C45.78 18.32 45.46 18 45.06 18Z" fill="#1A2E35" fill-opacity="1.000000" fill-rule="nonzero"/>
	<path id="Vector" d="M35.06 23L6.72 23C6.32 23 6 23.32 6 23.73C6 24.13 6.32 24.46 6.72 24.46L35.06 24.46C35.46 24.46 35.78 24.13 35.78 23.73C35.78 23.32 35.46 23 35.06 23Z" fill="#1A2E35" fill-opacity="1.000000" fill-rule="nonzero"/>
	<path id="Vector" d="M25.06 28L6.72 28C6.32 28 6 28.32 6 28.73C6 29.13 6.32 29.46 6.72 29.46L25.06 29.46C25.46 29.46 25.78 29.13 25.78 28.73C25.78 28.32 25.46 28 25.06 28Z" fill="#1A2E35" fill-opacity="1.000000" fill-rule="nonzero"/>
</svg>