<svg width="408.000000" height="354.000000" viewBox="0 0 408 354" fill="none" xmlns="http://www.w3.org/2000/svg" xmlns:xlink="http://www.w3.org/1999/xlink">
	<desc>
			Created with Pixso.
	</desc>
	<defs/>
	<path id="path54" d="M318.59 230.59C312.13 235.95 314.27 267.26 294.32 253.78C274.36 240.3 308.4 232.3 306.45 224.66C303.73 213.95 258.72 226.81 266.27 206.32C273.82 185.82 300.73 216.64 307.8 209.01C314.3 202 281.91 176.65 297.01 172.34C312.11 168.02 308.86 204.7 318.59 204.7C326.15 204.7 324.74 169.64 338.66 182.05C352.57 194.45 322.16 206.67 326.14 214.37C329.16 220.22 353.11 205.78 352.03 219.26C350.95 232.75 325.37 224.95 318.59 230.59Z" fill="#38BFF2" fill-opacity="1.000000" fill-rule="nonzero"/>
	<path id="path58" d="M314.27 214.55C314.27 214.55 328.84 232.21 327.22 280.21" stroke="#1A2E35" stroke-opacity="1.000000" stroke-width="1.333333" stroke-linejoin="round" stroke-linecap="round"/>
	<path id="path62" d="M285.9 239.53C288.48 234.34 309.87 230.79 297.63 219.52C285.39 208.25 285.43 232.41 279.98 232.31C272.35 232.19 273.84 199.88 261.26 208.22C248.68 216.56 273.69 229.74 269.68 235.71C266 241.19 243.8 223.45 243.31 234.29C242.81 245.13 266.95 237.11 268.5 243.65C269.7 248.74 245.91 253.37 256.46 260.75C267.01 268.12 270.39 245.73 276.2 247.19C280.61 248.29 274.71 266.68 283.61 263.81C292.5 260.94 283.19 244.99 285.9 239.53Z" fill="#38BFF2" fill-opacity="1.000000" fill-rule="nonzero"/>
	<g opacity="0.300003">
		<g opacity="0.300003">
			<g opacity="0.300003">
				<path id="path72" d="M285.9 239.53C288.48 234.34 309.87 230.79 297.63 219.52C285.39 208.25 285.43 232.41 279.98 232.31C272.35 232.19 273.84 199.88 261.26 208.22C248.68 216.56 273.68 229.74 269.68 235.71C266 241.19 243.8 223.45 243.31 234.29C242.81 245.13 266.95 237.11 268.5 243.65C269.7 248.74 245.91 253.37 256.46 260.74C267.01 268.12 270.39 245.73 276.2 247.19C280.61 248.29 274.71 266.68 283.61 263.81C292.5 260.94 283.19 244.99 285.9 239.53Z" fill="#000000" fill-opacity="1.000000" fill-rule="nonzero"/>
			</g>
		</g>
	</g>
	<path id="path82" d="M274.9 239.76C274.9 239.76 316.34 235.44 320.43 280.21" stroke="#1A2E35" stroke-opacity="1.000000" stroke-width="1.333333" stroke-linejoin="round" stroke-linecap="round"/>
	<path id="path86" d="M353.91 234.9C360.36 240.27 358.22 271.58 378.18 258.1C398.13 244.61 364.1 236.61 366.04 228.97C368.77 218.27 413.78 231.13 406.22 210.63C398.67 190.14 371.77 220.96 364.69 213.33C358.2 206.32 390.58 180.97 375.48 176.65C360.38 172.34 363.63 209.02 353.91 209.01C346.34 209.01 347.75 173.95 333.84 186.36C319.93 198.77 350.34 210.99 346.36 218.69C343.33 224.54 319.39 210.09 320.47 223.58C321.54 237.06 347.12 229.26 353.91 234.9Z" fill="#38BFF2" fill-opacity="1.000000" fill-rule="nonzero"/>
	<g opacity="0.300003">
		<g opacity="0.300003">
			<g opacity="0.300003">
				<path id="path96" d="M353.91 234.9C360.36 240.27 358.22 271.58 378.18 258.1C398.13 244.61 364.1 236.61 366.04 228.97C368.77 218.27 413.78 231.13 406.22 210.63C398.67 190.14 371.77 220.96 364.69 213.33C358.2 206.32 390.58 180.97 375.48 176.65C360.38 172.34 363.63 209.02 353.91 209.01C346.34 209.01 347.75 173.95 333.84 186.36C319.93 198.77 350.34 210.99 346.36 218.69C343.33 224.54 319.39 210.09 320.47 223.58C321.54 237.06 347.12 229.26 353.91 234.9Z" fill="#FFFFFF" fill-opacity="1.000000" fill-rule="nonzero"/>
			</g>
		</g>
	</g>
	<path id="path106" d="M358.5 218.87C358.5 218.87 339.62 244.07 335.31 286.14" stroke="#1A2E35" stroke-opacity="1.000000" stroke-width="1.333333" stroke-linejoin="round" stroke-linecap="round"/>
	<path id="path110" d="M344.98 351.95L315.56 351.95C309.92 351.95 305.23 347.64 304.75 342.03L300.12 287.66C299.58 281.33 304.58 275.89 310.93 275.89L349.61 275.89C355.96 275.89 360.96 281.33 360.42 287.66L355.79 342.03C355.31 347.64 350.62 351.95 344.98 351.95Z" fill="#38BFF2" fill-opacity="1.000000" fill-rule="nonzero"/>
	<path id="path114" d="M315.56 351.95C309.92 351.95 305.23 347.64 304.75 342.03L300.12 287.66C299.58 281.33 304.58 275.89 310.93 275.89L349.61 275.89C355.96 275.89 360.96 281.33 360.42 287.66L355.79 342.03C355.31 347.64 350.62 351.95 344.98 351.95L315.56 351.95Z" stroke="#1A2E35" stroke-opacity="1.000000" stroke-width="1.333333" stroke-linejoin="round"/>
	<path id="path126" d="M124.64 273.87C134.47 273.87 162.88 267.45 162.88 267.45L86.39 267.45C86.39 267.45 114.8 273.87 124.64 273.87Z" fill="#1A2E35" fill-opacity="1.000000" fill-rule="nonzero"/>
	<path id="path130" d="M162.88 267.45L86.39 267.45C86.39 267.45 114.8 273.87 124.64 273.87C134.47 273.87 162.88 267.45 162.88 267.45Z" stroke="#1A2E35" stroke-opacity="1.000000" stroke-width="1.333333" stroke-linejoin="round"/>
	<path id="path132" d="M115.87 282.67L133.4 282.67L133.4 270.66L115.87 270.66L115.87 282.67Z" fill="#868686" fill-opacity="1.000000" fill-rule="nonzero"/>
	<path id="path132" d="M133.4 282.67L133.4 270.66L115.87 270.66L115.87 282.67L133.4 282.67Z" stroke="#1A2E35" stroke-opacity="1.000000" stroke-width="1.333333" stroke-linejoin="round"/>
	<path id="path134" d="M113.28 334.34L135.99 334.34L135.99 282.67L113.28 282.67L113.28 334.34Z" fill="#9A9A9A" fill-opacity="1.000000" fill-rule="nonzero"/>
	<path id="path134" d="M135.99 334.34L135.99 282.67L113.28 282.67L113.28 334.34L135.99 334.34Z" stroke="#1A2E35" stroke-opacity="1.000000" stroke-width="1.333333" stroke-linejoin="round"/>
	<path id="path138" d="M81.97 252.13L96.73 252.13C95.09 241.96 93.88 231.59 93.14 221.32L78.38 221.32C79.12 231.59 80.33 241.96 81.97 252.13Z" fill="#868686" fill-opacity="1.000000" fill-rule="nonzero"/>
	<path id="path142" d="M96.73 252.13C95.09 241.96 93.88 231.59 93.14 221.32L78.38 221.32C79.12 231.59 80.33 241.96 81.97 252.13L96.73 252.13Z" stroke="#1A2E35" stroke-opacity="1.000000" stroke-width="1.333333" stroke-linejoin="round"/>
	<path id="path146" d="M59.55 130.33L123.18 130.33C130.66 130.33 135.56 136.65 134.11 144.09C130.03 167 127.63 189.65 126.83 212.91C126.71 219.65 121.58 224.86 114.84 224.86L61.27 224.86C54.53 224.86 48.46 219.65 47.59 212.91C45.01 189.89 44.08 167.25 44.8 144.09C45.15 136.65 52.07 130.33 59.55 130.33Z" fill="#868686" fill-opacity="1.000000" fill-rule="nonzero"/>
	<path id="path150" d="M123.18 130.33C130.66 130.33 135.56 136.65 134.11 144.09C130.03 167 127.63 189.65 126.83 212.91C126.71 219.65 121.58 224.86 114.84 224.86L61.27 224.86C54.53 224.86 48.46 219.65 47.59 212.91C45.01 189.89 44.08 167.25 44.8 144.09C45.15 136.65 52.07 130.33 59.55 130.33L123.18 130.33Z" stroke="#1A2E35" stroke-opacity="1.000000" stroke-width="1.333333" stroke-linejoin="round"/>
	<path id="path154" d="M56.09 144.09C55.36 167.25 56.3 189.89 58.88 212.91C59.74 219.65 65.81 224.86 72.56 224.86L114.84 224.86C121.58 224.86 126.71 219.65 126.83 212.91C127.63 189.65 130.03 167 134.11 144.09C135.56 136.65 130.66 130.33 123.18 130.33L70.84 130.33C63.36 130.33 56.44 136.65 56.09 144.09Z" fill="#9A9A9A" fill-opacity="1.000000" fill-rule="nonzero"/>
	<path id="path158" d="M58.88 212.91C59.74 219.65 65.81 224.86 72.56 224.86L114.84 224.86C121.58 224.86 126.71 219.65 126.83 212.91C127.63 189.65 130.03 167 134.11 144.09C135.56 136.65 130.66 130.33 123.18 130.33L70.84 130.33C63.36 130.33 56.44 136.65 56.09 144.09C55.36 167.25 56.3 189.89 58.88 212.91Z" stroke="#1A2E35" stroke-opacity="1.000000" stroke-width="1.333333" stroke-linejoin="round"/>
	<path id="path162" d="M86.39 343.61C86.39 344.82 87.51 345.72 88.69 345.47C95.65 343.95 116.5 339.56 124.63 339.56C132.77 339.56 153.62 343.95 160.58 345.47C161.76 345.72 162.88 344.82 162.88 343.61C162.88 341.26 161.24 339.23 158.95 338.74C150.8 336.99 132.21 333.18 124.63 333.18C117.06 333.18 98.47 336.99 90.32 338.74C88.02 339.23 86.39 341.26 86.39 343.61Z" fill="#1A2E35" fill-opacity="1.000000" fill-rule="nonzero"/>
	<path id="path166" d="M88.69 345.47C95.65 343.95 116.5 339.56 124.63 339.56C132.77 339.56 153.62 343.95 160.58 345.47C161.76 345.72 162.88 344.82 162.88 343.61C162.88 341.26 161.24 339.23 158.95 338.74C150.8 336.99 132.21 333.18 124.63 333.18C117.06 333.18 98.47 336.99 90.32 338.74C88.02 339.23 86.39 341.26 86.39 343.61C86.39 344.82 87.51 345.72 88.69 345.47Z" stroke="#1A2E35" stroke-opacity="1.000000" stroke-width="1.333333" stroke-linejoin="round"/>
	<path id="path170" d="M162.88 349.85C164.84 349.85 166.42 348.27 166.42 346.31C166.42 344.35 164.84 342.76 162.88 342.76C160.92 342.76 159.34 344.35 159.34 346.31C159.34 348.27 160.92 349.85 162.88 349.85ZM162.88 339.77C166.49 339.77 169.42 342.7 169.42 346.31C169.42 349.92 166.49 352.85 162.88 352.85C159.27 352.85 156.34 349.92 156.34 346.31C156.34 342.7 159.27 339.77 162.88 339.77Z" fill="#868686" fill-opacity="1.000000" fill-rule="nonzero"/>
	<path id="path174" d="M166.42 346.31C166.42 344.35 164.84 342.76 162.88 342.76C160.92 342.76 159.34 344.35 159.34 346.31C159.34 348.27 160.92 349.85 162.88 349.85C164.84 349.85 166.42 348.27 166.42 346.31ZM169.42 346.31C169.42 349.92 166.49 352.85 162.88 352.85C159.27 352.85 156.34 349.92 156.34 346.31C156.34 342.7 159.27 339.77 162.88 339.77C166.49 339.77 169.42 342.7 169.42 346.31Z" stroke="#1A2E35" stroke-opacity="1.000000" stroke-width="1.333333" stroke-linejoin="round"/>
	<path id="path178" d="M124.63 349.85C126.59 349.85 128.18 348.27 128.18 346.31C128.18 344.35 126.59 342.76 124.63 342.76C122.68 342.76 121.09 344.35 121.09 346.31C121.09 348.27 122.68 349.85 124.63 349.85ZM124.63 339.77C128.25 339.77 131.18 342.7 131.18 346.31C131.18 349.92 128.25 352.85 124.63 352.85C121.02 352.85 118.09 349.92 118.09 346.31C118.09 342.7 121.02 339.77 124.63 339.77Z" fill="#868686" fill-opacity="1.000000" fill-rule="nonzero"/>
	<path id="path182" d="M128.18 346.31C128.18 344.35 126.59 342.76 124.63 342.76C122.68 342.76 121.09 344.35 121.09 346.31C121.09 348.27 122.68 349.85 124.63 349.85C126.59 349.85 128.18 348.27 128.18 346.31ZM131.18 346.31C131.18 349.92 128.25 352.85 124.63 352.85C121.02 352.85 118.09 349.92 118.09 346.31C118.09 342.7 121.02 339.77 124.63 339.77C128.25 339.77 131.18 342.7 131.18 346.31Z" stroke="#1A2E35" stroke-opacity="1.000000" stroke-width="1.333333" stroke-linejoin="round"/>
	<path id="path186" d="M87.18 349.85C89.14 349.85 90.73 348.27 90.73 346.31C90.73 344.35 89.14 342.76 87.18 342.76C85.23 342.76 83.64 344.35 83.64 346.31C83.64 348.27 85.23 349.85 87.18 349.85ZM87.18 339.77C90.8 339.77 93.72 342.7 93.72 346.31C93.72 349.92 90.8 352.85 87.18 352.85C83.57 352.85 80.64 349.92 80.64 346.31C80.64 342.7 83.57 339.77 87.18 339.77Z" fill="#868686" fill-opacity="1.000000" fill-rule="nonzero"/>
	<path id="path190" d="M90.73 346.31C90.73 344.35 89.14 342.76 87.18 342.76C85.23 342.76 83.64 344.35 83.64 346.31C83.64 348.27 85.23 349.85 87.18 349.85C89.14 349.85 90.73 348.27 90.73 346.31ZM93.72 346.31C93.72 349.92 90.8 352.85 87.18 352.85C83.57 352.85 80.64 349.92 80.64 346.31C80.64 342.7 83.57 339.77 87.18 339.77C90.8 339.77 93.72 342.7 93.72 346.31Z" stroke="#1A2E35" stroke-opacity="1.000000" stroke-width="1.333333" stroke-linejoin="round"/>
	<path id="path194" d="M105.25 250.06C130.99 250.86 156.11 249.74 181.69 246.68C186.89 245.98 191.1 249.54 191.1 254.77L191.1 256.02C191.1 261.24 186.89 266.15 181.69 266.85C156.11 269.91 130.99 271.03 105.25 270.23L105.25 250.06Z" fill="#9A9A9A" fill-opacity="1.000000" fill-rule="nonzero"/>
	<path id="path198" d="M181.69 246.68C186.89 245.98 191.1 249.54 191.1 254.77L191.1 256.02C191.1 261.24 186.89 266.15 181.69 266.85C156.11 269.91 130.99 271.03 105.25 270.23L105.25 250.06C130.99 250.86 156.11 249.74 181.69 246.68Z" stroke="#1A2E35" stroke-opacity="1.000000" stroke-width="1.333333" stroke-linejoin="round"/>
	<path id="path202" d="M65.16 266.51C81 268.5 96.71 269.82 112.66 270.5C116.55 270.61 119.7 267.5 119.7 263.62L119.7 257.49C119.7 253.61 116.55 250.44 112.66 250.33C96.71 249.65 81 248.33 65.16 246.35C61.29 245.8 58.17 248.45 58.17 252.33L58.17 258.45C58.17 262.33 61.29 265.97 65.16 266.51Z" fill="#868686" fill-opacity="1.000000" fill-rule="nonzero"/>
	<path id="path206" d="M112.66 270.5C116.55 270.61 119.7 267.5 119.7 263.62L119.7 257.49C119.7 253.61 116.55 250.44 112.66 250.33C96.71 249.65 81 248.33 65.16 246.35C61.29 245.8 58.17 248.45 58.17 252.33L58.17 258.45C58.17 262.33 61.29 265.97 65.16 266.51C81 268.5 96.71 269.82 112.66 270.5Z" stroke="#1A2E35" stroke-opacity="1.000000" stroke-width="1.333333" stroke-linejoin="round"/>
	<path id="path210" d="M171.24 349.45C171.29 345.89 172.02 338.76 176.21 329.56L181.68 309.84L198.74 317.13L193.94 332.23C193.94 332.23 208.61 339.23 214.02 341.12C217.63 342.37 228.42 344.85 227.89 349.47C227.89 350.84 226.77 351.95 225.4 351.95L173.73 351.95C172.35 351.95 171.22 350.83 171.24 349.45Z" fill="#FFFFFF" fill-opacity="1.000000" fill-rule="nonzero"/>
	<path id="path214" d="M176.21 329.56L181.68 309.84L198.74 317.13L193.94 332.23C193.94 332.23 208.61 339.23 214.02 341.12C217.63 342.37 228.42 344.85 227.89 349.47C227.89 350.84 226.77 351.95 225.4 351.95L173.73 351.95C172.35 351.95 171.22 350.83 171.24 349.45C171.29 345.89 172.02 338.76 176.21 329.56Z" stroke="#1A2E35" stroke-opacity="1.000000" stroke-width="1.333333" stroke-linejoin="round"/>
	<path id="path218" d="M180.63 337.92C183.29 339.87 197.51 342.36 193.94 339.52C190.38 336.67 193.94 332.23 193.94 332.23C193.94 332.23 208.61 339.23 214.03 341.11C217.63 342.37 228.42 344.85 227.89 349.47C227.89 350.84 226.77 351.95 225.4 351.95L173.73 351.95C172.35 351.95 171.22 350.83 171.24 349.45C171.28 346.44 171.82 340.88 174.51 333.69C177.44 333.72 177.96 335.96 180.63 337.92Z" fill="#38BFF2" fill-opacity="1.000000" fill-rule="nonzero"/>
	<path id="path222" d="M193.94 339.52C190.38 336.67 193.94 332.23 193.94 332.23C193.94 332.23 208.61 339.23 214.03 341.11C217.63 342.37 228.42 344.85 227.89 349.47C227.89 350.84 226.77 351.95 225.4 351.95L173.73 351.95C172.35 351.95 171.22 350.83 171.24 349.45C171.28 346.44 171.82 340.88 174.51 333.69C177.44 333.72 177.96 335.96 180.63 337.92C183.29 339.87 197.51 342.36 193.94 339.52Z" stroke="#1A2E35" stroke-opacity="1.000000" stroke-width="1.333333" stroke-linejoin="round"/>
	<path id="path226" d="M158.9 351.95L121.05 351.95C120.27 351.95 119.6 351.4 119.45 350.63C118.87 347.62 119.01 340.9 122.42 331.96L122.76 313.83L142.14 317.12L139.68 332.59C139.68 332.59 147.49 341.18 151.2 342.71C153.81 343.8 159.73 343.91 160.52 350.14C160.64 351.1 159.87 351.95 158.9 351.95Z" fill="#FFFFFF" fill-opacity="1.000000" fill-rule="nonzero"/>
	<path id="path230" d="M121.05 351.95C120.27 351.95 119.6 351.4 119.45 350.63C118.87 347.62 119.01 340.9 122.42 331.96L122.76 313.83L142.14 317.12L139.68 332.59C139.68 332.59 147.49 341.18 151.2 342.71C153.81 343.8 159.73 343.91 160.52 350.14C160.64 351.1 159.87 351.95 158.9 351.95L121.05 351.95Z" stroke="#1A2E35" stroke-opacity="1.000000" stroke-width="1.333333" stroke-linejoin="round"/>
	<path id="path234" d="M128.81 337.98C132.81 340.78 135.76 341.12 133.89 336.92C132.03 332.72 139.68 332.59 139.68 332.59C139.68 332.59 147.49 341.17 151.2 342.71C153.8 343.79 159.73 343.91 160.52 350.14C160.64 351.1 159.87 351.95 158.9 351.95L121.05 351.95C120.27 351.95 119.6 351.4 119.45 350.63C118.87 347.62 119.01 340.9 122.42 331.96C125.34 332.67 124.81 335.19 128.81 337.98Z" fill="#38BFF2" fill-opacity="1.000000" fill-rule="nonzero"/>
	<path id="path238" d="M133.89 336.92C132.03 332.72 139.68 332.59 139.68 332.59C139.68 332.59 147.49 341.17 151.2 342.71C153.8 343.79 159.73 343.91 160.52 350.14C160.64 351.1 159.87 351.95 158.9 351.95L121.05 351.95C120.27 351.95 119.6 351.4 119.45 350.63C118.87 347.62 119.01 340.9 122.42 331.96C125.34 332.67 124.81 335.19 128.81 337.98C132.81 340.78 135.76 341.12 133.89 336.92Z" stroke="#1A2E35" stroke-opacity="1.000000" stroke-width="1.333333" stroke-linejoin="round"/>
	<path id="path242" d="M162.67 213.52C162.67 213.52 166.48 217.43 182.08 219.92C197.68 222.41 230.02 230.23 229.66 243.02C229.31 255.82 199.45 324.06 199.45 324.06C199.45 324.06 184.53 321.21 177.6 316.95C177.6 316.95 189.61 268.26 198.62 255.46C198.62 255.46 158.18 250.49 135.81 241.25C113.44 232 126.59 210.97 126.59 210.97L162.67 213.52Z" fill="#1A2E35" fill-opacity="1.000000" fill-rule="nonzero"/>
	<path id="path246" d="M182.08 219.92C197.68 222.41 230.02 230.23 229.66 243.02C229.31 255.82 199.45 324.06 199.45 324.06C199.45 324.06 184.53 321.21 177.6 316.95C177.6 316.95 189.61 268.26 198.62 255.46C198.62 255.46 158.18 250.49 135.81 241.25C113.44 232 126.59 210.97 126.59 210.97L162.67 213.52C162.67 213.52 166.48 217.43 182.08 219.92Z" stroke="#1A2E35" stroke-opacity="1.000000" stroke-width="1.333333" stroke-linejoin="round"/>
	<path id="path250" d="M137.26 211.73C137.26 211.73 131.52 221.34 135.81 226.67C140.1 232 164.43 241.96 161.68 254.04C158.94 266.12 149.85 283.18 143.93 323.7C143.93 323.7 130.15 321.57 120.91 317.66C120.91 317.66 119.38 276.43 130.09 258.66C130.09 258.66 99.41 252.97 96.3 242.67C93.19 232.36 99 216.6 99.12 210.97L137.26 211.73Z" fill="#1A2E35" fill-opacity="1.000000" fill-rule="nonzero"/>
	<path id="path254" d="M135.81 226.67C140.1 232 164.43 241.96 161.68 254.04C158.94 266.12 149.85 283.18 143.93 323.7C143.93 323.7 130.15 321.57 120.91 317.66C120.91 317.66 119.38 276.43 130.09 258.66C130.09 258.66 99.41 252.97 96.3 242.67C93.19 232.36 99 216.6 99.12 210.97L137.26 211.73C137.26 211.73 131.52 221.34 135.81 226.67Z" stroke="#1A2E35" stroke-opacity="1.000000" stroke-width="1.333333" stroke-linejoin="round"/>
	<path id="path258" d="M155.75 226.99C156.43 226.95 157.13 226.96 157.87 227.03" stroke="#808080" stroke-opacity="1.000000" stroke-width="1.000000" stroke-linejoin="round" stroke-linecap="round"/>
	<path id="path262" d="M154.4 220.63C154.4 220.63 148.09 222.49 145.62 230.7C145.43 231.35 146.24 231.85 146.72 231.36C148.03 230.04 150.07 228.41 152.78 227.55" stroke="#808080" stroke-opacity="1.000000" stroke-width="1.000000" stroke-linejoin="round" stroke-linecap="round"/>
	<path id="path266" d="M201.59 255.02C201.59 251.55 216.51 249.69 212.51 246.49C208.52 243.29 199.45 253.68 199.45 253.68" stroke="#808080" stroke-opacity="1.000000" stroke-width="1.000000" stroke-linejoin="round" stroke-linecap="round"/>
	<path id="path270" d="M128.24 268.88C128.24 264.91 142.5 262.75 141.79 258.48C141.08 254.22 132.02 262.61 132.02 262.61" stroke="#808080" stroke-opacity="1.000000" stroke-width="1.000000" stroke-linejoin="round" stroke-linecap="round"/>
	<path id="path274" d="M201.02 324.3L199.45 327.92C199.28 328.33 198.83 328.56 198.4 328.46C194.95 327.69 180.58 324.29 175.53 320.67C175.23 320.46 175.1 320.07 175.19 319.71L176.17 315.67C176.31 315.07 176.99 314.78 177.53 315.07C179.79 316.31 186.12 319.26 200.4 323.02C200.95 323.17 201.25 323.77 201.02 324.3Z" fill="#9A9A9A" fill-opacity="1.000000" fill-rule="nonzero"/>
	<path id="path278" d="M199.45 327.92C199.28 328.33 198.83 328.56 198.4 328.46C194.95 327.69 180.58 324.29 175.53 320.67C175.23 320.46 175.1 320.07 175.19 319.71L176.17 315.67C176.31 315.07 176.99 314.78 177.53 315.07C179.79 316.31 186.12 319.26 200.4 323.02C200.95 323.17 201.25 323.77 201.02 324.3L199.45 327.92Z" stroke="#1A2E35" stroke-opacity="1.000000" stroke-width="1.333333" stroke-linejoin="round"/>
	<path id="path282" d="M145.66 321.31C145.74 320.77 145.22 320.32 144.7 320.51C143.68 320.89 141.95 321.18 139.35 320.59C135.39 319.69 124.07 316.1 120.71 315.03C120.23 314.88 119.75 315.24 119.75 315.74L119.75 320.45C119.75 320.74 119.92 321 120.19 321.12C122.83 322.3 137 328.37 144.41 326.72C144.71 326.65 144.92 326.4 144.97 326.1L145.66 321.31Z" fill="#9A9A9A" fill-opacity="1.000000" fill-rule="nonzero"/>
	<path id="path286" d="M144.7 320.51C143.68 320.89 141.95 321.18 139.35 320.59C135.39 319.69 124.07 316.1 120.71 315.03C120.23 314.88 119.75 315.24 119.75 315.74L119.75 320.45C119.75 320.74 119.92 321 120.19 321.12C122.83 322.3 137 328.37 144.41 326.72C144.71 326.65 144.92 326.4 144.97 326.1L145.66 321.31C145.74 320.77 145.22 320.32 144.7 320.51Z" stroke="#1A2E35" stroke-opacity="1.000000" stroke-width="1.333333" stroke-linejoin="round"/>
	<path id="path290" d="M134.26 222.62C134.4 224.08 134.85 225.49 135.81 226.67C138.94 230.56 152.73 236.91 158.9 244.75" stroke="#808080" stroke-opacity="1.000000" stroke-width="1.333333" stroke-linejoin="round" stroke-linecap="round"/>
	<path id="path294" d="M134.93 217.2C134.7 217.97 134.51 218.78 134.38 219.6" stroke="#808080" stroke-opacity="1.000000" stroke-width="1.333333" stroke-linejoin="round" stroke-linecap="round"/>
	<path id="path298" d="M216.58 343.51C216.58 343.51 215.52 345.2 214.72 348.58L176.21 348.58C176.21 348.58 176.11 346 174.07 344.18" stroke="#1A2E35" stroke-opacity="1.000000" stroke-width="1.333333" stroke-linejoin="round" stroke-linecap="round"/>
	<path id="path302" d="M149.68 343.51C149.68 343.51 144.35 343.91 142.35 348.58L122.22 348.58C122.22 348.58 121.16 346.18 121.16 344.18" stroke="#1A2E35" stroke-opacity="1.000000" stroke-width="1.333333" stroke-linejoin="round" stroke-linecap="round"/>
	<path id="path306" d="M181.24 153.22C180.74 155.1 180.23 156.97 179.73 158.79C174.4 177.98 167.47 214.5 167.47 214.5C133.35 221.7 97.36 214.5 97.36 214.5C97.17 206.54 98.14 196.04 99.22 185.01C93.62 183.46 89.59 178.3 89.37 169.72C89.1 159.32 90.98 140.61 92.03 131.87C92.95 124.18 92.3 119.61 104.21 113.78C110.18 110.33 120.09 108.71 132.28 107.08C156.27 103.88 173.58 108.73 179.73 111.34C184.6 110.06 185.95 115.78 185.95 115.78C188.65 113.74 191.78 122.38 191.78 122.38C199.67 132.45 205.88 149.4 207.95 155.45C208.4 156.77 209.24 157.92 210.36 158.76C215.95 163.03 212.84 168.31 212.84 168.31L201.38 171.82C201.38 171.82 195.83 173.27 191.58 165.96C188.04 159.86 182.24 149.5 181.24 153.22Z" fill="#38BFF2" fill-opacity="1.000000" fill-rule="nonzero"/>
	<g opacity="0.300003">
		<g opacity="0.300003">
			<g opacity="0.300003">
				<path id="path324" d="M199.27 167C199.27 167 199.54 161.67 203.8 160.74C208.07 159.81 202.6 158.21 199.27 159.01C195.94 159.81 196.7 156.87 193.86 152.08C191.01 147.28 189.61 143.49 187.17 146.25C184.74 149.02 182.26 149.4 181.24 153.22C180.21 157.04 185.27 165.96 185.27 165.96L193.23 172.13L197.27 174.4L203.3 174.4L205.36 169.19L199.27 167Z" fill="#000000" fill-opacity="1.000000" fill-rule="nonzero"/>
			</g>
		</g>
	</g>
	<path id="path342" d="M179.73 158.79C174.4 177.98 167.47 214.5 167.47 214.5C133.35 221.7 97.36 214.5 97.36 214.5C97.17 206.54 98.14 196.04 99.22 185.01C93.62 183.46 89.59 178.3 89.37 169.72C89.1 159.32 90.98 140.61 92.03 131.87C92.95 124.18 92.3 119.61 104.21 113.78C110.18 110.33 120.09 108.71 132.28 107.08C156.27 103.88 173.58 108.73 179.73 111.34C184.6 110.06 185.95 115.78 185.95 115.78C188.65 113.74 191.78 122.38 191.78 122.38C199.68 132.45 205.88 149.4 207.95 155.45C208.4 156.77 209.24 157.92 210.36 158.76C215.95 163.03 212.84 168.31 212.84 168.31L201.38 171.82C201.38 171.82 195.83 173.27 191.59 165.96C188.04 159.86 182.24 149.5 181.24 153.22C180.74 155.1 180.24 156.97 179.73 158.79Z" stroke="#1A2E35" stroke-opacity="1.000000" stroke-width="1.333333" stroke-linejoin="round"/>
	<g opacity="0.300003">
		<g opacity="0.300003">
			<g opacity="0.300003">
				<path id="path352" d="M97.36 214.5C97.22 208.74 97.69 201.64 98.37 193.99C97.21 210.22 131.02 215.3 132.09 206.5C133.15 197.7 99.22 185.01 117.68 189.45C133.8 193.32 165.02 189.62 172.7 188.61C169.75 202.48 167.47 214.5 167.47 214.5C133.35 221.7 97.36 214.5 97.36 214.5Z" fill="#000000" fill-opacity="1.000000" fill-rule="nonzero"/>
			</g>
		</g>
	</g>
	<g opacity="0.300003">
		<g opacity="0.300003">
			<g opacity="0.300003">
				<path id="path368" d="M112.87 132.94C112.87 132.94 117.69 147.06 117.68 154.53C117.67 161.98 131.22 166.99 131.24 167C123.99 165.52 116.93 163.57 113.55 162.6C112.35 162.25 111.57 161.12 111.68 159.88C112.34 152.22 113.07 141.92 112.87 132.94L112.87 132.94Z" fill="#000000" fill-opacity="1.000000" fill-rule="nonzero"/>
			</g>
		</g>
	</g>
	<path id="path378" d="M185.7 129.38C185.7 129.38 185.87 139.54 182.15 148.88C181.8 149.75 182.79 150.54 183.55 149.99C185.37 148.68 187.96 146.02 190.3 140.64" stroke="#1A2E35" stroke-opacity="1.000000" stroke-width="1.000000" stroke-linejoin="round" stroke-linecap="round"/>
	<path id="path382" d="M95.23 172.92C98.04 163.59 102.91 161.25 106.68 161.02C107.29 160.98 107.49 160.19 106.96 159.9C104.77 158.71 100.5 157.78 95.23 163.59" stroke="#1A2E35" stroke-opacity="1.000000" stroke-width="1.000000" stroke-linejoin="round" stroke-linecap="round"/>
	<path id="path386" d="M149.32 146.21C149.32 147.1 150.03 147.82 150.92 147.82C151.8 147.82 152.52 147.1 152.52 146.21C152.52 145.33 151.8 144.61 150.92 144.61C150.03 144.61 149.32 145.33 149.32 146.21Z" fill="#9A9A9A" fill-opacity="1.000000" fill-rule="nonzero"/>
	<path id="path390" d="M150.92 147.82C151.8 147.82 152.52 147.1 152.52 146.21C152.52 145.33 151.8 144.61 150.92 144.61C150.03 144.61 149.32 145.33 149.32 146.21C149.32 147.1 150.03 147.82 150.92 147.82Z" stroke="#1A2E35" stroke-opacity="1.000000" stroke-width="1.000000" stroke-linejoin="round"/>
	<path id="path394" d="M147.14 164.36C147.14 165.25 147.86 165.96 148.75 165.96C149.63 165.96 150.35 165.25 150.35 164.36C150.35 163.48 149.63 162.76 148.75 162.76C147.86 162.76 147.14 163.48 147.14 164.36Z" fill="#9A9A9A" fill-opacity="1.000000" fill-rule="nonzero"/>
	<path id="path398" d="M148.75 165.96C149.63 165.96 150.35 165.25 150.35 164.36C150.35 163.48 149.63 162.76 148.75 162.76C147.86 162.76 147.14 163.48 147.14 164.36C147.14 165.25 147.86 165.96 148.75 165.96Z" stroke="#1A2E35" stroke-opacity="1.000000" stroke-width="1.000000" stroke-linejoin="round"/>
	<path id="path402" d="M141.79 208.1C141.79 208.99 142.51 209.7 143.39 209.7C144.28 209.7 144.99 208.99 144.99 208.1C144.99 207.22 144.28 206.5 143.39 206.5C142.51 206.5 141.79 207.22 141.79 208.1Z" fill="#9A9A9A" fill-opacity="1.000000" fill-rule="nonzero"/>
	<path id="path406" d="M143.39 209.7C144.28 209.7 144.99 208.99 144.99 208.1C144.99 207.22 144.28 206.5 143.39 206.5C142.51 206.5 141.79 207.22 141.79 208.1C141.79 208.99 142.51 209.7 143.39 209.7Z" stroke="#1A2E35" stroke-opacity="1.000000" stroke-width="1.333333" stroke-linejoin="round"/>
	<path id="path410" d="M172.41 176.25C172.41 176.25 177.64 181.25 175.15 181.32C172.66 181.4 169.51 177.98 166.63 177.58C163.74 177.18 168.4 175.42 168.4 175.42L172.41 176.25Z" fill="#FFFFFF" fill-opacity="1.000000" fill-rule="nonzero"/>
	<path id="path414" d="M175.15 181.32C172.66 181.4 169.51 177.98 166.63 177.58C163.74 177.18 168.4 175.42 168.4 175.42L172.41 176.25C172.41 176.25 177.64 181.25 175.15 181.32Z" stroke="#1A2E35" stroke-opacity="1.000000" stroke-width="1.333333" stroke-linejoin="round"/>
	<path id="path418" d="M141.84 170.64C142.31 170.21 142.94 170.01 143.58 170.06C146.14 170.27 153.49 170.82 156.27 170.65C161.19 170.35 175.7 167.28 175.7 167.28C176.04 167.22 176.38 167.24 176.71 167.33L185.69 169.97C186.02 170.07 186.32 170.24 186.57 170.47L192.01 175.47C192.19 175.63 192.34 175.83 192.46 176.04L193.58 178.11C194.06 178.98 193.9 180.06 193.19 180.76L184.19 181.04C183.64 181.06 183.09 180.87 182.67 180.51L180.01 178.22C179.83 178.07 179.68 177.89 179.56 177.69C178.9 176.64 176.39 173.11 172.41 173.45C172.41 173.45 180.93 177.98 179.33 179.85C177.73 181.71 171.2 176.38 169.07 176.92C166.98 177.44 166.79 182.68 155.19 180.79C154.67 180.7 154.14 180.72 153.63 180.86L143.08 183.81C141.76 184.18 140.4 183.39 140.06 182.06C139.27 178.97 138.55 173.64 141.84 170.64Z" fill="#FFFFFF" fill-opacity="1.000000" fill-rule="nonzero"/>
	<path id="path422" d="M143.58 170.06C146.14 170.27 153.49 170.82 156.27 170.65C161.19 170.35 175.7 167.28 175.7 167.28C176.04 167.22 176.38 167.24 176.71 167.33L185.69 169.97C186.02 170.07 186.32 170.24 186.57 170.47L192.01 175.47C192.19 175.63 192.34 175.83 192.46 176.04L193.58 178.11C194.06 178.98 193.9 180.06 193.19 180.76L184.19 181.04C183.64 181.06 183.09 180.87 182.67 180.51L180.01 178.22C179.83 178.07 179.68 177.89 179.56 177.69C178.9 176.64 176.39 173.11 172.41 173.45C172.41 173.45 180.93 177.98 179.33 179.85C177.73 181.71 171.2 176.38 169.07 176.92C166.98 177.44 166.79 182.68 155.19 180.79C154.67 180.7 154.14 180.72 153.63 180.86L143.08 183.81C141.76 184.18 140.4 183.39 140.06 182.06C139.27 178.97 138.55 173.64 141.84 170.64C142.31 170.21 142.94 170.01 143.58 170.06Z" stroke="#1A2E35" stroke-opacity="1.000000" stroke-width="1.333333" stroke-linejoin="round"/>
	<path id="path426" d="M174.44 169.19L176.71 169.57C177.81 169.75 178.84 170.24 179.68 170.98L182.04 173.04C182.45 173.4 182.81 173.82 183.11 174.28L184.66 176.64C184.83 176.9 185.02 177.14 185.23 177.38C186.15 178.39 188.67 181.39 185.94 180.99M174.36 169.83L174.33 169.84C173.97 169.78 173.72 169.44 173.79 169.08C173.85 168.71 174.19 168.47 174.56 168.53L174.57 168.55L174.36 169.83ZM185.87 181.63L185.85 181.65C185.48 181.59 185.23 181.26 185.28 180.89C185.34 180.52 185.67 180.27 186.04 180.33L186.06 180.35L185.87 181.63Z" fill="#FFFFFF" fill-opacity="1.000000" fill-rule="nonzero"/>
	<path id="path426" d="M174.44 169.19L176.71 169.57C177.81 169.75 178.84 170.24 179.68 170.98L182.04 173.04C182.45 173.4 182.81 173.82 183.11 174.28L184.66 176.64C184.83 176.9 185.02 177.14 185.23 177.38C186.15 178.39 188.67 181.39 185.94 180.99" stroke="#1A2E35" stroke-opacity="1.000000" stroke-width="1.333333" stroke-linejoin="round" stroke-linecap="round"/>
	<path id="path430" d="M180.81 169.99L183.15 170.62C183.88 170.82 184.54 171.19 185.09 171.72L186.91 173.47C187.09 173.63 187.25 173.81 187.39 174.01L190.38 177.98C190.38 177.98 191.99 180.8 190.38 180.85M180.66 170.62L180.63 170.63C180.27 170.53 180.07 170.17 180.16 169.81C180.26 169.45 180.62 169.25 180.98 169.34L181 169.37L180.66 170.62ZM190.42 181.49L190.41 181.52C190.03 181.53 189.73 181.24 189.72 180.87C189.71 180.5 189.99 180.19 190.36 180.18L190.38 180.2L190.42 181.49Z" fill="#FFFFFF" fill-opacity="1.000000" fill-rule="nonzero"/>
	<path id="path430" d="M180.81 169.99L183.15 170.62C183.88 170.82 184.54 171.19 185.09 171.72L186.91 173.47C187.09 173.63 187.25 173.81 187.39 174.01L190.38 177.98C190.38 177.98 191.99 180.8 190.38 180.85" stroke="#1A2E35" stroke-opacity="1.000000" stroke-width="1.333333" stroke-linejoin="round" stroke-linecap="round"/>
	<path id="path434" d="M112.8 130.67C113.19 140.14 112.4 151.57 111.68 159.88C111.57 161.12 112.35 162.25 113.55 162.6C118.2 163.94 129.88 167.15 139.39 168.4" stroke="#1A2E35" stroke-opacity="1.000000" stroke-width="1.333333" stroke-linejoin="round" stroke-linecap="round"/>
	<path id="path438" d="M112.27 124.06C112.4 125.15 112.52 126.29 112.61 127.47" stroke="#1A2E35" stroke-opacity="1.000000" stroke-width="1.000000" stroke-linejoin="round" stroke-linecap="round"/>
	<path id="path442" d="M108.69 114.08C109.91 115.13 110.81 117.08 111.46 119.64" stroke="#1A2E35" stroke-opacity="1.000000" stroke-width="1.000000" stroke-linejoin="round" stroke-linecap="round"/>
	<path id="path446" d="M162.07 107.75C162.07 107.75 161.41 105.61 157.81 104.41C154.21 103.21 141.76 101.29 135.35 104.41C128.94 107.53 141.22 124.47 141.22 124.47L146.95 132.33L152.01 136.13L154.28 129.38L157.21 126.34C157.21 126.34 163.54 121.14 163 116.01C162.47 110.88 162.07 107.75 162.07 107.75Z" fill="#FFFFFF" fill-opacity="1.000000" fill-rule="nonzero"/>
	<path id="path450" d="M135.9 107.04C144.37 133.61 151.83 134.8 151.83 134.8C154.32 125.03 156.45 127.16 159.83 121.05C162.53 116.15 161.62 109.94 161.15 107.68C161.04 107.13 160.69 106.65 160.19 106.4C151.79 102.12 141.51 103.69 137.27 104.63C136.2 104.87 135.57 105.99 135.9 107.04ZM130.62 107.3C131.62 103.8 136.19 102.81 136.19 102.81C158.05 99.08 162.67 107.03 162.67 107.03C167.11 119.41 162.67 129.38 162.67 129.38C162.67 129.38 156.45 126.8 155.38 129.38C154.32 131.95 152.36 137.47 152.36 137.47C152.36 137.47 148.1 135.33 144.72 130.89C141.34 126.45 133.4 130.89 133.4 130.89C128.31 122.01 130.62 107.3 130.62 107.3Z" fill="#38BFF2" fill-opacity="1.000000" fill-rule="nonzero"/>
	<g opacity="0.399994">
		<g opacity="0.399994">
			<g opacity="0.399994">
				<path id="path468" d="M135.9 107.04C144.37 133.61 151.83 134.8 151.83 134.8C154.32 125.03 156.45 127.16 159.83 121.05C162.53 116.15 161.62 109.94 161.15 107.68C161.04 107.13 160.69 106.65 160.19 106.4C151.79 102.12 141.51 103.69 137.27 104.63C136.2 104.87 135.57 105.99 135.9 107.04ZM130.62 107.3C131.62 103.8 136.19 102.81 136.19 102.81C158.05 99.08 162.67 107.03 162.67 107.03C167.11 119.41 162.67 129.38 162.67 129.38C162.67 129.38 156.45 126.8 155.38 129.38C154.32 131.95 152.36 137.47 152.36 137.47C152.36 137.47 148.1 135.33 144.72 130.89C141.34 126.45 133.4 130.89 133.4 130.89C128.31 122.01 130.62 107.3 130.62 107.3Z" fill="#FFFFFF" fill-opacity="1.000000" fill-rule="nonzero"/>
			</g>
		</g>
	</g>
	<path id="path486" d="M151.83 134.8C154.32 125.03 156.45 127.16 159.82 121.05C162.53 116.15 161.62 109.94 161.15 107.68C161.04 107.13 160.69 106.65 160.19 106.4C151.79 102.12 141.51 103.69 137.27 104.63C136.2 104.87 135.57 105.99 135.9 107.04C144.36 133.61 151.83 134.8 151.83 134.8ZM136.19 102.81C158.05 99.08 162.67 107.03 162.67 107.03C167.11 119.41 162.67 129.38 162.67 129.38C162.67 129.38 156.45 126.8 155.38 129.38C154.32 131.95 152.36 137.47 152.36 137.47C152.36 137.47 148.1 135.33 144.72 130.89C141.34 126.45 133.4 130.89 133.4 130.89C128.31 122.01 130.62 107.3 130.62 107.3C131.62 103.8 136.19 102.81 136.19 102.81Z" stroke="#1A2E35" stroke-opacity="1.000000" stroke-width="1.333333" stroke-linejoin="round"/>
	<path id="path490" d="M166.3 66.7C166.3 66.7 185.14 70.47 174.76 82.72C163.26 96.31 166.3 66.7 166.3 66.7Z" fill="#1A2E35" fill-opacity="1.000000" fill-rule="nonzero"/>
	<path id="path494" d="M174.76 82.72C163.26 96.31 166.3 66.7 166.3 66.7C166.3 66.7 185.14 70.47 174.76 82.72Z" stroke="#1A2E35" stroke-opacity="1.000000" stroke-width="1.333333" stroke-linejoin="round"/>
	<path id="path498" d="M173.73 96.59C173.73 96.59 178.21 78.47 169.68 69.76C161.15 61.05 151.91 59.28 144.98 63.54C138.05 67.81 135.2 78.47 136.27 83.98C137.34 89.49 136.82 109.21 146.32 117.39C155.82 125.56 161.66 123.55 167.95 112.41C172.07 105.09 174.05 102.99 173.73 96.59Z" fill="#FFFFFF" fill-opacity="1.000000" fill-rule="nonzero"/>
	<path id="path502" d="M169.68 69.76C161.15 61.05 151.91 59.28 144.98 63.54C138.05 67.81 135.2 78.47 136.27 83.98C137.34 89.49 136.82 109.21 146.32 117.39C155.82 125.56 161.66 123.55 167.95 112.41C172.07 105.09 174.05 102.99 173.73 96.59C173.73 96.59 178.21 78.47 169.68 69.76Z" stroke="#1A2E35" stroke-opacity="1.000000" stroke-width="1.333333" stroke-linejoin="round"/>
	<path id="path506" d="M140.71 93.04C140.71 93.04 147.88 85.93 150.07 77.58C152.26 69.23 153.5 67.81 161.68 71.89C169.85 75.98 182.61 70.48 179.27 60.17C175.77 49.33 165.06 63.36 154.75 59.81C144.44 56.26 137.13 62.65 137.12 72.07C137.12 72.07 130.89 78.11 137.13 93.75L140.71 93.04Z" fill="#1A2E35" fill-opacity="1.000000" fill-rule="nonzero"/>
	<path id="path510" d="M150.07 77.58C152.26 69.23 153.5 67.81 161.68 71.89C169.85 75.98 182.61 70.48 179.27 60.17C175.77 49.33 165.06 63.36 154.75 59.81C144.44 56.26 137.13 62.65 137.12 72.07C137.12 72.07 130.89 78.11 137.13 93.75L140.71 93.04C140.71 93.04 147.88 85.93 150.07 77.58Z" stroke="#1A2E35" stroke-opacity="1.000000" stroke-width="1.333333" stroke-linejoin="round"/>
	<path id="path514" d="M142.96 91.85C142.96 91.85 141.15 81.91 136.11 82.83C131.07 83.76 134.67 98.42 140.6 96.82M143.59 91.71L143.62 91.73C143.68 92.1 143.45 92.44 143.08 92.5C142.71 92.57 142.37 92.34 142.31 91.97L142.32 91.94L143.59 91.71ZM140.41 96.2L140.43 96.17C140.79 96.08 141.15 96.28 141.25 96.64C141.34 97 141.14 97.36 140.78 97.46L140.75 97.45L140.41 96.2Z" fill="#FFFFFF" fill-opacity="1.000000" fill-rule="nonzero"/>
	<path id="path514" d="M142.96 91.85C142.96 91.85 141.15 81.91 136.11 82.83C131.07 83.76 134.67 98.42 140.6 96.82" stroke="#1A2E35" stroke-opacity="1.000000" stroke-width="1.333333" stroke-linejoin="round" stroke-linecap="round"/>
	<path id="path518" d="M166.92 95.22C166.92 95.22 168.9 104.44 168.26 106.02C167.61 107.61 161.51 106.4 161.51 106.4M166.29 95.37L166.27 95.36C166.19 94.99 166.42 94.64 166.78 94.57C167.15 94.49 167.5 94.71 167.57 95.08L167.56 95.1L166.29 95.37ZM161.4 107.03L161.38 107.05C161.01 106.98 160.78 106.63 160.85 106.27C160.93 105.9 161.27 105.67 161.64 105.74L161.65 105.77L161.4 107.03Z" fill="#FFFFFF" fill-opacity="1.000000" fill-rule="nonzero"/>
	<path id="path518" d="M166.92 95.22C166.92 95.22 168.9 104.44 168.26 106.02C167.61 107.61 161.51 106.4 161.51 106.4" stroke="#1A2E35" stroke-opacity="1.000000" stroke-width="1.333333" stroke-linejoin="round" stroke-linecap="round"/>
	<path id="path522" d="M160.66 110.41C160.66 110.41 155.88 112.3 151.67 106.02M160.4 109.82L160.41 109.79C160.76 109.65 161.14 109.82 161.28 110.17C161.42 110.51 161.25 110.89 160.9 111.03L160.88 111.02L160.4 109.82ZM151.14 106.4L151.12 106.39C150.91 106.08 150.99 105.68 151.3 105.47C151.61 105.26 152.02 105.34 152.22 105.65L152.22 105.68L151.14 106.4Z" fill="#FFFFFF" fill-opacity="1.000000" fill-rule="nonzero"/>
	<path id="path522" d="M160.66 110.41C160.66 110.41 155.88 112.3 151.67 106.02" stroke="#1A2E35" stroke-opacity="1.000000" stroke-width="1.333333" stroke-linejoin="round" stroke-linecap="round"/>
	<path id="path526" d="M170.19 95.99C170.02 96.85 170.24 97.62 170.69 97.71C171.15 97.81 171.66 97.19 171.84 96.33C172.02 95.47 171.8 94.7 171.34 94.6C170.89 94.51 170.37 95.13 170.19 95.99Z" fill="#1A2E35" fill-opacity="1.000000" fill-rule="nonzero"/>
	<path id="path530" d="M158.5 95.05C158.32 95.91 158.55 96.68 159 96.77C159.46 96.87 159.97 96.25 160.15 95.39C160.33 94.53 160.1 93.76 159.65 93.66C159.19 93.57 158.68 94.19 158.5 95.05Z" fill="#1A2E35" fill-opacity="1.000000" fill-rule="nonzero"/>
	<path id="path534" d="M173.16 100.55C176.39 100.87 179.21 99.17 179.46 96.76C179.7 94.34 177.15 93.28 173.92 92.95C170.68 92.63 167.98 93.17 167.74 95.59C167.49 98 169.92 100.22 173.16 100.55Z" stroke="#1A2E35" stroke-opacity="1.000000" stroke-width="1.333333" stroke-linejoin="round"/>
	<path id="path538" d="M158.07 99.04C161.31 99.36 164.12 97.66 164.37 95.25C164.61 92.83 162.06 91.77 158.83 91.45C155.59 91.12 152.89 91.66 152.65 94.08C152.4 96.49 154.83 98.71 158.07 99.04Z" stroke="#1A2E35" stroke-opacity="1.000000" stroke-width="1.333333" stroke-linejoin="round"/>
	<path id="path542" d="M167.74 95.59L164.37 95.25M167.78 94.94L167.8 94.92C168.17 94.96 168.44 95.28 168.4 95.65C168.36 96.02 168.04 96.29 167.67 96.25L167.65 96.23L167.78 94.94ZM164.32 95.9L164.3 95.91C163.93 95.88 163.67 95.56 163.7 95.18C163.74 94.81 164.06 94.55 164.43 94.59L164.45 94.61L164.32 95.9Z" fill="#FFFFFF" fill-opacity="1.000000" fill-rule="nonzero"/>
	<path id="path542" d="M167.74 95.59L164.37 95.25" stroke="#1A2E35" stroke-opacity="1.000000" stroke-width="1.333333" stroke-linejoin="round" stroke-linecap="round"/>
	<path id="path546" d="M153.06 92.87L140.67 85.56M153.37 92.3L153.4 92.29C153.72 92.48 153.83 92.89 153.64 93.21C153.45 93.53 153.04 93.63 152.72 93.44L152.72 93.42L153.37 92.3ZM140.36 86.13L140.33 86.13C140.01 85.94 139.9 85.54 140.09 85.22C140.28 84.9 140.68 84.8 141 84.99L141.01 85.01L140.36 86.13Z" fill="#FFFFFF" fill-opacity="1.000000" fill-rule="nonzero"/>
	<path id="path546" d="M153.06 92.87L140.67 85.56" stroke="#1A2E35" stroke-opacity="1.000000" stroke-width="1.333333" stroke-linejoin="round" stroke-linecap="round"/>
	<path id="path550" d="M138.54 104.24L137.96 105.66M137.93 104.01L137.92 103.98C138.07 103.64 138.45 103.48 138.79 103.62C139.14 103.76 139.3 104.15 139.16 104.49L139.13 104.5L137.93 104.01ZM138.56 105.89L138.57 105.91C138.43 106.26 138.05 106.42 137.7 106.27C137.36 106.13 137.2 105.75 137.34 105.4L137.37 105.39L138.56 105.89Z" fill="#FFFFFF" fill-opacity="1.000000" fill-rule="nonzero"/>
	<path id="path550" d="M138.54 104.24L137.96 105.66" stroke="#1A2E35" stroke-opacity="1.000000" stroke-width="1.333333" stroke-linejoin="round" stroke-linecap="round"/>
	<path id="path554" d="M174.72 91.69C174.72 91.69 172.84 89.29 170.52 90.44M175.22 91.27L175.25 91.28C175.48 91.57 175.43 91.98 175.14 92.21C174.84 92.44 174.43 92.39 174.2 92.1L174.2 92.07L175.22 91.27ZM170.83 91.01L170.82 91.04C170.48 91.21 170.09 91.08 169.92 90.74C169.76 90.41 169.89 90.01 170.22 89.85L170.25 89.86L170.83 91.01Z" fill="#FFFFFF" fill-opacity="1.000000" fill-rule="nonzero"/>
	<path id="path554" d="M174.72 91.69C174.72 91.69 172.84 89.29 170.52 90.44" stroke="#1A2E35" stroke-opacity="1.000000" stroke-width="1.333333" stroke-linejoin="round" stroke-linecap="round"/>
	<path id="path558" d="M155.41 90.62C155.41 90.62 158.72 87.45 161.91 89.67M155.87 91.07L155.87 91.1C155.59 91.36 155.18 91.35 154.92 91.08C154.67 90.81 154.67 90.39 154.95 90.13L154.97 90.13L155.87 91.07ZM162.27 89.13L162.29 89.12C162.6 89.34 162.67 89.75 162.46 90.05C162.25 90.36 161.84 90.43 161.53 90.22L161.53 90.19L162.27 89.13Z" fill="#FFFFFF" fill-opacity="1.000000" fill-rule="nonzero"/>
	<path id="path558" d="M155.41 90.62C155.41 90.62 158.72 87.45 161.91 89.67" stroke="#1A2E35" stroke-opacity="1.000000" stroke-width="1.333333" stroke-linejoin="round" stroke-linecap="round"/>
	<path id="path562" d="M170.54 61.36C165.49 62.97 157 64.92 150.07 62.83C139.47 59.63 143.06 71.57 140.67 74.86" stroke="#808080" stroke-opacity="1.000000" stroke-width="1.333333" stroke-linejoin="round" stroke-linecap="round"/>
	<path id="path566" d="M174.9 59.77C174.9 59.77 174.06 60.14 172.62 60.65" stroke="#808080" stroke-opacity="1.000000" stroke-width="1.333333" stroke-linejoin="round" stroke-linecap="round"/>
	<path id="path570" d="M162.16 67.3C161.6 67.13 161.01 66.93 160.39 66.7" stroke="#808080" stroke-opacity="1.000000" stroke-width="1.333333" stroke-linejoin="round" stroke-linecap="round"/>
	<path id="path574" d="M173.73 65.9C173.73 65.9 171.48 69.39 164.19 67.83" stroke="#808080" stroke-opacity="1.000000" stroke-width="1.333333" stroke-linejoin="round" stroke-linecap="round"/>
	<path id="path578" d="M146.65 72.73C146.2 75.77 145.06 80.17 142.13 84.15" stroke="#808080" stroke-opacity="1.000000" stroke-width="1.333333" stroke-linejoin="round" stroke-linecap="round"/>
	<path id="path582" d="M146.93 68.96C146.93 68.96 146.96 69.68 146.86 70.87" stroke="#808080" stroke-opacity="1.000000" stroke-width="1.333333" stroke-linejoin="round" stroke-linecap="round"/>
	<g opacity="0.300003">
		<g opacity="0.300003">
			<g opacity="0.300003">
				<path id="path592" d="M137.45 183.34C138.3 184.11 137.81 185.52 136.65 185.53C129.45 185.56 110.03 185.61 102.5 185.18C93.17 184.65 100.29 174.5 107.79 178.37C114.7 181.94 129.25 176 137.45 183.34Z" fill="#000000" fill-opacity="1.000000" fill-rule="nonzero"/>
			</g>
		</g>
	</g>
	<path id="path602" d="M218.64 173.34C218.64 173.34 214.28 161.73 203.34 163.58C192.29 165.44 200.77 174.58 206.02 175.39C206.02 175.39 206.82 172.21 218.64 173.34Z" fill="#FFFFFF" fill-opacity="1.000000" fill-rule="nonzero"/>
	<path id="path606" d="M203.34 163.58C192.29 165.44 200.77 174.58 206.02 175.39C206.02 175.39 206.82 172.21 218.64 173.34C218.64 173.34 214.28 161.73 203.34 163.58Z" stroke="#1A2E35" stroke-opacity="1.000000" stroke-width="1.333333" stroke-linejoin="round"/>
	<path id="path610" d="M227.9 179.93C229.35 181.38 232.81 181.5 230.48 178.37C227.9 174.91 225 173.75 223.02 172.87C217.83 170.55 215.8 171.01 211.11 169.99C206.42 168.96 205.54 170.87 203.91 171.76C200.04 173.88 199.11 174.25 198.14 176.38C197.16 178.51 196.09 181.29 199.11 181.29C201.87 181.29 202.05 176.73 204.71 176.91C207.38 177.09 208.71 181.29 210.58 181.29L211.29 181.29C212.89 181.29 212.97 179.95 211.99 177.86C211.02 175.77 209.95 173.89 209.95 173.89C209.95 173.89 212.27 174.94 213.55 177.67C214.83 180.39 215.07 181.53 217.42 181.53C219.77 181.53 219.61 179.79 217.27 175.93C217.27 175.93 219.38 177.08 220.53 179.26C221.68 181.44 222.28 181.29 223.79 181.29C225.77 181.29 225.64 178.02 222.13 175.89C222.13 175.89 222.91 174.93 227.9 179.93Z" fill="#FFFFFF" fill-opacity="1.000000" fill-rule="nonzero"/>
	<path id="path614" d="M230.48 178.37C227.9 174.91 225 173.75 223.02 172.87C217.83 170.55 215.8 171.01 211.11 169.99C206.42 168.96 205.54 170.87 203.91 171.76C200.04 173.88 199.11 174.25 198.14 176.38C197.16 178.51 196.09 181.29 199.11 181.29C201.87 181.29 202.05 176.73 204.71 176.91C207.38 177.09 208.71 181.29 210.58 181.29L211.29 181.29C212.89 181.29 212.97 179.95 211.99 177.86C211.02 175.77 209.95 173.89 209.95 173.89C209.95 173.89 212.27 174.94 213.55 177.67C214.83 180.39 215.07 181.53 217.42 181.53C219.77 181.53 219.61 179.79 217.27 175.93C217.27 175.93 219.38 177.08 220.53 179.26C221.68 181.44 222.28 181.29 223.79 181.29C225.77 181.29 225.64 178.02 222.13 175.89C222.13 175.89 222.91 174.93 227.9 179.93C229.35 181.38 232.81 181.5 230.48 178.37Z" stroke="#1A2E35" stroke-opacity="1.000000" stroke-width="1.333333" stroke-linejoin="round"/>
	<path id="path618" d="M214.19 172.13C214.19 172.13 215.57 172.07 216.44 174.4M214.24 172.61L214.22 172.63C213.94 172.65 213.71 172.44 213.7 172.16C213.68 171.88 213.89 171.65 214.17 171.64L214.19 171.65L214.24 172.61ZM216.88 174.21L216.91 174.23C217.01 174.49 216.88 174.77 216.61 174.87C216.35 174.97 216.07 174.84 215.97 174.57L215.98 174.55L216.88 174.21Z" fill="#FFFFFF" fill-opacity="1.000000" fill-rule="nonzero"/>
	<path id="path618" d="M214.19 172.13C214.19 172.13 215.57 172.07 216.44 174.4" stroke="#1A2E35" stroke-opacity="1.000000" stroke-width="1.000000" stroke-linejoin="round" stroke-linecap="round"/>
	<path id="path630" d="M39 71.75C32.19 77.09 25.64 82.9 19.37 89.17" stroke="#1A2E35" stroke-opacity="1.000000" stroke-width="1.000000" stroke-linejoin="round" stroke-linecap="round"/>
	<path id="path634" d="M46.43 66.15C45.13 67.09 43.84 68.04 42.55 69.01" stroke="#1A2E35" stroke-opacity="1.000000" stroke-width="1.000000" stroke-linejoin="round" stroke-linecap="round"/>
	<path id="path638" d="M53.86 61.04C52.53 61.92 51.2 62.82 49.88 63.73" stroke="#1A2E35" stroke-opacity="1.000000" stroke-width="1.000000" stroke-linejoin="round" stroke-linecap="round"/>
	<path id="path642" d="M108.41 35.24C90.97 40.67 74.08 48.35 58.19 58.27" stroke="#1A2E35" stroke-opacity="1.000000" stroke-width="1.000000" stroke-linejoin="round" stroke-linecap="round"/>
	<path id="path646" d="M120.06 31.96C117.9 32.51 115.75 33.08 113.6 33.69" stroke="#1A2E35" stroke-opacity="1.000000" stroke-width="1.000000" stroke-linejoin="round" stroke-linecap="round"/>
	<path id="path650" d="M132.04 29.31C129.69 29.76 127.36 30.25 125.03 30.77" stroke="#1A2E35" stroke-opacity="1.000000" stroke-width="1.000000" stroke-linejoin="round" stroke-linecap="round"/>
	<path id="path654" d="M142.71 27.52C140.69 27.81 138.67 28.12 136.66 28.47" stroke="#1A2E35" stroke-opacity="1.000000" stroke-width="1.000000" stroke-linejoin="round" stroke-linecap="round"/>
	<path id="path658" d="M207.02 27.95C187.25 24.88 167.15 24.54 147.31 26.92" stroke="#1A2E35" stroke-opacity="1.000000" stroke-width="1.000000" stroke-linejoin="round" stroke-linecap="round"/>
	<path id="path662" d="M215.82 29.5C214 29.14 212.18 28.81 210.36 28.5" stroke="#1A2E35" stroke-opacity="1.000000" stroke-width="1.000000" stroke-linejoin="round" stroke-linecap="round"/>
	<path id="path666" d="M224.35 31.37C222.54 30.93 220.71 30.52 218.89 30.13" stroke="#1A2E35" stroke-opacity="1.000000" stroke-width="1.000000" stroke-linejoin="round" stroke-linecap="round"/>
	<path id="path670" d="M234.85 34.16C233 33.62 231.14 33.1 229.27 32.61" stroke="#1A2E35" stroke-opacity="1.000000" stroke-width="1.000000" stroke-linejoin="round" stroke-linecap="round"/>
	<path id="path674" d="M298.3 64.66C280.34 52.07 260.92 42.51 240.72 35.97" stroke="#1A2E35" stroke-opacity="1.000000" stroke-width="1.000000" stroke-linejoin="round" stroke-linecap="round"/>
	<path id="path678" d="M306.87 70.99C305.2 69.69 303.52 68.42 301.82 67.18" stroke="#1A2E35" stroke-opacity="1.000000" stroke-width="1.000000" stroke-linejoin="round" stroke-linecap="round"/>
	<path id="path682" d="M315.47 78.02C313.64 76.45 311.79 74.91 309.92 73.4" stroke="#1A2E35" stroke-opacity="1.000000" stroke-width="1.000000" stroke-linejoin="round" stroke-linecap="round"/>
	<path id="path686" d="M327.47 89.17C324.97 86.67 322.42 84.24 319.83 81.89" stroke="#1A2E35" stroke-opacity="1.000000" stroke-width="1.000000" stroke-linejoin="round" stroke-linecap="round"/>
	<path id="path690" d="M244.09 50.22C244.09 64.87 255.97 76.75 270.61 76.75C285.26 76.75 297.14 64.87 297.14 50.22C297.14 35.57 285.26 23.7 270.61 23.7C255.97 23.7 244.09 35.57 244.09 50.22Z" fill="#38BFF2" fill-opacity="1.000000" fill-rule="nonzero"/>
	<g opacity="0.300003">
		<g opacity="0.300003">
			<g opacity="0.300003">
				<path id="path708" d="M244.5 49.59C244.5 64.24 256.37 76.11 271.02 76.11C285.67 76.11 297.55 64.24 297.55 49.59C297.55 34.94 285.67 23.06 271.02 23.06C256.37 23.06 244.5 34.94 244.5 49.59Z" fill="#FFFFFF" fill-opacity="1.000000" fill-rule="nonzero"/>
			</g>
		</g>
	</g>
	<path id="path726" d="M270.61 76.75C285.26 76.75 297.14 64.87 297.14 50.22C297.14 35.57 285.26 23.7 270.61 23.7C255.97 23.7 244.09 35.57 244.09 50.22C244.09 64.87 255.97 76.75 270.61 76.75Z" stroke="#1A2E35" stroke-opacity="1.000000" stroke-width="1.000000" stroke-linejoin="round"/>
	<path id="path746" d="M322.01 124.89L337.32 124.89C344.36 124.89 350.06 119.18 350.06 112.14L350.06 96.84C350.06 89.8 344.36 84.09 337.32 84.09L322.01 84.09C314.97 84.09 309.26 89.8 309.26 96.84L309.26 112.14C309.26 119.18 314.97 124.89 322.01 124.89Z" fill="#38BFF2" fill-opacity="1.000000" fill-rule="nonzero"/>
	<path id="path750" d="M337.32 124.89C344.36 124.89 350.06 119.18 350.06 112.14L350.06 96.84C350.06 89.8 344.36 84.09 337.32 84.09L322.01 84.09C314.97 84.09 309.26 89.8 309.26 96.84L309.26 112.14C309.26 119.18 314.97 124.89 322.01 124.89L337.32 124.89Z" stroke="#1A2E35" stroke-opacity="1.000000" stroke-width="1.000000" stroke-linejoin="round"/>
	<path id="path778" d="M59.79 44.22C59.79 56.72 69.93 66.86 82.43 66.86C94.93 66.86 105.07 56.72 105.07 44.22C105.07 31.72 94.93 21.58 82.43 21.58C69.93 21.58 59.79 31.72 59.79 44.22Z" fill="#38BFF2" fill-opacity="1.000000" fill-rule="nonzero"/>
	<g opacity="0.199997">
		<g opacity="0.199997">
			<g opacity="0.199997">
				<path id="path796" d="M59.64 44.66C59.64 57.16 69.78 67.3 82.28 67.3C94.79 67.3 104.92 57.16 104.92 44.66C104.92 32.15 94.79 22.02 82.28 22.02C69.78 22.02 59.64 32.15 59.64 44.66Z" fill="#000000" fill-opacity="1.000000" fill-rule="nonzero"/>
			</g>
		</g>
	</g>
	<path id="path814" d="M82.43 66.86C94.93 66.86 105.07 56.72 105.07 44.22C105.07 31.72 94.93 21.58 82.43 21.58C69.93 21.58 59.79 31.72 59.79 44.22C59.79 56.72 69.93 66.86 82.43 66.86Z" stroke="#1A2E35" stroke-opacity="1.000000" stroke-width="1.000000" stroke-linejoin="round"/>
	<path id="path842" d="M169.21 49.45L189.67 49.45C197.68 49.45 204.17 42.96 204.17 34.95L204.17 14.5C204.17 6.49 197.68 6.1e-5 189.67 6.1e-5L169.21 6.1e-5C161.2 6.1e-5 154.71 6.49 154.71 14.5L154.71 34.95C154.71 42.96 161.2 49.45 169.21 49.45Z" fill="#38BFF2" fill-opacity="1.000000" fill-rule="nonzero"/>
	<path id="path846" d="M189.67 49.45C197.68 49.45 204.17 42.96 204.17 34.95L204.17 14.5C204.17 6.49 197.68 6.1e-5 189.67 6.1e-5L169.21 6.1e-5C161.2 6.1e-5 154.71 6.49 154.71 14.5L154.71 34.95C154.71 42.96 161.2 49.45 169.21 49.45L189.67 49.45Z" stroke="#1A2E35" stroke-opacity="1.000000" stroke-width="1.000000" stroke-linejoin="round"/>
	<path id="path874" d="M0 92.1C0 104.57 10.1 114.68 22.58 114.68C35.05 114.68 45.16 104.57 45.16 92.1C45.16 79.63 35.05 69.52 22.58 69.52C10.1 69.52 0 79.63 0 92.1Z" fill="#38BFF2" fill-opacity="1.000000" fill-rule="nonzero"/>
	<g opacity="0.300003">
		<g opacity="0.300003">
			<g opacity="0.300003">
				<path id="path892" d="M0.59 92.56C0.59 105.03 10.7 115.14 23.17 115.14C35.64 115.14 45.75 105.03 45.75 92.56C45.75 80.09 35.64 69.98 23.17 69.98C10.7 69.98 0.59 80.09 0.59 92.56Z" fill="#FFFFFF" fill-opacity="1.000000" fill-rule="nonzero"/>
			</g>
		</g>
	</g>
	<path id="path910" d="M22.58 114.68C35.05 114.68 45.16 104.57 45.16 92.1C45.16 79.63 35.05 69.52 22.58 69.52C10.1 69.52 0 79.63 0 92.1C0 104.57 10.1 114.68 22.58 114.68Z" stroke="#1A2E35" stroke-opacity="1.000000" stroke-width="1.000000" stroke-linejoin="round"/>
	<path id="path930" d="M289.53 352.13L293.48 352.13L294.54 195.13L289.53 195.13L289.53 352.13Z" fill="#868686" fill-opacity="1.000000" fill-rule="nonzero"/>
	<path id="path934" d="M293.48 352.13L294.54 195.13L289.53 195.13L289.53 352.13L293.48 352.13Z" stroke="#1A2E35" stroke-opacity="1.000000" stroke-width="1.333333" stroke-linejoin="round"/>
	<path id="path938" d="M285.57 352.13L289.53 352.13L289.53 195.13L284.51 195.13L285.57 352.13Z" fill="#9A9A9A" fill-opacity="1.000000" fill-rule="nonzero"/>
	<path id="path942" d="M289.53 352.13L289.53 195.13L284.51 195.13L285.57 352.13L289.53 352.13Z" stroke="#1A2E35" stroke-opacity="1.000000" stroke-width="1.333333" stroke-linejoin="round"/>
	<path id="path944" d="M63.75 195.13L334.78 195.13L334.78 185.51L63.75 185.51L63.75 195.13Z" fill="#1A2E35" fill-opacity="1.000000" fill-rule="nonzero"/>
	<path id="path944" d="M334.78 195.13L334.78 185.51L63.75 185.51L63.75 195.13L334.78 195.13Z" stroke="#1A2E35" stroke-opacity="1.000000" stroke-width="1.333333" stroke-linejoin="round"/>
	<path id="path946" d="M7.1 195.13L67.79 195.13L67.79 185.51L7.1 185.51L7.1 195.13Z" fill="#868686" fill-opacity="1.000000" fill-rule="nonzero"/>
	<path id="path946" d="M67.79 195.13L67.79 185.51L7.1 185.51L7.1 195.13L67.79 195.13Z" stroke="#1A2E35" stroke-opacity="1.000000" stroke-width="1.333333" stroke-linejoin="round"/>
	<path id="path948" d="M51.45 210.97L320.9 210.97L320.9 195.13L51.45 195.13L51.45 210.97Z" fill="#38BFF2" fill-opacity="1.000000" fill-rule="nonzero"/>
	<path id="path948" d="M320.9 210.97L320.9 195.13L51.45 195.13L51.45 210.97L320.9 210.97Z" stroke="#1A2E35" stroke-opacity="1.000000" stroke-width="1.333333"/>
	<path id="path950" d="M51.45 210.97L20.07 210.97L20.07 195.13L51.45 195.13L51.45 210.97Z" fill="#38BFF2" fill-opacity="1.000000" fill-rule="nonzero"/>
	<g opacity="0.300003">
		<g opacity="0.300003">
			<path id="path968" d="M51.44 210.97L20.07 210.97L20.07 195.13L51.44 195.13L51.44 210.97Z" fill="#000000" fill-opacity="1.000000" fill-rule="nonzero"/>
		</g>
	</g>
	<path id="path974" d="M20.07 210.97L20.07 195.13L51.45 195.13L51.45 210.97L20.07 210.97Z" stroke="#1A2E35" stroke-opacity="1.000000" stroke-width="1.333333"/>
	<path id="path978" d="M51.44 352.13L55.39 352.13L56.46 195.13L51.44 195.13L51.44 352.13Z" fill="#868686" fill-opacity="1.000000" fill-rule="nonzero"/>
	<path id="path982" d="M55.39 352.13L56.46 195.13L51.44 195.13L51.44 352.13L55.39 352.13Z" stroke="#1A2E35" stroke-opacity="1.000000" stroke-width="1.333333" stroke-linejoin="round"/>
	<path id="path986" d="M47.49 352.13L51.44 352.13L51.44 195.13L46.43 195.13L47.49 352.13Z" fill="#9A9A9A" fill-opacity="1.000000" fill-rule="nonzero"/>
	<path id="path990" d="M51.44 352.13L51.44 195.13L46.43 195.13L47.49 352.13L51.44 352.13Z" stroke="#1A2E35" stroke-opacity="1.000000" stroke-width="1.333333" stroke-linejoin="round"/>
	<path id="path994" d="M320.9 352.13L324.85 352.13L325.92 195.13L320.9 195.13L320.9 352.13Z" fill="#868686" fill-opacity="1.000000" fill-rule="nonzero"/>
	<path id="path998" d="M324.85 352.13L325.92 195.13L320.9 195.13L320.9 352.13L324.85 352.13Z" stroke="#1A2E35" stroke-opacity="1.000000" stroke-width="1.333333" stroke-linejoin="round"/>
	<path id="path1002" d="M316.95 352.13L320.9 352.13L320.9 195.13L315.88 195.13L316.95 352.13Z" fill="#9A9A9A" fill-opacity="1.000000" fill-rule="nonzero"/>
	<path id="path1006" d="M320.9 352.13L320.9 195.13L315.88 195.13L316.95 352.13L320.9 352.13Z" stroke="#1A2E35" stroke-opacity="1.000000" stroke-width="1.333333" stroke-linejoin="round"/>
	<path id="path1010" d="M20.07 352.13L24.02 352.13L25.08 195.13L20.07 195.13L20.07 352.13Z" fill="#868686" fill-opacity="1.000000" fill-rule="nonzero"/>
	<path id="path1014" d="M24.02 352.13L25.08 195.13L20.07 195.13L20.07 352.13L24.02 352.13Z" stroke="#1A2E35" stroke-opacity="1.000000" stroke-width="1.333333" stroke-linejoin="round"/>
	<path id="path1018" d="M16.12 352.13L20.07 352.13L20.07 195.13L15.05 195.13L16.12 352.13Z" fill="#9A9A9A" fill-opacity="1.000000" fill-rule="nonzero"/>
	<path id="path1022" d="M20.07 352.13L20.07 195.13L15.05 195.13L16.12 352.13L20.07 352.13Z" stroke="#1A2E35" stroke-opacity="1.000000" stroke-width="1.333333" stroke-linejoin="round"/>
	<path id="path1034" d="M159.63 184.45L191.4 184.45C192.05 184.45 192.58 183.92 192.58 183.27L192.58 180.65L158.46 181.71L158.46 183.27C158.46 183.92 158.98 184.45 159.63 184.45Z" fill="#868686" fill-opacity="1.000000" fill-rule="nonzero"/>
	<path id="path1038" d="M191.4 184.45C192.05 184.45 192.58 183.92 192.58 183.27L192.58 180.65L158.46 181.71L158.46 183.27C158.46 183.92 158.98 184.45 159.63 184.45L191.4 184.45Z" stroke="#1A2E35" stroke-opacity="1.000000" stroke-width="1.333333" stroke-linejoin="round"/>
	<path id="path1042" d="M196.12 184.45L259.98 184.45C261 184.45 262 183.69 262.31 182.68L276.02 138.17C276.4 136.95 275.64 135.87 274.41 135.87L210.55 135.87C209.52 135.87 208.52 136.63 208.21 137.64L194.5 182.14C194.13 183.36 194.89 184.45 196.12 184.45Z" fill="#9A9A9A" fill-opacity="1.000000" fill-rule="nonzero"/>
	<path id="path1046" d="M259.98 184.45C261 184.45 262 183.69 262.31 182.68L276.02 138.17C276.4 136.95 275.64 135.87 274.41 135.87L210.55 135.87C209.52 135.87 208.52 136.63 208.21 137.64L194.5 182.14C194.13 183.36 194.89 184.45 196.12 184.45L259.98 184.45Z" stroke="#1A2E35" stroke-opacity="1.000000" stroke-width="1.333333" stroke-linejoin="round"/>
	<path id="path1050" d="M191.64 182.14L205.34 137.64C205.66 136.63 206.65 135.87 207.68 135.87L210.55 135.87C209.52 135.87 208.52 136.63 208.21 137.64L194.51 182.14C194.13 183.36 194.89 184.45 196.12 184.45L193.25 184.45C192.02 184.45 191.26 183.36 191.64 182.14Z" fill="#868686" fill-opacity="1.000000" fill-rule="nonzero"/>
	<path id="path1054" d="M205.34 137.64C205.66 136.63 206.65 135.87 207.68 135.87L210.55 135.87C209.52 135.87 208.52 136.63 208.21 137.64L194.51 182.14C194.13 183.36 194.89 184.45 196.12 184.45L193.25 184.45C192.02 184.45 191.26 183.36 191.64 182.14L205.34 137.64Z" stroke="#1A2E35" stroke-opacity="1.000000" stroke-width="1.333333" stroke-linejoin="round"/>
	<path id="path1058" d="M231.31 160.16C231.04 162.34 232.6 164.11 234.78 164.11C236.96 164.11 238.95 162.34 239.21 160.16C239.48 157.98 237.93 156.21 235.75 156.21C233.57 156.21 231.58 157.98 231.31 160.16Z" fill="#FFFFFF" fill-opacity="1.000000" fill-rule="nonzero"/>
	<path id="path1062" d="M234.78 164.11C236.96 164.11 238.95 162.34 239.21 160.16C239.48 157.98 237.93 156.21 235.75 156.21C233.57 156.21 231.58 157.98 231.31 160.16C231.04 162.34 232.6 164.11 234.78 164.11Z" stroke="#1A2E35" stroke-opacity="1.000000" stroke-width="1.333333" stroke-linejoin="round"/>
	<path id="" d="M275.03 56.28L275.03 58L264.43 58L264.43 56.28L265.06 56.28C266 56.28 266.21 54.56 266.18 53.62L266.12 51.78L264.37 51.78L264.37 50L266.07 50L265.97 46.84C265.84 43.43 268.28 41.77 270.71 41.77C273.68 41.77 275.78 44.15 275.18 46.53L273.37 46.03C273.59 44.4 272.21 43.49 270.81 43.49C269.31 43.49 267.78 44.52 267.78 46.84L267.89 50L271.65 50L271.65 51.78L267.96 51.78L268.03 53.62C268.07 54.66 267.93 55.63 267.44 56.28L275.03 56.28Z" fill="#000000" fill-opacity="1.000000" fill-rule="evenodd"/>
	<path id="Br" d="M19.01 100L13.76 100L13.76 85.45L18.84 85.45C21.88 85.45 23.3 87.18 23.3 89.31C23.3 91.19 22.2 92.01 20.95 92.35L20.95 92.5C22.28 92.58 23.87 93.83 23.87 96.13C23.87 98.32 22.45 100 19.01 100ZM15.52 87.01L15.52 91.84L18.79 91.84C20.37 91.84 21.62 90.85 21.62 89.31C21.62 88.04 20.77 87.01 18.84 87.01L15.52 87.01ZM28.21 100L26.54 100L26.54 89.09L28.16 89.09L28.16 90.73L28.27 90.73C28.67 89.65 29.81 88.92 31.11 88.92C31.36 88.92 31.8 88.93 31.99 88.95L31.99 90.65C31.88 90.62 31.42 90.54 30.97 90.54C29.38 90.54 28.21 91.62 28.21 93.09L28.21 100ZM15.52 93.37L15.52 98.43L19.01 98.43C21.31 98.43 22.2 97.41 22.2 96.13C22.2 94.65 21 93.37 19.1 93.37L15.52 93.37Z" fill="#000000" fill-opacity="1.000000" fill-rule="evenodd"/>
	<path id="" d="M90.15 41.74C90.15 44.34 88.49 46.5 84.93 46.5L81.27 46.5L81.27 47.99L84.81 47.99L84.81 49.71L81.27 49.71L81.27 53L79.34 53L79.34 49.71L76.81 49.71L76.81 47.99L79.34 47.99L79.34 46.5L76.81 46.5L76.81 44.78L79.34 44.78L79.34 36.99L84.93 36.99C88.49 36.99 90.15 39.15 90.15 41.74ZM81.27 38.71L81.27 44.78L84.93 44.78C87.18 44.78 88.25 43.49 88.25 41.74C88.25 40 87.18 38.71 84.93 38.71L81.27 38.71Z" fill="#000000" fill-opacity="1.000000" fill-rule="evenodd"/>
	<path id="$" d="M329.95 114.81L328.79 114.81L328.79 113.23C326 113.04 324.29 111.48 324.13 109.25L325.95 109.25C326.08 110.71 327.3 111.48 328.79 111.63L328.79 106.26L328.22 106.09C325.95 105.44 324.53 104.27 324.53 102.31C324.53 100.09 326.35 98.54 328.79 98.29L328.79 96.63L329.95 96.63L329.95 98.26C332.53 98.43 334.34 100.01 334.42 102.09L332.71 102.09C332.56 100.79 331.46 99.98 329.95 99.84L329.95 104.89L330.52 105.04C332.03 105.44 334.62 106.32 334.62 109.05C334.62 111.26 332.94 113.02 329.95 113.23L329.95 114.81ZM326.23 102.23C326.23 103.67 327.71 104.27 328.79 104.57L328.79 99.86C327.23 100.06 326.23 101 326.23 102.23ZM329.95 106.59L329.95 111.63C331.67 111.44 332.91 110.45 332.91 109.02C332.91 107.57 331.55 107.03 330.01 106.6L329.95 106.59Z" fill="#000000" fill-opacity="1.000000" fill-rule="evenodd"/>
	<path id="" d="M175.79 22.71L183.26 22.71L182.47 24.41L175.54 24.41C175.53 24.69 175.52 24.98 175.52 25.27C175.52 25.56 175.53 25.84 175.54 26.12L181.79 26.12L181.01 27.83L175.79 27.83C176.47 30.71 178.34 32.25 180.63 32.25C182.13 32.25 183.4 31.61 184.38 30.75L185.24 32.53C184.04 33.66 182.37 34.24 180.63 34.24C177.13 34.24 174.49 31.83 173.7 27.83L171.36 27.83L171.97 26.12L173.5 26.12C173.48 25.84 173.47 25.56 173.47 25.27C173.47 24.98 173.48 24.7 173.5 24.41L171.36 24.41L171.97 22.71L173.7 22.71C174.49 18.71 177.13 16.3 180.63 16.3C182.44 16.3 184.04 16.95 185.27 18.11L184.45 19.88C183.36 18.9 182.1 18.28 180.63 18.28C178.34 18.28 176.47 19.82 175.79 22.71Z" fill="#000000" fill-opacity="1.000000" fill-rule="evenodd"/>
</svg>