<svg width="272.000000" height="232.000000" viewBox="0 0 272 232" fill="none" xmlns="http://www.w3.org/2000/svg" xmlns:xlink="http://www.w3.org/1999/xlink">
	<desc>
			Created with Pixso.
	</desc>
	<defs>
		<clipPath id="clip50_18">
			<rect id="profits-svgrepo-com" width="9.956947" height="8.554149" transform="translate(193.449219 98.208496)" fill="white" fill-opacity="0"/>
		</clipPath>
		<clipPath id="clip50_33">
			<rect id="credit-card-svgrepo-com" width="12.090578" height="11.405532" transform="translate(218.341553 90.367065)" fill="white" fill-opacity="0"/>
		</clipPath>
		<clipPath id="clip50_38">
			<rect id="clock-svgrepo-com" width="9.956947" height="9.266994" transform="translate(239.677979 110.326782)" fill="white" fill-opacity="0"/>
		</clipPath>
	</defs>
	<path id="path50" d="M229.63 71.05C232.52 70.37 235.08 68.85 237.03 66.75L241.77 68.36L244.13 64.26L240.38 60.95C240.79 59.6 241.01 58.16 241.01 56.66C241.01 55.18 240.79 53.73 240.38 52.38L244.13 49.07L241.77 44.97L237.03 46.58C235.08 44.48 232.52 42.96 229.63 42.29L228.65 37.38L226.29 37.38" stroke="#1A2E35" stroke-opacity="1.000000" stroke-width="1.333333"/>
	<path id="path54" d="M223.92 37.38L222.94 42.29C220.06 42.96 217.49 44.48 215.54 46.58L210.8 44.97L208.44 49.07L212.19 52.38C211.78 53.73 211.56 55.17 211.56 56.66C211.56 58.16 211.78 59.6 212.19 60.95L208.44 64.26L210.8 68.36L215.54 66.75C217.49 68.85 220.06 70.37 222.94 71.05L223.92 75.95L228.65 75.95L229.63 71.05" stroke="#1A2E35" stroke-opacity="1.000000" stroke-width="1.333333"/>
	<path id="path58" d="M225.99 64.56C217.57 63.97 215.98 51.68 224.4 49.52" stroke="#1A2E35" stroke-opacity="1.000000" stroke-width="1.333333"/>
	<path id="path62" d="M231.31 51.21C235.5 55.06 234.18 62.57 228.59 64.27" stroke="#1A2E35" stroke-opacity="1.000000" stroke-width="1.333333"/>
	<path id="path66" d="M227.25 49.35C227.98 49.44 228.69 49.64 229.37 49.94" stroke="#1A2E35" stroke-opacity="1.000000" stroke-width="1.333333"/>
	<path id="path70" d="M254.72 74.78L255.71 73.59C257.53 74.09 259.49 74.06 261.35 73.45L263.58 75.86" stroke="#1A2E35" stroke-opacity="1.000000" stroke-width="1.333333"/>
	<path id="path74" d="M251.05 56.12L251.48 57.3C250.09 58.67 249.17 60.41 248.79 62.26L245.58 62.99L245.66 66.1L248.91 66.67C249.14 67.57 249.51 68.46 250.02 69.29C250.53 70.13 251.15 70.86 251.85 71.48L250.87 74.63L253.61 76.12" stroke="#1A2E35" stroke-opacity="1.000000" stroke-width="1.333333"/>
	<path id="path78" d="M263.58 75.86L266.23 74.24L265.1 71.14C266.49 69.77 267.41 68.03 267.79 66.18L271 65.45L270.91 62.33L267.68 61.77C267.44 60.87 267.07 59.98 266.56 59.14C266.05 58.31 265.43 57.57 264.74 56.96L265.71 53.81L262.97 52.32L260.87 54.85C259.05 54.35 257.09 54.38 255.24 54.99L253 52.57L250.35 54.2" stroke="#1A2E35" stroke-opacity="1.000000" stroke-width="1.333333"/>
	<path id="path82" d="M263.19 63.07C264.1 66.94 260.44 70.66 256.56 69.09C252.87 67.59 252.33 62.16 255.76 60.08" stroke="#1A2E35" stroke-opacity="1.000000" stroke-width="1.333333"/>
	<path id="path86" d="M260.02 59.6C260.79 59.87 261.5 60.31 262.05 60.91" stroke="#1A2E35" stroke-opacity="1.000000" stroke-width="1.333333"/>
	<path id="path90" d="M47.16 139.62L52.21 144.67C51.79 146.45 52.27 148.39 53.66 149.77C55.04 151.16 56.97 151.64 58.75 151.23L55.58 148.05L56.44 144.84L59.64 143.98L62.81 147.15C63.22 145.38 62.74 143.43 61.36 142.05C59.98 140.67 58.04 140.19 56.27 140.6L51.62 135.94" stroke="#1A2E35" stroke-opacity="1.000000" stroke-width="1.333333"/>
	<path id="path94" d="M44.24 128.54L39.62 123.9C40.03 122.13 39.55 120.19 38.17 118.8C36.79 117.42 34.85 116.94 33.08 117.35L36.24 120.53L35.39 123.74L32.18 124.6L29.01 121.42C28.6 123.2 29.08 125.14 30.46 126.53C31.84 127.91 33.78 128.39 35.55 127.98L40.18 132.62" stroke="#1A2E35" stroke-opacity="1.000000" stroke-width="1.333333"/>
	<path id="path98" d="M49.44 133.43L55.9 126.96C56.21 126.64 56.58 126.37 56.98 126.16L58.28 125.49L62.95 120.14L60.03 117.21L54.69 121.89L54.02 123.2C53.81 123.6 53.54 123.96 53.23 124.28L48.11 129.41" stroke="#1A2E35" stroke-opacity="1.000000" stroke-width="1.333333"/>
	<path id="path102" d="M32.26 150.39C33.21 150.9 34.18 150.9 35.07 150.01L46.26 138.8C46.88 138.17 47.06 137.51 46.95 136.85L48.89 134.91L49 135.02C49.28 135.3 49.74 135.3 50.02 135.02C50.3 134.74 50.3 134.28 50.02 134L46.19 130.17C45.91 129.89 45.46 129.89 45.18 130.17C44.9 130.45 44.9 130.91 45.18 131.19L45.3 131.31L43.36 133.25C42.69 133.14 42.03 133.32 41.41 133.94L30.23 145.15C29.64 145.74 29.44 146.37 29.52 147" stroke="#1A2E35" stroke-opacity="1.000000" stroke-width="1.333333"/>
	<path id="path106" d="M29.97 148.19C30.2 148.58 30.52 148.97 30.9 149.34C31.34 149.78 31.8 150.15 32.26 150.39" stroke="#1A2E35" stroke-opacity="1.000000" stroke-width="1.333333"/>
	<path id="path110" d="M33.41 147L35.36 147" stroke="#1A2E35" stroke-opacity="1.000000" stroke-width="1.333333"/>
	<path id="path114" d="M38 142.39L46.26 142.39" stroke="#1A2E35" stroke-opacity="1.000000" stroke-width="1.333333"/>
	<path id="path116" d="M218.24 -0.58L39.19 -0.58L39.19 116.01L218.24 116.01L218.24 -0.58Z" fill="#FFFFFF" fill-opacity="1.000000" fill-rule="nonzero"/>
	<path id="path120" d="M218.24 -0.58L39.2 -0.58L39.2 116.01L58.12 116.01L88.14 116.01L218.24 116.01L218.24 -0.58Z" fill="#C0C0C0" fill-opacity="1.000000" fill-rule="nonzero"/>
	<path id="path122" d="M39.2 14.68L218.24 14.68L218.24 -0.58L39.2 -0.58L39.2 14.68Z" fill="#FFFFFF" fill-opacity="1.000000" fill-rule="nonzero"/>
	<path id="path124" d="M39.2 14.68L218.24 14.68L218.24 -0.58L39.2 -0.58L39.2 14.68Z" fill="#767676" fill-opacity="1.000000" fill-rule="nonzero"/>
	<path id="path136" d="M212.76 12.25L205.9 12.25C204.93 12.25 204.14 11.46 204.14 10.48L204.14 3.61C204.14 2.64 204.93 1.85 205.9 1.85L212.76 1.85C213.73 1.85 214.51 2.64 214.51 3.61L214.51 10.48C214.51 11.46 213.73 12.25 212.76 12.25Z" fill="#FFFFFF" fill-opacity="1.000000" fill-rule="nonzero"/>
	<path id="path140" d="M200.03 12.25L193.21 12.25C192.23 12.25 191.44 11.45 191.44 10.47L191.44 3.63C191.44 2.65 192.23 1.85 193.21 1.85L200.03 1.85C201.01 1.85 201.81 2.65 201.81 3.63L201.81 10.47C201.81 11.45 201.01 12.25 200.03 12.25Z" fill="#FFFFFF" fill-opacity="1.000000" fill-rule="nonzero"/>
	<path id="path144" d="M187.34 12.25L180.49 12.25C179.52 12.25 178.73 11.46 178.73 10.48L178.73 3.61C178.73 2.64 179.52 1.85 180.49 1.85L187.34 1.85C188.31 1.85 189.1 2.64 189.1 3.61L189.1 10.48C189.1 11.46 188.31 12.25 187.34 12.25Z" fill="#FFFFFF" fill-opacity="1.000000" fill-rule="nonzero"/>
	<path id="path148" d="M45.91 24.92L45.91 105.77C45.91 107.71 47.48 109.28 49.41 109.28L208.02 109.28C209.96 109.28 211.53 107.71 211.53 105.77L211.53 24.92C211.53 22.98 209.96 21.41 208.02 21.41L49.41 21.41C47.48 21.41 45.91 22.98 45.91 24.92Z" fill="#1A2E35" fill-opacity="1.000000" fill-rule="nonzero"/>
	<path id="path152" d="M45.91 105.77C45.91 107.71 47.48 109.28 49.41 109.28L208.02 109.28C209.96 109.28 211.53 107.71 211.53 105.77L211.53 24.92C211.53 22.98 209.96 21.41 208.02 21.41L49.41 21.41C47.48 21.41 45.91 22.98 45.91 24.92L45.91 105.77Z" stroke="#1A2E35" stroke-opacity="1.000000" stroke-width="1.333333" stroke-linejoin="round"/>
	<path id="path156" d="M207.1 9.28L211.55 9.28" stroke="#1A2E35" stroke-opacity="1.000000" stroke-width="1.333333" stroke-linejoin="round" stroke-linecap="round"/>
	<path id="path160" d="M207.1 9.28L211.55 9.28" stroke="#1A2E35" stroke-opacity="1.000000" stroke-width="1.333333" stroke-linejoin="round" stroke-linecap="round"/>
	<path id="path162" d="M193.65 10.02L193.65 6.1L199.59 6.1L199.59 10.02L193.65 10.02Z" stroke="#1A2E35" stroke-opacity="1.000000" stroke-width="1.333333" stroke-linejoin="round"/>
	<path id="path166" d="M180.95 10.02Lnan 10.02" stroke="#1A2E35" stroke-opacity="1.000000" stroke-width="1.333333" stroke-linejoin="round" stroke-linecap="round"/>
	<path id="path170" d="M201.11 81.14L189.34 81.14C188.6 81.14 188 80.54 188 79.8C188 79.05 188.6 78.45 189.34 78.45L201.11 78.45C201.85 78.45 202.45 79.05 202.45 79.8C202.45 80.54 201.85 81.14 201.11 81.14Z" fill="#767676" fill-opacity="1.000000" fill-rule="nonzero"/>
	<path id="path174" d="M201.11 90.45L168.25 90.45C167.51 90.45 166.91 89.85 166.91 89.11C166.91 88.36 167.51 87.76 168.25 87.76L201.11 87.76C201.85 87.76 202.45 88.36 202.45 89.11C202.45 89.85 201.85 90.45 201.11 90.45Z" fill="#767676" fill-opacity="1.000000" fill-rule="nonzero"/>
	<path id="path178" d="M201.11 99.76L128.72 99.76C127.98 99.76 127.38 99.16 127.38 98.42C127.38 97.68 127.98 97.07 128.72 97.07L201.11 97.07C201.85 97.07 202.45 97.68 202.45 98.42C202.45 99.16 201.85 99.76 201.11 99.76Z" fill="#767676" fill-opacity="1.000000" fill-rule="nonzero"/>
	<path id="path182" d="M58.33 71.83L52.85 71.83C52.11 71.83 51.51 71.23 51.51 70.48C51.51 69.74 52.11 69.14 52.85 69.14L58.33 69.14C59.08 69.14 59.68 69.74 59.68 70.48C59.68 71.23 59.08 71.83 58.33 71.83Z" fill="#C0C0C0" fill-opacity="1.000000" fill-rule="nonzero"/>
	<path id="path186" d="M58.33 81.14L52.85 81.14C52.11 81.14 51.51 80.54 51.51 79.8C51.51 79.05 52.11 78.45 52.85 78.45L58.33 78.45C59.08 78.45 59.68 79.05 59.68 79.8C59.68 80.54 59.08 81.14 58.33 81.14Z" fill="#C0C0C0" fill-opacity="1.000000" fill-rule="nonzero"/>
	<path id="path190" d="M58.33 90.45L52.85 90.45C52.11 90.45 51.51 89.85 51.51 89.11C51.51 88.36 52.11 87.76 52.85 87.76L58.33 87.76C59.08 87.76 59.68 88.36 59.68 89.11C59.68 89.85 59.08 90.45 58.33 90.45Z" fill="#C0C0C0" fill-opacity="1.000000" fill-rule="nonzero"/>
	<path id="path194" d="M58.33 99.77L52.85 99.77C52.11 99.77 51.51 99.16 51.51 98.42C51.51 97.68 52.11 97.07 52.85 97.07L58.33 97.07C59.08 97.07 59.68 97.68 59.68 98.42C59.68 99.16 59.08 99.77 58.33 99.77Z" fill="#C0C0C0" fill-opacity="1.000000" fill-rule="nonzero"/>
	<g opacity="0.699997">
		<g opacity="0.699997">
			<g opacity="0.699997">
				<path id="path204" d="M58.33 71.83L52.85 71.83C52.11 71.83 51.51 71.23 51.51 70.48C51.51 69.74 52.11 69.14 52.85 69.14L58.33 69.14C59.08 69.14 59.68 69.74 59.68 70.48C59.68 71.23 59.08 71.83 58.33 71.83Z" fill="#C0C0C0" fill-opacity="1.000000" fill-rule="nonzero"/>
			</g>
		</g>
	</g>
	<g opacity="0.699997">
		<g opacity="0.699997">
			<g opacity="0.699997">
				<path id="path220" d="M58.33 81.14L52.85 81.14C52.11 81.14 51.51 80.54 51.51 79.8C51.51 79.05 52.11 78.45 52.85 78.45L58.33 78.45C59.08 78.45 59.68 79.05 59.68 79.8C59.68 80.54 59.08 81.14 58.33 81.14Z" fill="#C0C0C0" fill-opacity="1.000000" fill-rule="nonzero"/>
			</g>
		</g>
	</g>
	<g opacity="0.699997">
		<g opacity="0.699997">
			<g opacity="0.699997">
				<path id="path236" d="M58.33 90.45L52.85 90.45C52.11 90.45 51.51 89.85 51.51 89.11C51.51 88.36 52.11 87.76 52.85 87.76L58.33 87.76C59.08 87.76 59.68 88.36 59.68 89.11C59.68 89.85 59.08 90.45 58.33 90.45Z" fill="#C0C0C0" fill-opacity="1.000000" fill-rule="nonzero"/>
			</g>
		</g>
	</g>
	<g opacity="0.699997">
		<g opacity="0.699997">
			<g opacity="0.699997">
				<path id="path252" d="M58.33 99.77L52.85 99.77C52.11 99.77 51.51 99.16 51.51 98.42C51.51 97.68 52.11 97.07 52.85 97.07L58.33 97.07C59.08 97.07 59.68 97.68 59.68 98.42C59.68 99.16 59.08 99.77 58.33 99.77Z" fill="#C0C0C0" fill-opacity="1.000000" fill-rule="nonzero"/>
			</g>
		</g>
	</g>
	<path id="path262" d="M168.25 62.52L52.85 62.52C52.11 62.52 51.51 61.92 51.51 61.17C51.51 60.43 52.11 59.83 52.85 59.83L168.25 59.83C168.99 59.83 169.59 60.43 169.59 61.17C169.59 61.92 168.99 62.52 168.25 62.52Z" fill="#C0C0C0" fill-opacity="1.000000" fill-rule="nonzero"/>
	<path id="path266" d="M201.11 43.9L189.34 43.9C188.6 43.9 188 43.29 188 42.55C188 41.81 188.6 41.2 189.34 41.2L201.11 41.2C201.85 41.2 202.45 41.81 202.45 42.55C202.45 43.29 201.85 43.9 201.11 43.9Z" fill="#C0C0C0" fill-opacity="1.000000" fill-rule="nonzero"/>
	<path id="path270" d="M184.42 43.9L173.18 43.9C172.43 43.9 171.83 43.29 171.83 42.55C171.83 41.81 172.43 41.2 173.18 41.2L184.42 41.2C185.16 41.2 185.76 41.81 185.76 42.55C185.76 43.29 185.16 43.9 184.42 43.9Z" fill="#C0C0C0" fill-opacity="1.000000" fill-rule="nonzero"/>
	<path id="path274" d="M168.25 43.9L52.85 43.9C52.11 43.9 51.51 43.29 51.51 42.55C51.51 41.81 52.11 41.2 52.85 41.2L168.25 41.2C168.99 41.2 169.59 41.81 169.59 42.55C169.59 43.29 168.99 43.9 168.25 43.9Z" fill="#C0C0C0" fill-opacity="1.000000" fill-rule="nonzero"/>
	<path id="path278" d="M201.11 71.83L189.34 71.83C188.6 71.83 188 71.23 188 70.48C188 69.74 188.6 69.14 189.34 69.14L201.11 69.14C201.85 69.14 202.45 69.74 202.45 70.48C202.45 71.23 201.85 71.83 201.11 71.83Z" fill="#BBBBBB" fill-opacity="1.000000" fill-rule="nonzero"/>
	<path id="path282" d="M184.42 71.83L64.38 71.83C63.64 71.83 63.04 71.23 63.04 70.48C63.04 69.74 63.64 69.14 64.38 69.14L184.42 69.14C185.16 69.14 185.76 69.74 185.76 70.48C185.76 71.23 185.16 71.83 184.42 71.83Z" fill="#BBBBBB" fill-opacity="1.000000" fill-rule="nonzero"/>
	<path id="path286" d="M98.85 81.14L64.38 81.14C63.64 81.14 63.04 80.54 63.04 79.8C63.04 79.05 63.64 78.45 64.38 78.45L98.85 78.45C99.59 78.45 100.2 79.05 100.2 79.8C100.2 80.54 99.59 81.14 98.85 81.14Z" fill="#BBBBBB" fill-opacity="1.000000" fill-rule="nonzero"/>
	<path id="path290" d="M98.85 90.45L64.38 90.45C63.64 90.45 63.04 89.85 63.04 89.11C63.04 88.36 63.64 87.76 64.38 87.76L98.85 87.76C99.59 87.76 100.2 88.36 100.2 89.11C100.2 89.85 99.59 90.45 98.85 90.45Z" fill="#BBBBBB" fill-opacity="1.000000" fill-rule="nonzero"/>
	<path id="path294" d="M98.85 99.77L64.38 99.77C63.64 99.77 63.04 99.16 63.04 98.42C63.04 97.68 63.64 97.07 64.38 97.07L98.85 97.07C99.59 97.07 100.2 97.68 100.2 98.42C100.2 99.16 99.59 99.77 98.85 99.77Z" fill="#BBBBBB" fill-opacity="1.000000" fill-rule="nonzero"/>
	<path id="path306" d="M76.21 219.19C76.21 219.19 72.69 225.26 74.08 225.48C75.46 225.7 78.37 220.45 78.37 220.45L86.32 218.33L80.33 217.71L76.21 219.19Z" fill="#FFFFFF" fill-opacity="1.000000" fill-rule="nonzero"/>
	<path id="path310" d="M74.08 225.48C75.46 225.7 78.37 220.45 78.37 220.45L86.32 218.33L80.33 217.71L76.21 219.19C76.21 219.19 72.69 225.26 74.08 225.48Z" stroke="#1A2E35" stroke-opacity="1.000000" stroke-width="1.333333" stroke-linejoin="round"/>
	<g opacity="0.300003">
		<g opacity="0.300003">
			<g opacity="0.300003">
				<path id="path320" d="M76.21 219.19C76.21 219.19 72.69 225.26 74.08 225.48C75.46 225.7 78.37 220.45 78.37 220.45L86.32 218.34L80.33 217.72L76.21 219.19Z" fill="#000000" fill-opacity="1.000000" fill-rule="nonzero"/>
			</g>
		</g>
		<g opacity="0.300003">
			<g opacity="0.300003">
				<path id="path324" d="M74.08 225.48C75.46 225.7 78.37 220.45 78.37 220.45L86.32 218.34L80.33 217.72L76.21 219.19C76.21 219.19 72.69 225.26 74.08 225.48Z" stroke="#1A2E35" stroke-opacity="1.000000" stroke-width="1.333333" stroke-linejoin="round"/>
			</g>
		</g>
	</g>
	<path id="path334" d="M78.89 215.04C78.89 215.04 73.97 213.87 72.61 216.19C71.24 218.51 67.26 225.37 68.75 226.16C70.25 226.94 71.55 224.41 71.55 224.41L78.89 215.04Z" fill="#FFFFFF" fill-opacity="1.000000" fill-rule="nonzero"/>
	<path id="path338" d="M72.61 216.19C71.24 218.51 67.26 225.37 68.75 226.16C70.25 226.94 71.55 224.41 71.55 224.41L78.89 215.04C78.89 215.04 73.97 213.87 72.61 216.19Z" stroke="#1A2E35" stroke-opacity="1.000000" stroke-width="1.333333" stroke-linejoin="round"/>
	<path id="path342" d="M99.05 222.08C99.05 222.08 94.11 223.96 88.95 223.15L83.34 225.02C83.34 225.02 78.41 227.45 76.12 226.22C73.83 225 81.96 222.29 81.96 222.29C81.96 222.29 87.44 219.92 85.8 219.35C84.17 218.78 77.99 218.88 76.78 219.82C75.57 220.75 72.39 226.79 70.09 226.45C67.8 226.1 71.06 222.81 71.89 221.55C72.71 220.28 74.56 215.23 78.31 215.02C82.06 214.81 94.67 215.45 94.67 215.45L109.51 213.87L113.01 222.32L99.05 222.08Z" fill="#FFFFFF" fill-opacity="1.000000" fill-rule="nonzero"/>
	<path id="path346" d="M88.95 223.15L83.34 225.02C83.34 225.02 78.41 227.45 76.12 226.22C73.83 225 81.96 222.29 81.96 222.29C81.96 222.29 87.44 219.92 85.8 219.35C84.17 218.78 77.99 218.88 76.78 219.82C75.57 220.75 72.39 226.79 70.09 226.45C67.8 226.1 71.06 222.81 71.89 221.55C72.71 220.28 74.56 215.23 78.31 215.02C82.06 214.81 94.67 215.45 94.67 215.45L109.51 213.87L113.01 222.32L99.05 222.08C99.05 222.08 94.11 223.96 88.95 223.15Z" stroke="#1A2E35" stroke-opacity="1.000000" stroke-width="1.333333" stroke-linejoin="round"/>
	<path id="path350" d="M106.8 224.18C107.51 224.63 108.53 224.92 109.63 224.14C109.63 224.14 111.23 224.84 112.32 223.64C113.4 222.44 113.5 211.99 110.5 210.81C109.63 210.48 107.47 210.51 107.12 211.72C107.12 211.72 105.25 211.08 104.94 213.08C104.64 214.97 106.51 216.72 105.88 222.15C105.79 222.95 106.15 223.77 106.8 224.18Z" fill="#38BFF2" fill-opacity="1.000000" fill-rule="nonzero"/>
	<path id="path354" d="M109.63 224.14C109.63 224.14 111.23 224.84 112.32 223.64C113.4 222.44 113.5 211.99 110.5 210.81C109.63 210.48 107.47 210.51 107.12 211.72C107.12 211.72 105.25 211.08 104.94 213.08C104.64 214.97 106.51 216.72 105.88 222.15C105.79 222.95 106.15 223.77 106.8 224.18C107.51 224.63 108.53 224.92 109.63 224.14Z" stroke="#1A2E35" stroke-opacity="1.000000" stroke-width="1.333333" stroke-linejoin="round"/>
	<g opacity="0.300003">
		<g opacity="0.300003">
			<g opacity="0.300003">
				<path id="path364" d="M106.8 224.18C107.51 224.63 108.53 224.92 109.63 224.13C109.63 224.13 111.23 224.84 112.32 223.64C113.4 222.44 113.5 211.99 110.5 210.81C109.63 210.47 107.47 210.51 107.12 211.72C107.12 211.72 105.25 211.08 104.94 213.08C104.64 214.97 106.51 216.72 105.88 222.15C105.79 222.95 106.15 223.77 106.8 224.18Z" fill="#000000" fill-opacity="1.000000" fill-rule="nonzero"/>
			</g>
		</g>
		<g opacity="0.300003">
			<g opacity="0.300003">
				<path id="path368" d="M109.63 224.13C109.63 224.13 111.23 224.84 112.32 223.64C113.4 222.44 113.5 211.99 110.5 210.81C109.63 210.47 107.47 210.51 107.12 211.72C107.12 211.72 105.25 211.08 104.94 213.08C104.64 214.97 106.51 216.72 105.88 222.15C105.79 222.95 106.15 223.77 106.8 224.18C107.51 224.63 108.53 224.92 109.63 224.13Z" stroke="#1A2E35" stroke-opacity="1.000000" stroke-width="1.333333" stroke-linejoin="round"/>
			</g>
		</g>
	</g>
	<path id="path378" d="M110.22 221.74C110.22 221.74 110.31 217.21 108.45 213.48" stroke="#1A2E35" stroke-opacity="1.000000" stroke-width="1.333333" stroke-linejoin="round" stroke-linecap="round"/>
	<path id="path382" d="M180.83 217.94C180.33 221.77 179.76 225.92 179.12 230.42L121.47 230.42L121.75 222.98C118.3 223.81 111.61 223.3 111.61 223.3L111.61 212.3C115.67 209.99 116.28 210.63 116.28 210.63C116.28 210.63 116.49 183.78 118.93 177.07C119.96 174.23 121.77 172.2 123.69 170.78L123.69 170.78C124.3 170.33 124.91 169.94 125.51 169.6C125.55 169.58 125.57 169.57 125.6 169.55C126.27 169.19 127.09 168.81 128.01 168.42C128.09 168.39 128.18 168.35 128.27 168.32C137.29 164.62 156.99 160.34 175.35 168.2C176.63 168.75 187.11 173.77 188 181.02C188.51 185.15 185.7 205.71 180.83 217.94Z" fill="#38BFF2" fill-opacity="1.000000" fill-rule="nonzero"/>
	<g opacity="0.199997">
		<g opacity="0.199997">
			<g opacity="0.199997">
				<path id="path400" d="M171.69 184.83L165.94 211.57C165.05 210.87 162.48 210.82 159.21 211.13C159.93 210.33 160.51 209.46 160.95 208.52C169.64 189.67 171.54 185.21 171.69 184.83Z" fill="#000000" fill-opacity="1.000000" fill-rule="nonzero"/>
			</g>
		</g>
	</g>
	<g opacity="0.199997">
		<g opacity="0.199997">
			<g opacity="0.199997">
				<path id="path416" d="M182.2 214.21C180.53 220.17 179.8 225.58 179.12 230.42L121.47 230.42L122 221.85C125.59 221.34 131.9 220.81 138.45 219.65C139.28 223.11 138.6 225.91 138.6 225.91C138.6 225.91 165.12 229.21 174.02 227.07C176.56 226.45 178.85 222.9 180.82 218C181.3 216.81 181.75 215.54 182.2 214.21Z" fill="#000000" fill-opacity="1.000000" fill-rule="nonzero"/>
			</g>
		</g>
	</g>
	<g opacity="0.300003">
		<g opacity="0.300003">
			<g opacity="0.300003">
				<path id="path432" d="M116.97 211.14C116.97 211.14 115.68 209.99 111.6 212.3L111.6 223.3C111.6 223.3 118.32 223.06 120.96 221.63C123.22 223.04 122.82 197.28 123.22 183.41C119.93 184.31 119.67 190.59 119.16 196.49C118.46 204.63 116.97 211.14 116.97 211.14Z" fill="#000000" fill-opacity="1.000000" fill-rule="nonzero"/>
			</g>
		</g>
	</g>
	<path id="path450" d="M179.12 230.42L121.47 230.42L121.75 222.98C118.3 223.81 111.6 223.3 111.6 223.3L111.6 212.3C115.67 209.99 116.28 210.63 116.28 210.63C116.28 210.63 116.49 183.78 118.93 177.07C119.96 174.23 121.77 172.2 123.69 170.78L123.69 170.78C124.3 170.33 124.91 169.94 125.51 169.6C125.55 169.58 125.57 169.57 125.6 169.55C126.27 169.19 127.08 168.81 128.01 168.42C128.09 168.39 128.18 168.35 128.27 168.32C137.29 164.62 156.99 160.34 175.35 168.2C176.63 168.75 187.11 173.77 188 181.02C188.51 185.15 185.7 205.71 180.83 217.94C180.33 221.77 179.76 225.92 179.12 230.42Z" stroke="#1A2E35" stroke-opacity="1.000000" stroke-width="1.333333" stroke-linejoin="round"/>
	<path id="path454" d="M188 181.02C188.02 181.18 188.04 181.37 188.05 181.57C188.34 186.74 185.53 206.25 180.82 218C178.85 222.9 176.55 226.45 174.02 227.06C165.12 229.21 138.6 225.91 138.6 225.91C138.6 225.91 139.92 220.46 136.62 215.35C136.62 215.35 162.65 208.96 165.94 211.58L171.71 184.81" stroke="#1A2E35" stroke-opacity="1.000000" stroke-width="1.333333" stroke-linejoin="round" stroke-linecap="round"/>
	<path id="path458" d="M167.76 213.03C167.76 213.03 170.23 214.02 172.37 217" stroke="#1A2E35" stroke-opacity="1.000000" stroke-width="1.333333" stroke-linejoin="round" stroke-linecap="round"/>
	<path id="path462" d="M101.44 214C101.44 214 99.02 213.48 98.03 214.59C97 215.75 92.81 222.07 94.24 223.29C95.67 224.5 98.58 217.84 98.58 217.84L101.44 214Z" fill="#FFFFFF" fill-opacity="1.000000" fill-rule="nonzero"/>
	<path id="path466" d="M98.03 214.59C97 215.75 92.81 222.07 94.24 223.29C95.67 224.5 98.58 217.84 98.58 217.84L101.44 214C101.44 214 99.02 213.48 98.03 214.59Z" stroke="#1A2E35" stroke-opacity="1.000000" stroke-width="1.333333" stroke-linejoin="round"/>
	<path id="path470" d="M106.32 213.88C106.32 213.88 100.93 212.72 99.72 214.37C98.51 216.02 91.71 224.55 95.94 224.83L102.69 217.23L106.32 213.88Z" fill="#FFFFFF" fill-opacity="1.000000" fill-rule="nonzero"/>
	<path id="path474" d="M99.72 214.37C98.51 216.02 91.71 224.55 95.94 224.83L102.69 217.23L106.32 213.88C106.32 213.88 100.93 212.72 99.72 214.37Z" stroke="#1A2E35" stroke-opacity="1.000000" stroke-width="1.333333" stroke-linejoin="round"/>
	<path id="path478" d="M118.5 222.95C118.5 222.95 112.96 224.17 110.71 224.61C108.46 225.05 104.29 227.96 101.82 226.81C99.35 225.65 109.89 221.36 109.89 221.36L113.51 219.9L118.5 222.95Z" fill="#C0C0C0" fill-opacity="1.000000" fill-rule="nonzero"/>
	<path id="path482" d="M110.71 224.61C108.46 225.05 104.29 227.96 101.82 226.81C99.35 225.65 109.89 221.36 109.89 221.36L113.51 219.9L118.5 222.95C118.5 222.95 112.96 224.17 110.71 224.61Z" stroke="#1A2E35" stroke-opacity="1.000000" stroke-width="1.333333" stroke-linejoin="round"/>
	<path id="path486" d="M122.99 189.72C123.07 187.62 123.14 185.51 123.22 183.41" stroke="#1A2E35" stroke-opacity="1.000000" stroke-width="1.333333" stroke-linejoin="round" stroke-linecap="round"/>
	<path id="path490" d="M121.47 230.42C122.5 217.68 122.88 192.59 122.88 192.59" stroke="#1A2E35" stroke-opacity="1.000000" stroke-width="1.333333" stroke-linejoin="round" stroke-linecap="round"/>
	<path id="path494" d="M138.6 216.08L119.5 216.08C119.5 216.08 104.67 211.62 102.2 215.08C99.73 218.55 94.46 223.83 95.94 224.83C97.42 225.82 103.68 218.64 103.68 218.64L109.12 218.69C109.12 218.69 104.51 220.7 103.52 221.69C102.53 222.68 100.39 225.49 101.54 225.98C102.69 226.48 106.32 222.84 106.32 222.84C106.32 222.84 111.75 221.52 113.07 222.18C114.39 222.84 119.66 225.49 126.74 223.5L141.32 225.32L138.6 216.08Z" fill="#FFFFFF" fill-opacity="1.000000" fill-rule="nonzero"/>
	<path id="path498" d="M119.5 216.08C119.5 216.08 104.67 211.62 102.2 215.08C99.73 218.55 94.46 223.83 95.94 224.83C97.42 225.82 103.68 218.64 103.68 218.64L109.12 218.69C109.12 218.69 104.51 220.7 103.52 221.69C102.53 222.68 100.39 225.49 101.54 225.98C102.69 226.48 106.32 222.84 106.32 222.84C106.32 222.84 111.75 221.52 113.07 222.18C114.39 222.84 119.66 225.49 126.74 223.5L141.32 225.32L138.6 216.08L119.5 216.08Z" stroke="#1A2E35" stroke-opacity="1.000000" stroke-width="1.333333" stroke-linejoin="round"/>
	<path id="path502" d="M169.71 194.07C169.19 191.02 169.16 187.87 169.65 184.81" stroke="#1A2E35" stroke-opacity="1.000000" stroke-width="1.333333" stroke-linejoin="round" stroke-linecap="round"/>
	<path id="path506" d="M174.04 178.02C174.04 178.02 183.31 165.78 188 181.02" stroke="#1A2E35" stroke-opacity="1.000000" stroke-width="1.333333" stroke-linejoin="round" stroke-linecap="round"/>
	<path id="path510" d="M134.68 214.57C135.27 213.95 136.18 213.42 137.43 213.91C137.43 213.91 138.82 212.83 140.16 213.71C141.51 214.6 144.19 224.7 141.58 226.59C140.82 227.14 138.72 227.64 138.08 226.55C138.08 226.55 136.43 227.64 135.63 225.78C134.87 224.03 136.25 221.86 134.3 216.76C134.01 216.01 134.16 215.12 134.68 214.57Z" fill="#38BFF2" fill-opacity="1.000000" fill-rule="nonzero"/>
	<g opacity="0.300003">
		<g opacity="0.300003">
			<g opacity="0.300003">
				<path id="path528" d="M134.68 214.57C135.27 213.95 136.18 213.42 137.43 213.91C137.43 213.91 138.82 212.83 140.16 213.72C141.51 214.6 144.19 224.7 141.58 226.59C140.82 227.14 138.72 227.64 138.08 226.55C138.08 226.55 136.43 227.64 135.63 225.78C134.87 224.03 136.25 221.86 134.3 216.76C134.01 216.01 134.16 215.12 134.68 214.57Z" fill="#000000" fill-opacity="1.000000" fill-rule="nonzero"/>
			</g>
		</g>
	</g>
	<path id="path546" d="M137.43 213.91C137.43 213.91 138.82 212.83 140.16 213.71C141.51 214.6 144.19 224.7 141.58 226.59C140.82 227.14 138.72 227.64 138.08 226.55C138.08 226.55 136.43 227.64 135.63 225.78C134.87 224.03 136.25 221.86 134.3 216.76C134.01 216.01 134.16 215.12 134.68 214.57C135.27 213.95 136.18 213.42 137.43 213.91Z" stroke="#1A2E35" stroke-opacity="1.000000" stroke-width="1.333333" stroke-linejoin="round"/>
	<path id="path550" d="M138.92 219.81C139.15 221.38 139.2 222.98 138.98 224.55" stroke="#1A2E35" stroke-opacity="1.000000" stroke-width="1.333333" stroke-linejoin="round" stroke-linecap="round"/>
	<path id="path554" d="M147.33 189.58C147.28 190.3 146.67 190.86 145.94 190.81C145.22 190.77 144.67 190.15 144.71 189.43C144.75 188.71 145.37 188.15 146.1 188.2C146.82 188.24 147.37 188.86 147.33 189.58Z" fill="#FFFFFF" fill-opacity="1.000000" fill-rule="nonzero"/>
	<path id="path558" d="M145.94 190.81C145.22 190.77 144.67 190.15 144.71 189.43C144.75 188.71 145.37 188.15 146.1 188.2C146.82 188.24 147.37 188.86 147.33 189.58C147.28 190.3 146.67 190.86 145.94 190.81Z" stroke="#1A2E35" stroke-opacity="1.000000" stroke-width="1.333333" stroke-linejoin="round"/>
	<path id="path562" d="M146.38 209.91C146.34 210.63 145.72 211.18 145 211.14C144.28 211.1 143.73 210.48 143.77 209.75C143.81 209.03 144.43 208.48 145.15 208.52C145.87 208.56 146.42 209.18 146.38 209.91Z" fill="#FFFFFF" fill-opacity="1.000000" fill-rule="nonzero"/>
	<path id="path566" d="M145 211.14C144.28 211.1 143.73 210.48 143.77 209.75C143.81 209.03 144.43 208.48 145.15 208.52C145.87 208.56 146.42 209.18 146.38 209.91C146.34 210.63 145.72 211.18 145 211.14Z" stroke="#1A2E35" stroke-opacity="1.000000" stroke-width="1.333333" stroke-linejoin="round"/>
	<path id="path570" d="M158.37 164.68L157.41 151.12L143.41 154.37L142.67 165.26C141.78 165.37 140.94 165.5 140.12 165.62L143.55 173.85L150.24 174.73L160.95 164.84C160.08 164.78 159.22 164.72 158.37 164.68Z" fill="#FFFFFF" fill-opacity="1.000000" fill-rule="nonzero"/>
	<path id="path582" d="M143.21 159.17C143.3 168.82 154.55 165.86 157.66 156.23L157.41 151.12L143.42 154.37L143.21 159.17Z" fill="#1A2E35" fill-opacity="1.000000" fill-rule="nonzero"/>
	<path id="path594" d="M157.41 151.12L143.41 154.37L142.67 165.26C141.78 165.37 140.94 165.5 140.12 165.62L143.55 173.85L150.24 174.73L160.95 164.84C160.08 164.78 159.22 164.72 158.38 164.68L157.41 151.12Z" stroke="#1A2E35" stroke-opacity="1.000000" stroke-width="1.333333" stroke-linejoin="round"/>
	<path id="path598" d="M134.63 139.67C134.63 139.67 129.51 130.8 128.75 126.12C126.42 111.67 136.83 116.55 136.83 116.55C136.83 116.55 144.19 109.94 153.35 111.1C162.52 112.25 164.94 116.16 171.11 118.57C171.11 118.57 166.47 142.13 160.55 147.42C154.62 152.7 134.63 139.67 134.63 139.67Z" fill="#1A2E35" fill-opacity="1.000000" fill-rule="nonzero"/>
	<path id="path602" d="M128.75 126.12C126.42 111.67 136.83 116.55 136.83 116.55C136.83 116.55 144.19 109.94 153.35 111.1C162.52 112.25 164.94 116.16 171.11 118.57C171.11 118.57 166.47 142.13 160.55 147.42C154.62 152.7 134.63 139.67 134.63 139.67C134.63 139.67 129.51 130.8 128.75 126.12Z" stroke="#1A2E35" stroke-opacity="1.000000" stroke-width="1.333333" stroke-linejoin="round"/>
	<path id="path606" d="M137.32 118.69C137.32 118.69 135.01 113.08 140.86 108.79" stroke="#1A2E35" stroke-opacity="1.000000" stroke-width="1.333333" stroke-linejoin="round" stroke-linecap="round"/>
	<path id="path610" d="M147.38 115.32C154.23 112.29 157.28 117.36 164.92 118.69" stroke="#C0C0C0" stroke-opacity="1.000000" stroke-width="1.333333"/>
	<path id="path614" d="M142.1 118.69C142.7 117.9 143.48 117.24 144.32 116.7" stroke="#C0C0C0" stroke-opacity="1.000000" stroke-width="1.333333"/>
	<path id="path618" d="M149.12 120.89C149.12 120.89 152.08 118.04 157.96 121.74C161.17 123.77 163.82 124.06 163.82 124.06" stroke="#C0C0C0" stroke-opacity="1.000000" stroke-width="1.333333"/>
	<path id="path622" d="M158.17 127.06C149.66 127.28 140.86 123.42 140.86 123.42C132.92 128.22 134.1 136.03 134.1 136.03C135.92 154.67 138.37 159.63 147.06 159.63C155.7 159.63 162.82 150.24 163.38 136.78C160.09 136.94 158.17 127.06 158.17 127.06Z" fill="#FFFFFF" fill-opacity="1.000000" fill-rule="nonzero"/>
	<path id="path626" d="M140.86 123.42C132.92 128.22 134.1 136.03 134.1 136.03C135.92 154.67 138.37 159.63 147.06 159.63C155.7 159.63 162.82 150.24 163.38 136.78C160.09 136.94 158.17 127.06 158.17 127.06C149.66 127.28 140.86 123.42 140.86 123.42Z" stroke="#1A2E35" stroke-opacity="1.000000" stroke-width="1.333333" stroke-linejoin="round"/>
	<path id="path630" d="M162.65 136.03C163.13 135.41 163.74 135.04 164.4 135.04C165.94 135.04 167.09 137.07 166.54 139.58C166 142.03 165.29 144.12 163.74 144.12C163.01 144.12 162.5 143.67 162.15 142.93L162.65 136.03ZM162.15 135.61L162.13 135.62C161.9 135.91 161.95 136.32 162.25 136.55C162.54 136.78 162.95 136.73 163.18 136.43L163.18 136.41L162.15 135.61ZM162.75 142.68L162.76 142.65C162.6 142.31 162.21 142.17 161.87 142.33C161.53 142.49 161.39 142.88 161.55 143.21L161.58 143.22L162.75 142.68Z" fill="#FFFFFF" fill-opacity="1.000000" fill-rule="nonzero"/>
	<path id="path630" d="M162.65 136.03C163.13 135.41 163.74 135.04 164.4 135.04C165.94 135.04 167.09 137.07 166.54 139.58C166 142.03 165.29 144.12 163.74 144.12C163.01 144.12 162.5 143.67 162.15 142.93" stroke="#1A2E35" stroke-opacity="1.000000" stroke-width="1.333333" stroke-linejoin="round" stroke-linecap="round"/>
	<path id="path634" d="M145.72 145.18C145.72 145.18 146.76 146.61 144.77 147.68C142.78 148.75 141.19 148.73 140.68 147.5C140.17 146.28 142.39 136.07 142.39 136.07" stroke="#1A2E35" stroke-opacity="1.000000" stroke-width="1.333333" stroke-linejoin="round" stroke-linecap="round"/>
	<path id="path638" d="M142.05 137.69C140.97 137.15 136.67 135.26 132.59 137.83L132.86 141.79C132.86 141.79 134.36 142.62 137.81 142.62C139.37 142.62 140.46 142.45 141.17 142.27" stroke="#1A2E35" stroke-opacity="1.000000" stroke-width="1.333333" stroke-linejoin="round" stroke-linecap="round"/>
	<path id="path642" d="M146.86 141.96C146.86 141.96 147.38 142.64 150.83 142.64C154.29 142.64 155.43 141.81 155.43 141.81L155.33 137.85C155.33 137.85 150.31 134.87 145.62 137.84L146.86 141.96Z" stroke="#1A2E35" stroke-opacity="1.000000" stroke-width="1.333333" stroke-linejoin="round"/>
	<path id="path646" d="M142.33 137.84Lnan 137.84" stroke="#1A2E35" stroke-opacity="1.000000" stroke-width="1.333333" stroke-linejoin="round" stroke-linecap="round"/>
	<path id="path650" d="M143.03 151.42C143.03 151.42 145.71 152.3 148.5 151.25C150.75 150.4 151.9 148.68 151.9 148.68" stroke="#1A2E35" stroke-opacity="1.000000" stroke-width="1.333333" stroke-linejoin="round" stroke-linecap="round"/>
	<path id="path654" d="M148.49 133.93C152.82 132.14 154.72 134.29 154.72 134.29" stroke="#1A2E35" stroke-opacity="1.000000" stroke-width="1.333333" stroke-linejoin="round" stroke-linecap="round"/>
	<path id="path658" d="M137.1 133.75C138.61 133.03 140.41 133.24 141.72 134.29" stroke="#1A2E35" stroke-opacity="1.000000" stroke-width="1.333333" stroke-linejoin="round" stroke-linecap="round"/>
	<path id="path662" d="M150.22 136.94C150.62 136.94 150.9 137.58 150.9 138.4C150.9 139.21 150.56 139.86 150.17 139.86C149.78 139.86 149.5 139.19 149.5 138.4C149.51 137.6 149.82 136.94 150.22 136.94Z" fill="#1A2E35" fill-opacity="1.000000" fill-rule="nonzero"/>
	<path id="path666" d="M139.49 136.76C139.88 136.76 140.17 137.4 140.17 138.22C140.17 139.03 139.83 139.67 139.44 139.67C139.05 139.67 138.77 139 138.77 138.22C138.79 137.43 139.1 136.76 139.49 136.76Z" fill="#1A2E35" fill-opacity="1.000000" fill-rule="nonzero"/>
	<path id="path670" d="M132.33 129.33C132.48 130.12 132.68 130.91 133 131.64" stroke="#C0C0C0" stroke-opacity="1.000000" stroke-width="1.333333"/>
	<path id="path674" d="M137.49 120.44C133.24 119.29 131.56 121.85 131.87 125.88" stroke="#C0C0C0" stroke-opacity="1.000000" stroke-width="1.333333"/>
	<path id="path678" d="M141.98 164.63L147.15 173.96L159.57 164.14L163.38 164.68L155.35 178.92C155.04 179.46 154.34 179.63 153.82 179.3L146.95 174.95L141.59 178.23C140.91 178.65 140.02 178.22 139.93 177.42L138.6 165.27L141.98 164.63Z" fill="#38BFF2" fill-opacity="1.000000" fill-rule="nonzero"/>
	<g opacity="0.300003">
		<g opacity="0.300003">
			<g opacity="0.300003">
				<path id="path696" d="M141.52 164.57L147.15 173.96L159.78 163.97L163.59 164.57L155.35 178.92C155.04 179.46 154.34 179.63 153.82 179.3L146.95 174.95L141.59 178.23C140.91 178.65 140.02 178.22 139.93 177.42L138.6 165.27L141.52 164.57Z" fill="#000000" fill-opacity="1.000000" fill-rule="nonzero"/>
			</g>
		</g>
	</g>
	<path id="path714" d="M147.15 173.96L159.57 164.14L163.38 164.68L155.35 178.92C155.04 179.46 154.34 179.63 153.82 179.3L146.95 174.95L141.59 178.23C140.91 178.65 140.02 178.22 139.93 177.42L138.6 165.27L141.97 164.63L147.15 173.96Z" stroke="#1A2E35" stroke-opacity="1.000000" stroke-width="1.333333" stroke-linejoin="round"/>
	<path id="path718" d="M98.74 230.42L64.98 230.42C64.25 230.42 63.65 229.83 63.65 229.1L63.65 227.24C63.65 226.5 64.25 225.91 64.98 225.91L98.74 225.91L98.74 230.42Z" fill="#1A2E35" fill-opacity="1.000000" fill-rule="nonzero"/>
	<path id="path722" d="M64.98 230.42C64.25 230.42 63.65 229.83 63.65 229.1L63.65 227.24C63.65 226.5 64.25 225.91 64.98 225.91L98.74 225.91L98.74 230.42L64.98 230.42Z" stroke="#1A2E35" stroke-opacity="1.000000" stroke-width="1.333333" stroke-linejoin="round"/>
	<path id="path726" d="M127.8 230.42L98.74 230.42L98.74 225.91L127.86 227.83C128.34 227.87 128.72 228.27 128.72 228.75L128.72 229.5C128.72 230.01 128.31 230.42 127.8 230.42Z" fill="#38BFF2" fill-opacity="1.000000" fill-rule="nonzero"/>
	<path id="path730" d="M98.74 230.42L98.74 225.91L127.86 227.83C128.34 227.87 128.72 228.27 128.72 228.75L128.72 229.5C128.72 230.01 128.31 230.42 127.8 230.42L98.74 230.42Z" stroke="#1A2E35" stroke-opacity="1.000000" stroke-width="1.333333" stroke-linejoin="round"/>
	<path id="path734" d="M155.34 138.5L162.65 136.03L161.79 137.12" stroke="#1A2E35" stroke-opacity="1.000000" stroke-width="1.333333" stroke-linejoin="round" stroke-linecap="round"/>
	<path id="path746" d="M202.15 146.92C202.15 146.92 193.73 121.18 214.89 119.37C236.05 117.56 238.55 137.33 240.49 147.24C242.01 154.98 256.46 169.16 245.27 179.73C233.6 190.77 205.16 187.09 203.53 171.39C201.89 155.69 203.38 152.47 202.15 146.92Z" fill="#1A2E35" fill-opacity="1.000000" fill-rule="nonzero"/>
	<path id="path750" d="M214.89 119.37C236.05 117.56 238.55 137.33 240.49 147.24C242.01 154.98 256.46 169.16 245.27 179.73C233.6 190.77 205.16 187.09 203.53 171.39C201.89 155.69 203.38 152.47 202.15 146.92C202.15 146.92 193.73 121.18 214.89 119.37Z" stroke="#1A2E35" stroke-opacity="1.000000" stroke-width="1.333333" stroke-linejoin="round"/>
	<path id="path754" d="M226.84 151.02C226.84 151.02 225.91 162.44 231.79 172.27C231.79 172.27 223.87 174.85 215.61 172.4C215.96 169.36 215.79 166.29 215.11 163.32L214.83 162.07L220.84 156.87L226.84 151.02Z" fill="#FFFFFF" fill-opacity="1.000000" fill-rule="nonzero"/>
	<path id="path766" d="M212.3 159.63C213.4 165.78 214.4 167.12 219.59 166.02C223.45 165.21 226.73 159.42 226.91 155.22C226.62 152.66 226.64 149.47 226.64 149.47L220.84 156.87L212.3 159.63Z" fill="#1A2E35" fill-opacity="1.000000" fill-rule="nonzero"/>
	<path id="path778" d="M231.79 172.27C231.79 172.27 223.87 174.85 215.61 172.4C215.96 169.36 215.79 166.29 215.12 163.32L214.83 162.07L220.84 156.87L226.84 151.02C226.84 151.02 225.91 162.44 231.79 172.27Z" stroke="#1A2E35" stroke-opacity="1.000000" stroke-width="1.333333" stroke-linejoin="round"/>
	<path id="path782" d="M167.92 216.38C167.92 216.38 156.2 210.98 155.54 215.46C154.89 219.93 157.75 226.79 168.48 223.4L191 226.38C191 226.38 194.85 218.68 190.73 214.49C190.73 214.49 170.89 217.58 167.92 216.38Z" fill="#FFFFFF" fill-opacity="1.000000" fill-rule="nonzero"/>
	<path id="path786" d="M155.54 215.46C154.89 219.93 157.75 226.79 168.48 223.4L191 226.38C191 226.38 194.85 218.68 190.73 214.49C190.73 214.49 170.89 217.58 167.92 216.38C167.92 216.38 156.2 210.98 155.54 215.46Z" stroke="#1A2E35" stroke-opacity="1.000000" stroke-width="1.333333" stroke-linejoin="round"/>
	<path id="path790" d="M149.86 221.2C149.86 221.2 148 221.8 147.73 223.03C147.46 224.26 146.86 226.01 147.57 226.01C148.28 226.02 149.15 223.56 149.15 223.56L150.95 223.09L149.86 221.2Z" fill="#FFFFFF" fill-opacity="1.000000" fill-rule="nonzero"/>
	<path id="path794" d="M147.73 223.03C147.46 224.26 146.86 226.01 147.57 226.01C148.28 226.02 149.15 223.56 149.15 223.56L150.95 223.09L149.86 221.2C149.86 221.2 148 221.8 147.73 223.03Z" stroke="#1A2E35" stroke-opacity="1.000000" stroke-width="1.333333" stroke-linejoin="round"/>
	<path id="path798" d="M163.95 226.9L151.77 228.18L149.95 210.79L162.13 209.51L163.95 226.9Z" fill="#FFFFFF" fill-opacity="1.000000" fill-rule="nonzero"/>
	<path id="path802" d="M151.77 228.18L149.95 210.79L162.13 209.51L163.95 226.9L151.77 228.18Z" stroke="#1A2E35" stroke-opacity="1.000000" stroke-width="1.333333" stroke-linejoin="round"/>
	<path id="path806" d="M148.13 210.98L149.95 228.37L151.77 228.18L149.95 210.79L148.13 210.98Z" fill="#38BFF2" fill-opacity="1.000000" fill-rule="nonzero"/>
	<path id="path810" d="M149.95 228.37L151.77 228.18L149.95 210.79L148.13 210.98L149.95 228.37Z" stroke="#1A2E35" stroke-opacity="1.000000" stroke-width="1.333333" stroke-linejoin="round"/>
	<path id="path814" d="M158.86 206.99C157.4 207.14 156.34 208.45 156.5 209.91C156.5 209.98 156.52 210.03 156.53 210.1L157.15 210.03L157.8 209.96C157.78 209.9 157.77 209.84 157.76 209.78C157.68 209.02 158.23 208.34 158.99 208.26C159.75 208.18 160.43 208.73 160.5 209.49C160.56 210 160.33 210.47 159.94 210.75C160.02 211.03 160.27 211.4 160.97 211.54C161.53 210.99 161.86 210.2 161.77 209.36C161.62 207.9 160.31 206.84 158.86 206.99Z" fill="#FFFFFF" fill-opacity="1.000000" fill-rule="nonzero"/>
	<path id="path818" d="M156.5 209.91C156.5 209.98 156.52 210.03 156.53 210.1L157.15 210.03L157.8 209.96C157.78 209.9 157.77 209.84 157.76 209.78C157.68 209.02 158.23 208.34 158.99 208.26C159.75 208.18 160.43 208.73 160.5 209.49C160.56 210 160.33 210.47 159.94 210.75C160.02 211.03 160.27 211.4 160.97 211.54C161.53 210.99 161.86 210.2 161.77 209.36C161.62 207.9 160.31 206.84 158.86 206.99C157.4 207.14 156.34 208.45 156.5 209.91Z" stroke="#1A2E35" stroke-opacity="1.000000" stroke-width="1.333333" stroke-linejoin="round"/>
	<path id="path822" d="M152.25 214.39L156.44 214.39" stroke="#1A2E35" stroke-opacity="1.000000" stroke-width="1.333333" stroke-linejoin="round" stroke-linecap="round"/>
	<path id="path826" d="M152.45 216.31L160.59 216.31" stroke="#1A2E35" stroke-opacity="1.000000" stroke-width="1.333333" stroke-linejoin="round" stroke-linecap="round"/>
	<path id="path830" d="M152.65 218.23L156.72 218.23" stroke="#1A2E35" stroke-opacity="1.000000" stroke-width="1.333333" stroke-linejoin="round" stroke-linecap="round"/>
	<path id="path834" d="M152.85 220.14L159.65 220.14" stroke="#1A2E35" stroke-opacity="1.000000" stroke-width="1.333333" stroke-linejoin="round" stroke-linecap="round"/>
	<path id="path838" d="M153.05 222.06L157.12 222.06" stroke="#1A2E35" stroke-opacity="1.000000" stroke-width="1.333333" stroke-linejoin="round" stroke-linecap="round"/>
	<path id="path842" d="M153.25 223.98L162.19 223.98" stroke="#1A2E35" stroke-opacity="1.000000" stroke-width="1.333333" stroke-linejoin="round" stroke-linecap="round"/>
	<path id="path846" d="M153.45 225.89L157.64 225.89" stroke="#1A2E35" stroke-opacity="1.000000" stroke-width="1.333333" stroke-linejoin="round" stroke-linecap="round"/>
	<path id="path850" d="M156.6 207.23C155.15 207.38 154.09 208.69 154.24 210.15C154.25 210.21 154.27 210.27 154.28 210.34L154.89 210.27L154.89 210.27L155.55 210.2C155.53 210.14 155.51 210.08 155.51 210.02C155.43 209.26 155.98 208.58 156.74 208.5C157.49 208.42 158.17 208.97 158.25 209.73C158.3 210.24 158.07 210.71 157.69 210.99C157.77 211.27 158.02 211.63 158.71 211.78C159.28 211.23 159.61 210.44 159.52 209.6C159.36 208.14 158.06 207.08 156.6 207.23Z" fill="#FFFFFF" fill-opacity="1.000000" fill-rule="nonzero"/>
	<path id="path854" d="M154.24 210.15C154.25 210.21 154.27 210.27 154.28 210.34L154.89 210.27L154.89 210.27L155.55 210.2C155.53 210.14 155.51 210.08 155.51 210.02C155.43 209.26 155.98 208.58 156.74 208.5C157.49 208.42 158.17 208.97 158.25 209.73C158.3 210.24 158.07 210.71 157.69 210.99C157.77 211.27 158.02 211.63 158.71 211.78C159.28 211.23 159.61 210.44 159.52 209.6C159.36 208.14 158.06 207.08 156.6 207.23C155.15 207.38 154.09 208.69 154.24 210.15Z" stroke="#1A2E35" stroke-opacity="1.000000" stroke-width="1.333333" stroke-linejoin="round"/>
	<path id="path858" d="M154.35 207.46C152.89 207.62 151.83 208.93 151.99 210.39C151.99 210.45 152.01 210.51 152.02 210.57L152.64 210.51L153.29 210.44C153.28 210.38 153.26 210.32 153.25 210.25C153.17 209.49 153.72 208.81 154.48 208.73C155.24 208.65 155.92 209.21 156 209.96C156.05 210.47 155.82 210.94 155.43 211.22C155.52 211.51 155.76 211.87 156.46 212.01C157.02 211.46 157.35 210.68 157.26 209.83C157.11 208.37 155.8 207.31 154.35 207.46Z" fill="#FFFFFF" fill-opacity="1.000000" fill-rule="nonzero"/>
	<path id="path862" d="M151.99 210.39C151.99 210.45 152.01 210.51 152.02 210.57L152.64 210.51L153.29 210.44C153.28 210.38 153.26 210.32 153.25 210.25C153.17 209.49 153.72 208.81 154.48 208.73C155.24 208.65 155.92 209.21 156 209.96C156.05 210.47 155.82 210.94 155.43 211.22C155.52 211.51 155.76 211.87 156.46 212.01C157.02 211.46 157.35 210.68 157.26 209.83C157.11 208.37 155.8 207.31 154.35 207.46C152.89 207.62 151.83 208.93 151.99 210.39Z" stroke="#1A2E35" stroke-opacity="1.000000" stroke-width="1.333333" stroke-linejoin="round"/>
	<path id="path866" d="M152.09 207.7C150.64 207.85 149.58 209.17 149.73 210.62C149.74 210.69 149.76 210.75 149.77 210.81L150.39 210.74L151.04 210.67C151.02 210.61 151 210.55 151 210.49C150.92 209.73 151.47 209.05 152.23 208.97C152.98 208.89 153.66 209.44 153.74 210.2C153.8 210.71 153.56 211.18 153.18 211.46C153.26 211.74 153.51 212.11 154.2 212.25C154.77 211.7 155.1 210.91 155.01 210.07C154.86 208.61 153.55 207.55 152.09 207.7Z" fill="#FFFFFF" fill-opacity="1.000000" fill-rule="nonzero"/>
	<path id="path870" d="M149.73 210.62C149.74 210.69 149.76 210.75 149.77 210.81L150.39 210.74L151.04 210.67C151.02 210.61 151 210.55 151 210.49C150.92 209.73 151.47 209.05 152.23 208.97C152.98 208.89 153.66 209.44 153.74 210.2C153.8 210.71 153.56 211.18 153.18 211.46C153.26 211.74 153.51 212.11 154.2 212.25C154.77 211.7 155.1 210.91 155.01 210.07C154.86 208.61 153.55 207.55 152.09 207.7C150.64 207.85 149.58 209.17 149.73 210.62Z" stroke="#1A2E35" stroke-opacity="1.000000" stroke-width="1.333333" stroke-linejoin="round"/>
	<path id="path874" d="M148.74 210.73C148.66 209.97 149.22 209.29 149.97 209.21C150.73 209.13 151.41 209.68 151.49 210.44C151.54 210.95 151.31 211.42 150.92 211.7C151 211.98 151.25 212.34 151.95 212.49C152.52 211.94 152.84 211.15 152.75 210.31C152.6 208.85 151.29 207.79 149.84 207.94C148.39 208.09 147.33 209.4 147.48 210.86C147.55 211.51 147.85 212.07 148.29 212.49L148.13 210.98L148.78 210.91C148.77 210.85 148.75 210.79 148.74 210.73Z" fill="#FFFFFF" fill-opacity="1.000000" fill-rule="nonzero"/>
	<path id="path878" d="M149.97 209.21C150.73 209.13 151.41 209.68 151.49 210.44C151.54 210.95 151.31 211.42 150.92 211.7C151 211.98 151.25 212.34 151.95 212.49C152.52 211.94 152.84 211.15 152.75 210.31C152.6 208.85 151.29 207.79 149.84 207.94C148.39 208.09 147.33 209.4 147.48 210.86C147.55 211.51 147.85 212.07 148.29 212.49L148.13 210.98L148.78 210.91C148.77 210.85 148.75 210.79 148.74 210.73C148.66 209.97 149.22 209.29 149.97 209.21Z" stroke="#1A2E35" stroke-opacity="1.000000" stroke-width="1.333333" stroke-linejoin="round"/>
	<path id="path882" d="M146.72 215.65C146.83 215.88 146.96 216.13 147.12 216.39C147.12 216.39 146.64 217.81 147.6 219.13C147.6 219.13 147.66 221.05 148.34 221.35C149.01 221.65 150.09 222.02 150.07 221.49C150.05 220.96 149.74 219.34 148.52 218.98C148.52 218.98 149.92 219.26 149.76 218.47C149.6 217.69 149.34 216.57 148.48 216.24L148.02 216.04C148.02 216.04 149.13 216.24 149.04 215.4C148.95 214.55 148.85 213.57 148.22 213.33C148.07 213.28 147.9 213.23 147.72 213.19C146.78 212.96 146.18 214.45 146.72 215.65Z" fill="#FFFFFF" fill-opacity="1.000000" fill-rule="nonzero"/>
	<path id="path886" d="M147.12 216.39C147.12 216.39 146.64 217.81 147.6 219.13C147.6 219.13 147.66 221.05 148.34 221.35C149.01 221.65 150.09 222.02 150.07 221.49C150.05 220.96 149.74 219.34 148.52 218.98C148.52 218.98 149.92 219.26 149.76 218.47C149.6 217.69 149.34 216.57 148.48 216.24L148.02 216.04C148.02 216.04 149.13 216.24 149.04 215.4C148.95 214.55 148.85 213.57 148.22 213.33C148.07 213.28 147.9 213.23 147.72 213.19C146.78 212.96 146.18 214.45 146.72 215.65C146.83 215.88 146.96 216.13 147.12 216.39Z" stroke="#1A2E35" stroke-opacity="1.000000" stroke-width="1.333333" stroke-linejoin="round"/>
	<path id="path890" d="M166.6 216.23C166.6 216.23 165.3 213.33 163.15 211.81C161 210.3 160.21 207.35 159.33 208.06C158.46 208.78 159.25 211.9 160.6 212.97C161.95 214.04 160.44 216.43 163.78 219.38L166.6 216.23ZM166 216.48L165.99 216.5C166.15 216.84 166.53 216.99 166.87 216.84C167.22 216.69 167.36 216.3 167.21 215.96L167.18 215.95L166 216.48ZM163.34 219.86L163.34 219.88C163.62 220.13 164.04 220.1 164.28 219.83C164.53 219.55 164.51 219.13 164.23 218.88L164.2 218.89L163.34 219.86Z" fill="#FFFFFF" fill-opacity="1.000000" fill-rule="nonzero"/>
	<path id="path890" d="M166.6 216.23C166.6 216.23 165.3 213.33 163.15 211.81C161 210.3 160.21 207.35 159.33 208.06C158.46 208.78 159.25 211.9 160.6 212.97C161.95 214.04 160.44 216.43 163.78 219.38" stroke="#1A2E35" stroke-opacity="1.000000" stroke-width="1.333333" stroke-linejoin="round" stroke-linecap="round"/>
	<path id="path894" d="M245.49 224.72C245.2 226.55 244.88 228.45 244.55 230.42L198.49 230.42C198.41 229.8 198.85 228.56 199.27 226.39C194.14 228.13 185.18 225.43 185.18 225.43C186.3 222.49 185.53 215.02 185.53 215.02L190.75 213.9C190.75 213.9 192.92 191.14 194.57 184.62C196.33 177.7 205.92 170.14 238.17 172.37C238.17 172.37 253.06 172.09 255.37 181.98C257.52 191.2 246.11 224.3 245.49 224.72Z" fill="#38BFF2" fill-opacity="1.000000" fill-rule="nonzero"/>
	<g opacity="0.199997">
		<g opacity="0.199997">
			<g opacity="0.199997">
				<path id="path912" d="M199.27 226.39C195.7 227.6 190.3 226.67 187.33 225.98C188.1 225.39 188.58 224.18 188.76 222.64C191.18 222.27 193.6 218.42 195.19 200.91C195.57 196.81 196.37 194.23 197.41 192.49C196.54 196.01 196.17 199.96 197.29 204.53C197.86 206.88 199.68 212.53 199.84 214.88C200.21 220.21 199.75 223.91 199.27 226.39Z" fill="#000000" fill-opacity="1.000000" fill-rule="nonzero"/>
			</g>
		</g>
	</g>
	<g opacity="0.199997">
		<g opacity="0.199997">
			<g opacity="0.199997">
				<path id="path928" d="M245.49 224.73C245.2 226.56 244.88 228.46 244.55 230.42L198.49 230.42C199.31 227.89 201.34 215.84 198.48 208.52C198.37 208.22 208.37 204.01 215.08 205.73C243.49 213.04 233.7 189.5 241.81 185.22L234.81 212.73L230.99 213.95C239.27 214.46 236.88 226.9 236.88 226.9C240.76 227.53 243.96 225.79 245.49 224.73Z" fill="#000000" fill-opacity="1.000000" fill-rule="nonzero"/>
			</g>
		</g>
	</g>
	<path id="path946" d="M244.55 230.42L198.49 230.42C198.42 229.8 198.85 228.56 199.27 226.39C194.14 228.13 185.18 225.43 185.18 225.43C186.3 222.49 185.53 215.02 185.53 215.02L190.75 213.9C190.75 213.9 192.92 191.14 194.57 184.62C196.33 177.7 205.92 170.14 238.17 172.37C238.17 172.37 253.06 172.09 255.37 181.98C257.52 191.2 246.11 224.3 245.49 224.72C245.2 226.55 244.88 228.45 244.55 230.42Z" stroke="#1A2E35" stroke-opacity="1.000000" stroke-width="1.333333" stroke-linejoin="round"/>
	<path id="path950" d="M186.37 213.73C186.37 213.73 188.11 214.67 188.68 218.78C189.25 222.89 188.37 226.43 186.1 226.38C183.82 226.32 183.42 225.43 183.88 224.58C184.34 223.74 185.35 222.59 184.59 219.08C183.63 214.67 181.67 215.07 181.67 215.07C181.67 215.07 184.29 212.56 186.37 213.73Z" fill="#38BFF2" fill-opacity="1.000000" fill-rule="nonzero"/>
	<path id="path954" d="M188.68 218.78C189.25 222.89 188.37 226.43 186.1 226.38C183.82 226.32 183.42 225.43 183.88 224.58C184.34 223.74 185.35 222.59 184.59 219.08C183.63 214.67 181.67 215.07 181.67 215.07C181.67 215.07 184.29 212.56 186.37 213.73C186.37 213.73 188.11 214.67 188.68 218.78Z" stroke="#1A2E35" stroke-opacity="1.000000" stroke-width="1.333333" stroke-linejoin="round"/>
	<g opacity="0.199997">
		<g opacity="0.199997">
			<g opacity="0.199997">
				<path id="path964" d="M188.77 222.64C188.58 224.18 188.1 225.39 187.33 225.98C186.98 226.25 186.57 226.39 186.1 226.38C183.82 226.32 183.42 225.43 183.88 224.58C184.34 223.74 185.35 222.6 184.59 219.07C183.63 214.67 181.67 215.07 181.67 215.07C181.67 215.07 184.29 212.56 186.37 213.73C186.37 213.73 188.11 214.67 188.68 218.78C188.87 220.17 188.9 221.5 188.77 222.64Z" fill="#000000" fill-opacity="1.000000" fill-rule="nonzero"/>
			</g>
		</g>
	</g>
	<path id="path974" d="M230.24 164.14C230.24 164.14 218.66 167.66 213.4 165.78L212.3 172.83C212.3 172.83 217.42 177.3 233.84 171.8L230.24 164.14Z" fill="#38BFF2" fill-opacity="1.000000" fill-rule="nonzero"/>
	<path id="path978" d="M213.4 165.78L212.3 172.83C212.3 172.83 217.42 177.3 233.84 171.8L230.24 164.14C230.24 164.14 218.66 167.66 213.4 165.78Z" stroke="#1A2E35" stroke-opacity="1.000000" stroke-width="1.333333" stroke-linejoin="round"/>
	<path id="path982" d="M189.1 211.68C190.48 216.17 191.71 219.78 190.49 220.15C189.27 220.52 188.27 216.85 186.9 212.35C185.52 207.86 184.29 204.25 185.51 203.88C186.72 203.5 187.72 207.18 189.1 211.68Z" fill="#38BFF2" fill-opacity="1.000000" fill-rule="nonzero"/>
	<path id="path986" d="M190.49 220.15C189.27 220.52 188.27 216.85 186.9 212.35C185.52 207.86 184.29 204.25 185.51 203.88C186.72 203.5 187.72 207.18 189.1 211.68C190.48 216.17 191.71 219.78 190.49 220.15Z" stroke="#1A2E35" stroke-opacity="1.000000" stroke-width="1.333333" stroke-linejoin="round"/>
	<path id="path990" d="M186.72 211.78L188.93 211.11C188.6 210.04 188.3 209.04 188.01 208.14L185.82 208.81C186.08 209.72 186.4 210.72 186.72 211.78Z" fill="#1A2E35" fill-opacity="1.000000" fill-rule="nonzero"/>
	<path id="path994" d="M186.52 206.01C186.52 206.01 187.55 203.94 188.5 205.4C189.44 206.86 189.64 211.3 190.31 211.3" stroke="#1A2E35" stroke-opacity="1.000000" stroke-width="1.333333" stroke-linejoin="round" stroke-linecap="round"/>
	<path id="path998" d="M200.18 184.02C199.34 186.6 198.18 189.38 197.41 192.49C196.54 196.01 196.17 199.96 197.29 204.53C197.86 206.88 199.68 212.53 199.84 214.87C200.21 220.21 199.75 223.91 199.27 226.39C198.85 228.56 198.42 229.8 198.49 230.42" stroke="#1A2E35" stroke-opacity="1.000000" stroke-width="1.333333" stroke-linejoin="round" stroke-linecap="round"/>
	<path id="path1002" d="M228.69 214.72C228.69 214.72 209.95 217.28 203.64 217.43C202.67 217.45 199.77 217.09 199.77 217.09L195.28 214.08C195.28 214.08 191.81 213.57 190.12 213.96L188.18 216.49C188.18 216.49 185.77 217.27 187.15 219.1C187.15 219.1 186.62 220.51 187.78 221.57C187.78 221.57 187.89 223.17 188.95 223.8C188.95 223.8 189.16 225.29 190.33 225.72C191.49 226.14 198.81 224.97 201.04 224.34C203.27 223.7 224.9 227.1 233.38 226.89C233.38 226.89 240.64 218.38 228.69 214.72Z" fill="#FFFFFF" fill-opacity="1.000000" fill-rule="nonzero"/>
	<path id="path1006" d="M203.64 217.43C202.67 217.45 199.77 217.09 199.77 217.09L195.28 214.08C195.28 214.08 191.81 213.57 190.12 213.96L188.18 216.49C188.18 216.49 185.77 217.27 187.15 219.1C187.15 219.1 186.62 220.51 187.78 221.57C187.78 221.57 187.89 223.17 188.95 223.8C188.95 223.8 189.16 225.29 190.33 225.72C191.49 226.14 198.81 224.97 201.04 224.34C203.27 223.7 224.9 227.1 233.38 226.89C233.38 226.89 240.64 218.38 228.69 214.72C228.69 214.72 209.95 217.28 203.64 217.43Z" stroke="#1A2E35" stroke-opacity="1.000000" stroke-width="1.333333" stroke-linejoin="round"/>
	<path id="path1010" d="M228.98 143.61C228.98 143.61 224.04 145.54 221.11 140.2C219.84 137.88 217.27 133.05 217.27 133.05C216.54 134.95 217.44 137.83 217.44 137.83C215.76 137.09 212.52 136.92 212.52 136.92C211.38 134.99 211.04 130.62 211.04 130.62C209.45 133.28 209.91 137.11 209.91 137.11C206.51 137.58 204.41 138.74 202.86 140.1C203.28 141.82 203.43 144.49 203.29 150.06C203.11 157.32 206.59 159.31 209.99 162.03C213.38 164.75 222.69 166.16 225.9 151.95C225.9 151.95 232.63 149.44 229.34 144.17C229.22 143.99 229.11 143.8 228.98 143.61Z" fill="#FFFFFF" fill-opacity="1.000000" fill-rule="nonzero"/>
	<path id="path1014" d="M221.11 140.2C219.84 137.88 217.27 133.05 217.27 133.05C216.54 134.95 217.44 137.83 217.44 137.83C215.76 137.09 212.52 136.92 212.52 136.92C211.38 134.99 211.04 130.62 211.04 130.62C209.45 133.28 209.91 137.11 209.91 137.11C206.51 137.58 204.41 138.74 202.86 140.1C203.28 141.82 203.43 144.49 203.29 150.06C203.11 157.32 206.59 159.31 209.99 162.03C213.38 164.75 222.69 166.16 225.9 151.95C225.9 151.95 232.63 149.44 229.34 144.17C229.22 143.99 229.11 143.8 228.98 143.61C228.98 143.61 224.04 145.54 221.11 140.2Z" stroke="#1A2E35" stroke-opacity="1.000000" stroke-width="1.333333" stroke-linejoin="round"/>
	<path id="path1018" d="M223.47 134.89C225.59 139.24 229.28 142.59 234 143.82" stroke="#C0C0C0" stroke-opacity="1.000000" stroke-width="1.333333"/>
	<path id="path1022" d="M221.71 129.51C221.85 130.39 222.08 131.26 222.36 132.11" stroke="#C0C0C0" stroke-opacity="1.000000" stroke-width="1.333333"/>
	<path id="path1026" d="M225.06 129.83C225.06 129.83 228.88 137.13 234.84 137.3" stroke="#C0C0C0" stroke-opacity="1.000000" stroke-width="1.333333"/>
	<path id="path1030" d="M236.76 148.39C236.76 148.39 246.46 164.14 246.46 173.3" stroke="#C0C0C0" stroke-opacity="1.000000" stroke-width="1.333333"/>
	<path id="path1034" d="M234.19 152.59C234.19 152.59 236.59 161.38 240.45 165.78" stroke="#C0C0C0" stroke-opacity="1.000000" stroke-width="1.333333"/>
	<path id="path1038" d="M203.69 129.75C203.42 130.94 203.23 132.24 203.12 133.69" stroke="#C0C0C0" stroke-opacity="1.000000" stroke-width="1.333333"/>
	<path id="path1042" d="M211.64 121.5C211.64 121.5 207.12 122.35 204.17 127.68" stroke="#C0C0C0" stroke-opacity="1.000000" stroke-width="1.333333"/>
	<path id="path1046" d="M205.92 162.28C205.92 162.28 205.77 169.35 209.37 173.32" stroke="#C0C0C0" stroke-opacity="1.000000" stroke-width="1.333333"/>
	<path id="path1050" d="M212.3 140.65C217.2 139.69 219.35 142.19 219.35 142.19" stroke="#1A2E35" stroke-opacity="1.000000" stroke-width="1.333333" stroke-linejoin="round" stroke-linecap="round"/>
	<path id="path1054" d="M204.15 142.72C205.24 141.62 206.74 141.02 208.29 141.07" stroke="#1A2E35" stroke-opacity="1.000000" stroke-width="1.333333" stroke-linejoin="round" stroke-linecap="round"/>
	<path id="path1058" d="M217.85 154L217.53 154.17C215.56 155.23 213.42 155.92 211.2 156.2C212.61 157.69 214.49 157.68 215.5 157.11C217 156.24 217.85 154 217.85 154Z" stroke="#1A2E35" stroke-opacity="1.000000" stroke-width="1.333333" stroke-linejoin="round"/>
	<path id="path1062" d="M209.5 152.43C208.86 152.35 207.04 151.48 206.89 150.25C206.85 149.88 207.11 149.54 207.51 149.25C209.09 148.09 210.04 146.26 209.9 144.3C209.89 144.17 209.88 144.09 209.88 144.09" stroke="#1A2E35" stroke-opacity="1.000000" stroke-width="1.333333" stroke-linejoin="round" stroke-linecap="round"/>
	<path id="path1066" d="M215.76 142.62C216.23 142.57 216.7 143.34 216.83 144.34C216.95 145.34 216.67 146.2 216.21 146.26C215.75 146.32 215.27 145.55 215.15 144.55C215.02 143.54 215.3 142.68 215.76 142.62Z" fill="#1A2E35" fill-opacity="1.000000" fill-rule="nonzero"/>
	<path id="path1070" d="M207.69 145.52C207.81 146.51 207.54 147.35 207.09 147.41C206.63 147.47 206.16 146.71 206.04 145.73C205.92 144.74 206.19 143.9 206.65 143.84C207.1 143.79 207.57 144.54 207.69 145.52Z" fill="#1A2E35" fill-opacity="1.000000" fill-rule="nonzero"/>
	<path id="path1074" d="M222.72 143.47C222.72 143.47 222.09 141.69 222.81 140.75" stroke="#1A2E35" stroke-opacity="1.000000" stroke-width="1.333333" stroke-linejoin="round" stroke-linecap="round"/>
	<path id="path1078" d="M245.49 224.73C243.96 225.79 240.76 227.53 236.88 226.9C236.88 226.9 239.27 214.46 231 213.95L234.81 212.73L241.81 185.22" stroke="#1A2E35" stroke-opacity="1.000000" stroke-width="1.333333" stroke-linejoin="round" stroke-linecap="round"/>
	<path id="path1082" d="M236.88 212.73C236.88 212.73 241.31 213.9 242.55 217.73" stroke="#1A2E35" stroke-opacity="1.000000" stroke-width="1.333333" stroke-linejoin="round" stroke-linecap="round"/>
	<path id="path1086" d="M218.79 168.46C223 168.46 227.18 167.51 231.01 165.78" stroke="#1A2E35" stroke-opacity="1.000000" stroke-width="1.333333" stroke-linejoin="round" stroke-linecap="round"/>
	<path id="path1090" d="M213.08 167.8C214.03 168.06 215 168.21 215.97 168.31" stroke="#1A2E35" stroke-opacity="1.000000" stroke-width="1.333333" stroke-linejoin="round" stroke-linecap="round"/>
	<path id="path1094" d="M231.96 175.69C233.15 175.26 234.41 174.77 235.72 174.21" stroke="#1A2E35" stroke-opacity="1.000000" stroke-width="1.333333" stroke-linejoin="round" stroke-linecap="round"/>
	<path id="path1098" d="M211.22 175.79C211.22 175.79 215.73 180.08 227.65 177.02" stroke="#1A2E35" stroke-opacity="1.000000" stroke-width="1.333333" stroke-linejoin="round" stroke-linecap="round"/>
	<path id="path1102" d="M215.12 197.1C215.12 197.1 215.82 207.45 223.47 211.3" stroke="#1A2E35" stroke-opacity="1.000000" stroke-width="1.333333" stroke-linejoin="round" stroke-linecap="round"/>
	<path id="path1106" d="M228.5 214.88C228.5 214.88 230.01 211.56 234.5 213.2C234.5 213.2 238.76 214.67 240.03 219.05C241.3 223.43 239.71 227.34 236.61 227.5C233.51 227.66 232.94 227.42 233.46 226.46C233.99 225.51 235.06 222.91 233.71 219.66C231.78 215.03 228.5 214.88 228.5 214.88Z" fill="#38BFF2" fill-opacity="1.000000" fill-rule="nonzero"/>
	<g opacity="0.199997">
		<g opacity="0.199997">
			<g opacity="0.199997">
				<path id="path1124" d="M228.5 214.88C228.5 214.88 230.01 211.56 234.5 213.2C234.5 213.2 238.76 214.67 240.03 219.05C241.3 223.43 239.71 227.34 236.61 227.5C233.51 227.66 232.94 227.42 233.46 226.46C233.99 225.51 235.06 222.91 233.71 219.66C231.78 215.03 228.5 214.88 228.5 214.88Z" fill="#000000" fill-opacity="1.000000" fill-rule="nonzero"/>
			</g>
		</g>
	</g>
	<path id="path1142" d="M234.5 213.2C234.5 213.2 238.76 214.67 240.03 219.05C241.3 223.43 239.71 227.34 236.61 227.5C233.51 227.66 232.94 227.42 233.46 226.46C233.99 225.51 235.06 222.91 233.71 219.66C231.78 215.03 228.5 214.88 228.5 214.88C228.5 214.88 230.01 211.56 234.5 213.2Z" stroke="#1A2E35" stroke-opacity="1.000000" stroke-width="1.333333" stroke-linejoin="round"/>
	<path id="path1154" d="M22.73 201.2C22.73 201.2 20.42 181.4 0 189.37C0 189.37 17.37 189.25 20.31 204.16L23.02 203.87L22.73 201.2Z" fill="#38BFF2" fill-opacity="1.000000" fill-rule="nonzero"/>
	<g opacity="0.100006">
		<g opacity="0.100006">
			<g opacity="0.100006">
				<path id="path1164" d="M22.73 201.2C22.73 201.2 20.42 181.4 0 189.37C0 189.37 17.37 189.25 20.31 204.16L23.02 203.87L22.73 201.2Z" fill="#000000" fill-opacity="1.000000" fill-rule="nonzero"/>
			</g>
		</g>
	</g>
	<path id="path1174" d="M23.01 200.86C23.01 200.86 21.24 179.75 17.39 163.34C17.39 163.34 29.15 175.8 26.46 199.27L23.01 200.86Z" fill="#38BFF2" fill-opacity="1.000000" fill-rule="nonzero"/>
	<g opacity="0.100006">
		<g opacity="0.100006">
			<g opacity="0.100006">
				<path id="path1184" d="M23.01 200.86C23.01 200.86 21.24 179.75 17.39 163.34C17.39 163.34 29.15 175.8 26.46 199.27L23.01 200.86Z" fill="#000000" fill-opacity="1.000000" fill-rule="nonzero"/>
			</g>
		</g>
	</g>
	<path id="path1194" d="M21.87 214.84C21.87 214.84 18.48 185.76 7.2 175.77C7.2 175.77 27.37 180.8 24.38 211.68L21.87 214.84Z" fill="#38BFF2" fill-opacity="1.000000" fill-rule="nonzero"/>
	<path id="path1198" d="M25.41 213.62C25.41 213.62 30.35 184.76 42.15 175.4C42.15 175.4 21.74 179.33 23.07 210.34L25.41 213.62Z" fill="#38BFF2" fill-opacity="1.000000" fill-rule="nonzero"/>
	<path id="path1202" d="M35.76 204.18L11.92 204.18L11.92 208.33L12.71 208.33L12.71 222.98C12.71 227.09 16.04 230.42 20.14 230.42L27.55 230.42C31.64 230.42 34.97 227.09 34.97 222.98L34.97 208.33L35.76 208.33L35.76 204.18Z" fill="#FFFFFF" fill-opacity="1.000000" fill-rule="nonzero"/>
	<path id="path1206" d="M11.92 204.18L11.92 208.33L12.71 208.33L12.71 222.98C12.71 227.09 16.04 230.42 20.14 230.42L27.55 230.42C31.64 230.42 34.97 227.09 34.97 222.98L34.97 208.33L35.76 208.33L35.76 204.18L11.92 204.18Z" stroke="#1A2E35" stroke-opacity="1.000000" stroke-width="1.333333"/>
	<path id="path1210" d="" fill="#FFFFFF" fill-opacity="1.000000" fill-rule="nonzero"/>
	<path id="path1210" d="M28.37 208.14Lnan 208.14" stroke="#1A2E35" stroke-opacity="1.000000" stroke-width="1.333333"/>
	<path id="path1214" d="" fill="#FFFFFF" fill-opacity="1.000000" fill-rule="nonzero"/>
	<path id="path1214" d="M15.95 208.14Lnan 208.14" stroke="#1A2E35" stroke-opacity="1.000000" stroke-width="1.333333"/>
	<path id="path1218" d="M116.47 212.14L110.36 162.26C110.16 160.68 108.72 159.39 107.14 159.39L100.13 159.39L108.22 215.01L113.96 215.01C115.54 215.01 116.66 213.73 116.47 212.14Z" fill="#38BFF2" fill-opacity="1.000000" fill-rule="nonzero"/>
	<path id="path1222" d="M110.36 162.26C110.16 160.68 108.72 159.39 107.14 159.39L100.13 159.39L108.22 215.01L113.96 215.01C115.54 215.01 116.66 213.73 116.47 212.14L110.36 162.26Z" stroke="#1A2E35" stroke-opacity="1.000000" stroke-width="1.333333" stroke-linejoin="round"/>
	<path id="path1226" d="M112.44 215.01L42.02 215.01C40.44 215.01 39 213.73 38.8 212.14L32.69 162.26C32.5 160.67 33.62 159.39 35.2 159.39L105.63 159.39C107.21 159.39 108.65 160.67 108.84 162.26L114.95 212.14C115.14 213.73 114.02 215.01 112.44 215.01Z" fill="#1A2E35" fill-opacity="1.000000" fill-rule="nonzero"/>
	<g opacity="0.100006">
		<g opacity="0.100006">
			<g opacity="0.100006">
				<path id="path1244" d="M112.44 215.01L42.02 215.01C40.44 215.01 39 213.73 38.8 212.14L32.69 162.26C32.5 160.67 33.62 159.39 35.2 159.39L105.63 159.39C107.21 159.39 108.65 160.67 108.84 162.26L114.95 212.14C115.14 213.73 114.02 215.01 112.44 215.01Z" fill="#FFFFFF" fill-opacity="1.000000" fill-rule="nonzero"/>
			</g>
		</g>
	</g>
	<path id="path1262" d="M42.02 215.01C40.44 215.01 39 213.73 38.8 212.14L32.69 162.26C32.5 160.67 33.62 159.39 35.2 159.39L105.63 159.39C107.21 159.39 108.65 160.67 108.84 162.26L114.95 212.14C115.14 213.73 114.02 215.01 112.44 215.01L42.02 215.01Z" stroke="#1A2E35" stroke-opacity="1.000000" stroke-width="1.333333" stroke-linejoin="round"/>
	<path id="path1266" d="M79.6 226.35L82.41 194.22C82.48 193.45 81.87 192.78 81.1 192.78L63.32 192.78C62.64 192.78 62.07 193.31 62.01 193.99L58.95 228.99C58.88 229.76 59.49 230.42 60.26 230.42L95.48 230.42C96.21 230.42 96.8 229.83 96.8 229.1C96.8 228.37 96.21 227.78 95.48 227.78L80.92 227.78C80.14 227.78 79.54 227.12 79.6 226.35Z" fill="#1A2E35" fill-opacity="1.000000" fill-rule="nonzero"/>
	<path id="path1270" d="M82.41 194.22C82.48 193.45 81.87 192.78 81.1 192.78L63.32 192.78C62.64 192.78 62.07 193.31 62.01 193.99L58.95 228.99C58.88 229.76 59.49 230.42 60.26 230.42L95.48 230.42C96.21 230.42 96.8 229.83 96.8 229.1C96.8 228.37 96.21 227.78 95.48 227.78L80.92 227.78C80.14 227.78 79.54 227.12 79.6 226.35L82.41 194.22Z" stroke="#1A2E35" stroke-opacity="1.000000" stroke-width="1.333333" stroke-linejoin="round"/>
	<path id="path1274" d="M96.8 229.1C96.8 228.37 96.21 227.78 95.48 227.78L80.92 227.78C80.14 227.78 79.54 227.12 79.6 226.35L82.41 194.22C82.48 193.45 81.88 192.79 81.11 192.78C80.43 192.79 79.86 193.31 79.8 193.99L76.74 228.99C76.67 229.76 77.28 230.42 78.05 230.42L95.48 230.42C96.21 230.42 96.8 229.83 96.8 229.1Z" fill="#38BFF2" fill-opacity="1.000000" fill-rule="nonzero"/>
	<path id="path1278" d="M95.48 227.78L80.92 227.78C80.14 227.78 79.54 227.12 79.6 226.35L82.41 194.22C82.48 193.45 81.88 192.79 81.11 192.78C80.43 192.79 79.86 193.31 79.8 193.99L76.74 228.99C76.67 229.76 77.28 230.42 78.05 230.42L95.48 230.42C96.21 230.42 96.8 229.83 96.8 229.1C96.8 228.37 96.21 227.78 95.48 227.78Z" stroke="#1A2E35" stroke-opacity="1.000000" stroke-width="1.333333" stroke-linejoin="round"/>
	<path id="path1282" d="M16.05 230.42Lnan 230.42" stroke="#1A2E35" stroke-opacity="1.000000" stroke-width="1.333333" stroke-linejoin="round" stroke-linecap="round"/>
	<path id="path1294" d="M251.05 108.18L237.81 108.18C236.09 108.18 234.7 109.58 234.7 111.3L234.7 117.76C234.7 119.48 236.09 120.88 237.81 120.88L241.27 120.88L242.28 126.84L247.59 120.88L251.05 120.88C252.77 120.88 254.16 119.48 254.16 117.76L254.16 111.3C254.16 109.58 252.77 108.18 251.05 108.18Z" fill="#FFFFFF" fill-opacity="1.000000" fill-rule="nonzero"/>
	<path id="path1298" d="M237.81 108.18C236.09 108.18 234.7 109.58 234.7 111.3L234.7 117.76C234.7 119.48 236.09 120.88 237.81 120.88L241.27 120.88L242.28 126.84L247.59 120.88L251.05 120.88C252.77 120.88 254.16 119.48 254.16 117.76L254.16 111.3C254.16 109.58 252.77 108.18 251.05 108.18L237.81 108.18Z" stroke="#1A2E35" stroke-opacity="1.000000" stroke-width="1.333333" stroke-linejoin="round"/>
	<path id="path1302" d="M230.76 89.08L217.51 89.08C215.8 89.08 214.4 90.48 214.4 92.2L214.4 98.66C214.4 100.38 215.8 101.78 217.51 101.78L220.97 101.78L223.6 107.74L227.29 101.78L230.76 101.78C232.47 101.78 233.87 100.38 233.87 98.66L233.87 92.2C233.87 90.48 232.47 89.08 230.76 89.08Z" fill="#FFFFFF" fill-opacity="1.000000" fill-rule="nonzero"/>
	<path id="path1306" d="M217.51 89.08C215.8 89.08 214.4 90.48 214.4 92.2L214.4 98.66C214.4 100.38 215.8 101.78 217.51 101.78L220.97 101.78L223.6 107.74L227.29 101.78L230.76 101.78C232.47 101.78 233.87 100.38 233.87 98.66L233.87 92.2C233.87 90.48 232.47 89.08 230.76 89.08L217.51 89.08Z" stroke="#1A2E35" stroke-opacity="1.000000" stroke-width="1.333333" stroke-linejoin="round"/>
	<path id="path1310" d="M204.99 95.79L192.49 95.79C190.86 95.79 189.55 97.1 189.55 98.73L189.55 104.83C189.55 106.46 190.86 107.78 192.49 107.78L195.75 107.78L199.16 113.4L201.72 107.78L204.99 107.78C206.61 107.78 207.93 106.46 207.93 104.83L207.93 98.73C207.93 97.1 206.61 95.79 204.99 95.79Z" fill="#FFFFFF" fill-opacity="1.000000" fill-rule="nonzero"/>
	<path id="path1314" d="M192.49 95.79C190.86 95.79 189.55 97.1 189.55 98.73L189.55 104.83C189.55 106.46 190.86 107.78 192.49 107.78L195.75 107.78L199.16 113.4L201.72 107.78L204.99 107.78C206.61 107.78 207.93 106.46 207.93 104.83L207.93 98.73C207.93 97.1 206.61 95.79 204.99 95.79L192.49 95.79Z" stroke="#1A2E35" stroke-opacity="1.000000" stroke-width="1.333333" stroke-linejoin="round"/>
	<g clip-path="url(#clip50_18)">
		<path id="path" d="M195.69 106.76L194.19 106.76L194.19 104.45L195.69 104.45L195.69 106.76ZM194.5 106.49L195.38 106.49L195.38 104.72L194.5 104.72L194.5 106.49Z" fill="#000000" fill-opacity="1.000000" fill-rule="nonzero"/>
		<path id="path" d="M197.62 106.76L196.12 106.76L196.12 103.28L197.62 103.28L197.62 106.76ZM196.43 106.49L197.3 106.49L197.3 103.55L196.43 103.55L196.43 106.49Z" fill="#000000" fill-opacity="1.000000" fill-rule="nonzero"/>
		<path id="path" d="M199.54 106.76L198.05 106.76L198.05 101.97L199.54 101.97L199.54 106.76ZM198.36 106.49L199.23 106.49L199.23 102.24L198.36 102.24L198.36 106.49Z" fill="#000000" fill-opacity="1.000000" fill-rule="nonzero"/>
		<path id="path" d="M201.47 106.76L199.97 106.76L199.97 100.66L201.47 100.66L201.47 106.76ZM200.29 106.49L201.16 106.49L201.16 100.93L200.29 100.93L200.29 106.49Z" fill="#000000" fill-opacity="1.000000" fill-rule="nonzero"/>
		<path id="path" d="M203.4 106.76L201.9 106.76L201.9 99.78L203.4 99.78L203.4 106.76ZM202.21 106.49L203.09 106.49L203.09 100.05L202.21 100.05L202.21 106.49Z" fill="#000000" fill-opacity="1.000000" fill-rule="nonzero"/>
		<path id="path" d="M193.44 103.55L200.52 98.7L200.22 98.37L201.55 98.2L201.05 99.28L200.75 98.95L193.71 103.81C193.71 103.81 193.46 103.55 193.44 103.55Z" fill="#000000" fill-opacity="1.000000" fill-rule="nonzero"/>
	</g>
	<g clip-path="url(#clip50_33)">
		<rect id="rect" x="219.853027" y="96.832642" width="5.405475" height="0.356434" fill="#000000" fill-opacity="1.000000"/>
		<rect id="rect" x="219.853027" y="97.861206" width="2.045602" height="0.356434" fill="#000000" fill-opacity="1.000000"/>
		<path id="path" d="M229.48 92.33L219.29 92.33C218.76 92.33 218.34 92.73 218.34 93.23L218.34 98.9C218.34 99.4 218.76 99.8 219.29 99.8L229.48 99.8C230 99.8 230.43 99.4 230.43 98.9L230.43 93.23C230.43 92.73 230 92.33 229.48 92.33ZM219.29 92.69L229.48 92.69C229.79 92.69 230.05 92.93 230.05 93.23L230.05 93.8L218.71 93.8L218.71 93.23C218.71 92.93 218.97 92.69 219.29 92.69ZM230.05 94.16L230.05 95.36L218.71 95.36L218.71 94.16L230.05 94.16ZM229.48 99.44L219.29 99.44C218.97 99.44 218.71 99.2 218.71 98.9L218.71 95.72L230.05 95.72L230.05 98.9C230.05 99.2 229.79 99.44 229.48 99.44Z" fill="#000000" fill-opacity="1.000000" fill-rule="nonzero"/>
	</g>
	<g clip-path="url(#clip50_38)">
		<path id="path" d="M244.65 110.61C247.23 110.61 249.32 112.56 249.32 114.96C249.32 117.35 247.23 119.3 244.65 119.3C242.08 119.3 239.98 117.35 239.98 114.96C239.98 112.56 242.08 110.61 244.65 110.61ZM244.65 110.32C241.9 110.32 239.67 112.4 239.67 114.96C239.67 117.51 241.9 119.59 244.65 119.59C247.4 119.59 249.63 117.51 249.63 114.96C249.63 112.4 247.4 110.32 244.65 110.32Z" fill="#000000" fill-opacity="1.000000" fill-rule="nonzero"/>
		<path id="polygon" d="M247.2 117.5L244.5 114.98L244.5 111.42L244.81 111.42L244.81 114.86L247.42 117.3L247.2 117.5Z" fill="#000000" fill-opacity="1.000000" fill-rule="nonzero"/>
	</g>
</svg>