<svg width="35.000000" height="35.000000" viewBox="0 0 35 35" fill="none" xmlns="http://www.w3.org/2000/svg" xmlns:xlink="http://www.w3.org/1999/xlink">
	<desc>
			Created with Pixso.
	</desc>
	<defs>
		<clipPath id="clip38_3283">
			<rect id="Group 9 (2)" width="35.000000" height="35.000000" fill="white" fill-opacity="0"/>
		</clipPath>
	</defs>
	<rect id="Group 9 (2)" width="35.000000" height="35.000000" fill="#FFFFFF" fill-opacity="0"/>
	<g clip-path="url(#clip38_3283)">
		<path id="Vector" d="M34.87 17.43C34.87 27.06 27.06 34.87 17.43 34.87C7.8 34.87 0 27.06 0 17.43C0 7.8 7.8 0 17.43 0C27.06 0 34.87 7.8 34.87 17.43Z" fill="#22253B" fill-opacity="1.000000" fill-rule="nonzero"/>
		<path id="Vector" d="M16.84 22.95L17.96 22.95C17.96 22.95 18.3 22.92 18.47 22.73C18.63 22.56 18.62 22.24 18.62 22.24C18.62 22.24 18.6 20.75 19.29 20.53C19.98 20.31 20.86 21.97 21.79 22.61C22.5 23.09 23.03 22.99 23.03 22.99L25.52 22.95C25.52 22.95 26.83 22.87 26.21 21.85C26.16 21.77 25.85 21.09 24.36 19.71C22.79 18.27 23 18.5 24.88 16C26.03 14.47 26.49 13.54 26.35 13.15C26.21 12.77 25.37 12.87 25.37 12.87L22.56 12.88C22.56 12.88 22.35 12.86 22.2 12.95C22.05 13.04 21.95 13.25 21.95 13.25C21.95 13.25 21.51 14.43 20.91 15.43C19.66 17.55 19.17 17.66 18.96 17.53C18.49 17.22 18.6 16.3 18.6 15.64C18.6 13.59 18.92 12.73 18 12.51C17.69 12.44 17.47 12.39 16.69 12.38C15.69 12.37 14.84 12.39 14.36 12.62C14.04 12.78 13.79 13.12 13.94 13.14C14.13 13.17 14.55 13.26 14.77 13.56C15.06 13.95 15.05 14.83 15.05 14.83C15.05 14.83 15.22 17.24 14.66 17.54C14.29 17.74 13.77 17.32 12.65 15.41C12.08 14.42 11.65 13.34 11.65 13.34C11.65 13.34 11.57 13.13 11.42 13.02C11.24 12.89 10.99 12.85 10.99 12.85L8.32 12.87C8.32 12.87 7.92 12.88 7.78 13.05C7.65 13.21 7.77 13.53 7.77 13.53C7.77 13.53 9.85 18.4 12.22 20.85C14.38 23.1 16.84 22.95 16.84 22.95Z" fill="#FFFFFF" fill-opacity="1.000000" fill-rule="evenodd"/>
	</g>
</svg>