<svg width="35.000000" height="35.000000" viewBox="0 0 35 35" fill="none" xmlns="http://www.w3.org/2000/svg" xmlns:xlink="http://www.w3.org/1999/xlink">
	<desc>
			Created with Pixso.
	</desc>
	<defs>
		<clipPath id="clip38_3289">
			<rect id="Group 77" width="35.000000" height="35.000000" fill="white" fill-opacity="0"/>
		</clipPath>
	</defs>
	<rect id="Group 77" width="35.000000" height="35.000000" fill="#FFFFFF" fill-opacity="0"/>
	<g clip-path="url(#clip38_3289)">
		<path id="Vector" d="M34.93 17.46C34.93 27.1 27.12 34.92 17.47 34.92C7.83 34.92 0.01 27.1 0.01 17.46C0.01 7.81 7.83 0 17.47 0C27.12 0 34.93 7.81 34.93 17.46Z" fill="#22253B" fill-opacity="1.000000" fill-rule="nonzero"/>
		<path id="Vector" d="M26.47 11.66C25.76 10.82 24.45 10.48 21.95 10.48L12.87 10.48C10.31 10.48 8.98 10.84 8.27 11.74C7.58 12.62 7.58 13.91 7.58 15.69L7.58 19.09C7.58 22.55 8.4 24.31 12.87 24.31L21.95 24.31C24.12 24.31 25.32 24.01 26.1 23.26C26.89 22.5 27.23 21.25 27.23 19.09L27.23 15.69C27.23 13.81 27.18 12.51 26.47 11.66ZM20.2 17.86L16.07 20.02C15.98 20.07 15.88 20.09 15.78 20.09C15.67 20.09 15.55 20.06 15.45 20C15.26 19.88 15.15 19.68 15.15 19.46L15.15 15.16C15.15 14.94 15.26 14.73 15.45 14.62C15.64 14.5 15.88 14.5 16.07 14.6L20.2 16.74C20.41 16.85 20.54 17.06 20.54 17.3C20.54 17.54 20.41 17.75 20.2 17.86Z" fill="#FFFFFF" fill-opacity="1.000000" fill-rule="nonzero"/>
	</g>
</svg>