<svg width="60.000000" height="60.000000" viewBox="0 0 60 60" fill="none" xmlns="http://www.w3.org/2000/svg" xmlns:xlink="http://www.w3.org/1999/xlink">
	<desc>
			Created with Pixso.
	</desc>
	<defs>
		<clipPath id="clip25_121">
			<rect id="svg-gobbler (6) 1" width="60.000000" height="60.000000" fill="white" fill-opacity="0"/>
		</clipPath>
	</defs>
	<rect id="svg-gobbler (6) 1" width="60.000000" height="60.000000" fill="#FFFFFF" fill-opacity="0"/>
	<g clip-path="url(#clip25_121)">
		<path id="Vector" d="M39.26 4.02L39.26 55.97C39.26 57.68 37.88 59.07 36.17 59.07L8.24 59.07C6.53 59.07 5.15 57.68 5.15 55.97L5.15 4.02C5.15 2.31 6.53 0.92 8.24 0.92L36.17 0.92C37.88 0.92 39.26 2.31 39.26 4.02Z" fill="#FFFFFF" fill-opacity="1.000000" fill-rule="nonzero"/>
		<path id="Vector" d="M30.81 0.92L30.81 3.39C30.81 4.76 29.7 5.87 28.34 5.87L16.08 5.87C14.71 5.87 13.6 4.76 13.6 3.39L13.6 0.92L30.81 0.92Z" fill="#38BFF2" fill-opacity="1.000000" fill-rule="nonzero"/>
		<path id="Vector" d="M54.84 20.76L54.84 40.47C54.84 41.83 53.73 42.94 52.37 42.94L22.21 42.94L22.21 18.29L52.37 18.29C53.73 18.29 54.84 19.39 54.84 20.76Z" fill="#38BFF2" fill-opacity="1.000000" fill-rule="nonzero"/>
		<path id="Vector" d="M22.21 23.34L54.84 23.34L54.84 29.47L22.21 29.47L22.21 23.34Z" fill="#D7E9FF" fill-opacity="1.000000" fill-rule="nonzero"/>
		<path id="Vector" d="M14.05 54.74C13.71 54.74 13.43 55.01 13.43 55.36C13.43 55.7 13.71 55.97 14.05 55.97L30.36 55.97C30.7 55.97 30.98 55.7 30.98 55.36C30.98 55.01 30.7 54.74 30.36 54.74L14.05 54.74Z" fill="#1A2E35" fill-opacity="1.000000" fill-rule="nonzero"/>
		<path id="Vector" d="M26.69 4.01L27.8 4.01C28.14 4.01 28.41 3.74 28.41 3.39C28.41 3.05 28.14 2.78 27.8 2.78L26.69 2.78C26.35 2.78 26.07 3.05 26.07 3.39C26.07 3.74 26.35 4.01 26.69 4.01Z" fill="#1A2E35" fill-opacity="1.000000" fill-rule="nonzero"/>
		<path id="Vector" d="M16.61 4.01L23.79 4.01C24.13 4.01 24.41 3.74 24.41 3.39C24.41 3.05 24.13 2.78 23.79 2.78L16.61 2.78C16.27 2.78 16 3.05 16 3.39C16 3.74 16.27 4.01 16.61 4.01Z" fill="#1A2E35" fill-opacity="1.000000" fill-rule="nonzero"/>
		<path id="Vector" d="M52.37 17.67L39.88 17.67L39.88 4.02C39.88 1.97 38.22 0.3 36.17 0.3C30.09 0.3 14.33 0.3 8.24 0.3C6.2 0.3 4.53 1.97 4.53 4.02L4.53 55.97C4.53 58.02 6.2 59.69 8.24 59.69L36.17 59.69C38.22 59.69 39.88 58.02 39.88 55.97L39.88 43.56L52.37 43.56C54.07 43.56 55.46 42.17 55.46 40.47C55.46 33.28 55.46 27.84 55.46 20.76C55.46 19.05 54.07 17.67 52.37 17.67ZM54.22 20.76L54.22 22.72L22.82 22.72L22.82 18.9L52.37 18.9C53.39 18.9 54.22 19.74 54.22 20.76ZM54.22 28.85L22.82 28.85L22.82 23.96L54.22 23.96L54.22 28.85ZM30.19 1.54L30.19 3.39C30.19 4.42 29.36 5.25 28.34 5.25L16.08 5.25C15.05 5.25 14.22 4.42 14.22 3.39L14.22 1.54L30.19 1.54ZM38.64 55.97C38.64 57.34 37.53 58.45 36.17 58.45L8.24 58.45C6.88 58.45 5.77 57.34 5.77 55.97L5.77 4.02C5.77 2.65 6.88 1.54 8.24 1.54L12.98 1.54L12.98 3.39C12.98 5.1 14.37 6.48 16.08 6.48L28.34 6.48C30.04 6.48 31.43 5.1 31.43 3.39L31.43 1.54L36.17 1.54C37.53 1.54 38.64 2.65 38.64 4.02L38.64 17.67L22.82 17.67L22.82 14.88C22.82 14.54 22.55 14.26 22.21 14.26C21.86 14.26 21.59 14.54 21.59 14.88L21.59 46.34C21.59 46.69 21.86 46.96 22.21 46.96C22.55 46.96 22.82 46.69 22.82 46.34L22.82 43.56L38.64 43.56L38.64 55.97L38.64 55.97ZM52.37 42.32L22.82 42.32L22.82 34.76L43.27 34.76C43.62 34.76 43.89 34.49 43.89 34.14C43.89 33.8 43.62 33.53 43.27 33.53L22.82 33.53L22.82 30.09L54.22 30.09L54.22 40.47C54.22 41.49 53.39 42.32 52.37 42.32Z" fill="#1A2E35" fill-opacity="1.000000" fill-rule="nonzero"/>
		<path id="Vector" d="M43.27 37.65L41.5 37.65C41.16 37.65 40.88 37.93 40.88 38.27C40.88 38.61 41.16 38.89 41.5 38.89L43.27 38.89C43.62 38.89 43.89 38.61 43.89 38.27C43.89 37.93 43.62 37.65 43.27 37.65Z" fill="#1A2E35" fill-opacity="1.000000" fill-rule="nonzero"/>
		<path id="Vector" d="M38.21 37.65L36.44 37.65C36.09 37.65 35.82 37.93 35.82 38.27C35.82 38.61 36.09 38.89 36.44 38.89L38.21 38.89C38.55 38.89 38.83 38.61 38.83 38.27C38.83 37.93 38.55 37.65 38.21 37.65Z" fill="#1A2E35" fill-opacity="1.000000" fill-rule="nonzero"/>
		<path id="Vector" d="M33.14 37.65L31.37 37.65C31.03 37.65 30.75 37.93 30.75 38.27C30.75 38.61 31.03 38.89 31.37 38.89L33.14 38.89C33.48 38.89 33.76 38.61 33.76 38.27C33.76 37.93 33.48 37.65 33.14 37.65Z" fill="#1A2E35" fill-opacity="1.000000" fill-rule="nonzero"/>
		<path id="Vector" d="M28.08 37.65L26.31 37.65C25.96 37.65 25.69 37.93 25.69 38.27C25.69 38.61 25.96 38.89 26.31 38.89L28.08 38.89C28.42 38.89 28.7 38.61 28.7 38.27C28.7 37.93 28.42 37.65 28.08 37.65Z" fill="#1A2E35" fill-opacity="1.000000" fill-rule="nonzero"/>
	</g>
</svg>