<svg width="392.000000" height="409.000000" viewBox="0 0 392 409" fill="none" xmlns="http://www.w3.org/2000/svg" xmlns:xlink="http://www.w3.org/1999/xlink">
	<desc>
			Created with Pixso.
	</desc>
	<defs/>
	<path id="Vector" d="M329.74 212.27L61.2 212.27L61.2 325.39L329.74 325.39L329.74 212.27Z" fill="#38BFF2" fill-opacity="1.000000" fill-rule="nonzero"/>
	<path id="Vector" d="M329.74 212.27L329.74 325.39L61.2 325.39L61.2 212.27L329.74 212.27Z" stroke="#263238" stroke-opacity="1.000000" stroke-width="1.000000" stroke-linejoin="round"/>
	<path id="Vector" d="M92.07 219.12L66.81 219.12L66.81 233.1L92.07 233.1L92.07 219.12Z" fill="#FFFFFF" fill-opacity="1.000000" fill-rule="nonzero"/>
	<path id="Vector" d="M92.07 219.12L92.07 233.1L66.81 233.1L66.81 219.12L92.07 219.12Z" stroke="#263238" stroke-opacity="1.000000" stroke-width="1.000000"/>
	<path id="Vector" d="M323.52 287.31L283.73 287.31L283.73 301.29L323.52 301.29L323.52 287.31Z" fill="#FFFFFF" fill-opacity="1.000000" fill-rule="nonzero"/>
	<path id="Vector" d="M323.52 287.31L323.52 301.29L283.73 301.29L283.73 287.31L323.52 287.31Z" stroke="#263238" stroke-opacity="1.000000" stroke-width="1.000000"/>
	<path id="Vector" d="M323.53 236.58L298.97 236.58L298.97 250.57L323.53 250.57L323.53 236.58Z" fill="#FFFFFF" fill-opacity="1.000000" fill-rule="nonzero"/>
	<path id="Vector" d="M323.53 236.58L323.53 250.57L298.97 250.57L298.97 236.58L323.53 236.58Z" stroke="#263238" stroke-opacity="1.000000" stroke-width="1.000000"/>
	<path id="Vector" d="M92.07 270.06L66.81 270.06L66.81 284.04L92.07 284.04L92.07 270.06Z" fill="#FFFFFF" fill-opacity="1.000000" fill-rule="nonzero"/>
	<path id="Vector" d="M92.07 270.06L92.07 284.04L66.81 284.04L66.81 270.06L92.07 270.06Z" stroke="#263238" stroke-opacity="1.000000" stroke-width="1.000000"/>
	<path id="Vector" d="M87.26 253.21L66.81 253.21L66.81 267.2L87.26 267.2L87.26 253.21Z" fill="#FFFFFF" fill-opacity="1.000000" fill-rule="nonzero"/>
	<path id="Vector" d="M87.26 253.21L87.26 267.2L66.81 267.2L66.81 253.21L87.26 253.21Z" stroke="#263238" stroke-opacity="1.000000" stroke-width="1.000000"/>
	<path id="Vector" d="M80.79 236.16L66.81 236.16L66.81 250.15L80.79 250.15L80.79 236.16Z" fill="#FFFFFF" fill-opacity="1.000000" fill-rule="nonzero"/>
	<path id="Vector" d="M80.79 236.16L80.79 250.15L66.81 250.15L66.81 236.16L80.79 236.16Z" stroke="#263238" stroke-opacity="1.000000" stroke-width="1.000000"/>
	<path id="Vector" d="M98.65 236.16L84.67 236.16L84.67 250.15L98.65 250.15L98.65 236.16Z" fill="#FFFFFF" fill-opacity="1.000000" fill-rule="nonzero"/>
	<path id="Vector" d="M98.65 236.16L98.65 250.15L84.67 250.15L84.67 236.16L98.65 236.16Z" stroke="#263238" stroke-opacity="1.000000" stroke-width="1.000000"/>
	<path id="Vector" d="M116.5 236.16L102.51 236.16L102.51 250.15L116.5 250.15L116.5 236.16Z" fill="#FFFFFF" fill-opacity="1.000000" fill-rule="nonzero"/>
	<path id="Vector" d="M116.5 236.16L116.5 250.15L102.51 250.15L102.51 236.16L116.5 236.16Z" stroke="#263238" stroke-opacity="1.000000" stroke-width="1.000000"/>
	<path id="Vector" d="M134.34 236.16L120.36 236.16L120.36 250.15L134.34 250.15L134.34 236.16Z" fill="#FFFFFF" fill-opacity="1.000000" fill-rule="nonzero"/>
	<path id="Vector" d="M134.34 236.16L134.34 250.15L120.36 250.15L120.36 236.16L134.34 236.16Z" stroke="#263238" stroke-opacity="1.000000" stroke-width="1.000000"/>
	<path id="Vector" d="M152.2 236.16L138.22 236.16L138.22 250.15L152.2 250.15L152.2 236.16Z" fill="#FFFFFF" fill-opacity="1.000000" fill-rule="nonzero"/>
	<path id="Vector" d="M152.2 236.16L152.2 250.15L138.22 250.15L138.22 236.16L152.2 236.16Z" stroke="#263238" stroke-opacity="1.000000" stroke-width="1.000000"/>
	<path id="Vector" d="M170.05 236.16L156.07 236.16L156.07 250.15L170.05 250.15L170.05 236.16Z" fill="#FFFFFF" fill-opacity="1.000000" fill-rule="nonzero"/>
	<path id="Vector" d="M170.05 236.16L170.05 250.15L156.07 250.15L156.07 236.16L170.05 236.16Z" stroke="#263238" stroke-opacity="1.000000" stroke-width="1.000000"/>
	<path id="Vector" d="M187.89 236.16L173.91 236.16L173.91 250.15L187.89 250.15L187.89 236.16Z" fill="#FFFFFF" fill-opacity="1.000000" fill-rule="nonzero"/>
	<path id="Vector" d="M187.89 236.16L187.89 250.15L173.91 250.15L173.91 236.16L187.89 236.16Z" stroke="#263238" stroke-opacity="1.000000" stroke-width="1.000000"/>
	<path id="Vector" d="M205.75 236.16L191.77 236.16L191.77 250.15L205.75 250.15L205.75 236.16Z" fill="#FFFFFF" fill-opacity="1.000000" fill-rule="nonzero"/>
	<path id="Vector" d="M205.75 236.16L205.75 250.15L191.77 250.15L191.77 236.16L205.75 236.16Z" stroke="#263238" stroke-opacity="1.000000" stroke-width="1.000000"/>
	<path id="Vector" d="M223.6 236.16L209.62 236.16L209.62 250.15L223.6 250.15L223.6 236.16Z" fill="#FFFFFF" fill-opacity="1.000000" fill-rule="nonzero"/>
	<path id="Vector" d="M223.6 236.16L223.6 250.15L209.62 250.15L209.62 236.16L223.6 236.16Z" stroke="#263238" stroke-opacity="1.000000" stroke-width="1.000000"/>
	<path id="Vector" d="M241.46 236.16L227.48 236.16L227.48 250.15L241.46 250.15L241.46 236.16Z" fill="#FFFFFF" fill-opacity="1.000000" fill-rule="nonzero"/>
	<path id="Vector" d="M241.46 236.16L241.46 250.15L227.48 250.15L227.48 236.16L241.46 236.16Z" stroke="#263238" stroke-opacity="1.000000" stroke-width="1.000000"/>
	<path id="Vector" d="M259.31 236.16L245.32 236.16L245.32 250.15L259.31 250.15L259.31 236.16Z" fill="#FFFFFF" fill-opacity="1.000000" fill-rule="nonzero"/>
	<path id="Vector" d="M259.31 236.16L259.31 250.15L245.32 250.15L245.32 236.16L259.31 236.16Z" stroke="#263238" stroke-opacity="1.000000" stroke-width="1.000000"/>
	<path id="Vector" d="M277.15 236.16L263.17 236.16L263.17 250.15L277.15 250.15L277.15 236.16Z" fill="#FFFFFF" fill-opacity="1.000000" fill-rule="nonzero"/>
	<path id="Vector" d="M277.15 236.16L277.15 250.15L263.17 250.15L263.17 236.16L277.15 236.16Z" stroke="#263238" stroke-opacity="1.000000" stroke-width="1.000000"/>
	<path id="Vector" d="M295.01 236.16L281.03 236.16L281.03 250.15L295.01 250.15L295.01 236.16Z" fill="#FFFFFF" fill-opacity="1.000000" fill-rule="nonzero"/>
	<path id="Vector" d="M295.01 236.16L295.01 250.15L281.03 250.15L281.03 236.16L295.01 236.16Z" stroke="#263238" stroke-opacity="1.000000" stroke-width="1.000000"/>
	<path id="Vector" d="M80.79 304.55L66.81 304.55L66.81 318.54L80.79 318.54L80.79 304.55Z" fill="#FFFFFF" fill-opacity="1.000000" fill-rule="nonzero"/>
	<path id="Vector" d="M80.79 304.55L80.79 318.54L66.81 318.54L66.81 304.55L80.79 304.55Z" stroke="#263238" stroke-opacity="1.000000" stroke-width="1.000000"/>
	<path id="Vector" d="M98.65 304.55L84.67 304.55L84.67 318.54L98.65 318.54L98.65 304.55Z" fill="#FFFFFF" fill-opacity="1.000000" fill-rule="nonzero"/>
	<path id="Vector" d="M98.65 304.55L98.65 318.54L84.67 318.54L84.67 304.55L98.65 304.55Z" stroke="#263238" stroke-opacity="1.000000" stroke-width="1.000000"/>
	<path id="Vector" d="M116.5 304.55L102.51 304.55L102.51 318.54L116.5 318.54L116.5 304.55Z" fill="#FFFFFF" fill-opacity="1.000000" fill-rule="nonzero"/>
	<path id="Vector" d="M116.5 304.55L116.5 318.54L102.51 318.54L102.51 304.55L116.5 304.55Z" stroke="#263238" stroke-opacity="1.000000" stroke-width="1.000000"/>
	<path id="Vector" d="M137.43 304.55L120.36 304.55L120.36 318.54L137.43 318.54L137.43 304.55Z" fill="#FFFFFF" fill-opacity="1.000000" fill-rule="nonzero"/>
	<path id="Vector" d="M137.43 304.55L137.43 318.54L120.36 318.54L120.36 304.55L137.43 304.55Z" stroke="#263238" stroke-opacity="1.000000" stroke-width="1.000000"/>
	<path id="Vector" d="M226.68 304.55L141.29 304.55L141.29 318.54L226.68 318.54L226.68 304.55Z" fill="#FFFFFF" fill-opacity="1.000000" fill-rule="nonzero"/>
	<path id="Vector" d="M226.68 304.55L226.68 318.54L141.29 318.54L141.29 304.55L226.68 304.55Z" stroke="#263238" stroke-opacity="1.000000" stroke-width="1.000000"/>
	<path id="Vector" d="M287.22 304.55L273.24 304.55L273.24 318.54L287.22 318.54L287.22 304.55Z" fill="#FFFFFF" fill-opacity="1.000000" fill-rule="nonzero"/>
	<path id="Vector" d="M287.22 304.55L287.22 318.54L273.24 318.54L273.24 304.55L287.22 304.55Z" stroke="#263238" stroke-opacity="1.000000" stroke-width="1.000000"/>
	<path id="Vector" d="M305.1 304.55L291.12 304.55L291.12 318.54L305.1 318.54L305.1 304.55Z" fill="#FFFFFF" fill-opacity="1.000000" fill-rule="nonzero"/>
	<path id="Vector" d="M305.1 304.55L305.1 318.54L291.12 318.54L291.12 304.55L305.1 304.55Z" stroke="#263238" stroke-opacity="1.000000" stroke-width="1.000000"/>
	<path id="Vector" d="M251.89 304.55L230.18 304.55L230.18 318.54L251.89 318.54L251.89 304.55Z" fill="#FFFFFF" fill-opacity="1.000000" fill-rule="nonzero"/>
	<path id="Vector" d="M251.89 304.55L251.89 318.54L230.18 318.54L230.18 304.55L251.89 304.55Z" stroke="#263238" stroke-opacity="1.000000" stroke-width="1.000000"/>
	<path id="Vector" d="M323.52 304.55L309.54 304.55L309.54 318.54L323.52 318.54L323.52 304.55Z" fill="#FFFFFF" fill-opacity="1.000000" fill-rule="nonzero"/>
	<path id="Vector" d="M323.52 304.55L323.52 318.54L309.54 318.54L309.54 304.55L323.52 304.55Z" stroke="#263238" stroke-opacity="1.000000" stroke-width="1.000000"/>
	<path id="Vector" d="M105.21 253.21L91.23 253.21L91.23 267.2L105.21 267.2L105.21 253.21Z" fill="#FFFFFF" fill-opacity="1.000000" fill-rule="nonzero"/>
	<path id="Vector" d="M105.21 253.21L105.21 267.2L91.23 267.2L91.23 253.21L105.21 253.21Z" stroke="#263238" stroke-opacity="1.000000" stroke-width="1.000000"/>
	<path id="Vector" d="M123.06 253.21L109.08 253.21L109.08 267.2L123.06 267.2L123.06 253.21Z" fill="#FFFFFF" fill-opacity="1.000000" fill-rule="nonzero"/>
	<path id="Vector" d="M123.06 253.21L123.06 267.2L109.08 267.2L109.08 253.21L123.06 253.21Z" stroke="#263238" stroke-opacity="1.000000" stroke-width="1.000000"/>
	<path id="Vector" d="M140.92 253.21L126.94 253.21L126.94 267.2L140.92 267.2L140.92 253.21Z" fill="#FFFFFF" fill-opacity="1.000000" fill-rule="nonzero"/>
	<path id="Vector" d="M140.92 253.21L140.92 267.2L126.94 267.2L126.94 253.21L140.92 253.21Z" stroke="#263238" stroke-opacity="1.000000" stroke-width="1.000000"/>
	<path id="Vector" d="M158.77 253.21L144.78 253.21L144.78 267.2L158.77 267.2L158.77 253.21Z" fill="#FFFFFF" fill-opacity="1.000000" fill-rule="nonzero"/>
	<path id="Vector" d="M158.77 253.21L158.77 267.2L144.78 267.2L144.78 253.21L158.77 253.21Z" stroke="#263238" stroke-opacity="1.000000" stroke-width="1.000000"/>
	<path id="Vector" d="M176.63 253.21L162.64 253.21L162.64 267.2L176.63 267.2L176.63 253.21Z" fill="#FFFFFF" fill-opacity="1.000000" fill-rule="nonzero"/>
	<path id="Vector" d="M176.63 253.21L176.63 267.2L162.64 267.2L162.64 253.21L176.63 253.21Z" stroke="#263238" stroke-opacity="1.000000" stroke-width="1.000000"/>
	<path id="Vector" d="M194.47 253.21L180.49 253.21L180.49 267.2L194.47 267.2L194.47 253.21Z" fill="#FFFFFF" fill-opacity="1.000000" fill-rule="nonzero"/>
	<path id="Vector" d="M194.47 253.21L194.47 267.2L180.49 267.2L180.49 253.21L194.47 253.21Z" stroke="#263238" stroke-opacity="1.000000" stroke-width="1.000000"/>
	<path id="Vector" d="M212.32 253.21L198.34 253.21L198.34 267.2L212.32 267.2L212.32 253.21Z" fill="#FFFFFF" fill-opacity="1.000000" fill-rule="nonzero"/>
	<path id="Vector" d="M212.32 253.21L212.32 267.2L198.34 267.2L198.34 253.21L212.32 253.21Z" stroke="#263238" stroke-opacity="1.000000" stroke-width="1.000000"/>
	<path id="Vector" d="M230.18 253.21L216.2 253.21L216.2 267.2L230.18 267.2L230.18 253.21Z" fill="#FFFFFF" fill-opacity="1.000000" fill-rule="nonzero"/>
	<path id="Vector" d="M230.18 253.21L230.18 267.2L216.2 267.2L216.2 253.21L230.18 253.21Z" stroke="#263238" stroke-opacity="1.000000" stroke-width="1.000000"/>
	<path id="Vector" d="M248.02 253.21L234.04 253.21L234.04 267.2L248.02 267.2L248.02 253.21Z" fill="#FFFFFF" fill-opacity="1.000000" fill-rule="nonzero"/>
	<path id="Vector" d="M248.02 253.21L248.02 267.2L234.04 267.2L234.04 253.21L248.02 253.21Z" stroke="#263238" stroke-opacity="1.000000" stroke-width="1.000000"/>
	<path id="Vector" d="M265.87 253.21L251.89 253.21L251.89 267.2L265.87 267.2L265.87 253.21Z" fill="#FFFFFF" fill-opacity="1.000000" fill-rule="nonzero"/>
	<path id="Vector" d="M265.87 253.21L265.87 267.2L251.89 267.2L251.89 253.21L265.87 253.21Z" stroke="#263238" stroke-opacity="1.000000" stroke-width="1.000000"/>
	<path id="Vector" d="M283.73 253.21L269.75 253.21L269.75 267.2L283.73 267.2L283.73 253.21Z" fill="#FFFFFF" fill-opacity="1.000000" fill-rule="nonzero"/>
	<path id="Vector" d="M283.73 253.21L283.73 267.2L269.75 267.2L269.75 253.21L283.73 253.21Z" stroke="#263238" stroke-opacity="1.000000" stroke-width="1.000000"/>
	<path id="Vector" d="M301.58 253.21L287.59 253.21L287.59 267.2L301.58 267.2L301.58 253.21Z" fill="#FFFFFF" fill-opacity="1.000000" fill-rule="nonzero"/>
	<path id="Vector" d="M301.58 253.21L301.58 267.2L287.59 267.2L287.59 253.21L301.58 253.21Z" stroke="#263238" stroke-opacity="1.000000" stroke-width="1.000000"/>
	<path id="Vector" d="M323.52 253.21L323.52 284.26L309.54 284.26L309.54 267.2L305.44 267.2L305.44 253.21L323.52 253.21Z" fill="#FFFFFF" fill-opacity="1.000000" fill-rule="nonzero"/>
	<path id="Vector" d="M323.52 284.26L309.54 284.26L309.54 267.2L305.44 267.2L305.44 253.21L323.52 253.21L323.52 284.26Z" stroke="#263238" stroke-opacity="1.000000" stroke-width="1.000000"/>
	<path id="Vector" d="M109.31 270.26L95.33 270.26L95.33 284.24L109.31 284.24L109.31 270.26Z" fill="#FFFFFF" fill-opacity="1.000000" fill-rule="nonzero"/>
	<path id="Vector" d="M109.31 270.26L109.31 284.24L95.33 284.24L95.33 270.26L109.31 270.26Z" stroke="#263238" stroke-opacity="1.000000" stroke-width="1.000000"/>
	<path id="Vector" d="M127.16 270.26L113.18 270.26L113.18 284.24L127.16 284.24L127.16 270.26Z" fill="#FFFFFF" fill-opacity="1.000000" fill-rule="nonzero"/>
	<path id="Vector" d="M127.16 270.26L127.16 284.24L113.18 284.24L113.18 270.26L127.16 270.26Z" stroke="#263238" stroke-opacity="1.000000" stroke-width="1.000000"/>
	<path id="Vector" d="M145.01 270.26L131.02 270.26L131.02 284.24L145.01 284.24L145.01 270.26Z" fill="#FFFFFF" fill-opacity="1.000000" fill-rule="nonzero"/>
	<path id="Vector" d="M145.01 270.26L145.01 284.24L131.02 284.24L131.02 270.26L145.01 270.26Z" stroke="#263238" stroke-opacity="1.000000" stroke-width="1.000000"/>
	<path id="Vector" d="M162.86 270.26L148.88 270.26L148.88 284.24L162.86 284.24L162.86 270.26Z" fill="#FFFFFF" fill-opacity="1.000000" fill-rule="nonzero"/>
	<path id="Vector" d="M162.86 270.26L162.86 284.24L148.88 284.24L148.88 270.26L162.86 270.26Z" stroke="#263238" stroke-opacity="1.000000" stroke-width="1.000000"/>
	<path id="Vector" d="M180.71 270.26L166.73 270.26L166.73 284.24L180.71 284.24L180.71 270.26Z" fill="#FFFFFF" fill-opacity="1.000000" fill-rule="nonzero"/>
	<path id="Vector" d="M180.71 270.26L180.71 284.24L166.73 284.24L166.73 270.26L180.71 270.26Z" stroke="#263238" stroke-opacity="1.000000" stroke-width="1.000000"/>
	<path id="Vector" d="M198.57 270.26L184.59 270.26L184.59 284.24L198.57 284.24L198.57 270.26Z" fill="#FFFFFF" fill-opacity="1.000000" fill-rule="nonzero"/>
	<path id="Vector" d="M198.57 270.26L198.57 284.24L184.59 284.24L184.59 270.26L198.57 270.26Z" stroke="#263238" stroke-opacity="1.000000" stroke-width="1.000000"/>
	<path id="Vector" d="M216.42 270.26L202.43 270.26L202.43 284.24L216.42 284.24L216.42 270.26Z" fill="#FFFFFF" fill-opacity="1.000000" fill-rule="nonzero"/>
	<path id="Vector" d="M216.42 270.26L216.42 284.24L202.43 284.24L202.43 270.26L216.42 270.26Z" stroke="#263238" stroke-opacity="1.000000" stroke-width="1.000000"/>
	<path id="Vector" d="M234.26 270.26L220.28 270.26L220.28 284.24L234.26 284.24L234.26 270.26Z" fill="#FFFFFF" fill-opacity="1.000000" fill-rule="nonzero"/>
	<path id="Vector" d="M234.26 270.26L234.26 284.24L220.28 284.24L220.28 270.26L234.26 270.26Z" stroke="#263238" stroke-opacity="1.000000" stroke-width="1.000000"/>
	<path id="Vector" d="M252.12 270.26L238.14 270.26L238.14 284.24L252.12 284.24L252.12 270.26Z" fill="#FFFFFF" fill-opacity="1.000000" fill-rule="nonzero"/>
	<path id="Vector" d="M252.12 270.26L252.12 284.24L238.14 284.24L238.14 270.26L252.12 270.26Z" stroke="#263238" stroke-opacity="1.000000" stroke-width="1.000000"/>
	<path id="Vector" d="M269.97 270.26L255.99 270.26L255.99 284.24L269.97 284.24L269.97 270.26Z" fill="#FFFFFF" fill-opacity="1.000000" fill-rule="nonzero"/>
	<path id="Vector" d="M269.97 270.26L269.97 284.24L255.99 284.24L255.99 270.26L269.97 270.26Z" stroke="#263238" stroke-opacity="1.000000" stroke-width="1.000000"/>
	<path id="Vector" d="M287.82 270.26L273.83 270.26L273.83 284.24L287.82 284.24L287.82 270.26Z" fill="#FFFFFF" fill-opacity="1.000000" fill-rule="nonzero"/>
	<path id="Vector" d="M287.82 270.26L287.82 284.24L273.83 284.24L273.83 270.26L287.82 270.26Z" stroke="#263238" stroke-opacity="1.000000" stroke-width="1.000000"/>
	<path id="Vector" d="M305.67 270.26L291.69 270.26L291.69 284.24L305.67 284.24L305.67 270.26Z" fill="#FFFFFF" fill-opacity="1.000000" fill-rule="nonzero"/>
	<path id="Vector" d="M305.67 270.26L305.67 284.24L291.69 284.24L291.69 270.26L305.67 270.26Z" stroke="#263238" stroke-opacity="1.000000" stroke-width="1.000000"/>
	<path id="Vector" d="M101.72 287.31L87.74 287.31L87.74 301.29L101.72 301.29L101.72 287.31Z" fill="#FFFFFF" fill-opacity="1.000000" fill-rule="nonzero"/>
	<path id="Vector" d="M101.72 287.31L101.72 301.29L87.74 301.29L87.74 287.31L101.72 287.31Z" stroke="#263238" stroke-opacity="1.000000" stroke-width="1.000000"/>
	<path id="Vector" d="M119.57 287.31L105.59 287.31L105.59 301.29L119.57 301.29L119.57 287.31Z" fill="#FFFFFF" fill-opacity="1.000000" fill-rule="nonzero"/>
	<path id="Vector" d="M119.57 287.31L119.57 301.29L105.59 301.29L105.59 287.31L119.57 287.31Z" stroke="#263238" stroke-opacity="1.000000" stroke-width="1.000000"/>
	<path id="Vector" d="M137.43 287.31L123.45 287.31L123.45 301.29L137.43 301.29L137.43 287.31Z" fill="#FFFFFF" fill-opacity="1.000000" fill-rule="nonzero"/>
	<path id="Vector" d="M137.43 287.31L137.43 301.29L123.45 301.29L123.45 287.31L137.43 287.31Z" stroke="#263238" stroke-opacity="1.000000" stroke-width="1.000000"/>
	<path id="Vector" d="M155.27 287.31L141.29 287.31L141.29 301.29L155.27 301.29L155.27 287.31Z" fill="#FFFFFF" fill-opacity="1.000000" fill-rule="nonzero"/>
	<path id="Vector" d="M155.27 287.31L155.27 301.29L141.29 301.29L141.29 287.31L155.27 287.31Z" stroke="#263238" stroke-opacity="1.000000" stroke-width="1.000000"/>
	<path id="Vector" d="M173.13 287.31L159.15 287.31L159.15 301.29L173.13 301.29L173.13 287.31Z" fill="#FFFFFF" fill-opacity="1.000000" fill-rule="nonzero"/>
	<path id="Vector" d="M173.13 287.31L173.13 301.29L159.15 301.29L159.15 287.31L173.13 287.31Z" stroke="#263238" stroke-opacity="1.000000" stroke-width="1.000000"/>
	<path id="Vector" d="M190.98 287.31L177 287.31L177 301.29L190.98 301.29L190.98 287.31Z" fill="#FFFFFF" fill-opacity="1.000000" fill-rule="nonzero"/>
	<path id="Vector" d="M190.98 287.31L190.98 301.29L177 301.29L177 287.31L190.98 287.31Z" stroke="#263238" stroke-opacity="1.000000" stroke-width="1.000000"/>
	<path id="Vector" d="M208.83 287.31L194.84 287.31L194.84 301.29L208.83 301.29L208.83 287.31Z" fill="#FFFFFF" fill-opacity="1.000000" fill-rule="nonzero"/>
	<path id="Vector" d="M208.83 287.31L208.83 301.29L194.84 301.29L194.84 287.31L208.83 287.31Z" stroke="#263238" stroke-opacity="1.000000" stroke-width="1.000000"/>
	<path id="Vector" d="M226.68 287.31L212.7 287.31L212.7 301.29L226.68 301.29L226.68 287.31Z" fill="#FFFFFF" fill-opacity="1.000000" fill-rule="nonzero"/>
	<path id="Vector" d="M226.68 287.31L226.68 301.29L212.7 301.29L212.7 287.31L226.68 287.31Z" stroke="#263238" stroke-opacity="1.000000" stroke-width="1.000000"/>
	<path id="Vector" d="M244.53 287.31L230.55 287.31L230.55 301.29L244.53 301.29L244.53 287.31Z" fill="#FFFFFF" fill-opacity="1.000000" fill-rule="nonzero"/>
	<path id="Vector" d="M244.53 287.31L244.53 301.29L230.55 301.29L230.55 287.31L244.53 287.31Z" stroke="#263238" stroke-opacity="1.000000" stroke-width="1.000000"/>
	<path id="Vector" d="M262.38 287.31L248.4 287.31L248.4 301.29L262.38 301.29L262.38 287.31Z" fill="#FFFFFF" fill-opacity="1.000000" fill-rule="nonzero"/>
	<path id="Vector" d="M262.38 287.31L262.38 301.29L248.4 301.29L248.4 287.31L262.38 287.31Z" stroke="#263238" stroke-opacity="1.000000" stroke-width="1.000000"/>
	<path id="Vector" d="M280.24 287.31L266.26 287.31L266.26 301.29L280.24 301.29L280.24 287.31Z" fill="#FFFFFF" fill-opacity="1.000000" fill-rule="nonzero"/>
	<path id="Vector" d="M280.24 287.31L280.24 301.29L266.26 301.29L266.26 287.31L280.24 287.31Z" stroke="#263238" stroke-opacity="1.000000" stroke-width="1.000000"/>
	<path id="Vector" d="M109.31 219.96L95.33 219.96L95.33 233.94L109.31 233.94L109.31 219.96Z" fill="#FFFFFF" fill-opacity="1.000000" fill-rule="nonzero"/>
	<path id="Vector" d="M109.31 219.96L109.31 233.94L95.33 233.94L95.33 219.96L109.31 219.96Z" stroke="#263238" stroke-opacity="1.000000" stroke-width="1.000000"/>
	<path id="Vector" d="M127.16 219.96L113.18 219.96L113.18 233.94L127.16 233.94L127.16 219.96Z" fill="#FFFFFF" fill-opacity="1.000000" fill-rule="nonzero"/>
	<path id="Vector" d="M127.16 219.96L127.16 233.94L113.18 233.94L113.18 219.96L127.16 219.96Z" stroke="#263238" stroke-opacity="1.000000" stroke-width="1.000000"/>
	<path id="Vector" d="M145.01 219.96L131.02 219.96L131.02 233.94L145.01 233.94L145.01 219.96Z" fill="#FFFFFF" fill-opacity="1.000000" fill-rule="nonzero"/>
	<path id="Vector" d="M145.01 219.96L145.01 233.94L131.02 233.94L131.02 219.96L145.01 219.96Z" stroke="#263238" stroke-opacity="1.000000" stroke-width="1.000000"/>
	<path id="Vector" d="M162.86 219.96L148.88 219.96L148.88 233.94L162.86 233.94L162.86 219.96Z" fill="#FFFFFF" fill-opacity="1.000000" fill-rule="nonzero"/>
	<path id="Vector" d="M162.86 219.96L162.86 233.94L148.88 233.94L148.88 219.96L162.86 219.96Z" stroke="#263238" stroke-opacity="1.000000" stroke-width="1.000000"/>
	<path id="Vector" d="M180.71 219.96L166.73 219.96L166.73 233.94L180.71 233.94L180.71 219.96Z" fill="#FFFFFF" fill-opacity="1.000000" fill-rule="nonzero"/>
	<path id="Vector" d="M180.71 219.96L180.71 233.94L166.73 233.94L166.73 219.96L180.71 219.96Z" stroke="#263238" stroke-opacity="1.000000" stroke-width="1.000000"/>
	<path id="Vector" d="M198.57 219.96L184.59 219.96L184.59 233.94L198.57 233.94L198.57 219.96Z" fill="#FFFFFF" fill-opacity="1.000000" fill-rule="nonzero"/>
	<path id="Vector" d="M198.57 219.96L198.57 233.94L184.59 233.94L184.59 219.96L198.57 219.96Z" stroke="#263238" stroke-opacity="1.000000" stroke-width="1.000000"/>
	<path id="Vector" d="M216.42 219.96L202.43 219.96L202.43 233.94L216.42 233.94L216.42 219.96Z" fill="#FFFFFF" fill-opacity="1.000000" fill-rule="nonzero"/>
	<path id="Vector" d="M216.42 219.96L216.42 233.94L202.43 233.94L202.43 219.96L216.42 219.96Z" stroke="#263238" stroke-opacity="1.000000" stroke-width="1.000000"/>
	<path id="Vector" d="M234.26 219.96L220.28 219.96L220.28 233.94L234.26 233.94L234.26 219.96Z" fill="#FFFFFF" fill-opacity="1.000000" fill-rule="nonzero"/>
	<path id="Vector" d="M234.26 219.96L234.26 233.94L220.28 233.94L220.28 219.96L234.26 219.96Z" stroke="#263238" stroke-opacity="1.000000" stroke-width="1.000000"/>
	<path id="Vector" d="M252.12 219.96L238.14 219.96L238.14 233.94L252.12 233.94L252.12 219.96Z" fill="#FFFFFF" fill-opacity="1.000000" fill-rule="nonzero"/>
	<path id="Vector" d="M252.12 219.96L252.12 233.94L238.14 233.94L238.14 219.96L252.12 219.96Z" stroke="#263238" stroke-opacity="1.000000" stroke-width="1.000000"/>
	<path id="Vector" d="M269.97 219.96L255.99 219.96L255.99 233.94L269.97 233.94L269.97 219.96Z" fill="#FFFFFF" fill-opacity="1.000000" fill-rule="nonzero"/>
	<path id="Vector" d="M269.97 219.96L269.97 233.94L255.99 233.94L255.99 219.96L269.97 219.96Z" stroke="#263238" stroke-opacity="1.000000" stroke-width="1.000000"/>
	<path id="Vector" d="M287.82 219.96L273.83 219.96L273.83 233.94L287.82 233.94L287.82 219.96Z" fill="#FFFFFF" fill-opacity="1.000000" fill-rule="nonzero"/>
	<path id="Vector" d="M287.82 219.96L287.82 233.94L273.83 233.94L273.83 219.96L287.82 219.96Z" stroke="#263238" stroke-opacity="1.000000" stroke-width="1.000000"/>
	<path id="Vector" d="M305.67 219.96L291.69 219.96L291.69 233.94L305.67 233.94L305.67 219.96Z" fill="#FFFFFF" fill-opacity="1.000000" fill-rule="nonzero"/>
	<path id="Vector" d="M305.67 219.96L305.67 233.94L291.69 233.94L291.69 219.96L305.67 219.96Z" stroke="#263238" stroke-opacity="1.000000" stroke-width="1.000000"/>
	<path id="Vector" d="M323.52 219.96L309.54 219.96L309.54 233.94L323.52 233.94L323.52 219.96Z" fill="#FFFFFF" fill-opacity="1.000000" fill-rule="nonzero"/>
	<path id="Vector" d="M323.52 219.96L323.52 233.94L309.54 233.94L309.54 219.96L323.52 219.96Z" stroke="#263238" stroke-opacity="1.000000" stroke-width="1.000000"/>
	<path id="Vector" d="M83.75 287.31L66.81 287.31L66.81 301.29L83.75 301.29L83.75 287.31Z" fill="#FFFFFF" fill-opacity="1.000000" fill-rule="nonzero"/>
	<path id="Vector" d="M83.75 287.31L83.75 301.29L66.81 301.29L66.81 287.31L83.75 287.31Z" stroke="#263238" stroke-opacity="1.000000" stroke-width="1.000000"/>
	<path id="Vector" d="M61.2 212.99L66.81 211.12L326.09 211.12L329.79 212.97L61.2 212.99Z" fill="#263238" fill-opacity="1.000000" fill-rule="nonzero"/>
	<path id="Vector" d="M296.35 347.02L296.49 295.54C297.05 293.47 297.5 285.83 298.69 280.51C300.72 271.59 292.75 260.83 292.19 260.48C289.96 259.08 285.21 259.1 285.21 259.1C285.21 259.1 280.55 253.79 276.4 252.12C273.54 251.1 270.5 250.73 267.48 251.01C264.28 248.37 260.71 246.21 256.88 244.59C255.39 244.03 253.76 243.89 252.19 244.18C250.62 244.48 249.16 245.2 247.97 246.27L242.73 254.42C241.96 255.58 241.62 256.96 241.74 258.34C241.87 259.72 242.47 261.02 243.44 262.01C245.93 264.46 249.12 263.32 250.73 263.32C252.95 263.32 253.79 260.8 253.79 260.8C253.79 260.8 254.33 273.9 253.79 275.58C253.22 277.25 249.05 281.15 249.05 281.15L235.08 262.71C230.28 256.2 226.09 249.28 222.54 242.01C222.14 241.12 221.61 240.3 220.97 239.56C218.52 236.8 213.3 235.99 211.93 241.11C211.6 242.75 211.68 244.45 212.16 246.05C217.98 263.26 225.4 276.27 232.17 289.82C236.18 297.87 234.69 297.77 236.7 301.41C236.46 301.57 236.58 301.87 236.32 302.02C235.35 305.94 234.66 309.86 233.67 313.77C232.85 308.86 231.35 304.09 229.21 299.59C229.78 296.87 229.98 294.08 229.83 291.3C229.65 288.49 228.4 285.86 226.34 283.95C225.18 283.02 223.76 282.46 222.27 282.37C221.21 282.3 220.16 282.63 219.33 283.3C218.5 283.98 217.96 284.93 217.8 285.99C217.57 288.12 217.18 290.23 216.64 292.3C215.75 295.01 214.67 297.65 213.43 300.21C213.43 305.41 216.64 304.56 218.98 325.45C220.79 341.75 241.75 352.48 253.16 364.23L266.67 404.15C283.67 396.15 290.67 392.15 305.17 381.15L296.35 347.02Z" fill="#FFFFFF" fill-opacity="1.000000" fill-rule="nonzero"/>
	<path id="Vector" d="M226.63 318.84C226.77 318.58 226.88 318.33 227 318.06C226.88 318.15 226.78 318.26 226.71 318.4C226.65 318.54 226.62 318.69 226.63 318.84Z" fill="#92E3A9" fill-opacity="1.000000" fill-rule="nonzero"/>
	<path id="Vector" d="M260.19 246.81C258.59 245.56 256.69 244.75 254.68 244.48L260.19 246.81Z" fill="#92E3A9" fill-opacity="1.000000" fill-rule="nonzero"/>
	<path id="Vector" d="M253.98 252.26L254.05 252.84C254.1 252.64 254.07 252.44 253.98 252.26Z" fill="#92E3A9" fill-opacity="1.000000" fill-rule="nonzero"/>
	<g opacity="0.500000">
		<g opacity="0.500000">
			<path id="Vector" d="M226.63 318.84C226.77 318.58 226.88 318.33 227 318.06C226.88 318.15 226.78 318.26 226.71 318.4C226.65 318.54 226.62 318.69 226.63 318.84Z" fill="#FFFFFF" fill-opacity="1.000000" fill-rule="nonzero"/>
		</g>
		<g opacity="0.500000">
			<path id="Vector" d="M260.19 246.81C258.59 245.56 256.69 244.75 254.68 244.48L260.19 246.81Z" fill="#FFFFFF" fill-opacity="1.000000" fill-rule="nonzero"/>
		</g>
		<g opacity="0.500000">
			<path id="Vector" d="M253.98 252.26L254.05 252.84C254.1 252.64 254.07 252.44 253.98 252.26Z" fill="#FFFFFF" fill-opacity="1.000000" fill-rule="nonzero"/>
		</g>
		<g opacity="0.500000">
			<path id="Vector" d="M260.4 302.76C259.88 301.45 257.34 297.7 255.86 300.3L260.4 302.76Z" fill="#FFFFFF" fill-opacity="1.000000" fill-rule="nonzero"/>
		</g>
	</g>
	<path id="Vector" d="M217.12 296.49C215.76 297.56 214.61 298.86 213.7 300.32L217.12 296.49Z" fill="#FFFFFF" fill-opacity="1.000000" fill-rule="nonzero"/>
	<path id="Vector" d="M266.67 404.15L253.27 364.19C241.87 352.44 220.91 341.7 219.09 325.42C216.77 304.53 213.54 305.38 213.54 300.17C214.79 297.61 215.86 294.97 216.75 292.27C217.3 290.19 217.69 288.08 217.92 285.96C218.07 284.9 218.62 283.94 219.45 283.27C220.27 282.6 221.33 282.26 222.39 282.33C223.87 282.43 225.29 282.98 226.45 283.92C228.52 285.82 229.77 288.46 229.94 291.26C230.1 294.04 229.89 296.83 229.33 299.56C231.47 304.05 232.97 308.83 233.79 313.74C234.78 309.82 235.46 305.9 236.44 301.99C236.7 301.84 236.58 301.54 236.81 301.37C234.81 297.74 236.3 297.88 232.28 289.79C225.52 276.23 218.1 263.23 212.27 246.02C211.79 244.41 211.72 242.72 212.05 241.08C213.41 235.95 218.64 236.77 221.09 239.53C221.72 240.27 222.25 241.09 222.66 241.97C226.2 249.24 230.4 256.17 235.2 262.68L249.17 281.11C249.17 281.11 253.33 277.21 253.9 275.54C254.45 273.87 253.9 260.77 253.9 260.77C253.9 260.77 253.07 263.28 250.84 263.28C249.24 263.28 246.05 264.45 243.55 261.98C242.58 261 241.96 259.72 241.81 258.35C241.66 256.97 241.99 255.59 242.73 254.42L247.93 246.27C249.12 245.2 250.58 244.48 252.16 244.18C253.73 243.89 255.35 244.03 256.85 244.59C260.67 246.21 264.24 248.37 267.44 251.01C270.46 250.73 273.5 251.1 276.36 252.12C280.55 253.81 285.17 259.1 285.17 259.1C285.17 259.1 289.91 259.1 292.16 260.48C292.72 260.83 300.68 271.59 298.65 280.51C297.49 285.83 297.01 293.47 296.45 295.54L296.31 347.02L305.67 381.15" stroke="#263238" stroke-opacity="1.000000" stroke-width="1.000000"/>
	<path id="Vector" d="M268.76 252.83C270.81 260.42 271.87 268.25 271.93 276.12C271.86 277.43 272 278.75 272.34 280.03C272.52 280.66 272.86 281.24 273.33 281.7C273.8 282.17 274.38 282.51 275.01 282.68" stroke="#263238" stroke-opacity="1.000000" stroke-width="1.000000"/>
	<path id="Vector" d="M285.22 260.48C288.71 267.77 285.14 284.04 285.39 285.2C285.5 285.78 285.74 286.33 286.08 286.81C286.42 287.29 286.85 287.69 287.36 287.99" stroke="#263238" stroke-opacity="1.000000" stroke-width="1.000000"/>
	<path id="Vector" d="M255.21 251.83C254.8 254.15 254.46 256.83 254.04 259.15C252.69 257.98 251.58 256.56 250.78 254.96C249.98 253.36 249.51 251.62 249.39 249.83" stroke="#263238" stroke-opacity="1.000000" stroke-width="1.000000"/>
	<path id="Vector" d="M232.9 313.96L230.39 315.07" stroke="#263238" stroke-opacity="1.000000" stroke-width="1.000000"/>
	<path id="Vector" d="M233.54 315.97C233.14 317.92 233.14 319.92 233.54 321.87" stroke="#263238" stroke-opacity="1.000000" stroke-width="1.000000"/>
	<path id="Vector" d="M248.26 294.21L251.04 299.23" stroke="#263238" stroke-opacity="1.000000" stroke-width="1.000000"/>
	<path id="Vector" d="M253.61 275.85L256.38 271.94" stroke="#263238" stroke-opacity="1.000000" stroke-width="1.000000"/>
	<path id="Vector" d="M292.58 294.21L291.74 297.28" stroke="#263238" stroke-opacity="1.000000" stroke-width="1.000000"/>
	<path id="Vector" d="M285.8 285.86C286.58 283.25 287.4 280.65 288.26 278.04" stroke="#263238" stroke-opacity="1.000000" stroke-width="1.000000"/>
	<path id="Vector" d="M293.95 271.95C294.69 271.56 295.55 271.48 296.34 271.73C297.14 271.98 297.8 272.53 298.19 273.26" stroke="#263238" stroke-opacity="1.000000" stroke-width="1.000000"/>
	<path id="Vector" d="M277.27 258.58C278.24 258.31 279.25 258.28 280.23 258.51C281.21 258.73 282.12 259.2 282.87 259.86" stroke="#263238" stroke-opacity="1.000000" stroke-width="1.000000"/>
	<path id="Vector" d="M225.42 266.35C226.32 265.35 227.44 264.59 228.7 264.12C229.95 263.65 231.3 263.47 232.63 263.62" stroke="#263238" stroke-opacity="1.000000" stroke-width="1.000000"/>
	<path id="Vector" d="M214.9 244.39C215.74 243.78 216.68 243.35 217.68 243.12C218.68 242.88 219.71 242.85 220.72 243.01" stroke="#263238" stroke-opacity="1.000000" stroke-width="1.000000"/>
	<path id="Vector" d="M217.12 296.49C215.76 297.56 214.61 298.86 213.7 300.32" stroke="#263238" stroke-opacity="1.000000" stroke-width="1.000000"/>
	<path id="Vector" d="M218.19 291.2C220.03 289.89 222.96 292.82 224.65 291.32C224.95 290.99 225.16 290.58 225.26 290.14C225.36 289.7 225.34 289.24 225.22 288.81C224.97 287.94 224.86 287.04 224.88 286.14" stroke="#263238" stroke-opacity="1.000000" stroke-width="1.000000"/>
	<path id="Vector" d="M270.1 283.13C272.34 287.78 272.79 293.09 271.38 298.05" stroke="#263238" stroke-opacity="1.000000" stroke-width="1.000000"/>
	<path id="Vector" d="M283.62 290.31C283.99 292.51 283.58 294.77 282.46 296.7" stroke="#263238" stroke-opacity="1.000000" stroke-width="1.000000"/>
	<path id="Vector" d="M166.62 289.66C166.12 287.33 162.85 287.69 162.85 287.69C151.85 288.33 150.37 305.57 150.37 305.57L146.42 317.39L145.26 299.62L145.37 276.72C145.37 276.72 148.7 254.8 147.22 251.37C146.89 250.42 146.27 249.6 145.46 249C144.65 248.41 143.68 248.07 142.67 248.04C136.27 246.43 135.9 255.67 135.9 255.67L130.49 274.51L128.21 294.83L126.37 293.84C126.37 293.84 125.5 272.28 125.87 271.92C126.25 271.56 128.46 257.02 128.46 257.02C128.46 257.02 129.62 254.32 131.17 250.87C131.61 249.9 131.83 248.85 131.83 247.79C131.83 246.73 131.61 245.68 131.17 244.71C128.57 239.41 123.17 241.88 122.05 244.71C120.74 247.58 119.27 250.38 117.63 253.08L111.46 269.95C111.69 273.77 109.5 292.6 109.5 292.6L107.28 291.6L103.71 280.54L106.43 269.21C106.43 269.21 112.38 262.69 111.34 258.85C110.31 255 105.31 256.14 105.31 256.14L95.23 268.2L92.26 268.2L85.28 277.07C82.11 286.59 81.54 296.78 83.64 306.59L85.24 314.07L85.24 362.48C85.24 362.48 80.46 370.23 80.46 370.97C80.46 371.31 75.93 379.52 73.17 387.15C85.19 395.01 98.17 401.65 113.67 408.15C118.08 395.72 125.6 378.75 128.46 375.65C134.12 369.49 145.2 357.67 145.2 357.67C145.2 357.67 157.78 337.44 159.26 330.71C160.42 325.19 163.43 315.18 164.45 311.75C164.69 310.97 164.79 310.15 164.73 309.33C164.65 307.52 164.48 303.99 164.48 300.88C164.48 296.39 167.1 291.95 166.62 289.66Z" fill="#FFFFFF" fill-opacity="1.000000" fill-rule="nonzero"/>
	<path id="Vector" d="M73.17 387.15C76.67 379.15 81.58 367.99 81.58 367.65C81.58 366.92 86.37 359.16 86.37 359.16L86.37 310.77L84.76 303.33C82.66 293.54 83.22 283.38 86.37 273.88L93.35 265.01L96.32 265.01L106.4 252.96C106.4 252.96 111.45 251.79 112.43 255.66C113.41 259.52 107.52 266 107.52 266L104.79 277.33L108.37 288.39L110.59 289.39C110.59 289.39 112.78 270.56 112.55 266.74L118.72 249.87C120.35 247.17 121.83 244.37 123.14 241.5C124.31 238.67 129.66 236.2 132.26 241.5C132.7 242.47 132.92 243.52 132.92 244.58C132.92 245.64 132.7 246.69 132.26 247.66C130.77 251.15 129.55 253.81 129.55 253.81C129.55 253.81 127.33 268.34 126.96 268.71C126.59 269.08 127.46 290.62 127.46 290.62L129.3 291.61L131.52 271.29L136.93 252.45C136.93 252.45 137.3 243.22 143.7 244.83C144.71 244.86 145.68 245.2 146.49 245.79C147.3 246.39 147.92 247.21 148.25 248.16C149.73 251.59 146.4 273.51 146.4 273.51L146.29 296.41L147.45 314.18L151.4 302.36C151.4 302.36 152.88 285.12 163.88 284.48C163.88 284.48 167.15 284.14 167.65 286.44C168.15 288.75 165.51 293.17 165.51 297.61C165.51 300.72 165.68 304.25 165.76 306.06C165.82 306.88 165.72 307.7 165.48 308.48C164.46 311.91 161.51 321.92 160.29 327.44C158.81 334.17 146.23 354.4 146.23 354.4C146.23 354.4 135.14 366.22 129.49 372.38C126.64 375.48 118.08 395.72 113.67 408.15" stroke="#263238" stroke-opacity="1.000000" stroke-width="1.000000"/>
	<path id="Vector" d="M110.43 291.17C110.74 292.33 110.75 293.54 110.46 294.71C110.17 295.87 109.58 296.94 108.77 297.81" fill="#FFFFFF" fill-opacity="1.000000" fill-rule="nonzero"/>
	<path id="Vector" d="M110.43 291.17C110.74 292.33 110.75 293.54 110.46 294.71C110.17 295.87 109.58 296.94 108.77 297.81" stroke="#263238" stroke-opacity="1.000000" stroke-width="1.000000"/>
	<path id="Vector" d="M91.65 307.45C93.25 304.97 94.81 301.57 94.38 298.66C93.54 292.94 90.88 286.36 92.11 280.7C92.85 277.09 93.61 273.47 94.35 269.86" fill="#FFFFFF" fill-opacity="1.000000" fill-rule="nonzero"/>
	<path id="Vector" d="M91.65 307.45C93.25 304.97 94.81 301.57 94.38 298.66C93.54 292.94 90.88 286.36 92.11 280.7C92.85 277.09 93.61 273.47 94.35 269.86" stroke="#263238" stroke-opacity="1.000000" stroke-width="1.000000"/>
	<path id="Vector" d="M138.07 253.44C139.97 252.94 141.98 252.94 143.89 253.44C143.89 252.91 143.89 252.37 143.89 251.83" stroke="#263238" stroke-opacity="1.000000" stroke-width="1.000000"/>
	<path id="Vector" d="M122.82 246.17C123.38 246.55 124.03 246.78 124.71 246.82C125.39 246.86 126.07 246.71 126.67 246.38C127.27 246.06 127.78 245.58 128.12 245C128.47 244.41 128.65 243.74 128.64 243.06" stroke="#263238" stroke-opacity="1.000000" stroke-width="1.000000"/>
	<path id="Vector" d="M164.86 286.6C163.25 287.01 161.83 287.97 160.86 289.32C159.88 290.66 159.41 292.31 159.51 293.97L162.36 294.82" stroke="#263238" stroke-opacity="1.000000" stroke-width="1.000000"/>
	<path id="Vector" d="M127.39 288.02C127.52 289.97 127.28 294.64 127.39 296.59" fill="#FFFFFF" fill-opacity="1.000000" fill-rule="nonzero"/>
	<path id="Vector" d="M127.39 288.02C127.52 289.97 127.28 294.64 127.39 296.59" stroke="#263238" stroke-opacity="1.000000" stroke-width="1.000000"/>
	<path id="Vector" d="M129.53 290.72C129.3 293.92 129.06 297.13 128.82 300.32C128.82 299.92 128.82 299.51 128.82 299.1" fill="#FFFFFF" fill-opacity="1.000000" fill-rule="nonzero"/>
	<path id="Vector" d="M129.53 290.72C129.3 293.92 129.06 297.13 128.82 300.32C128.82 299.92 128.82 299.51 128.82 299.1" stroke="#263238" stroke-opacity="1.000000" stroke-width="1.000000"/>
	<path id="Vector" d="M147.26 317.71C148.11 321.25 147.72 324.97 146.17 328.26" fill="#FFFFFF" fill-opacity="1.000000" fill-rule="nonzero"/>
	<path id="Vector" d="M147.26 317.71C148.11 321.25 147.72 324.97 146.17 328.26" stroke="#263238" stroke-opacity="1.000000" stroke-width="1.000000"/>
	<path id="Vector" d="M117.79 300.93C115.25 303.71 115.62 310.38 117.41 314.06" stroke="#263238" stroke-opacity="1.000000" stroke-width="1.000000"/>
	<path id="Vector" d="M136.54 305.52C136.56 308.65 135.45 311.68 133.43 314.06" stroke="#263238" stroke-opacity="1.000000" stroke-width="1.000000"/>
	<path id="Vector" d="M99.3 302.26C98.88 305.09 99.49 307.99 101.04 310.41" stroke="#263238" stroke-opacity="1.000000" stroke-width="1.000000"/>
	<path id="Vector" d="M88.5 310.96C88.38 313.17 89.02 315.36 90.29 317.17" stroke="#263238" stroke-opacity="1.000000" stroke-width="1.000000"/>
	<path id="Vector" d="M103.3 257.26C103.97 256.96 104.72 256.86 105.44 256.98C106.17 257.1 106.84 257.43 107.38 257.93L108.85 256.02" stroke="#263238" stroke-opacity="1.000000" stroke-width="1.000000"/>
	<path id="Vector" d="M115.25 265.82C116.23 265.23 117.39 265.01 118.52 265.2C119.65 265.39 120.67 265.98 121.41 266.86" stroke="#263238" stroke-opacity="1.000000" stroke-width="1.000000"/>
	<path id="Vector" d="M133.9 271.64C134.95 271.18 136.08 270.95 137.23 270.97C138.37 271 139.5 271.27 140.52 271.78" stroke="#263238" stroke-opacity="1.000000" stroke-width="1.000000"/>
	<path id="Vector" d="M92.4 281.41C93.02 280.38 93.92 279.54 95 279C96.08 278.47 97.3 278.25 98.5 278.39" stroke="#263238" stroke-opacity="1.000000" stroke-width="1.000000"/>
	<path id="Vector" d="M84.58 292.54C84.62 291.79 84.92 291.07 85.42 290.51C85.92 289.95 86.6 289.57 87.34 289.45" stroke="#263238" stroke-opacity="1.000000" stroke-width="1.000000"/>
	<path id="Vector" d="M390.58 13.87L0 15.71L5.9 6.87C7.29 4.76 9.18 3.03 11.4 1.83C13.63 0.63 16.11 0 18.63 -3.06e-5L372.03 -3.06e-5C374.32 -0.01 376.58 0.51 378.64 1.49C380.71 2.48 382.52 3.92 383.95 5.7L390.58 13.87Z" fill="#FFFFFF" fill-opacity="1.000000" fill-rule="nonzero"/>
	<path id="Vector" d="M0 15.71L5.9 6.87C7.29 4.76 9.18 3.03 11.4 1.83C13.63 0.63 16.11 0 18.63 -3.06e-5L372.03 -3.06e-5C374.32 -0.01 376.58 0.51 378.64 1.49C380.71 2.48 382.52 3.92 383.95 5.7L390.58 13.87L0 15.71Z" stroke="#263238" stroke-opacity="1.000000" stroke-width="1.000000" stroke-linejoin="round"/>
	<path id="Vector" d="M202.07 72.43L180.68 72.43C158.72 72.43 140.92 90.24 140.92 112.2L140.92 133.6C140.92 155.56 158.72 173.37 180.68 173.37L202.07 173.37C224.03 173.37 241.83 155.56 241.83 133.6L241.83 112.2C241.83 90.24 224.03 72.43 202.07 72.43Z" fill="#757575" fill-opacity="1.000000" fill-rule="nonzero"/>
	<path id="Vector" d="M202.07 72.43C224.03 72.43 241.83 90.24 241.83 112.2L241.83 133.6C241.83 155.56 224.03 173.37 202.07 173.37L180.68 173.37C158.72 173.37 140.92 155.56 140.92 133.6L140.92 112.2C140.92 90.24 158.72 72.43 180.68 72.43L202.07 72.43Z" stroke="#263238" stroke-opacity="1.000000" stroke-width="1.000000" stroke-linejoin="round"/>
	<path id="Vector" d="M159.25 131.44L159.25 145.78C159.25 147.94 160.11 150.02 161.64 151.55C163.17 153.07 165.24 153.93 167.4 153.93L216.61 153.93C218.77 153.93 220.83 153.08 222.36 151.57C223.88 150.05 224.75 147.99 224.76 145.84C224.83 139.38 225.17 131.44 225.17 131.44L159.25 131.44Z" fill="#999999" fill-opacity="1.000000" fill-rule="nonzero"/>
	<path id="Vector" d="M159.25 145.78C159.25 147.94 160.11 150.02 161.64 151.55C163.17 153.07 165.24 153.93 167.4 153.93L216.61 153.93C218.77 153.93 220.83 153.08 222.36 151.57C223.88 150.05 224.75 147.99 224.76 145.84C224.83 139.38 225.17 131.44 225.17 131.44L159.25 131.44L159.25 145.78Z" stroke="#263238" stroke-opacity="1.000000" stroke-width="1.000000" stroke-linejoin="round"/>
	<path id="Vector" d="M339.35 136.22L51.57 136.22C50.09 136.22 48.64 135.78 47.42 134.95C46.19 134.12 45.24 132.94 44.7 131.56L0.31 17.58C0.04 16.89 -0.06 16.14 0.03 15.41C0.11 14.67 0.37 13.97 0.79 13.36C1.21 12.75 1.77 12.25 2.42 11.91C3.08 11.56 3.81 11.38 4.55 11.38L386.4 11.38C387.13 11.39 387.86 11.58 388.5 11.93C389.15 12.27 389.7 12.77 390.11 13.38C390.52 13.99 390.78 14.69 390.86 15.42C390.94 16.15 390.85 16.89 390.58 17.58L346.19 131.53C345.65 132.91 344.71 134.09 343.49 134.93C342.27 135.76 340.83 136.22 339.35 136.22Z" fill="#FFFFFF" fill-opacity="1.000000" fill-rule="nonzero"/>
	<path id="Vector" d="M51.57 136.22C50.09 136.22 48.64 135.78 47.42 134.95C46.19 134.12 45.24 132.94 44.7 131.56L0.31 17.58C0.04 16.89 -0.06 16.14 0.03 15.41C0.11 14.67 0.37 13.97 0.79 13.36C1.21 12.75 1.77 12.25 2.42 11.91C3.08 11.56 3.81 11.38 4.55 11.38L386.4 11.38C387.13 11.39 387.86 11.58 388.5 11.93C389.15 12.27 389.7 12.77 390.11 13.38C390.52 13.99 390.78 14.69 390.86 15.42C390.94 16.15 390.85 16.89 390.58 17.58L346.19 131.53C345.65 132.91 344.71 134.09 343.49 134.93C342.27 135.76 340.83 136.22 339.35 136.22L51.57 136.22Z" stroke="#263238" stroke-opacity="1.000000" stroke-width="1.000000" stroke-linejoin="round"/>
	<path id="Vector" d="M341.5 126.29L48.74 126.29L8.46 18.6L381.59 18.6L341.5 126.29Z" fill="#FFFFFF" fill-opacity="1.000000" fill-rule="nonzero"/>
	<path id="Vector" d="M159.57 136.07L224.83 136.07L224.83 140.54L159.57 140.54L159.57 136.07Z" fill="#263238" fill-opacity="1.000000" fill-rule="evenodd"/>
	<path id="Vector" d="M298.74 121.68L92 121.68C90.84 121.68 89.79 121.17 89.58 120.51L60.17 27.07C59.85 26.02 60.77 25.17 62.23 25.17L328.5 25.17C329.97 25.17 330.89 26.02 330.55 27.07L301.16 120.51C300.94 121.15 299.87 121.68 298.74 121.68Z" fill="#38BFF2" fill-opacity="1.000000" fill-rule="nonzero"/>
	<path id="Vector" d="M296.66 119.55L94.1 119.55C93.72 119.55 93.35 119.43 93.04 119.2C92.74 118.97 92.51 118.65 92.41 118.29L68.47 39.74C68.38 39.47 68.36 39.18 68.4 38.91C68.45 38.63 68.56 38.36 68.72 38.13C68.89 37.91 69.11 37.72 69.36 37.6C69.61 37.47 69.89 37.4 70.17 37.41L320.56 37.41C320.85 37.4 321.13 37.47 321.38 37.6C321.63 37.72 321.85 37.91 322.01 38.13C322.18 38.36 322.29 38.63 322.33 38.91C322.38 39.18 322.35 39.47 322.26 39.74L298.35 118.29C298.24 118.65 298.02 118.97 297.72 119.2C297.41 119.43 297.04 119.55 296.66 119.55Z" fill="#263238" fill-opacity="1.000000" fill-rule="nonzero"/>
	<path id="Vector" d="M122.22 57.83L83.37 57.83C82.41 57.83 81.78 58.34 81.96 59C82.15 59.37 82.45 59.68 82.81 59.89C83.18 60.1 83.6 60.19 84.01 60.16L122.64 60.16C123.6 60.16 124.27 59.65 124.17 59C124.06 58.34 123.18 57.83 122.22 57.83Z" fill="#FFFFFF" fill-opacity="1.000000" fill-rule="nonzero"/>
	<path id="Vector" d="M123.51 64.92L90.48 64.92C89.53 64.92 88.91 65.42 89.08 66.09C89.26 66.46 89.54 66.77 89.89 66.97C90.25 67.18 90.66 67.28 91.07 67.25L123.98 67.25C124.92 67.25 125.59 66.75 125.48 66.09C125.38 65.42 124.46 64.92 123.51 64.92Z" fill="#FFFFFF" fill-opacity="1.000000" fill-rule="nonzero"/>
	<g opacity="0.500000">
		<path id="Vector" d="M124.77 71.77L87.29 71.77C86.35 71.77 85.75 72.25 85.91 72.84C86.1 73.2 86.39 73.49 86.74 73.68C87.09 73.88 87.49 73.97 87.89 73.94L125.14 73.94C126.06 73.94 126.73 73.46 126.62 72.86C126.52 72.27 125.7 71.77 124.77 71.77Z" fill="#FFFFFF" fill-opacity="1.000000" fill-rule="nonzero"/>
	</g>
	<path id="Vector" d="M125.98 78.38L103.97 78.38C103.06 78.38 102.43 78.85 102.57 79.42C102.71 79.99 103.56 80.46 104.47 80.46L126.37 80.46C127.28 80.46 127.93 79.99 127.82 79.42C127.72 78.85 126.9 78.38 125.98 78.38Z" fill="#FFFFFF" fill-opacity="1.000000" fill-rule="nonzero"/>
	<path id="Vector" d="M127.16 84.77L90.93 84.77C90.04 84.77 89.44 85.22 89.6 85.77C89.77 86.31 90.6 86.77 91.5 86.77L127.59 86.77C128.47 86.77 129.12 86.33 129.02 85.77C128.93 85.21 128.06 84.77 127.16 84.77Z" fill="#FFFFFF" fill-opacity="1.000000" fill-rule="nonzero"/>
	<path id="Vector" d="M128.29 90.95L99.04 90.95C98.16 90.95 97.56 91.38 97.7 91.91C97.84 92.45 98.67 92.88 99.54 92.88L128.65 92.88C129.52 92.88 130.15 92.45 130.06 91.91C129.96 91.38 129.17 90.95 128.29 90.95Z" fill="#FFFFFF" fill-opacity="1.000000" fill-rule="nonzero"/>
	<path id="Vector" d="M129.38 96.92L100.62 96.92C99.74 96.92 99.16 97.34 99.3 97.85C99.44 98.37 100.24 98.8 101.1 98.8L129.73 98.8C130.59 98.8 131.21 98.38 131.12 97.85C131.02 97.33 130.25 96.92 129.38 96.92Z" fill="#FFFFFF" fill-opacity="1.000000" fill-rule="nonzero"/>
	<path id="Vector" d="M130.44 102.7L99.01 102.7C98.16 102.7 97.58 103.11 97.72 103.61C97.86 104.11 98.65 104.51 99.5 104.51L130.73 104.51C131.58 104.51 132.2 104.11 132.11 103.61C132.01 103.11 131.3 102.7 130.44 102.7Z" fill="#FFFFFF" fill-opacity="1.000000" fill-rule="nonzero"/>
	<g opacity="0.500000">
		<path id="Vector" d="M131.48 108.3L111.17 108.3C110.34 108.3 109.75 108.69 109.87 109.18C109.99 109.67 110.77 110.06 111.59 110.06L131.77 110.06C132.61 110.06 133.21 109.66 133.13 109.18C133.05 108.71 132.32 108.3 131.48 108.3Z" fill="#FFFFFF" fill-opacity="1.000000" fill-rule="nonzero"/>
	</g>
	<g opacity="0.500000">
		<path id="Vector" d="M120.87 50.47L91.92 50.47C90.94 50.47 90.29 51.01 90.46 51.64C90.65 52.02 90.95 52.33 91.32 52.54C91.68 52.74 92.1 52.84 92.52 52.8L121.3 52.8C122.28 52.8 122.97 52.27 122.85 51.64C122.69 51.26 122.41 50.94 122.05 50.73C121.7 50.52 121.28 50.43 120.87 50.47Z" fill="#FFFFFF" fill-opacity="1.000000" fill-rule="nonzero"/>
	</g>
	<path id="Vector" d="M119.46 42.85L79.16 42.85C78.17 42.85 77.52 43.39 77.72 44.08C77.91 44.47 78.22 44.8 78.6 45.02C78.98 45.24 79.42 45.34 79.86 45.31L119.93 45.31C120.91 45.31 121.62 44.77 121.49 44.08C121.36 43.39 120.49 42.85 119.46 42.85Z" fill="#FFFFFF" fill-opacity="1.000000" fill-rule="nonzero"/>
	<path id="Vector" d="M132.47 113.72L99.07 113.72C98.24 113.72 97.68 114.11 97.81 114.57C97.94 115.04 98.72 115.42 99.54 115.42L132.78 115.42C133.6 115.42 134.2 115.04 134.12 114.57C134.04 114.11 133.29 113.72 132.47 113.72Z" fill="#FFFFFF" fill-opacity="1.000000" fill-rule="nonzero"/>
	<g opacity="0.500000">
		<path id="Vector" d="M135.87 60.42L143.4 60.42L143.03 57.54L135.44 57.54L135.87 60.42Z" fill="#FFFFFF" fill-opacity="1.000000" fill-rule="nonzero"/>
	</g>
	<g opacity="0.500000">
		<path id="Vector" d="M136.91 67.42L144.32 67.42L143.96 64.64L136.5 64.64L136.91 67.42Z" fill="#FFFFFF" fill-opacity="1.000000" fill-rule="nonzero"/>
	</g>
	<g opacity="0.500000">
		<path id="Vector" d="M137.93 74.18L145.2 74.18L144.85 71.5L137.53 71.5L137.93 74.18Z" fill="#FFFFFF" fill-opacity="1.000000" fill-rule="nonzero"/>
	</g>
	<g opacity="0.500000">
		<path id="Vector" d="M138.92 80.71L146.07 80.71L145.72 78.12L138.52 78.12L138.92 80.71Z" fill="#FFFFFF" fill-opacity="1.000000" fill-rule="nonzero"/>
	</g>
	<g opacity="0.500000">
		<path id="Vector" d="M139.86 87.01L146.89 87.01L146.55 84.52L139.49 84.52L139.86 87.01Z" fill="#FFFFFF" fill-opacity="1.000000" fill-rule="nonzero"/>
	</g>
	<g opacity="0.500000">
		<path id="Vector" d="M140.78 93.11L147.68 93.11L147.37 90.7L140.41 90.7L140.78 93.11Z" fill="#FFFFFF" fill-opacity="1.000000" fill-rule="nonzero"/>
	</g>
	<g opacity="0.500000">
		<path id="Vector" d="M141.66 99.03L148.46 99.03L148.16 96.68L141.32 96.68L141.66 99.03Z" fill="#FFFFFF" fill-opacity="1.000000" fill-rule="nonzero"/>
	</g>
	<g opacity="0.500000">
		<path id="Vector" d="M142.51 104.74L149.21 104.74L148.92 102.48L142.18 102.48L142.51 104.74Z" fill="#FFFFFF" fill-opacity="1.000000" fill-rule="nonzero"/>
	</g>
	<g opacity="0.500000">
		<path id="Vector" d="M143.35 110.28L149.94 110.28L149.65 108.08L143.03 108.08L143.35 110.28Z" fill="#FFFFFF" fill-opacity="1.000000" fill-rule="nonzero"/>
	</g>
	<g opacity="0.500000">
		<path id="Vector" d="M134.77 53.16L142.44 53.16L142.06 50.17L134.33 50.17L134.77 53.16Z" fill="#FFFFFF" fill-opacity="1.000000" fill-rule="nonzero"/>
	</g>
	<g opacity="0.500000">
		<path id="Vector" d="M133.64 45.63L141.45 45.63L141.06 42.53L133.18 42.53L133.64 45.63Z" fill="#FFFFFF" fill-opacity="1.000000" fill-rule="nonzero"/>
	</g>
	<g opacity="0.500000">
		<path id="Vector" d="M144.16 115.63L150.64 115.63L150.36 113.5L143.84 113.5L144.16 115.63Z" fill="#FFFFFF" fill-opacity="1.000000" fill-rule="nonzero"/>
	</g>
	<path id="Vector" d="M183.87 103.61C183.87 103.11 184.52 102.7 185.37 102.7L296.92 102.7C297.77 102.7 298.35 103.11 298.2 103.61C298.02 103.91 297.75 104.16 297.43 104.32C297.12 104.48 296.76 104.55 296.41 104.51L185.43 104.51C184.58 104.51 183.88 104.11 183.87 103.61Z" fill="#FFFFFF" fill-opacity="1.000000" fill-rule="nonzero"/>
	<path id="Vector" d="M298.05 98.8L236.28 98.8C235.42 98.8 234.76 98.38 234.82 97.85C234.88 97.33 235.63 96.92 236.5 96.92L298.61 96.92C299.47 96.92 300.05 97.34 299.9 97.85C299.72 98.17 299.44 98.43 299.12 98.6C298.79 98.77 298.42 98.84 298.05 98.8Z" fill="#FFFFFF" fill-opacity="1.000000" fill-rule="nonzero"/>
	<g opacity="0.500000">
		<path id="Vector" d="M221.62 98.8L202.41 98.8C201.55 98.8 200.85 98.38 200.86 97.85C200.87 97.33 201.57 96.92 202.45 96.92L221.77 96.92C222.63 96.92 223.31 97.34 223.26 97.85C223.22 98.37 222.48 98.8 221.62 98.8Z" fill="#FFFFFF" fill-opacity="1.000000" fill-rule="nonzero"/>
	</g>
	<path id="Vector" d="M261.71 92.88L174.59 92.88C173.71 92.88 172.98 92.45 172.95 91.91C172.91 91.38 173.6 90.95 174.48 90.95L262.07 90.95C262.95 90.95 263.59 91.38 263.48 91.91C263.38 92.45 262.6 92.88 261.71 92.88Z" fill="#FFFFFF" fill-opacity="1.000000" fill-rule="nonzero"/>
	<g opacity="0.500000">
		<path id="Vector" d="M156.38 90.95L162.58 90.95C163.46 90.95 164.21 91.38 164.26 91.91C164.31 92.45 163.63 92.88 162.76 92.88L156.58 92.88C155.7 92.88 154.95 92.45 154.89 91.91C154.83 91.38 155.5 90.95 156.38 90.95Z" fill="#FFFFFF" fill-opacity="1.000000" fill-rule="nonzero"/>
	</g>
	<path id="Vector" d="M274.32 85.77C274.21 86.33 273.39 86.77 272.5 86.77L190.4 86.77C189.5 86.77 188.78 86.33 188.77 85.77C188.76 85.21 189.48 84.77 190.36 84.77L272.91 84.77C273.81 84.77 274.44 85.22 274.32 85.77Z" fill="#FFFFFF" fill-opacity="1.000000" fill-rule="nonzero"/>
	<path id="Vector" d="M155.72 84.77L179 84.77C179.9 84.77 180.64 85.22 180.66 85.77C180.69 86.31 179.98 86.77 179.09 86.77L155.93 86.77C155.04 86.77 154.27 86.33 154.2 85.77C154.13 85.21 154.82 84.77 155.72 84.77Z" fill="#FFFFFF" fill-opacity="1.000000" fill-rule="nonzero"/>
	<path id="Vector" d="M155.03 78.38L244.6 78.38C245.51 78.38 246.18 78.85 246.1 79.42C246.02 79.99 245.23 80.46 244.32 80.46L155.25 80.46C154.35 80.46 153.56 79.99 153.5 79.42C153.45 78.85 154.12 78.38 155.03 78.38Z" fill="#FFFFFF" fill-opacity="1.000000" fill-rule="nonzero"/>
	<path id="Vector" d="M213.18 73.94C212.26 73.94 211.54 73.46 211.56 72.86C211.59 72.27 212.35 71.79 213.29 71.79L260.54 71.79C261.47 71.79 262.13 72.27 262.03 72.86C261.92 73.46 261.1 73.94 260.18 73.94L213.18 73.94Z" fill="#FFFFFF" fill-opacity="1.000000" fill-rule="nonzero"/>
	<path id="Vector" d="M154.33 71.77L195.23 71.77C196.16 71.77 196.91 72.25 196.91 72.84C196.91 73.44 196.16 73.94 195.23 73.94L154.56 73.94C153.63 73.94 152.84 73.46 152.77 72.86C152.7 72.27 153.4 71.77 154.33 71.77Z" fill="#FFFFFF" fill-opacity="1.000000" fill-rule="nonzero"/>
	<path id="Vector" d="M307.13 67.15L194.54 67.15C193.61 67.15 192.84 66.65 192.84 65.98C192.84 65.32 193.6 64.82 194.54 64.82L307.76 64.82C308.7 64.82 309.32 65.32 309.14 65.98C308.96 66.35 308.67 66.66 308.31 66.87C307.95 67.08 307.54 67.17 307.13 67.15Z" fill="#FFFFFF" fill-opacity="1.000000" fill-rule="nonzero"/>
	<path id="Vector" d="M309.09 60.13L210.13 60.13C209.18 60.13 208.42 59.61 208.44 58.96C208.47 58.31 209.26 57.8 210.22 57.8L309.85 57.8C310.81 57.8 311.44 58.31 311.25 58.96C311.05 59.35 310.74 59.68 310.35 59.89C309.96 60.09 309.52 60.18 309.09 60.13Z" fill="#FFFFFF" fill-opacity="1.000000" fill-rule="nonzero"/>
	<g opacity="0.500000">
		<path id="Vector" d="M311.23 52.86L290.46 52.86C289.48 52.86 288.82 52.32 288.97 51.7C289.15 51.32 289.44 51 289.81 50.79C290.18 50.58 290.6 50.49 291.02 50.53L311.88 50.53C312.86 50.53 313.5 51.07 313.3 51.7C313.1 52.07 312.8 52.38 312.44 52.58C312.07 52.79 311.65 52.89 311.23 52.86Z" fill="#FFFFFF" fill-opacity="1.000000" fill-rule="nonzero"/>
	</g>
	<path id="Vector" d="M275.96 52.86L199.79 52.86C198.83 52.86 198.03 52.32 198.05 51.7C198.06 51.07 198.84 50.53 199.82 50.53L276.49 50.53C277.47 50.53 278.15 51.07 278.01 51.7C277.84 52.08 277.55 52.4 277.18 52.61C276.81 52.82 276.39 52.91 275.96 52.86Z" fill="#FFFFFF" fill-opacity="1.000000" fill-rule="nonzero"/>
	<path id="Vector" d="M158.22 108.3L228.57 108.3C229.41 108.3 230.05 108.69 229.99 109.18C229.93 109.67 229.23 110.06 228.4 110.06L158.42 110.06C157.58 110.06 156.86 109.66 156.81 109.18C156.76 108.71 157.38 108.3 158.22 108.3Z" fill="#FFFFFF" fill-opacity="1.000000" fill-rule="nonzero"/>
	<path id="Vector" d="M158.8 113.72L266.88 113.72C267.7 113.72 268.29 114.11 268.19 114.57C268.08 115.04 267.35 115.42 266.52 115.42L158.99 115.42C158.16 115.42 157.45 115.04 157.4 114.57C157.36 114.11 157.97 113.72 158.8 113.72Z" fill="#FFFFFF" fill-opacity="1.000000" fill-rule="nonzero"/>
	<path id="Vector" d="M272.18 45.31L217.12 45.31C216.13 45.31 215.36 44.77 215.39 44.08C215.43 43.39 216.25 42.85 217.26 42.85L272.65 42.85C273.65 42.85 274.35 43.39 274.22 44.08C274.05 44.48 273.77 44.81 273.4 45.03C273.04 45.25 272.61 45.35 272.18 45.31Z" fill="#FFFFFF" fill-opacity="1.000000" fill-rule="nonzero"/>
	<g opacity="0.500000">
		<path id="Vector" d="M201.56 45.31L151.5 45.31C150.51 45.31 149.65 44.77 149.57 44.08C149.49 43.39 150.23 42.85 151.23 42.85L201.59 42.85C202.57 42.85 203.38 43.39 203.37 44.08C203.35 44.77 202.55 45.31 201.56 45.31Z" fill="#FFFFFF" fill-opacity="1.000000" fill-rule="nonzero"/>
	</g>
	<g opacity="0.500000">
		<path id="Vector" d="M244.17 108.3C245.01 108.3 245.64 108.69 245.57 109.18C245.5 109.67 244.77 110.06 243.93 110.06L238.49 110.06C237.66 110.06 237.03 109.66 237.09 109.18C237.15 108.71 237.87 108.3 238.71 108.3L244.17 108.3Z" fill="#FFFFFF" fill-opacity="1.000000" fill-rule="nonzero"/>
	</g>
	<g opacity="0.500000">
		<path id="Vector" d="M177.45 103.61C177.45 104.11 176.81 104.51 175.96 104.51L168.56 104.51C167.71 104.51 166.99 104.11 166.95 103.61C166.92 103.11 167.57 102.7 168.42 102.7L175.86 102.7C176.72 102.7 177.43 103.11 177.45 103.61Z" fill="#FFFFFF" fill-opacity="1.000000" fill-rule="nonzero"/>
	</g>
	<g opacity="0.500000">
		<path id="Vector" d="M266.8 79.42C266.7 79.99 265.88 80.46 264.97 80.46L256.31 80.46C255.41 80.46 254.75 79.99 254.83 79.42C254.92 78.85 255.74 78.38 256.65 78.38L265.36 78.38C266.27 78.38 266.92 78.85 266.8 79.42Z" fill="#FFFFFF" fill-opacity="1.000000" fill-rule="nonzero"/>
	</g>
	<g opacity="0.500000">
		<path id="Vector" d="M293.82 84.77C294.72 84.77 295.32 85.22 295.17 85.77C294.99 86.1 294.72 86.37 294.39 86.55C294.05 86.73 293.68 86.8 293.3 86.77L286.4 86.77C285.5 86.77 284.89 86.33 285.02 85.77C285.2 85.43 285.47 85.16 285.8 84.98C286.13 84.8 286.51 84.73 286.89 84.77L293.82 84.77Z" fill="#FFFFFF" fill-opacity="1.000000" fill-rule="nonzero"/>
	</g>
	<g opacity="0.500000">
		<path id="Vector" d="M180.91 67.15C179.98 67.15 179.2 66.65 179.16 65.98C179.13 65.32 179.88 64.82 180.83 64.82L188.17 64.82C189.12 64.82 189.88 65.32 189.9 65.98C189.91 66.65 189.15 67.15 188.22 67.15L180.91 67.15Z" fill="#FFFFFF" fill-opacity="1.000000" fill-rule="nonzero"/>
	</g>
	<path id="Vector" d="M80.91 31.29C81.07 31.68 81.13 32.11 81.08 32.53C81.04 32.95 80.88 33.35 80.64 33.69C80.39 34.04 80.07 34.31 79.68 34.49C79.3 34.68 78.88 34.76 78.46 34.73C77.44 34.67 76.47 34.31 75.65 33.7C74.83 33.09 74.22 32.25 73.87 31.29C73.7 30.9 73.63 30.48 73.67 30.05C73.71 29.63 73.86 29.22 74.11 28.87C74.35 28.52 74.68 28.24 75.06 28.05C75.44 27.86 75.87 27.78 76.3 27.8C77.33 27.85 78.32 28.22 79.14 28.84C79.96 29.46 80.58 30.32 80.91 31.29Z" fill="#FFFFFF" fill-opacity="1.000000" fill-rule="nonzero"/>
	<path id="Vector" d="M90.34 31.35C90.48 31.75 90.53 32.18 90.46 32.6C90.4 33.02 90.24 33.42 89.98 33.76C89.73 34.1 89.39 34.37 89.01 34.55C88.62 34.73 88.2 34.8 87.77 34.78C86.77 34.73 85.8 34.37 85.01 33.76C84.21 33.15 83.61 32.31 83.3 31.35C83.15 30.95 83.1 30.52 83.15 30.09C83.21 29.67 83.37 29.26 83.62 28.92C83.88 28.57 84.21 28.29 84.6 28.11C84.99 27.92 85.41 27.84 85.84 27.86C86.86 27.91 87.84 28.27 88.64 28.89C89.45 29.52 90.04 30.38 90.34 31.35Z" fill="#FFFFFF" fill-opacity="1.000000" fill-rule="nonzero"/>
	<path id="Vector" d="M99.92 31.29C100.05 31.71 100.08 32.14 100 32.57C99.92 32.99 99.74 33.39 99.47 33.73C99.2 34.07 98.86 34.34 98.46 34.51C98.07 34.69 97.63 34.76 97.2 34.73C96.21 34.68 95.25 34.33 94.47 33.71C93.69 33.1 93.12 32.25 92.84 31.29C92.7 30.88 92.67 30.45 92.74 30.02C92.81 29.59 92.98 29.19 93.24 28.85C93.5 28.5 93.85 28.23 94.24 28.04C94.63 27.86 95.06 27.78 95.49 27.8C96.51 27.83 97.49 28.19 98.28 28.82C99.08 29.45 99.65 30.31 99.92 31.29Z" fill="#FFFFFF" fill-opacity="1.000000" fill-rule="nonzero"/>
	<path id="Vector" d="M91.72 173.03L67.17 173.03C65.62 173.03 64.14 173.64 63.05 174.73C61.96 175.83 61.35 177.31 61.35 178.85L61.35 190.81C61.35 192.35 61.96 193.83 63.05 194.93C64.14 196.02 65.62 196.63 67.17 196.63L73.58 196.63L78.45 207.66L85.31 196.63L91.72 196.63C93.26 196.63 94.75 196.02 95.84 194.93C96.93 193.83 97.54 192.35 97.54 190.81L97.54 178.8C97.53 177.27 96.91 175.8 95.82 174.72C94.73 173.64 93.26 173.03 91.72 173.03Z" fill="#FFFFFF" fill-opacity="1.000000" fill-rule="nonzero"/>
	<path id="Vector" d="M67.17 173.03C65.62 173.03 64.14 173.64 63.05 174.73C61.96 175.83 61.35 177.31 61.35 178.85L61.35 190.81C61.35 192.35 61.96 193.83 63.05 194.93C64.14 196.02 65.62 196.63 67.17 196.63L73.58 196.63L78.45 207.66L85.31 196.63L91.72 196.63C93.26 196.63 94.75 196.02 95.84 194.93C96.93 193.83 97.54 192.35 97.54 190.81L97.54 178.8C97.53 177.27 96.91 175.8 95.82 174.72C94.73 173.64 93.26 173.03 91.72 173.03L67.17 173.03Z" stroke="#263238" stroke-opacity="1.000000" stroke-width="1.000000" stroke-linejoin="round"/>
	<path id="Vector" d="M166.49 174.71L141.92 174.71C140.38 174.71 138.9 175.32 137.81 176.41C136.71 177.5 136.1 178.98 136.1 180.53L136.1 192.48C136.1 194.02 136.71 195.5 137.81 196.59C138.9 197.68 140.38 198.3 141.92 198.3L148.35 198.3L153.2 209.32L160.06 198.3L166.49 198.3C168.03 198.3 169.51 197.68 170.6 196.59C171.69 195.5 172.31 194.02 172.31 192.48L172.31 180.48C172.29 178.95 171.68 177.48 170.58 176.39C169.49 175.31 168.02 174.71 166.49 174.71Z" fill="#FFFFFF" fill-opacity="1.000000" fill-rule="nonzero"/>
	<path id="Vector" d="M141.92 174.71C140.38 174.71 138.9 175.32 137.81 176.41C136.71 177.5 136.1 178.98 136.1 180.53L136.1 192.48C136.1 194.02 136.71 195.5 137.81 196.59C138.9 197.68 140.38 198.3 141.92 198.3L148.35 198.3L153.2 209.32L160.06 198.3L166.49 198.3C168.03 198.3 169.51 197.68 170.6 196.59C171.69 195.5 172.31 194.02 172.31 192.48L172.31 180.48C172.29 178.95 171.68 177.48 170.58 176.39C169.49 175.31 168.02 174.71 166.49 174.71L141.92 174.71Z" stroke="#263238" stroke-opacity="1.000000" stroke-width="1.000000" stroke-linejoin="round"/>
	<path id="Vector" d="M238.97 174L214.4 174C212.86 174 211.38 174.61 210.29 175.7C209.2 176.79 208.58 178.27 208.58 179.82L208.58 191.78C208.58 193.32 209.2 194.8 210.29 195.89C211.38 196.99 212.86 197.6 214.4 197.6L220.83 197.6L225.68 208.63L232.54 197.6L238.97 197.6C240.51 197.6 241.99 196.99 243.08 195.89C244.17 194.8 244.79 193.32 244.79 191.78L244.79 179.77C244.78 178.24 244.16 176.77 243.07 175.68C241.98 174.6 240.5 174 238.97 174Z" fill="#FFFFFF" fill-opacity="1.000000" fill-rule="nonzero"/>
	<path id="Vector" d="M214.4 174C212.86 174 211.38 174.61 210.29 175.7C209.2 176.79 208.58 178.27 208.58 179.82L208.58 191.78C208.58 193.32 209.2 194.8 210.29 195.89C211.38 196.99 212.86 197.6 214.4 197.6L220.83 197.6L225.68 208.63L232.54 197.6L238.97 197.6C240.51 197.6 241.99 196.99 243.08 195.89C244.17 194.8 244.79 193.32 244.79 191.78L244.79 179.77C244.78 178.24 244.16 176.77 243.07 175.68C241.98 174.6 240.5 174 238.97 174L214.4 174Z" stroke="#263238" stroke-opacity="1.000000" stroke-width="1.000000" stroke-linejoin="round"/>
	<path id="Vector" d="M310.4 173.03L285.8 173.03C284.26 173.03 282.78 173.64 281.69 174.73C280.59 175.83 279.98 177.31 279.98 178.85L279.98 190.81C279.98 192.35 280.59 193.83 281.69 194.93C282.78 196.02 284.26 196.63 285.8 196.63L292.23 196.63L297.08 207.66L303.94 196.63L310.37 196.63C311.91 196.63 313.39 196.02 314.48 194.93C315.57 193.83 316.19 192.35 316.19 190.81L316.19 178.8C316.17 177.27 315.56 175.81 314.48 174.73C313.4 173.65 311.93 173.04 310.4 173.03Z" fill="#FFFFFF" fill-opacity="1.000000" fill-rule="nonzero"/>
	<path id="Vector" d="M285.8 173.03C284.26 173.03 282.78 173.64 281.69 174.73C280.59 175.83 279.98 177.31 279.98 178.85L279.98 190.81C279.98 192.35 280.59 193.83 281.69 194.93C282.78 196.02 284.26 196.63 285.8 196.63L292.23 196.63L297.08 207.66L303.94 196.63L310.37 196.63C311.91 196.63 313.39 196.02 314.48 194.93C315.57 193.83 316.19 192.35 316.19 190.81L316.19 178.8C316.17 177.27 315.56 175.81 314.48 174.73C313.4 173.65 311.93 173.04 310.4 173.03L285.8 173.03Z" stroke="#263238" stroke-opacity="1.000000" stroke-width="1.000000" stroke-linejoin="round"/>
	<path id="Vector" d="M294.93 181.91L301.82 181.91L301.82 183.39L294.93 183.39L294.93 181.91ZM294.93 185.54L301.82 185.54L301.82 187.04L294.93 187.04L294.93 185.54Z" fill="#263238" fill-opacity="1.000000" fill-rule="nonzero"/>
	<path id="Vector" d="M129.16 159.21L104.6 159.21C103.05 159.21 101.57 159.82 100.48 160.91C99.39 162 98.78 163.49 98.78 165.03L98.78 176.98C98.78 178.52 99.39 180 100.48 181.09C101.57 182.19 103.05 182.8 104.6 182.8L111.02 182.8L115.88 193.83L122.73 182.8L129.16 182.8C130.7 182.8 132.19 182.19 133.28 181.09C134.37 180 134.98 178.52 134.98 176.98L134.98 164.98C134.97 163.45 134.35 161.98 133.26 160.9C132.17 159.81 130.7 159.21 129.16 159.21Z" fill="#FFFFFF" fill-opacity="1.000000" fill-rule="nonzero"/>
	<path id="Vector" d="M104.6 159.21C103.05 159.21 101.57 159.82 100.48 160.91C99.39 162 98.78 163.49 98.78 165.03L98.78 176.98C98.78 178.52 99.39 180 100.48 181.09C101.57 182.19 103.05 182.8 104.6 182.8L111.02 182.8L115.88 193.83L122.73 182.8L129.16 182.8C130.7 182.8 132.19 182.19 133.28 181.09C134.37 180 134.98 178.52 134.98 176.98L134.98 164.98C134.97 163.45 134.35 161.98 133.26 160.9C132.17 159.81 130.7 159.21 129.16 159.21L104.6 159.21Z" stroke="#263238" stroke-opacity="1.000000" stroke-width="1.000000" stroke-linejoin="round"/>
	<path id="Vector" d="M202.18 157.98L177.61 157.98C176.07 157.98 174.59 158.6 173.5 159.69C172.41 160.78 171.79 162.26 171.79 163.81L171.79 175.71C171.79 177.25 172.41 178.73 173.5 179.82C174.59 180.92 176.07 181.53 177.61 181.53L184.04 181.53L188.91 192.56L195.76 181.53L202.18 181.53C203.72 181.53 205.2 180.92 206.29 179.82C207.39 178.73 208 177.25 208 175.71L208 163.76C207.99 162.22 207.37 160.75 206.28 159.67C205.19 158.59 203.71 157.98 202.18 157.98Z" fill="#FFFFFF" fill-opacity="1.000000" fill-rule="nonzero"/>
	<path id="Vector" d="M177.61 157.98C176.07 157.98 174.59 158.6 173.5 159.69C172.41 160.78 171.79 162.26 171.79 163.81L171.79 175.71C171.79 177.25 172.41 178.73 173.5 179.82C174.59 180.92 176.07 181.53 177.61 181.53L184.04 181.53L188.91 192.56L195.76 181.53L202.18 181.53C203.72 181.53 205.2 180.92 206.29 179.82C207.39 178.73 208 177.25 208 175.71L208 163.76C207.99 162.22 207.37 160.75 206.28 159.67C205.19 158.59 203.71 157.98 202.18 157.98L177.61 157.98Z" stroke="#263238" stroke-opacity="1.000000" stroke-width="1.000000" stroke-linejoin="round"/>
	<path id="Vector" d="M274.43 155.56L249.86 155.56C248.32 155.56 246.84 156.18 245.75 157.27C244.66 158.36 244.04 159.84 244.04 161.38L244.04 173.33C244.04 174.88 244.66 176.36 245.75 177.45C246.84 178.54 248.32 179.15 249.86 179.15L256.28 179.15L261.14 190.18L268 179.15L274.43 179.15C275.97 179.15 277.45 178.54 278.54 177.45C279.64 176.36 280.25 174.88 280.25 173.33L280.25 161.34C280.24 159.8 279.62 158.33 278.53 157.25C277.44 156.17 275.96 155.56 274.43 155.56Z" fill="#FFFFFF" fill-opacity="1.000000" fill-rule="nonzero"/>
	<path id="Vector" d="M249.86 155.56C248.32 155.56 246.84 156.18 245.75 157.27C244.66 158.36 244.04 159.84 244.04 161.38L244.04 173.33C244.04 174.88 244.66 176.36 245.75 177.45C246.84 178.54 248.32 179.15 249.86 179.15L256.28 179.15L261.14 190.18L268 179.15L274.43 179.15C275.97 179.15 277.45 178.54 278.54 177.45C279.64 176.36 280.25 174.88 280.25 173.33L280.25 161.34C280.24 159.8 279.62 158.33 278.53 157.25C277.44 156.17 275.96 155.56 274.43 155.56L249.86 155.56Z" stroke="#263238" stroke-opacity="1.000000" stroke-width="1.000000" stroke-linejoin="round"/>
	<path id="Vector" d="M178.41 364.51L202.96 364.51C204.5 364.51 205.98 363.89 207.08 362.8C208.17 361.71 208.78 360.23 208.78 358.69L208.78 346.77C208.76 345.24 208.14 343.77 207.05 342.69C205.96 341.61 204.49 341.01 202.96 341.01L196.54 341.01L194.67 329.98L184.82 341.01L178.41 341.01C176.87 341.01 175.4 341.61 174.31 342.69C173.22 343.77 172.6 345.24 172.59 346.77L172.59 358.73C172.6 360.27 173.22 361.74 174.31 362.82C175.4 363.9 176.87 364.51 178.41 364.51Z" fill="#FFFFFF" fill-opacity="1.000000" fill-rule="nonzero"/>
	<path id="Vector" d="M202.96 364.51C204.5 364.51 205.98 363.89 207.08 362.8C208.17 361.71 208.78 360.23 208.78 358.69L208.78 346.77C208.76 345.24 208.14 343.77 207.05 342.69C205.96 341.61 204.49 341.01 202.96 341.01L196.54 341.01L194.67 329.98L184.82 341.01L178.41 341.01C176.87 341.01 175.4 341.61 174.31 342.69C173.22 343.77 172.6 345.24 172.59 346.77L172.59 358.73C172.6 360.27 173.22 361.74 174.31 362.82C175.4 363.9 176.87 364.51 178.41 364.51L202.96 364.51Z" stroke="#263238" stroke-opacity="1.000000" stroke-width="1.000000" stroke-linejoin="round"/>
	<path id="Vector" d="M22.27 277.47L46.82 277.47C48.36 277.47 49.84 276.85 50.93 275.76C52.03 274.67 52.64 273.19 52.64 271.64L52.64 259.74C52.64 258.2 52.03 256.72 50.93 255.63C49.84 254.54 48.36 253.92 46.82 253.92L40.4 253.92L41.8 242.89L28.68 253.92L22.27 253.92C20.72 253.92 19.24 254.54 18.15 255.63C17.06 256.72 16.44 258.2 16.44 259.74L16.44 271.69C16.46 273.23 17.08 274.7 18.17 275.78C19.26 276.86 20.73 277.47 22.27 277.47Z" fill="#FFFFFF" fill-opacity="1.000000" fill-rule="nonzero"/>
	<path id="Vector" d="M46.82 277.47C48.36 277.47 49.84 276.85 50.93 275.76C52.03 274.67 52.64 273.19 52.64 271.64L52.64 259.74C52.64 258.2 52.03 256.72 50.93 255.63C49.84 254.54 48.36 253.92 46.82 253.92L40.4 253.92L41.8 242.89L28.68 253.92L22.27 253.92C20.72 253.92 19.24 254.54 18.15 255.63C17.06 256.72 16.44 258.2 16.44 259.74L16.44 271.69C16.46 273.23 17.08 274.7 18.17 275.78C19.26 276.86 20.73 277.47 22.27 277.47L46.82 277.47Z" stroke="#263238" stroke-opacity="1.000000" stroke-width="1.000000" stroke-linejoin="round"/>
	<path id="Vector" d="M29.54 269.89C29.54 269.58 29.66 269.28 29.88 269.06C30.1 268.84 30.4 268.72 30.71 268.72C31.02 268.72 31.31 268.84 31.53 269.06C31.75 269.28 31.87 269.58 31.87 269.89C31.87 270.19 31.75 270.49 31.53 270.71C31.31 270.93 31.02 271.05 30.71 271.05C30.4 271.05 30.1 270.93 29.88 270.71C29.66 270.49 29.54 270.19 29.54 269.89ZM29.68 260.48L31.89 260.48L31.52 267.46L30.01 267.46L29.68 260.48Z" fill="#263238" fill-opacity="1.000000" fill-rule="nonzero"/>
	<path id="Vector" d="M33.79 263.16L40.68 263.16L40.68 264.66L33.79 264.66L33.79 263.16ZM33.79 266.78L40.68 266.78L40.68 268.28L33.79 268.28L33.79 266.78Z" fill="#263238" fill-opacity="1.000000" fill-rule="nonzero"/>
	<path id="BYN" d="M71.21 191L68.05 191L68.05 182.27L71.1 182.27C72.93 182.27 73.78 183.31 73.78 184.59C73.78 185.71 73.12 186.21 72.37 186.41L72.37 186.5C73.16 186.55 74.12 187.3 74.12 188.68C74.12 189.99 73.27 191 71.21 191ZM78.26 187.4L75.11 182.27L76.32 182.27L78.74 186.34L78.84 186.34L81.26 182.27L82.47 182.27L79.32 187.4L79.32 191L78.26 191L78.26 187.4ZM89.72 182.27L90.76 182.27L90.76 191L89.73 191L84.98 184.14L84.89 184.14L84.89 191L83.84 191L83.84 182.27L84.86 182.27L89.63 189.14L89.72 189.14L89.72 182.27ZM69.11 183.21L69.11 186.1L71.07 186.1C72.02 186.1 72.77 185.51 72.77 184.59C72.77 183.82 72.26 183.21 71.1 183.21L69.11 183.21ZM69.11 187.02L69.11 190.06L71.21 190.06C72.58 190.06 73.12 189.45 73.12 188.68C73.12 187.79 72.4 187.02 71.26 187.02L69.11 187.02Z" fill="#000000" fill-opacity="1.000000" fill-rule="evenodd"/>
	<path id="EURO" d="M129.31 168.15C131.54 168.15 133.16 169.87 133.16 172.63C133.16 175.39 131.54 177.12 129.31 177.12C127.07 177.12 125.45 175.39 125.45 172.63C125.45 169.87 127.07 168.15 129.31 168.15ZM107.39 177L102.05 177L102.05 168.27L107.32 168.27L107.32 169.21L103.11 169.21L103.11 172.16L107.05 172.16L107.05 173.09L103.11 173.09L103.11 176.06L107.39 176.06L107.39 177ZM114.96 173.96L114.96 168.27L116.01 168.27L116.01 174.05C116.01 175.84 114.68 177.15 112.62 177.15C110.57 177.15 109.23 175.84 109.23 174.05L109.23 168.27L110.28 168.27L110.28 173.96C110.28 175.24 111.16 176.16 112.62 176.16C114.08 176.16 114.96 175.24 114.96 173.96ZM119.18 177L118.13 177L118.13 168.27L121.07 168.27C123.12 168.27 124.04 169.4 124.04 170.95C124.04 172.1 123.52 173.01 122.41 173.39L124.38 177L123.15 177L121.31 173.58C121.24 173.59 121.17 173.59 121.09 173.59L119.18 173.59L119.18 177ZM129.31 176.13C130.89 176.13 132.14 174.9 132.14 172.63C132.14 170.37 130.89 169.14 129.31 169.14C127.72 169.14 126.48 170.37 126.48 172.63C126.48 174.9 127.72 176.13 129.31 176.13ZM119.18 169.21L119.18 172.63L121.06 172.63C122.46 172.63 123 171.99 123 170.95C123 169.9 122.46 169.21 121.04 169.21L119.18 169.21Z" fill="#000000" fill-opacity="1.000000" fill-rule="evenodd"/>
	<path id="%" d="M223.06 186.68C221.4 186.68 220.5 185.48 220.5 184.05L220.5 183.36C220.5 181.93 221.43 180.72 223.06 180.72C224.72 180.72 225.59 181.93 225.59 183.36L225.59 184.05C225.59 185.48 224.7 186.68 223.06 186.68ZM222.45 194L220.99 194L229.99 180.9L231.45 180.9L222.45 194ZM223.06 181.83C222.16 181.83 221.81 182.57 221.81 183.36L221.81 184.05C221.81 184.84 222.14 185.58 223.06 185.58C223.96 185.58 224.29 184.84 224.29 184.05L224.29 183.36C224.29 182.57 223.98 181.83 223.06 181.83ZM229.58 194.18C227.92 194.18 227.02 192.97 227.02 191.54L227.02 190.85C227.02 189.42 227.94 188.22 229.58 188.22C231.24 188.22 232.11 189.42 232.11 190.85L232.11 191.54C232.11 192.97 231.22 194.18 229.58 194.18ZM229.58 189.32C228.69 189.32 228.33 190.06 228.33 190.85L228.33 191.54C228.33 192.33 228.66 193.08 229.58 193.08C230.47 193.08 230.81 192.33 230.81 191.54L230.81 190.85C230.81 190.06 230.5 189.32 229.58 189.32Z" fill="#000000" fill-opacity="1.000000" fill-rule="evenodd"/>
	<path id="FINCOF" d="M191.85 349.36C193.17 349.36 194.24 350.15 194.49 351.5L193.7 351.5C193.5 350.59 192.72 350.1 191.85 350.1C190.67 350.1 189.73 351.02 189.73 352.72C189.73 354.42 190.67 355.34 191.85 355.34C192.72 355.34 193.5 354.86 193.7 353.95L194.49 353.95C194.24 355.29 193.17 356.09 191.85 356.09C190.18 356.09 188.96 354.79 188.96 352.72C188.96 350.65 190.18 349.36 191.85 349.36ZM198.4 349.36C200.07 349.36 201.29 350.65 201.29 352.72C201.29 354.79 200.07 356.09 198.4 356.09C196.73 356.09 195.51 354.79 195.51 352.72C195.51 350.65 196.73 349.36 198.4 349.36ZM175.58 356L174.79 356L174.79 349.45L178.71 349.45L178.71 350.15L175.58 350.15L175.58 352.37L178.42 352.37L178.42 353.07L175.58 353.07L175.58 356ZM180.07 349.45L180.86 349.45L180.86 356L180.07 356L180.07 349.45ZM186.86 349.45L187.64 349.45L187.64 356L186.87 356L183.3 350.86L183.24 350.86L183.24 356L182.45 356L182.45 349.45L183.21 349.45L186.79 354.6L186.86 354.6L186.86 349.45ZM203.41 356L202.62 356L202.62 349.45L206.54 349.45L206.54 350.15L203.41 350.15L203.41 352.37L206.25 352.37L206.25 353.07L203.41 353.07L203.41 356ZM198.4 355.34C199.59 355.34 200.52 354.42 200.52 352.72C200.52 351.02 199.59 350.1 198.4 350.1C197.21 350.1 196.28 351.02 196.28 352.72C196.28 354.42 197.21 355.34 198.4 355.34Z" fill="#000000" fill-opacity="1.000000" fill-rule="evenodd"/>
	<path id="USD" d="M157.75 186.45L156.72 186.45C156.62 185.59 155.82 185.09 154.76 185.09C153.6 185.09 152.84 185.7 152.84 186.54C152.84 187.47 153.88 187.81 154.52 187.98L155.41 188.22C156.31 188.46 157.87 188.99 157.87 190.63C157.87 192.04 156.72 193.15 154.71 193.15C152.84 193.15 151.68 192.18 151.58 190.75L152.67 190.75C152.75 191.73 153.67 192.2 154.71 192.2C155.92 192.2 156.84 191.56 156.84 190.61C156.84 189.74 156.02 189.42 155.1 189.16L154.03 188.85C152.67 188.46 151.81 187.76 151.81 186.59C151.81 185.12 153.13 184.15 154.8 184.15C156.48 184.15 157.7 185.13 157.75 186.45ZM148.78 189.96L148.78 184.27L149.84 184.27L149.84 190.05C149.84 191.84 148.5 193.15 146.45 193.15C144.39 193.15 143.05 191.84 143.05 190.05L143.05 184.27L144.11 184.27L144.11 189.96C144.11 191.24 144.99 192.16 146.45 192.16C147.9 192.16 148.78 191.24 148.78 189.96ZM166.46 188.62C166.46 191.34 164.96 193 162.3 193L159.6 193L159.6 184.27L162.42 184.27C164.96 184.27 166.46 185.91 166.46 188.62ZM160.66 185.21L160.66 192.06L162.23 192.06C164.39 192.06 165.43 190.75 165.43 188.62C165.43 186.5 164.39 185.21 162.35 185.21L160.66 185.21Z" fill="#000000" fill-opacity="1.000000" fill-rule="evenodd"/>
	<path id="+/-" d="M192.49 163.29L193.87 163.29L189.65 178.96L188.27 178.96L192.49 163.29ZM182.64 176.1L181.21 176.1L181.21 172.6L177.71 172.6L177.71 171.16L181.21 171.16L181.21 167.66L182.64 167.66L182.64 171.16L186.15 171.16L186.15 172.6L182.64 172.6L182.64 176.1ZM195.56 170.68L201.28 170.68L201.28 172.09L195.56 172.09L195.56 170.68Z" fill="#000000" fill-opacity="1.000000" fill-rule="evenodd"/>
	<path id="?" d="M262.88 173.31L261.34 173.31L261.34 173.24C261.37 170.8 262.11 170.06 263.37 169.3C264.11 168.84 264.69 168.12 264.69 167.1C264.69 165.85 263.72 165.06 262.52 165.06C261.47 165.06 260.42 165.67 260.32 167.18L258.71 167.18C258.81 165 260.45 163.72 262.52 163.72C264.77 163.72 266.23 165.18 266.23 167.18C266.23 168.59 265.56 169.57 264.44 170.26C263.31 170.96 262.9 171.65 262.88 173.24L262.88 173.31ZM263.31 175.95C263.31 176.58 262.79 177.1 262.16 177.1C261.53 177.1 261.01 176.58 261.01 175.95C261.01 175.31 261.53 174.8 262.16 174.8C262.79 174.8 263.31 175.31 263.31 175.95Z" fill="#000000" fill-opacity="1.000000" fill-rule="evenodd"/>
</svg>