<svg width="59.000000" height="59.000000" viewBox="0 0 59 59" fill="none" xmlns="http://www.w3.org/2000/svg" xmlns:xlink="http://www.w3.org/1999/xlink">
	<desc>
			Created with Pixso.
	</desc>
	<defs>
		<clipPath id="clip41_5">
			<rect id="svg-gobbler 3" width="59.000000" height="59.000000" fill="white" fill-opacity="0"/>
		</clipPath>
	</defs>
	<rect id="svg-gobbler 3" width="59.000000" height="59.000000" fill="#FFFFFF" fill-opacity="0"/>
	<g clip-path="url(#clip41_5)">
		<circle id="Ellipse 803" cx="29.500000" cy="29.500000" r="8.500000" fill="#38BFF2" fill-opacity="1.000000"/>
		<circle id="Ellipse 804" cx="41.500000" cy="5.500000" r="4.500000" fill="#38BFF2" fill-opacity="1.000000"/>
		<circle id="Ellipse 805" cx="5.500000" cy="17.500000" r="4.500000" fill="#38BFF2" fill-opacity="1.000000"/>
		<circle id="Ellipse 806" cx="17.500000" cy="53.500000" r="4.500000" fill="#38BFF2" fill-opacity="1.000000"/>
		<circle id="Ellipse 807" cx="53.500000" cy="41.500000" r="4.500000" fill="#38BFF2" fill-opacity="1.000000"/>
		<path id="Vector" d="M20.73 27.15C19.43 31.98 22.31 36.97 27.15 38.27C27.93 38.47 28.72 38.57 29.49 38.57C33.5 38.57 37.18 35.9 38.27 31.84C38.89 29.5 38.57 27.06 37.36 24.96C36.14 22.86 34.19 21.35 31.84 20.73C29.5 20.1 27.06 20.42 24.96 21.63C22.86 22.85 21.35 24.8 20.73 27.15ZM29.5 22.01C30.14 22.01 30.79 22.09 31.43 22.27L31.43 22.27C33.36 22.78 34.98 24.02 35.98 25.75C36.98 27.48 37.24 29.5 36.72 31.43C35.66 35.42 31.54 37.79 27.56 36.72C23.57 35.66 21.2 31.54 22.27 27.56C23.16 24.22 26.19 22.01 29.5 22.01ZM13.72 25.95C13.74 25.95 13.76 25.95 13.78 25.95C14.2 25.95 14.55 25.63 14.58 25.21C15.58 11.23 26.06 5.25 36.27 5.4C36.31 6.22 36.54 7.02 36.96 7.75C37.65 8.95 38.76 9.8 40.1 10.16C40.54 10.28 40.99 10.34 41.44 10.34C42.34 10.34 43.22 10.1 44.02 9.64C44.94 9.11 45.66 8.32 46.1 7.38C49.83 8.82 53.3 10.96 56.44 13.78C56.59 13.92 56.78 13.99 56.97 13.99C57.19 13.99 57.41 13.9 57.57 13.72C57.86 13.4 57.84 12.89 57.51 12.6C54.19 9.62 50.51 7.35 46.56 5.85C46.89 3.31 45.31 0.85 42.77 0.17C40.02 -0.56 37.19 1.07 36.45 3.81C23.51 3.52 13.91 12.18 12.98 25.09C12.95 25.53 13.28 25.91 13.72 25.95ZM37.98 4.24C38.41 2.64 39.86 1.59 41.44 1.59C41.74 1.59 42.05 1.63 42.36 1.71C44.27 2.22 45.4 4.19 44.89 6.09C44.38 8 42.41 9.13 40.51 8.62C38.61 8.11 37.47 6.15 37.98 4.24ZM3.81 22.54C3.52 35.47 12.18 45.08 25.09 46.01C25.11 46.01 25.13 46.01 25.15 46.01C25.57 46.01 25.92 45.69 25.95 45.27C25.98 44.83 25.65 44.45 25.21 44.41C11.22 43.41 5.24 32.92 5.4 22.71C6.22 22.68 7.02 22.45 7.75 22.03C8.95 21.34 9.8 20.23 10.16 18.89C10.52 17.56 10.33 16.17 9.64 14.97C9.11 14.05 8.32 13.33 7.38 12.88C8.82 9.16 10.96 5.69 13.78 2.55C14.08 2.22 14.05 1.72 13.72 1.42C13.39 1.13 12.89 1.16 12.6 1.48C9.62 4.8 7.35 8.48 5.85 12.43C3.31 12.1 0.85 13.68 0.17 16.22C-0.56 18.96 1.07 21.8 3.81 22.54ZM1.71 16.63C2.14 15.03 3.59 13.98 5.17 13.98C5.47 13.98 5.78 14.02 6.09 14.1C8 14.61 9.13 16.58 8.62 18.48C8.11 20.39 6.14 21.52 4.24 21.01C2.34 20.5 1.2 18.53 1.71 16.63ZM45.27 33.04C44.82 33.01 44.45 33.34 44.41 33.78C43.41 47.77 32.93 53.75 22.72 53.59C22.68 52.77 22.45 51.97 22.03 51.24C21.34 50.04 20.23 49.19 18.89 48.83C17.56 48.47 16.17 48.66 14.97 49.35C14.05 49.88 13.33 50.67 12.89 51.61C9.16 50.17 5.69 48.03 2.55 45.21C2.22 44.91 1.72 44.94 1.42 45.27C1.13 45.59 1.16 46.1 1.48 46.39C4.8 49.37 8.48 51.64 12.43 53.14C12.1 55.68 13.68 58.14 16.22 58.82C16.66 58.94 17.11 59 17.55 59C19.83 59 21.92 57.48 22.54 55.18C22.75 55.18 22.96 55.19 23.17 55.19C35.78 55.19 45.1 46.6 46.01 33.9C46.04 33.46 45.71 33.08 45.27 33.04ZM21.01 54.75C20.5 56.65 18.53 57.79 16.63 57.28C14.73 56.77 13.59 54.8 14.1 52.9C14.53 51.3 15.98 50.25 17.56 50.25C17.86 50.25 18.17 50.29 18.48 50.37C20.38 50.88 21.52 52.85 21.01 54.75ZM55.18 36.45C55.47 23.52 46.81 13.91 33.9 12.98C33.46 12.95 33.08 13.28 33.04 13.72C33.01 14.16 33.34 14.54 33.78 14.58C47.76 15.58 53.75 26.06 53.59 36.27C52.77 36.31 51.97 36.54 51.24 36.96C50.04 37.65 49.19 38.76 48.83 40.1C48.47 41.43 48.66 42.82 49.35 44.02C49.88 44.94 50.67 45.66 51.61 46.11C50.17 49.83 48.03 53.31 45.21 56.44C44.91 56.77 44.94 57.27 45.27 57.57C45.42 57.7 45.61 57.77 45.8 57.77C46.02 57.77 46.23 57.68 46.39 57.51C49.37 54.19 51.63 50.51 53.14 46.56C53.37 46.59 53.6 46.61 53.82 46.61C56.11 46.61 58.2 45.08 58.82 42.77C59.55 40.03 57.92 37.19 55.18 36.45ZM57.28 42.36C56.77 44.27 54.8 45.4 52.9 44.89C50.99 44.38 49.86 42.41 50.37 40.51C50.8 38.91 52.25 37.86 53.83 37.86C54.13 37.86 54.44 37.9 54.75 37.98C56.65 38.49 57.79 40.46 57.28 42.36Z" fill="#1A2E35" fill-opacity="1.000000" fill-rule="nonzero"/>
	</g>
</svg>